<?xml version="1.0" encoding="utf-8" standalone="no"?>
<!DOCTYPE svg PUBLIC "-//W3C//DTD SVG 1.1//EN"
  "http://www.w3.org/Graphics/SVG/1.1/DTD/svg11.dtd">
<svg height="720pt" version="1.1" viewBox="0 0 720 720" width="720pt" xmlns="http://www.w3.org/2000/svg" xmlns:xlink="http://www.w3.org/1999/xlink">
 <metadata>
  <rdf:RDF xmlns:cc="http://creativecommons.org/ns#" xmlns:dc="http://purl.org/dc/elements/1.1/" xmlns:rdf="http://www.w3.org/1999/02/22-rdf-syntax-ns#">
   <cc:Work>
    <dc:type rdf:resource="http://purl.org/dc/dcmitype/StillImage"/>
    <dc:date>2022-04-28T15:36:23.559722</dc:date>
    <dc:format>image/svg+xml</dc:format>
    <dc:creator>
     <cc:Agent>
      <dc:title>Matplotlib v3.4.3, https://matplotlib.org/</dc:title>
     </cc:Agent>
    </dc:creator>
   </cc:Work>
  </rdf:RDF>
 </metadata>
 <defs>
  <style type="text/css">*{stroke-linecap:butt;stroke-linejoin:round;}</style>
 </defs>
 <g id="figure_1">
  <g id="patch_1">
   <path d="M 0 720 
L 720 720 
L 720 0 
L 0 0 
z
" style="fill:#ffffff;"/>
  </g>
  <g id="axes_1">
   <g id="patch_2">
    <path d="M 90 630 
L 648 630 
L 648 86.4 
L 90 86.4 
z
" style="fill:#ffffff;"/>
   </g>
   <g id="QuadMesh_1">
    <path clip-path="url(#p6a879a17bb)" d="M 97.2 630 
L 151.56 630 
L 151.56 575.64 
L 97.2 575.64 
L 97.2 630 
" style="stroke:#ffffff;stroke-width:0.1;"/>
    <path clip-path="url(#p6a879a17bb)" d="M 151.56 630 
L 205.92 630 
L 205.92 575.64 
L 151.56 575.64 
L 151.56 630 
" style="stroke:#ffffff;stroke-width:0.1;"/>
    <path clip-path="url(#p6a879a17bb)" d="M 205.92 630 
L 260.28 630 
L 260.28 575.64 
L 205.92 575.64 
L 205.92 630 
" style="stroke:#ffffff;stroke-width:0.1;"/>
    <path clip-path="url(#p6a879a17bb)" d="M 260.28 630 
L 314.64 630 
L 314.64 575.64 
L 260.28 575.64 
L 260.28 630 
" style="stroke:#ffffff;stroke-width:0.1;"/>
    <path clip-path="url(#p6a879a17bb)" d="M 314.64 630 
L 369 630 
L 369 575.64 
L 314.64 575.64 
L 314.64 630 
" style="stroke:#ffffff;stroke-width:0.1;"/>
    <path clip-path="url(#p6a879a17bb)" d="M 369 630 
L 423.36 630 
L 423.36 575.64 
L 369 575.64 
L 369 630 
" style="stroke:#ffffff;stroke-width:0.1;"/>
    <path clip-path="url(#p6a879a17bb)" d="M 423.36 630 
L 477.72 630 
L 477.72 575.64 
L 423.36 575.64 
L 423.36 630 
" style="stroke:#ffffff;stroke-width:0.1;"/>
    <path clip-path="url(#p6a879a17bb)" d="M 477.72 630 
L 532.08 630 
L 532.08 575.64 
L 477.72 575.64 
L 477.72 630 
" style="stroke:#ffffff;stroke-width:0.1;"/>
    <path clip-path="url(#p6a879a17bb)" d="M 532.08 630 
L 586.44 630 
L 586.44 575.64 
L 532.08 575.64 
L 532.08 630 
" style="stroke:#ffffff;stroke-width:0.1;"/>
    <path clip-path="url(#p6a879a17bb)" d="M 586.44 630 
L 640.8 630 
L 640.8 575.64 
L 586.44 575.64 
L 586.44 630 
" style="stroke:#ffffff;stroke-width:0.1;"/>
    <path clip-path="url(#p6a879a17bb)" d="M 97.2 575.64 
L 151.56 575.64 
L 151.56 521.28 
L 97.2 521.28 
L 97.2 575.64 
" style="fill:#6d6d6d;stroke:#ffffff;stroke-width:0.1;"/>
    <path clip-path="url(#p6a879a17bb)" d="M 151.56 575.64 
L 205.92 575.64 
L 205.92 521.28 
L 151.56 521.28 
L 151.56 575.64 
" style="fill:#2d2d2d;stroke:#ffffff;stroke-width:0.1;"/>
    <path clip-path="url(#p6a879a17bb)" d="M 205.92 575.64 
L 260.28 575.64 
L 260.28 521.28 
L 205.92 521.28 
L 205.92 575.64 
" style="fill:#1c1c1c;stroke:#ffffff;stroke-width:0.1;"/>
    <path clip-path="url(#p6a879a17bb)" d="M 260.28 575.64 
L 314.64 575.64 
L 314.64 521.28 
L 260.28 521.28 
L 260.28 575.64 
" style="fill:#141414;stroke:#ffffff;stroke-width:0.1;"/>
    <path clip-path="url(#p6a879a17bb)" d="M 314.64 575.64 
L 369 575.64 
L 369 521.28 
L 314.64 521.28 
L 314.64 575.64 
" style="fill:#101010;stroke:#ffffff;stroke-width:0.1;"/>
    <path clip-path="url(#p6a879a17bb)" d="M 369 575.64 
L 423.36 575.64 
L 423.36 521.28 
L 369 521.28 
L 369 575.64 
" style="fill:#0d0d0d;stroke:#ffffff;stroke-width:0.1;"/>
    <path clip-path="url(#p6a879a17bb)" d="M 423.36 575.64 
L 477.72 575.64 
L 477.72 521.28 
L 423.36 521.28 
L 423.36 575.64 
" style="fill:#0b0b0b;stroke:#ffffff;stroke-width:0.1;"/>
    <path clip-path="url(#p6a879a17bb)" d="M 477.72 575.64 
L 532.08 575.64 
L 532.08 521.28 
L 477.72 521.28 
L 477.72 575.64 
" style="fill:#090909;stroke:#ffffff;stroke-width:0.1;"/>
    <path clip-path="url(#p6a879a17bb)" d="M 532.08 575.64 
L 586.44 575.64 
L 586.44 521.28 
L 532.08 521.28 
L 532.08 575.64 
" style="fill:#080808;stroke:#ffffff;stroke-width:0.1;"/>
    <path clip-path="url(#p6a879a17bb)" d="M 586.44 575.64 
L 640.8 575.64 
L 640.8 521.28 
L 586.44 521.28 
L 586.44 575.64 
" style="fill:#070707;stroke:#ffffff;stroke-width:0.1;"/>
    <path clip-path="url(#p6a879a17bb)" d="M 97.2 521.28 
L 151.56 521.28 
L 151.56 466.92 
L 97.2 466.92 
L 97.2 521.28 
" style="fill:#a1a1a1;stroke:#ffffff;stroke-width:0.1;"/>
    <path clip-path="url(#p6a879a17bb)" d="M 151.56 521.28 
L 205.92 521.28 
L 205.92 466.92 
L 151.56 466.92 
L 151.56 521.28 
" style="fill:#4e4e4e;stroke:#ffffff;stroke-width:0.1;"/>
    <path clip-path="url(#p6a879a17bb)" d="M 205.92 521.28 
L 260.28 521.28 
L 260.28 466.92 
L 205.92 466.92 
L 205.92 521.28 
" style="fill:#343434;stroke:#ffffff;stroke-width:0.1;"/>
    <path clip-path="url(#p6a879a17bb)" d="M 260.28 521.28 
L 314.64 521.28 
L 314.64 466.92 
L 260.28 466.92 
L 260.28 521.28 
" style="fill:#262626;stroke:#ffffff;stroke-width:0.1;"/>
    <path clip-path="url(#p6a879a17bb)" d="M 314.64 521.28 
L 369 521.28 
L 369 466.92 
L 314.64 466.92 
L 314.64 521.28 
" style="fill:#1f1f1f;stroke:#ffffff;stroke-width:0.1;"/>
    <path clip-path="url(#p6a879a17bb)" d="M 369 521.28 
L 423.36 521.28 
L 423.36 466.92 
L 369 466.92 
L 369 521.28 
" style="fill:#191919;stroke:#ffffff;stroke-width:0.1;"/>
    <path clip-path="url(#p6a879a17bb)" d="M 423.36 521.28 
L 477.72 521.28 
L 477.72 466.92 
L 423.36 466.92 
L 423.36 521.28 
" style="fill:#161616;stroke:#ffffff;stroke-width:0.1;"/>
    <path clip-path="url(#p6a879a17bb)" d="M 477.72 521.28 
L 532.08 521.28 
L 532.08 466.92 
L 477.72 466.92 
L 477.72 521.28 
" style="fill:#131313;stroke:#ffffff;stroke-width:0.1;"/>
    <path clip-path="url(#p6a879a17bb)" d="M 532.08 521.28 
L 586.44 521.28 
L 586.44 466.92 
L 532.08 466.92 
L 532.08 521.28 
" style="fill:#111111;stroke:#ffffff;stroke-width:0.1;"/>
    <path clip-path="url(#p6a879a17bb)" d="M 586.44 521.28 
L 640.8 521.28 
L 640.8 466.92 
L 586.44 466.92 
L 586.44 521.28 
" style="fill:#0f0f0f;stroke:#ffffff;stroke-width:0.1;"/>
    <path clip-path="url(#p6a879a17bb)" d="M 97.2 466.92 
L 151.56 466.92 
L 151.56 412.56 
L 97.2 412.56 
L 97.2 466.92 
" style="fill:#bfbfbf;stroke:#ffffff;stroke-width:0.1;"/>
    <path clip-path="url(#p6a879a17bb)" d="M 151.56 466.92 
L 205.92 466.92 
L 205.92 412.56 
L 151.56 412.56 
L 151.56 466.92 
" style="fill:#686868;stroke:#ffffff;stroke-width:0.1;"/>
    <path clip-path="url(#p6a879a17bb)" d="M 205.92 466.92 
L 260.28 466.92 
L 260.28 412.56 
L 205.92 412.56 
L 205.92 466.92 
" style="fill:#484848;stroke:#ffffff;stroke-width:0.1;"/>
    <path clip-path="url(#p6a879a17bb)" d="M 260.28 466.92 
L 314.64 466.92 
L 314.64 412.56 
L 260.28 412.56 
L 260.28 466.92 
" style="fill:#363636;stroke:#ffffff;stroke-width:0.1;"/>
    <path clip-path="url(#p6a879a17bb)" d="M 314.64 466.92 
L 369 466.92 
L 369 412.56 
L 314.64 412.56 
L 314.64 466.92 
" style="fill:#2c2c2c;stroke:#ffffff;stroke-width:0.1;"/>
    <path clip-path="url(#p6a879a17bb)" d="M 369 466.92 
L 423.36 466.92 
L 423.36 412.56 
L 369 412.56 
L 369 466.92 
" style="fill:#252525;stroke:#ffffff;stroke-width:0.1;"/>
    <path clip-path="url(#p6a879a17bb)" d="M 423.36 466.92 
L 477.72 466.92 
L 477.72 412.56 
L 423.36 412.56 
L 423.36 466.92 
" style="fill:#202020;stroke:#ffffff;stroke-width:0.1;"/>
    <path clip-path="url(#p6a879a17bb)" d="M 477.72 466.92 
L 532.08 466.92 
L 532.08 412.56 
L 477.72 412.56 
L 477.72 466.92 
" style="fill:#1c1c1c;stroke:#ffffff;stroke-width:0.1;"/>
    <path clip-path="url(#p6a879a17bb)" d="M 532.08 466.92 
L 586.44 466.92 
L 586.44 412.56 
L 532.08 412.56 
L 532.08 466.92 
" style="fill:#191919;stroke:#ffffff;stroke-width:0.1;"/>
    <path clip-path="url(#p6a879a17bb)" d="M 586.44 466.92 
L 640.8 466.92 
L 640.8 412.56 
L 586.44 412.56 
L 586.44 466.92 
" style="fill:#161616;stroke:#ffffff;stroke-width:0.1;"/>
    <path clip-path="url(#p6a879a17bb)" d="M 97.2 412.56 
L 151.56 412.56 
L 151.56 358.2 
L 97.2 358.2 
L 97.2 412.56 
" style="fill:#d3d3d3;stroke:#ffffff;stroke-width:0.1;"/>
    <path clip-path="url(#p6a879a17bb)" d="M 151.56 412.56 
L 205.92 412.56 
L 205.92 358.2 
L 151.56 358.2 
L 151.56 412.56 
" style="fill:#7d7d7d;stroke:#ffffff;stroke-width:0.1;"/>
    <path clip-path="url(#p6a879a17bb)" d="M 205.92 412.56 
L 260.28 412.56 
L 260.28 358.2 
L 205.92 358.2 
L 205.92 412.56 
" style="fill:#595959;stroke:#ffffff;stroke-width:0.1;"/>
    <path clip-path="url(#p6a879a17bb)" d="M 260.28 412.56 
L 314.64 412.56 
L 314.64 358.2 
L 260.28 358.2 
L 260.28 412.56 
" style="fill:#454545;stroke:#ffffff;stroke-width:0.1;"/>
    <path clip-path="url(#p6a879a17bb)" d="M 314.64 412.56 
L 369 412.56 
L 369 358.2 
L 314.64 358.2 
L 314.64 412.56 
" style="fill:#383838;stroke:#ffffff;stroke-width:0.1;"/>
    <path clip-path="url(#p6a879a17bb)" d="M 369 412.56 
L 423.36 412.56 
L 423.36 358.2 
L 369 358.2 
L 369 412.56 
" style="fill:#2f2f2f;stroke:#ffffff;stroke-width:0.1;"/>
    <path clip-path="url(#p6a879a17bb)" d="M 423.36 412.56 
L 477.72 412.56 
L 477.72 358.2 
L 423.36 358.2 
L 423.36 412.56 
" style="fill:#292929;stroke:#ffffff;stroke-width:0.1;"/>
    <path clip-path="url(#p6a879a17bb)" d="M 477.72 412.56 
L 532.08 412.56 
L 532.08 358.2 
L 477.72 358.2 
L 477.72 412.56 
" style="fill:#242424;stroke:#ffffff;stroke-width:0.1;"/>
    <path clip-path="url(#p6a879a17bb)" d="M 532.08 412.56 
L 586.44 412.56 
L 586.44 358.2 
L 532.08 358.2 
L 532.08 412.56 
" style="fill:#202020;stroke:#ffffff;stroke-width:0.1;"/>
    <path clip-path="url(#p6a879a17bb)" d="M 586.44 412.56 
L 640.8 412.56 
L 640.8 358.2 
L 586.44 358.2 
L 586.44 412.56 
" style="fill:#1d1d1d;stroke:#ffffff;stroke-width:0.1;"/>
    <path clip-path="url(#p6a879a17bb)" d="M 97.2 358.2 
L 151.56 358.2 
L 151.56 303.84 
L 97.2 303.84 
L 97.2 358.2 
" style="fill:#e1e1e1;stroke:#ffffff;stroke-width:0.1;"/>
    <path clip-path="url(#p6a879a17bb)" d="M 151.56 358.2 
L 205.92 358.2 
L 205.92 303.84 
L 151.56 303.84 
L 151.56 358.2 
" style="fill:#8e8e8e;stroke:#ffffff;stroke-width:0.1;"/>
    <path clip-path="url(#p6a879a17bb)" d="M 205.92 358.2 
L 260.28 358.2 
L 260.28 303.84 
L 205.92 303.84 
L 205.92 358.2 
" style="fill:#676767;stroke:#ffffff;stroke-width:0.1;"/>
    <path clip-path="url(#p6a879a17bb)" d="M 260.28 358.2 
L 314.64 358.2 
L 314.64 303.84 
L 260.28 303.84 
L 260.28 358.2 
" style="fill:#515151;stroke:#ffffff;stroke-width:0.1;"/>
    <path clip-path="url(#p6a879a17bb)" d="M 314.64 358.2 
L 369 358.2 
L 369 303.84 
L 314.64 303.84 
L 314.64 358.2 
" style="fill:#434343;stroke:#ffffff;stroke-width:0.1;"/>
    <path clip-path="url(#p6a879a17bb)" d="M 369 358.2 
L 423.36 358.2 
L 423.36 303.84 
L 369 303.84 
L 369 358.2 
" style="fill:#393939;stroke:#ffffff;stroke-width:0.1;"/>
    <path clip-path="url(#p6a879a17bb)" d="M 423.36 358.2 
L 477.72 358.2 
L 477.72 303.84 
L 423.36 303.84 
L 423.36 358.2 
" style="fill:#313131;stroke:#ffffff;stroke-width:0.1;"/>
    <path clip-path="url(#p6a879a17bb)" d="M 477.72 358.2 
L 532.08 358.2 
L 532.08 303.84 
L 477.72 303.84 
L 477.72 358.2 
" style="fill:#2c2c2c;stroke:#ffffff;stroke-width:0.1;"/>
    <path clip-path="url(#p6a879a17bb)" d="M 532.08 358.2 
L 586.44 358.2 
L 586.44 303.84 
L 532.08 303.84 
L 532.08 358.2 
" style="fill:#272727;stroke:#ffffff;stroke-width:0.1;"/>
    <path clip-path="url(#p6a879a17bb)" d="M 586.44 358.2 
L 640.8 358.2 
L 640.8 303.84 
L 586.44 303.84 
L 586.44 358.2 
" style="fill:#232323;stroke:#ffffff;stroke-width:0.1;"/>
    <path clip-path="url(#p6a879a17bb)" d="M 97.2 303.84 
L 151.56 303.84 
L 151.56 249.48 
L 97.2 249.48 
L 97.2 303.84 
" style="fill:#ececec;stroke:#ffffff;stroke-width:0.1;"/>
    <path clip-path="url(#p6a879a17bb)" d="M 151.56 303.84 
L 205.92 303.84 
L 205.92 249.48 
L 151.56 249.48 
L 151.56 303.84 
" style="fill:#9c9c9c;stroke:#ffffff;stroke-width:0.1;"/>
    <path clip-path="url(#p6a879a17bb)" d="M 205.92 303.84 
L 260.28 303.84 
L 260.28 249.48 
L 205.92 249.48 
L 205.92 303.84 
" style="fill:#747474;stroke:#ffffff;stroke-width:0.1;"/>
    <path clip-path="url(#p6a879a17bb)" d="M 260.28 303.84 
L 314.64 303.84 
L 314.64 249.48 
L 260.28 249.48 
L 260.28 303.84 
" style="fill:#5d5d5d;stroke:#ffffff;stroke-width:0.1;"/>
    <path clip-path="url(#p6a879a17bb)" d="M 314.64 303.84 
L 369 303.84 
L 369 249.48 
L 314.64 249.48 
L 314.64 303.84 
" style="fill:#4d4d4d;stroke:#ffffff;stroke-width:0.1;"/>
    <path clip-path="url(#p6a879a17bb)" d="M 369 303.84 
L 423.36 303.84 
L 423.36 249.48 
L 369 249.48 
L 369 303.84 
" style="fill:#424242;stroke:#ffffff;stroke-width:0.1;"/>
    <path clip-path="url(#p6a879a17bb)" d="M 423.36 303.84 
L 477.72 303.84 
L 477.72 249.48 
L 423.36 249.48 
L 423.36 303.84 
" style="fill:#393939;stroke:#ffffff;stroke-width:0.1;"/>
    <path clip-path="url(#p6a879a17bb)" d="M 477.72 303.84 
L 532.08 303.84 
L 532.08 249.48 
L 477.72 249.48 
L 477.72 303.84 
" style="fill:#333333;stroke:#ffffff;stroke-width:0.1;"/>
    <path clip-path="url(#p6a879a17bb)" d="M 532.08 303.84 
L 586.44 303.84 
L 586.44 249.48 
L 532.08 249.48 
L 532.08 303.84 
" style="fill:#2e2e2e;stroke:#ffffff;stroke-width:0.1;"/>
    <path clip-path="url(#p6a879a17bb)" d="M 586.44 303.84 
L 640.8 303.84 
L 640.8 249.48 
L 586.44 249.48 
L 586.44 303.84 
" style="fill:#2a2a2a;stroke:#ffffff;stroke-width:0.1;"/>
    <path clip-path="url(#p6a879a17bb)" d="M 97.2 249.48 
L 151.56 249.48 
L 151.56 195.12 
L 97.2 195.12 
L 97.2 249.48 
" style="fill:#f4f4f4;stroke:#ffffff;stroke-width:0.1;"/>
    <path clip-path="url(#p6a879a17bb)" d="M 151.56 249.48 
L 205.92 249.48 
L 205.92 195.12 
L 151.56 195.12 
L 151.56 249.48 
" style="fill:#a8a8a8;stroke:#ffffff;stroke-width:0.1;"/>
    <path clip-path="url(#p6a879a17bb)" d="M 205.92 249.48 
L 260.28 249.48 
L 260.28 195.12 
L 205.92 195.12 
L 205.92 249.48 
" style="fill:#808080;stroke:#ffffff;stroke-width:0.1;"/>
    <path clip-path="url(#p6a879a17bb)" d="M 260.28 249.48 
L 314.64 249.48 
L 314.64 195.12 
L 260.28 195.12 
L 260.28 249.48 
" style="fill:#676767;stroke:#ffffff;stroke-width:0.1;"/>
    <path clip-path="url(#p6a879a17bb)" d="M 314.64 249.48 
L 369 249.48 
L 369 195.12 
L 314.64 195.12 
L 314.64 249.48 
" style="fill:#565656;stroke:#ffffff;stroke-width:0.1;"/>
    <path clip-path="url(#p6a879a17bb)" d="M 369 249.48 
L 423.36 249.48 
L 423.36 195.12 
L 369 195.12 
L 369 249.48 
" style="fill:#4a4a4a;stroke:#ffffff;stroke-width:0.1;"/>
    <path clip-path="url(#p6a879a17bb)" d="M 423.36 249.48 
L 477.72 249.48 
L 477.72 195.12 
L 423.36 195.12 
L 423.36 249.48 
" style="fill:#414141;stroke:#ffffff;stroke-width:0.1;"/>
    <path clip-path="url(#p6a879a17bb)" d="M 477.72 249.48 
L 532.08 249.48 
L 532.08 195.12 
L 477.72 195.12 
L 477.72 249.48 
" style="fill:#3a3a3a;stroke:#ffffff;stroke-width:0.1;"/>
    <path clip-path="url(#p6a879a17bb)" d="M 532.08 249.48 
L 586.44 249.48 
L 586.44 195.12 
L 532.08 195.12 
L 532.08 249.48 
" style="fill:#343434;stroke:#ffffff;stroke-width:0.1;"/>
    <path clip-path="url(#p6a879a17bb)" d="M 586.44 249.48 
L 640.8 249.48 
L 640.8 195.12 
L 586.44 195.12 
L 586.44 249.48 
" style="fill:#303030;stroke:#ffffff;stroke-width:0.1;"/>
    <path clip-path="url(#p6a879a17bb)" d="M 97.2 195.12 
L 151.56 195.12 
L 151.56 140.76 
L 97.2 140.76 
L 97.2 195.12 
" style="fill:#fafafa;stroke:#ffffff;stroke-width:0.1;"/>
    <path clip-path="url(#p6a879a17bb)" d="M 151.56 195.12 
L 205.92 195.12 
L 205.92 140.76 
L 151.56 140.76 
L 151.56 195.12 
" style="fill:#b2b2b2;stroke:#ffffff;stroke-width:0.1;"/>
    <path clip-path="url(#p6a879a17bb)" d="M 205.92 195.12 
L 260.28 195.12 
L 260.28 140.76 
L 205.92 140.76 
L 205.92 195.12 
" style="fill:#8a8a8a;stroke:#ffffff;stroke-width:0.1;"/>
    <path clip-path="url(#p6a879a17bb)" d="M 260.28 195.12 
L 314.64 195.12 
L 314.64 140.76 
L 260.28 140.76 
L 260.28 195.12 
" style="fill:#707070;stroke:#ffffff;stroke-width:0.1;"/>
    <path clip-path="url(#p6a879a17bb)" d="M 314.64 195.12 
L 369 195.12 
L 369 140.76 
L 314.64 140.76 
L 314.64 195.12 
" style="fill:#5f5f5f;stroke:#ffffff;stroke-width:0.1;"/>
    <path clip-path="url(#p6a879a17bb)" d="M 369 195.12 
L 423.36 195.12 
L 423.36 140.76 
L 369 140.76 
L 369 195.12 
" style="fill:#525252;stroke:#ffffff;stroke-width:0.1;"/>
    <path clip-path="url(#p6a879a17bb)" d="M 423.36 195.12 
L 477.72 195.12 
L 477.72 140.76 
L 423.36 140.76 
L 423.36 195.12 
" style="fill:#484848;stroke:#ffffff;stroke-width:0.1;"/>
    <path clip-path="url(#p6a879a17bb)" d="M 477.72 195.12 
L 532.08 195.12 
L 532.08 140.76 
L 477.72 140.76 
L 477.72 195.12 
" style="fill:#414141;stroke:#ffffff;stroke-width:0.1;"/>
    <path clip-path="url(#p6a879a17bb)" d="M 532.08 195.12 
L 586.44 195.12 
L 586.44 140.76 
L 532.08 140.76 
L 532.08 195.12 
" style="fill:#3a3a3a;stroke:#ffffff;stroke-width:0.1;"/>
    <path clip-path="url(#p6a879a17bb)" d="M 586.44 195.12 
L 640.8 195.12 
L 640.8 140.76 
L 586.44 140.76 
L 586.44 195.12 
" style="fill:#353535;stroke:#ffffff;stroke-width:0.1;"/>
    <path clip-path="url(#p6a879a17bb)" d="M 97.2 140.76 
L 151.56 140.76 
L 151.56 86.4 
L 97.2 86.4 
L 97.2 140.76 
" style="fill:#ffffff;stroke:#ffffff;stroke-width:0.1;"/>
    <path clip-path="url(#p6a879a17bb)" d="M 151.56 140.76 
L 205.92 140.76 
L 205.92 86.4 
L 151.56 86.4 
L 151.56 140.76 
" style="fill:#bababa;stroke:#ffffff;stroke-width:0.1;"/>
    <path clip-path="url(#p6a879a17bb)" d="M 205.92 140.76 
L 260.28 140.76 
L 260.28 86.4 
L 205.92 86.4 
L 205.92 140.76 
" style="fill:#939393;stroke:#ffffff;stroke-width:0.1;"/>
    <path clip-path="url(#p6a879a17bb)" d="M 260.28 140.76 
L 314.64 140.76 
L 314.64 86.4 
L 260.28 86.4 
L 260.28 140.76 
" style="fill:#797979;stroke:#ffffff;stroke-width:0.1;"/>
    <path clip-path="url(#p6a879a17bb)" d="M 314.64 140.76 
L 369 140.76 
L 369 86.4 
L 314.64 86.4 
L 314.64 140.76 
" style="fill:#676767;stroke:#ffffff;stroke-width:0.1;"/>
    <path clip-path="url(#p6a879a17bb)" d="M 369 140.76 
L 423.36 140.76 
L 423.36 86.4 
L 369 86.4 
L 369 140.76 
" style="fill:#595959;stroke:#ffffff;stroke-width:0.1;"/>
    <path clip-path="url(#p6a879a17bb)" d="M 423.36 140.76 
L 477.72 140.76 
L 477.72 86.4 
L 423.36 86.4 
L 423.36 140.76 
" style="fill:#4f4f4f;stroke:#ffffff;stroke-width:0.1;"/>
    <path clip-path="url(#p6a879a17bb)" d="M 477.72 140.76 
L 532.08 140.76 
L 532.08 86.4 
L 477.72 86.4 
L 477.72 140.76 
" style="fill:#474747;stroke:#ffffff;stroke-width:0.1;"/>
    <path clip-path="url(#p6a879a17bb)" d="M 532.08 140.76 
L 586.44 140.76 
L 586.44 86.4 
L 532.08 86.4 
L 532.08 140.76 
" style="fill:#404040;stroke:#ffffff;stroke-width:0.1;"/>
    <path clip-path="url(#p6a879a17bb)" d="M 586.44 140.76 
L 640.8 140.76 
L 640.8 86.4 
L 586.44 86.4 
L 586.44 140.76 
" style="fill:#3b3b3b;stroke:#ffffff;stroke-width:0.1;"/>
   </g>
   <g id="matplotlib.axis_1">
    <g id="xtick_1">
     <g id="line2d_1">
      <defs>
       <path d="M 0 0 
L 0 3.5 
" id="m16f9bc3e7e" style="stroke:#000000;stroke-width:0.8;"/>
      </defs>
      <g>
       <use style="stroke:#000000;stroke-width:0.8;" x="97.2" xlink:href="#m16f9bc3e7e" y="630"/>
      </g>
     </g>
     <g id="text_1">
      <!-- 0 -->
      <g transform="translate(94.01875 644.598438)scale(0.1 -0.1)">
       <defs>
        <path d="M 2034 4250 
Q 1547 4250 1301 3770 
Q 1056 3291 1056 2328 
Q 1056 1369 1301 889 
Q 1547 409 2034 409 
Q 2525 409 2770 889 
Q 3016 1369 3016 2328 
Q 3016 3291 2770 3770 
Q 2525 4250 2034 4250 
z
M 2034 4750 
Q 2819 4750 3233 4129 
Q 3647 3509 3647 2328 
Q 3647 1150 3233 529 
Q 2819 -91 2034 -91 
Q 1250 -91 836 529 
Q 422 1150 422 2328 
Q 422 3509 836 4129 
Q 1250 4750 2034 4750 
z
" id="DejaVuSans-30" transform="scale(0.015625)"/>
       </defs>
       <use xlink:href="#DejaVuSans-30"/>
      </g>
     </g>
    </g>
    <g id="xtick_2">
     <g id="line2d_2">
      <g>
       <use style="stroke:#000000;stroke-width:0.8;" x="369" xlink:href="#m16f9bc3e7e" y="630"/>
      </g>
     </g>
     <g id="text_2">
      <!-- 0.5 -->
      <g transform="translate(361.048438 644.598438)scale(0.1 -0.1)">
       <defs>
        <path d="M 684 794 
L 1344 794 
L 1344 0 
L 684 0 
L 684 794 
z
" id="DejaVuSans-2e" transform="scale(0.015625)"/>
        <path d="M 691 4666 
L 3169 4666 
L 3169 4134 
L 1269 4134 
L 1269 2991 
Q 1406 3038 1543 3061 
Q 1681 3084 1819 3084 
Q 2600 3084 3056 2656 
Q 3513 2228 3513 1497 
Q 3513 744 3044 326 
Q 2575 -91 1722 -91 
Q 1428 -91 1123 -41 
Q 819 9 494 109 
L 494 744 
Q 775 591 1075 516 
Q 1375 441 1709 441 
Q 2250 441 2565 725 
Q 2881 1009 2881 1497 
Q 2881 1984 2565 2268 
Q 2250 2553 1709 2553 
Q 1456 2553 1204 2497 
Q 953 2441 691 2322 
L 691 4666 
z
" id="DejaVuSans-35" transform="scale(0.015625)"/>
       </defs>
       <use xlink:href="#DejaVuSans-30"/>
       <use x="63.623047" xlink:href="#DejaVuSans-2e"/>
       <use x="95.410156" xlink:href="#DejaVuSans-35"/>
      </g>
     </g>
    </g>
    <g id="xtick_3">
     <g id="line2d_3">
      <g>
       <use style="stroke:#000000;stroke-width:0.8;" x="640.8" xlink:href="#m16f9bc3e7e" y="630"/>
      </g>
     </g>
     <g id="text_3">
      <!-- 1 -->
      <g transform="translate(637.61875 644.598438)scale(0.1 -0.1)">
       <defs>
        <path d="M 794 531 
L 1825 531 
L 1825 4091 
L 703 3866 
L 703 4441 
L 1819 4666 
L 2450 4666 
L 2450 531 
L 3481 531 
L 3481 0 
L 794 0 
L 794 531 
z
" id="DejaVuSans-31" transform="scale(0.015625)"/>
       </defs>
       <use xlink:href="#DejaVuSans-31"/>
      </g>
     </g>
    </g>
    <g id="xtick_4">
     <g id="line2d_4">
      <defs>
       <path d="M 0 0 
L 0 2 
" id="m322eae1329" style="stroke:#000000;stroke-width:0.6;"/>
      </defs>
      <g>
       <use style="stroke:#000000;stroke-width:0.6;" x="151.56" xlink:href="#m322eae1329" y="630"/>
      </g>
     </g>
    </g>
    <g id="xtick_5">
     <g id="line2d_5">
      <g>
       <use style="stroke:#000000;stroke-width:0.6;" x="205.92" xlink:href="#m322eae1329" y="630"/>
      </g>
     </g>
    </g>
    <g id="xtick_6">
     <g id="line2d_6">
      <g>
       <use style="stroke:#000000;stroke-width:0.6;" x="260.28" xlink:href="#m322eae1329" y="630"/>
      </g>
     </g>
    </g>
    <g id="xtick_7">
     <g id="line2d_7">
      <g>
       <use style="stroke:#000000;stroke-width:0.6;" x="314.64" xlink:href="#m322eae1329" y="630"/>
      </g>
     </g>
    </g>
    <g id="xtick_8">
     <g id="line2d_8">
      <g>
       <use style="stroke:#000000;stroke-width:0.6;" x="423.36" xlink:href="#m322eae1329" y="630"/>
      </g>
     </g>
    </g>
    <g id="xtick_9">
     <g id="line2d_9">
      <g>
       <use style="stroke:#000000;stroke-width:0.6;" x="477.72" xlink:href="#m322eae1329" y="630"/>
      </g>
     </g>
    </g>
    <g id="xtick_10">
     <g id="line2d_10">
      <g>
       <use style="stroke:#000000;stroke-width:0.6;" x="532.08" xlink:href="#m322eae1329" y="630"/>
      </g>
     </g>
    </g>
    <g id="xtick_11">
     <g id="line2d_11">
      <g>
       <use style="stroke:#000000;stroke-width:0.6;" x="586.44" xlink:href="#m322eae1329" y="630"/>
      </g>
     </g>
    </g>
   </g>
   <g id="matplotlib.axis_2">
    <g id="ytick_1">
     <g id="line2d_12">
      <defs>
       <path d="M 0 0 
L -3.5 0 
" id="ma8ef155b7c" style="stroke:#000000;stroke-width:0.8;"/>
      </defs>
      <g>
       <use style="stroke:#000000;stroke-width:0.8;" x="90" xlink:href="#ma8ef155b7c" y="630"/>
      </g>
     </g>
     <g id="text_4">
      <!-- 0 -->
      <g transform="translate(76.6375 632.759375)scale(0.1 -0.1)">
       <use xlink:href="#DejaVuSans-30"/>
      </g>
     </g>
    </g>
    <g id="ytick_2">
     <g id="line2d_13">
      <g>
       <use style="stroke:#000000;stroke-width:0.8;" x="90" xlink:href="#ma8ef155b7c" y="358.2"/>
      </g>
     </g>
     <g id="text_5">
      <!-- 0.5 -->
      <g transform="translate(67.096875 360.959375)scale(0.1 -0.1)">
       <use xlink:href="#DejaVuSans-30"/>
       <use x="63.623047" xlink:href="#DejaVuSans-2e"/>
       <use x="95.410156" xlink:href="#DejaVuSans-35"/>
      </g>
     </g>
    </g>
    <g id="ytick_3">
     <g id="line2d_14">
      <g>
       <use style="stroke:#000000;stroke-width:0.8;" x="90" xlink:href="#ma8ef155b7c" y="86.4"/>
      </g>
     </g>
     <g id="text_6">
      <!-- 1 -->
      <g transform="translate(76.6375 89.159375)scale(0.1 -0.1)">
       <use xlink:href="#DejaVuSans-31"/>
      </g>
     </g>
    </g>
    <g id="ytick_4">
     <g id="line2d_15">
      <defs>
       <path d="M 0 0 
L -2 0 
" id="m59bb98c650" style="stroke:#000000;stroke-width:0.6;"/>
      </defs>
      <g>
       <use style="stroke:#000000;stroke-width:0.6;" x="90" xlink:href="#m59bb98c650" y="575.64"/>
      </g>
     </g>
    </g>
    <g id="ytick_5">
     <g id="line2d_16">
      <g>
       <use style="stroke:#000000;stroke-width:0.6;" x="90" xlink:href="#m59bb98c650" y="521.28"/>
      </g>
     </g>
    </g>
    <g id="ytick_6">
     <g id="line2d_17">
      <g>
       <use style="stroke:#000000;stroke-width:0.6;" x="90" xlink:href="#m59bb98c650" y="466.92"/>
      </g>
     </g>
    </g>
    <g id="ytick_7">
     <g id="line2d_18">
      <g>
       <use style="stroke:#000000;stroke-width:0.6;" x="90" xlink:href="#m59bb98c650" y="412.56"/>
      </g>
     </g>
    </g>
    <g id="ytick_8">
     <g id="line2d_19">
      <g>
       <use style="stroke:#000000;stroke-width:0.6;" x="90" xlink:href="#m59bb98c650" y="303.84"/>
      </g>
     </g>
    </g>
    <g id="ytick_9">
     <g id="line2d_20">
      <g>
       <use style="stroke:#000000;stroke-width:0.6;" x="90" xlink:href="#m59bb98c650" y="249.48"/>
      </g>
     </g>
    </g>
    <g id="ytick_10">
     <g id="line2d_21">
      <g>
       <use style="stroke:#000000;stroke-width:0.6;" x="90" xlink:href="#m59bb98c650" y="195.12"/>
      </g>
     </g>
    </g>
    <g id="ytick_11">
     <g id="line2d_22">
      <g>
       <use style="stroke:#000000;stroke-width:0.6;" x="90" xlink:href="#m59bb98c650" y="140.76"/>
      </g>
     </g>
    </g>
   </g>
   <g id="patch_3">
    <path d="M 90 630 
L 90 86.4 
" style="fill:none;stroke:#000000;stroke-linecap:square;stroke-linejoin:miter;stroke-width:0.8;"/>
   </g>
   <g id="patch_4">
    <path d="M 648 630 
L 648 86.4 
" style="fill:none;stroke:#000000;stroke-linecap:square;stroke-linejoin:miter;stroke-width:0.8;"/>
   </g>
   <g id="patch_5">
    <path d="M 90 630 
L 648 630 
" style="fill:none;stroke:#000000;stroke-linecap:square;stroke-linejoin:miter;stroke-width:0.8;"/>
   </g>
   <g id="patch_6">
    <path d="M 90 86.4 
L 648 86.4 
" style="fill:none;stroke:#000000;stroke-linecap:square;stroke-linejoin:miter;stroke-width:0.8;"/>
   </g>
  </g>
 </g>
 <defs>
  <clipPath id="p6a879a17bb">
   <rect height="543.6" width="558" x="90" y="86.4"/>
  </clipPath>
 </defs>
</svg>
