<?xml version="1.0" encoding="utf-8" standalone="no"?>
<!DOCTYPE svg PUBLIC "-//W3C//DTD SVG 1.1//EN"
  "http://www.w3.org/Graphics/SVG/1.1/DTD/svg11.dtd">
<svg height="216pt" version="1.1" viewBox="0 0 216 216" width="216pt" xmlns="http://www.w3.org/2000/svg" xmlns:xlink="http://www.w3.org/1999/xlink">
 <metadata>
  <rdf:RDF xmlns:cc="http://creativecommons.org/ns#" xmlns:dc="http://purl.org/dc/elements/1.1/" xmlns:rdf="http://www.w3.org/1999/02/22-rdf-syntax-ns#">
   <cc:Work>
    <dc:type rdf:resource="http://purl.org/dc/dcmitype/StillImage"/>
    <dc:date>2022-05-06T13:57:27.343336</dc:date>
    <dc:format>image/svg+xml</dc:format>
    <dc:creator>
     <cc:Agent>
      <dc:title>Matplotlib v3.4.3, https://matplotlib.org/</dc:title>
     </cc:Agent>
    </dc:creator>
   </cc:Work>
  </rdf:RDF>
 </metadata>
 <defs>
  <style type="text/css">*{stroke-linecap:butt;stroke-linejoin:round;}</style>
 </defs>
 <g id="figure_1">
  <g id="patch_1">
   <path d="M 0 216 
L 216 216 
L 216 0 
L 0 0 
z
" style="fill:#ffffff;"/>
  </g>
  <g id="axes_1">
   <g id="patch_2">
    <path d="M 27 189 
L 194.4 189 
L 194.4 25.92 
L 27 25.92 
z
" style="fill:#ffffff;"/>
   </g>
   <g id="matplotlib.axis_1">
    <g id="xtick_1">
     <g id="line2d_1">
      <defs>
       <path d="M 0 0 
L 0 3.5 
" id="m4bc3d75caa" style="stroke:#000000;stroke-width:0.8;"/>
      </defs>
      <g>
       <use style="stroke:#000000;stroke-width:0.8;" x="27" xlink:href="#m4bc3d75caa" y="189"/>
      </g>
     </g>
     <g id="text_1">
      <!-- 0 -->
      <g transform="translate(23.81875 203.598437)scale(0.1 -0.1)">
       <defs>
        <path d="M 2034 4250 
Q 1547 4250 1301 3770 
Q 1056 3291 1056 2328 
Q 1056 1369 1301 889 
Q 1547 409 2034 409 
Q 2525 409 2770 889 
Q 3016 1369 3016 2328 
Q 3016 3291 2770 3770 
Q 2525 4250 2034 4250 
z
M 2034 4750 
Q 2819 4750 3233 4129 
Q 3647 3509 3647 2328 
Q 3647 1150 3233 529 
Q 2819 -91 2034 -91 
Q 1250 -91 836 529 
Q 422 1150 422 2328 
Q 422 3509 836 4129 
Q 1250 4750 2034 4750 
z
" id="DejaVuSans-30" transform="scale(0.015625)"/>
       </defs>
       <use xlink:href="#DejaVuSans-30"/>
      </g>
     </g>
    </g>
    <g id="xtick_2">
     <g id="line2d_2">
      <g>
       <use style="stroke:#000000;stroke-width:0.8;" x="60.48" xlink:href="#m4bc3d75caa" y="189"/>
      </g>
     </g>
     <g id="text_2">
      <!-- 200 -->
      <g transform="translate(50.93625 203.598437)scale(0.1 -0.1)">
       <defs>
        <path d="M 1228 531 
L 3431 531 
L 3431 0 
L 469 0 
L 469 531 
Q 828 903 1448 1529 
Q 2069 2156 2228 2338 
Q 2531 2678 2651 2914 
Q 2772 3150 2772 3378 
Q 2772 3750 2511 3984 
Q 2250 4219 1831 4219 
Q 1534 4219 1204 4116 
Q 875 4013 500 3803 
L 500 4441 
Q 881 4594 1212 4672 
Q 1544 4750 1819 4750 
Q 2544 4750 2975 4387 
Q 3406 4025 3406 3419 
Q 3406 3131 3298 2873 
Q 3191 2616 2906 2266 
Q 2828 2175 2409 1742 
Q 1991 1309 1228 531 
z
" id="DejaVuSans-32" transform="scale(0.015625)"/>
       </defs>
       <use xlink:href="#DejaVuSans-32"/>
       <use x="63.623047" xlink:href="#DejaVuSans-30"/>
       <use x="127.246094" xlink:href="#DejaVuSans-30"/>
      </g>
     </g>
    </g>
    <g id="xtick_3">
     <g id="line2d_3">
      <g>
       <use style="stroke:#000000;stroke-width:0.8;" x="93.96" xlink:href="#m4bc3d75caa" y="189"/>
      </g>
     </g>
     <g id="text_3">
      <!-- 400 -->
      <g transform="translate(84.41625 203.598437)scale(0.1 -0.1)">
       <defs>
        <path d="M 2419 4116 
L 825 1625 
L 2419 1625 
L 2419 4116 
z
M 2253 4666 
L 3047 4666 
L 3047 1625 
L 3713 1625 
L 3713 1100 
L 3047 1100 
L 3047 0 
L 2419 0 
L 2419 1100 
L 313 1100 
L 313 1709 
L 2253 4666 
z
" id="DejaVuSans-34" transform="scale(0.015625)"/>
       </defs>
       <use xlink:href="#DejaVuSans-34"/>
       <use x="63.623047" xlink:href="#DejaVuSans-30"/>
       <use x="127.246094" xlink:href="#DejaVuSans-30"/>
      </g>
     </g>
    </g>
    <g id="xtick_4">
     <g id="line2d_4">
      <g>
       <use style="stroke:#000000;stroke-width:0.8;" x="127.44" xlink:href="#m4bc3d75caa" y="189"/>
      </g>
     </g>
     <g id="text_4">
      <!-- 600 -->
      <g transform="translate(117.89625 203.598437)scale(0.1 -0.1)">
       <defs>
        <path d="M 2113 2584 
Q 1688 2584 1439 2293 
Q 1191 2003 1191 1497 
Q 1191 994 1439 701 
Q 1688 409 2113 409 
Q 2538 409 2786 701 
Q 3034 994 3034 1497 
Q 3034 2003 2786 2293 
Q 2538 2584 2113 2584 
z
M 3366 4563 
L 3366 3988 
Q 3128 4100 2886 4159 
Q 2644 4219 2406 4219 
Q 1781 4219 1451 3797 
Q 1122 3375 1075 2522 
Q 1259 2794 1537 2939 
Q 1816 3084 2150 3084 
Q 2853 3084 3261 2657 
Q 3669 2231 3669 1497 
Q 3669 778 3244 343 
Q 2819 -91 2113 -91 
Q 1303 -91 875 529 
Q 447 1150 447 2328 
Q 447 3434 972 4092 
Q 1497 4750 2381 4750 
Q 2619 4750 2861 4703 
Q 3103 4656 3366 4563 
z
" id="DejaVuSans-36" transform="scale(0.015625)"/>
       </defs>
       <use xlink:href="#DejaVuSans-36"/>
       <use x="63.623047" xlink:href="#DejaVuSans-30"/>
       <use x="127.246094" xlink:href="#DejaVuSans-30"/>
      </g>
     </g>
    </g>
    <g id="xtick_5">
     <g id="line2d_5">
      <g>
       <use style="stroke:#000000;stroke-width:0.8;" x="160.92" xlink:href="#m4bc3d75caa" y="189"/>
      </g>
     </g>
     <g id="text_5">
      <!-- 800 -->
      <g transform="translate(151.37625 203.598437)scale(0.1 -0.1)">
       <defs>
        <path d="M 2034 2216 
Q 1584 2216 1326 1975 
Q 1069 1734 1069 1313 
Q 1069 891 1326 650 
Q 1584 409 2034 409 
Q 2484 409 2743 651 
Q 3003 894 3003 1313 
Q 3003 1734 2745 1975 
Q 2488 2216 2034 2216 
z
M 1403 2484 
Q 997 2584 770 2862 
Q 544 3141 544 3541 
Q 544 4100 942 4425 
Q 1341 4750 2034 4750 
Q 2731 4750 3128 4425 
Q 3525 4100 3525 3541 
Q 3525 3141 3298 2862 
Q 3072 2584 2669 2484 
Q 3125 2378 3379 2068 
Q 3634 1759 3634 1313 
Q 3634 634 3220 271 
Q 2806 -91 2034 -91 
Q 1263 -91 848 271 
Q 434 634 434 1313 
Q 434 1759 690 2068 
Q 947 2378 1403 2484 
z
M 1172 3481 
Q 1172 3119 1398 2916 
Q 1625 2713 2034 2713 
Q 2441 2713 2670 2916 
Q 2900 3119 2900 3481 
Q 2900 3844 2670 4047 
Q 2441 4250 2034 4250 
Q 1625 4250 1398 4047 
Q 1172 3844 1172 3481 
z
" id="DejaVuSans-38" transform="scale(0.015625)"/>
       </defs>
       <use xlink:href="#DejaVuSans-38"/>
       <use x="63.623047" xlink:href="#DejaVuSans-30"/>
       <use x="127.246094" xlink:href="#DejaVuSans-30"/>
      </g>
     </g>
    </g>
    <g id="xtick_6">
     <g id="line2d_6">
      <g>
       <use style="stroke:#000000;stroke-width:0.8;" x="194.4" xlink:href="#m4bc3d75caa" y="189"/>
      </g>
     </g>
     <g id="text_6">
      <!-- 1000 -->
      <g transform="translate(181.675 203.598437)scale(0.1 -0.1)">
       <defs>
        <path d="M 794 531 
L 1825 531 
L 1825 4091 
L 703 3866 
L 703 4441 
L 1819 4666 
L 2450 4666 
L 2450 531 
L 3481 531 
L 3481 0 
L 794 0 
L 794 531 
z
" id="DejaVuSans-31" transform="scale(0.015625)"/>
       </defs>
       <use xlink:href="#DejaVuSans-31"/>
       <use x="63.623047" xlink:href="#DejaVuSans-30"/>
       <use x="127.246094" xlink:href="#DejaVuSans-30"/>
       <use x="190.869141" xlink:href="#DejaVuSans-30"/>
      </g>
     </g>
    </g>
    <g id="text_7">
     <!-- Epoch -->
     <g transform="translate(95.389062 217.276563)scale(0.1 -0.1)">
      <defs>
       <path d="M 628 4666 
L 3578 4666 
L 3578 4134 
L 1259 4134 
L 1259 2753 
L 3481 2753 
L 3481 2222 
L 1259 2222 
L 1259 531 
L 3634 531 
L 3634 0 
L 628 0 
L 628 4666 
z
" id="DejaVuSans-45" transform="scale(0.015625)"/>
       <path d="M 1159 525 
L 1159 -1331 
L 581 -1331 
L 581 3500 
L 1159 3500 
L 1159 2969 
Q 1341 3281 1617 3432 
Q 1894 3584 2278 3584 
Q 2916 3584 3314 3078 
Q 3713 2572 3713 1747 
Q 3713 922 3314 415 
Q 2916 -91 2278 -91 
Q 1894 -91 1617 61 
Q 1341 213 1159 525 
z
M 3116 1747 
Q 3116 2381 2855 2742 
Q 2594 3103 2138 3103 
Q 1681 3103 1420 2742 
Q 1159 2381 1159 1747 
Q 1159 1113 1420 752 
Q 1681 391 2138 391 
Q 2594 391 2855 752 
Q 3116 1113 3116 1747 
z
" id="DejaVuSans-70" transform="scale(0.015625)"/>
       <path d="M 1959 3097 
Q 1497 3097 1228 2736 
Q 959 2375 959 1747 
Q 959 1119 1226 758 
Q 1494 397 1959 397 
Q 2419 397 2687 759 
Q 2956 1122 2956 1747 
Q 2956 2369 2687 2733 
Q 2419 3097 1959 3097 
z
M 1959 3584 
Q 2709 3584 3137 3096 
Q 3566 2609 3566 1747 
Q 3566 888 3137 398 
Q 2709 -91 1959 -91 
Q 1206 -91 779 398 
Q 353 888 353 1747 
Q 353 2609 779 3096 
Q 1206 3584 1959 3584 
z
" id="DejaVuSans-6f" transform="scale(0.015625)"/>
       <path d="M 3122 3366 
L 3122 2828 
Q 2878 2963 2633 3030 
Q 2388 3097 2138 3097 
Q 1578 3097 1268 2742 
Q 959 2388 959 1747 
Q 959 1106 1268 751 
Q 1578 397 2138 397 
Q 2388 397 2633 464 
Q 2878 531 3122 666 
L 3122 134 
Q 2881 22 2623 -34 
Q 2366 -91 2075 -91 
Q 1284 -91 818 406 
Q 353 903 353 1747 
Q 353 2603 823 3093 
Q 1294 3584 2113 3584 
Q 2378 3584 2631 3529 
Q 2884 3475 3122 3366 
z
" id="DejaVuSans-63" transform="scale(0.015625)"/>
       <path d="M 3513 2113 
L 3513 0 
L 2938 0 
L 2938 2094 
Q 2938 2591 2744 2837 
Q 2550 3084 2163 3084 
Q 1697 3084 1428 2787 
Q 1159 2491 1159 1978 
L 1159 0 
L 581 0 
L 581 4863 
L 1159 4863 
L 1159 2956 
Q 1366 3272 1645 3428 
Q 1925 3584 2291 3584 
Q 2894 3584 3203 3211 
Q 3513 2838 3513 2113 
z
" id="DejaVuSans-68" transform="scale(0.015625)"/>
      </defs>
      <use xlink:href="#DejaVuSans-45"/>
      <use x="63.183594" xlink:href="#DejaVuSans-70"/>
      <use x="126.660156" xlink:href="#DejaVuSans-6f"/>
      <use x="187.841797" xlink:href="#DejaVuSans-63"/>
      <use x="242.822266" xlink:href="#DejaVuSans-68"/>
     </g>
    </g>
   </g>
   <g id="matplotlib.axis_2">
    <g id="ytick_1">
     <g id="line2d_7">
      <defs>
       <path d="M 0 0 
L -3.5 0 
" id="me9fce6c1b3" style="stroke:#000000;stroke-width:0.8;"/>
      </defs>
      <g>
       <use style="stroke:#000000;stroke-width:0.8;" x="27" xlink:href="#me9fce6c1b3" y="189"/>
      </g>
     </g>
     <g id="text_8">
      <!-- $\mathdefault{10^{-6}}$ -->
      <g transform="translate(-3.5 192.799219)scale(0.1 -0.1)">
       <defs>
        <path d="M 678 2272 
L 4684 2272 
L 4684 1741 
L 678 1741 
L 678 2272 
z
" id="DejaVuSans-2212" transform="scale(0.015625)"/>
       </defs>
       <use transform="translate(0 0.765625)" xlink:href="#DejaVuSans-31"/>
       <use transform="translate(63.623047 0.765625)" xlink:href="#DejaVuSans-30"/>
       <use transform="translate(128.203125 39.046875)scale(0.7)" xlink:href="#DejaVuSans-2212"/>
       <use transform="translate(186.855469 39.046875)scale(0.7)" xlink:href="#DejaVuSans-36"/>
      </g>
     </g>
    </g>
    <g id="ytick_2">
     <g id="line2d_8">
      <g>
       <use style="stroke:#000000;stroke-width:0.8;" x="27" xlink:href="#me9fce6c1b3" y="161.82"/>
      </g>
     </g>
     <g id="text_9">
      <!-- $\mathdefault{10^{-5}}$ -->
      <g transform="translate(-3.5 165.619219)scale(0.1 -0.1)">
       <defs>
        <path d="M 691 4666 
L 3169 4666 
L 3169 4134 
L 1269 4134 
L 1269 2991 
Q 1406 3038 1543 3061 
Q 1681 3084 1819 3084 
Q 2600 3084 3056 2656 
Q 3513 2228 3513 1497 
Q 3513 744 3044 326 
Q 2575 -91 1722 -91 
Q 1428 -91 1123 -41 
Q 819 9 494 109 
L 494 744 
Q 775 591 1075 516 
Q 1375 441 1709 441 
Q 2250 441 2565 725 
Q 2881 1009 2881 1497 
Q 2881 1984 2565 2268 
Q 2250 2553 1709 2553 
Q 1456 2553 1204 2497 
Q 953 2441 691 2322 
L 691 4666 
z
" id="DejaVuSans-35" transform="scale(0.015625)"/>
       </defs>
       <use transform="translate(0 0.684375)" xlink:href="#DejaVuSans-31"/>
       <use transform="translate(63.623047 0.684375)" xlink:href="#DejaVuSans-30"/>
       <use transform="translate(128.203125 38.965625)scale(0.7)" xlink:href="#DejaVuSans-2212"/>
       <use transform="translate(186.855469 38.965625)scale(0.7)" xlink:href="#DejaVuSans-35"/>
      </g>
     </g>
    </g>
    <g id="ytick_3">
     <g id="line2d_9">
      <g>
       <use style="stroke:#000000;stroke-width:0.8;" x="27" xlink:href="#me9fce6c1b3" y="134.64"/>
      </g>
     </g>
     <g id="text_10">
      <!-- $\mathdefault{10^{-4}}$ -->
      <g transform="translate(-3.5 138.439219)scale(0.1 -0.1)">
       <use transform="translate(0 0.684375)" xlink:href="#DejaVuSans-31"/>
       <use transform="translate(63.623047 0.684375)" xlink:href="#DejaVuSans-30"/>
       <use transform="translate(128.203125 38.965625)scale(0.7)" xlink:href="#DejaVuSans-2212"/>
       <use transform="translate(186.855469 38.965625)scale(0.7)" xlink:href="#DejaVuSans-34"/>
      </g>
     </g>
    </g>
    <g id="ytick_4">
     <g id="line2d_10">
      <g>
       <use style="stroke:#000000;stroke-width:0.8;" x="27" xlink:href="#me9fce6c1b3" y="107.46"/>
      </g>
     </g>
     <g id="text_11">
      <!-- $\mathdefault{10^{-3}}$ -->
      <g transform="translate(-3.5 111.259219)scale(0.1 -0.1)">
       <defs>
        <path d="M 2597 2516 
Q 3050 2419 3304 2112 
Q 3559 1806 3559 1356 
Q 3559 666 3084 287 
Q 2609 -91 1734 -91 
Q 1441 -91 1130 -33 
Q 819 25 488 141 
L 488 750 
Q 750 597 1062 519 
Q 1375 441 1716 441 
Q 2309 441 2620 675 
Q 2931 909 2931 1356 
Q 2931 1769 2642 2001 
Q 2353 2234 1838 2234 
L 1294 2234 
L 1294 2753 
L 1863 2753 
Q 2328 2753 2575 2939 
Q 2822 3125 2822 3475 
Q 2822 3834 2567 4026 
Q 2313 4219 1838 4219 
Q 1578 4219 1281 4162 
Q 984 4106 628 3988 
L 628 4550 
Q 988 4650 1302 4700 
Q 1616 4750 1894 4750 
Q 2613 4750 3031 4423 
Q 3450 4097 3450 3541 
Q 3450 3153 3228 2886 
Q 3006 2619 2597 2516 
z
" id="DejaVuSans-33" transform="scale(0.015625)"/>
       </defs>
       <use transform="translate(0 0.765625)" xlink:href="#DejaVuSans-31"/>
       <use transform="translate(63.623047 0.765625)" xlink:href="#DejaVuSans-30"/>
       <use transform="translate(128.203125 39.046875)scale(0.7)" xlink:href="#DejaVuSans-2212"/>
       <use transform="translate(186.855469 39.046875)scale(0.7)" xlink:href="#DejaVuSans-33"/>
      </g>
     </g>
    </g>
    <g id="ytick_5">
     <g id="line2d_11">
      <g>
       <use style="stroke:#000000;stroke-width:0.8;" x="27" xlink:href="#me9fce6c1b3" y="80.28"/>
      </g>
     </g>
     <g id="text_12">
      <!-- $\mathdefault{10^{-2}}$ -->
      <g transform="translate(-3.5 84.079219)scale(0.1 -0.1)">
       <use transform="translate(0 0.765625)" xlink:href="#DejaVuSans-31"/>
       <use transform="translate(63.623047 0.765625)" xlink:href="#DejaVuSans-30"/>
       <use transform="translate(128.203125 39.046875)scale(0.7)" xlink:href="#DejaVuSans-2212"/>
       <use transform="translate(186.855469 39.046875)scale(0.7)" xlink:href="#DejaVuSans-32"/>
      </g>
     </g>
    </g>
    <g id="ytick_6">
     <g id="line2d_12">
      <g>
       <use style="stroke:#000000;stroke-width:0.8;" x="27" xlink:href="#me9fce6c1b3" y="53.1"/>
      </g>
     </g>
     <g id="text_13">
      <!-- $\mathdefault{10^{-1}}$ -->
      <g transform="translate(-3.5 56.899219)scale(0.1 -0.1)">
       <use transform="translate(0 0.684375)" xlink:href="#DejaVuSans-31"/>
       <use transform="translate(63.623047 0.684375)" xlink:href="#DejaVuSans-30"/>
       <use transform="translate(128.203125 38.965625)scale(0.7)" xlink:href="#DejaVuSans-2212"/>
       <use transform="translate(186.855469 38.965625)scale(0.7)" xlink:href="#DejaVuSans-31"/>
      </g>
     </g>
    </g>
    <g id="ytick_7">
     <g id="line2d_13">
      <g>
       <use style="stroke:#000000;stroke-width:0.8;" x="27" xlink:href="#me9fce6c1b3" y="25.92"/>
      </g>
     </g>
     <g id="text_14">
      <!-- $\mathdefault{10^{0}}$ -->
      <g transform="translate(2.4 29.719219)scale(0.1 -0.1)">
       <use transform="translate(0 0.765625)" xlink:href="#DejaVuSans-31"/>
       <use transform="translate(63.623047 0.765625)" xlink:href="#DejaVuSans-30"/>
       <use transform="translate(128.203125 39.046875)scale(0.7)" xlink:href="#DejaVuSans-30"/>
      </g>
     </g>
    </g>
    <g id="ytick_8">
     <g id="line2d_14">
      <defs>
       <path d="M 0 0 
L -2 0 
" id="m7baee730b3" style="stroke:#000000;stroke-width:0.6;"/>
      </defs>
      <g>
       <use style="stroke:#000000;stroke-width:0.6;" x="27" xlink:href="#m7baee730b3" y="180.818005"/>
      </g>
     </g>
    </g>
    <g id="ytick_9">
     <g id="line2d_15">
      <g>
       <use style="stroke:#000000;stroke-width:0.6;" x="27" xlink:href="#m7baee730b3" y="176.031844"/>
      </g>
     </g>
    </g>
    <g id="ytick_10">
     <g id="line2d_16">
      <g>
       <use style="stroke:#000000;stroke-width:0.6;" x="27" xlink:href="#m7baee730b3" y="172.636009"/>
      </g>
     </g>
    </g>
    <g id="ytick_11">
     <g id="line2d_17">
      <g>
       <use style="stroke:#000000;stroke-width:0.6;" x="27" xlink:href="#m7baee730b3" y="170.001995"/>
      </g>
     </g>
    </g>
    <g id="ytick_12">
     <g id="line2d_18">
      <g>
       <use style="stroke:#000000;stroke-width:0.6;" x="27" xlink:href="#m7baee730b3" y="167.849849"/>
      </g>
     </g>
    </g>
    <g id="ytick_13">
     <g id="line2d_19">
      <g>
       <use style="stroke:#000000;stroke-width:0.6;" x="27" xlink:href="#m7baee730b3" y="166.030235"/>
      </g>
     </g>
    </g>
    <g id="ytick_14">
     <g id="line2d_20">
      <g>
       <use style="stroke:#000000;stroke-width:0.6;" x="27" xlink:href="#m7baee730b3" y="164.454014"/>
      </g>
     </g>
    </g>
    <g id="ytick_15">
     <g id="line2d_21">
      <g>
       <use style="stroke:#000000;stroke-width:0.6;" x="27" xlink:href="#m7baee730b3" y="163.063689"/>
      </g>
     </g>
    </g>
    <g id="ytick_16">
     <g id="line2d_22">
      <g>
       <use style="stroke:#000000;stroke-width:0.6;" x="27" xlink:href="#m7baee730b3" y="153.638005"/>
      </g>
     </g>
    </g>
    <g id="ytick_17">
     <g id="line2d_23">
      <g>
       <use style="stroke:#000000;stroke-width:0.6;" x="27" xlink:href="#m7baee730b3" y="148.851844"/>
      </g>
     </g>
    </g>
    <g id="ytick_18">
     <g id="line2d_24">
      <g>
       <use style="stroke:#000000;stroke-width:0.6;" x="27" xlink:href="#m7baee730b3" y="145.456009"/>
      </g>
     </g>
    </g>
    <g id="ytick_19">
     <g id="line2d_25">
      <g>
       <use style="stroke:#000000;stroke-width:0.6;" x="27" xlink:href="#m7baee730b3" y="142.821995"/>
      </g>
     </g>
    </g>
    <g id="ytick_20">
     <g id="line2d_26">
      <g>
       <use style="stroke:#000000;stroke-width:0.6;" x="27" xlink:href="#m7baee730b3" y="140.669849"/>
      </g>
     </g>
    </g>
    <g id="ytick_21">
     <g id="line2d_27">
      <g>
       <use style="stroke:#000000;stroke-width:0.6;" x="27" xlink:href="#m7baee730b3" y="138.850235"/>
      </g>
     </g>
    </g>
    <g id="ytick_22">
     <g id="line2d_28">
      <g>
       <use style="stroke:#000000;stroke-width:0.6;" x="27" xlink:href="#m7baee730b3" y="137.274014"/>
      </g>
     </g>
    </g>
    <g id="ytick_23">
     <g id="line2d_29">
      <g>
       <use style="stroke:#000000;stroke-width:0.6;" x="27" xlink:href="#m7baee730b3" y="135.883689"/>
      </g>
     </g>
    </g>
    <g id="ytick_24">
     <g id="line2d_30">
      <g>
       <use style="stroke:#000000;stroke-width:0.6;" x="27" xlink:href="#m7baee730b3" y="126.458005"/>
      </g>
     </g>
    </g>
    <g id="ytick_25">
     <g id="line2d_31">
      <g>
       <use style="stroke:#000000;stroke-width:0.6;" x="27" xlink:href="#m7baee730b3" y="121.671844"/>
      </g>
     </g>
    </g>
    <g id="ytick_26">
     <g id="line2d_32">
      <g>
       <use style="stroke:#000000;stroke-width:0.6;" x="27" xlink:href="#m7baee730b3" y="118.276009"/>
      </g>
     </g>
    </g>
    <g id="ytick_27">
     <g id="line2d_33">
      <g>
       <use style="stroke:#000000;stroke-width:0.6;" x="27" xlink:href="#m7baee730b3" y="115.641995"/>
      </g>
     </g>
    </g>
    <g id="ytick_28">
     <g id="line2d_34">
      <g>
       <use style="stroke:#000000;stroke-width:0.6;" x="27" xlink:href="#m7baee730b3" y="113.489849"/>
      </g>
     </g>
    </g>
    <g id="ytick_29">
     <g id="line2d_35">
      <g>
       <use style="stroke:#000000;stroke-width:0.6;" x="27" xlink:href="#m7baee730b3" y="111.670235"/>
      </g>
     </g>
    </g>
    <g id="ytick_30">
     <g id="line2d_36">
      <g>
       <use style="stroke:#000000;stroke-width:0.6;" x="27" xlink:href="#m7baee730b3" y="110.094014"/>
      </g>
     </g>
    </g>
    <g id="ytick_31">
     <g id="line2d_37">
      <g>
       <use style="stroke:#000000;stroke-width:0.6;" x="27" xlink:href="#m7baee730b3" y="108.703689"/>
      </g>
     </g>
    </g>
    <g id="ytick_32">
     <g id="line2d_38">
      <g>
       <use style="stroke:#000000;stroke-width:0.6;" x="27" xlink:href="#m7baee730b3" y="99.278005"/>
      </g>
     </g>
    </g>
    <g id="ytick_33">
     <g id="line2d_39">
      <g>
       <use style="stroke:#000000;stroke-width:0.6;" x="27" xlink:href="#m7baee730b3" y="94.491844"/>
      </g>
     </g>
    </g>
    <g id="ytick_34">
     <g id="line2d_40">
      <g>
       <use style="stroke:#000000;stroke-width:0.6;" x="27" xlink:href="#m7baee730b3" y="91.096009"/>
      </g>
     </g>
    </g>
    <g id="ytick_35">
     <g id="line2d_41">
      <g>
       <use style="stroke:#000000;stroke-width:0.6;" x="27" xlink:href="#m7baee730b3" y="88.461995"/>
      </g>
     </g>
    </g>
    <g id="ytick_36">
     <g id="line2d_42">
      <g>
       <use style="stroke:#000000;stroke-width:0.6;" x="27" xlink:href="#m7baee730b3" y="86.309849"/>
      </g>
     </g>
    </g>
    <g id="ytick_37">
     <g id="line2d_43">
      <g>
       <use style="stroke:#000000;stroke-width:0.6;" x="27" xlink:href="#m7baee730b3" y="84.490235"/>
      </g>
     </g>
    </g>
    <g id="ytick_38">
     <g id="line2d_44">
      <g>
       <use style="stroke:#000000;stroke-width:0.6;" x="27" xlink:href="#m7baee730b3" y="82.914014"/>
      </g>
     </g>
    </g>
    <g id="ytick_39">
     <g id="line2d_45">
      <g>
       <use style="stroke:#000000;stroke-width:0.6;" x="27" xlink:href="#m7baee730b3" y="81.523689"/>
      </g>
     </g>
    </g>
    <g id="ytick_40">
     <g id="line2d_46">
      <g>
       <use style="stroke:#000000;stroke-width:0.6;" x="27" xlink:href="#m7baee730b3" y="72.098005"/>
      </g>
     </g>
    </g>
    <g id="ytick_41">
     <g id="line2d_47">
      <g>
       <use style="stroke:#000000;stroke-width:0.6;" x="27" xlink:href="#m7baee730b3" y="67.311844"/>
      </g>
     </g>
    </g>
    <g id="ytick_42">
     <g id="line2d_48">
      <g>
       <use style="stroke:#000000;stroke-width:0.6;" x="27" xlink:href="#m7baee730b3" y="63.916009"/>
      </g>
     </g>
    </g>
    <g id="ytick_43">
     <g id="line2d_49">
      <g>
       <use style="stroke:#000000;stroke-width:0.6;" x="27" xlink:href="#m7baee730b3" y="61.281995"/>
      </g>
     </g>
    </g>
    <g id="ytick_44">
     <g id="line2d_50">
      <g>
       <use style="stroke:#000000;stroke-width:0.6;" x="27" xlink:href="#m7baee730b3" y="59.129849"/>
      </g>
     </g>
    </g>
    <g id="ytick_45">
     <g id="line2d_51">
      <g>
       <use style="stroke:#000000;stroke-width:0.6;" x="27" xlink:href="#m7baee730b3" y="57.310235"/>
      </g>
     </g>
    </g>
    <g id="ytick_46">
     <g id="line2d_52">
      <g>
       <use style="stroke:#000000;stroke-width:0.6;" x="27" xlink:href="#m7baee730b3" y="55.734014"/>
      </g>
     </g>
    </g>
    <g id="ytick_47">
     <g id="line2d_53">
      <g>
       <use style="stroke:#000000;stroke-width:0.6;" x="27" xlink:href="#m7baee730b3" y="54.343689"/>
      </g>
     </g>
    </g>
    <g id="ytick_48">
     <g id="line2d_54">
      <g>
       <use style="stroke:#000000;stroke-width:0.6;" x="27" xlink:href="#m7baee730b3" y="44.918005"/>
      </g>
     </g>
    </g>
    <g id="ytick_49">
     <g id="line2d_55">
      <g>
       <use style="stroke:#000000;stroke-width:0.6;" x="27" xlink:href="#m7baee730b3" y="40.131844"/>
      </g>
     </g>
    </g>
    <g id="ytick_50">
     <g id="line2d_56">
      <g>
       <use style="stroke:#000000;stroke-width:0.6;" x="27" xlink:href="#m7baee730b3" y="36.736009"/>
      </g>
     </g>
    </g>
    <g id="ytick_51">
     <g id="line2d_57">
      <g>
       <use style="stroke:#000000;stroke-width:0.6;" x="27" xlink:href="#m7baee730b3" y="34.101995"/>
      </g>
     </g>
    </g>
    <g id="ytick_52">
     <g id="line2d_58">
      <g>
       <use style="stroke:#000000;stroke-width:0.6;" x="27" xlink:href="#m7baee730b3" y="31.949849"/>
      </g>
     </g>
    </g>
    <g id="ytick_53">
     <g id="line2d_59">
      <g>
       <use style="stroke:#000000;stroke-width:0.6;" x="27" xlink:href="#m7baee730b3" y="30.130235"/>
      </g>
     </g>
    </g>
    <g id="ytick_54">
     <g id="line2d_60">
      <g>
       <use style="stroke:#000000;stroke-width:0.6;" x="27" xlink:href="#m7baee730b3" y="28.554014"/>
      </g>
     </g>
    </g>
    <g id="ytick_55">
     <g id="line2d_61">
      <g>
       <use style="stroke:#000000;stroke-width:0.6;" x="27" xlink:href="#m7baee730b3" y="27.163689"/>
      </g>
     </g>
    </g>
    <g id="text_15">
     <!-- Loss -->
     <g transform="translate(-9.579688 118.427188)rotate(-90)scale(0.1 -0.1)">
      <defs>
       <path d="M 628 4666 
L 1259 4666 
L 1259 531 
L 3531 531 
L 3531 0 
L 628 0 
L 628 4666 
z
" id="DejaVuSans-4c" transform="scale(0.015625)"/>
       <path d="M 2834 3397 
L 2834 2853 
Q 2591 2978 2328 3040 
Q 2066 3103 1784 3103 
Q 1356 3103 1142 2972 
Q 928 2841 928 2578 
Q 928 2378 1081 2264 
Q 1234 2150 1697 2047 
L 1894 2003 
Q 2506 1872 2764 1633 
Q 3022 1394 3022 966 
Q 3022 478 2636 193 
Q 2250 -91 1575 -91 
Q 1294 -91 989 -36 
Q 684 19 347 128 
L 347 722 
Q 666 556 975 473 
Q 1284 391 1588 391 
Q 1994 391 2212 530 
Q 2431 669 2431 922 
Q 2431 1156 2273 1281 
Q 2116 1406 1581 1522 
L 1381 1569 
Q 847 1681 609 1914 
Q 372 2147 372 2553 
Q 372 3047 722 3315 
Q 1072 3584 1716 3584 
Q 2034 3584 2315 3537 
Q 2597 3491 2834 3397 
z
" id="DejaVuSans-73" transform="scale(0.015625)"/>
      </defs>
      <use xlink:href="#DejaVuSans-4c"/>
      <use x="53.962891" xlink:href="#DejaVuSans-6f"/>
      <use x="115.144531" xlink:href="#DejaVuSans-73"/>
      <use x="167.244141" xlink:href="#DejaVuSans-73"/>
     </g>
    </g>
   </g>
   <g id="line2d_62">
    <path clip-path="url(#p53241da281)" d="M 27 33.384353 
L 28.3392 33.578347 
L 29.3436 33.952503 
L 30.1806 34.506044 
L 30.8502 35.186866 
L 31.5198 36.15487 
L 32.1894 37.481127 
L 33.0264 39.669653 
L 35.0352 45.322451 
L 36.0396 47.788417 
L 36.7092 50.258134 
L 38.8854 59.810797 
L 40.8942 66.62609 
L 41.5638 69.403499 
L 43.0704 77.306802 
L 43.4052 78.87981 
L 44.0748 81.033324 
L 44.4096 81.818195 
L 44.577 81.791598 
L 44.7444 82.171534 
L 44.9118 81.668297 
L 45.0792 81.553964 
L 45.5814 80.67372 
L 45.9162 80.918981 
L 46.0836 80.855375 
L 46.251 81.312475 
L 46.4184 80.884933 
L 46.9206 82.058038 
L 47.088 81.787328 
L 47.2554 81.983051 
L 47.5902 80.68409 
L 47.7576 80.657386 
L 47.925 80.290356 
L 48.0924 80.245195 
L 48.2598 79.906749 
L 48.5946 80.190186 
L 48.9294 80.957818 
L 49.2642 81.989512 
L 49.4316 82.134467 
L 49.7664 83.061881 
L 49.9338 84.269526 
L 50.1012 84.418953 
L 50.6034 86.239641 
L 50.9382 86.434664 
L 51.273 87.282609 
L 51.4404 87.567908 
L 51.6078 87.258984 
L 52.11 84.738876 
L 52.2774 84.746081 
L 52.4448 85.492231 
L 52.947 83.786379 
L 53.1144 84.405302 
L 53.2818 84.212277 
L 53.4492 84.463947 
L 53.784 85.902492 
L 53.9514 85.750374 
L 54.1188 85.959417 
L 54.4536 88.769718 
L 54.621 89.538656 
L 54.7884 88.864125 
L 54.9558 88.872137 
L 55.1232 90.713869 
L 55.458 86.390961 
L 55.6254 86.678366 
L 55.7928 85.498635 
L 55.9602 85.248849 
L 56.295 85.372017 
L 56.4624 83.978297 
L 56.6298 84.242251 
L 56.7972 83.575135 
L 57.132 87.367036 
L 57.2994 87.624741 
L 57.4668 89.272657 
L 57.6342 89.415123 
L 57.8016 88.959594 
L 57.969 89.087667 
L 58.1364 90.95476 
L 58.6386 87.770196 
L 58.806 87.462026 
L 59.643 83.571621 
L 59.8104 83.432732 
L 59.9778 83.719168 
L 60.1452 82.432094 
L 60.3126 82.539896 
L 60.48 82.284287 
L 60.6474 82.981735 
L 60.8148 82.716544 
L 60.9822 83.109136 
L 61.1496 84.14311 
L 61.317 84.46822 
L 61.4844 82.60429 
L 61.6518 82.65558 
L 61.9866 85.8431 
L 62.154 85.253266 
L 62.3214 83.809023 
L 62.4888 83.732277 
L 62.6562 84.019669 
L 62.991 83.599561 
L 63.1584 85.336485 
L 63.3258 85.243638 
L 63.4932 84.997718 
L 63.6606 83.693018 
L 63.828 84.173778 
L 63.9954 85.295227 
L 64.1628 85.544516 
L 64.3302 85.267212 
L 64.4976 85.29051 
L 64.665 83.690399 
L 64.8324 83.601513 
L 64.9998 83.960277 
L 65.1672 83.530339 
L 65.6694 83.941342 
L 66.0042 84.034403 
L 66.1716 82.813098 
L 66.339 83.736437 
L 66.5064 83.927954 
L 66.6738 83.522348 
L 66.8412 82.722943 
L 67.176 82.704569 
L 67.3434 81.457169 
L 67.6782 81.693978 
L 68.013 82.704504 
L 68.1804 82.750485 
L 68.3478 82.312955 
L 68.6826 83.283626 
L 68.85 82.988145 
L 69.0174 84.56656 
L 69.1848 83.942256 
L 69.3522 83.760638 
L 69.5196 85.088804 
L 69.687 84.135343 
L 69.8544 84.746087 
L 70.0218 84.808099 
L 70.3566 84.525549 
L 70.524 85.027972 
L 70.6914 85.027535 
L 70.8588 86.182741 
L 71.0262 86.196544 
L 71.1936 86.021427 
L 71.361 87.812839 
L 71.5284 88.17225 
L 71.6958 88.095987 
L 71.8632 88.806915 
L 72.0306 88.440635 
L 72.198 89.006132 
L 72.3654 88.558056 
L 72.7002 89.062681 
L 73.035 87.803342 
L 73.2024 87.710195 
L 73.3698 86.815627 
L 73.5372 87.41548 
L 73.7046 88.474186 
L 73.872 88.112589 
L 74.2068 89.148747 
L 74.5416 89.863179 
L 74.709 90.687386 
L 74.8764 89.37826 
L 75.0438 93.067779 
L 75.2112 93.147433 
L 75.7134 97.161498 
L 76.0482 98.575736 
L 76.2156 98.016231 
L 76.383 99.093378 
L 76.5504 104.109953 
L 76.7178 103.585174 
L 76.8852 106.830381 
L 77.7222 107.148222 
L 77.8896 119.169095 
L 78.057 120.328626 
L 78.2244 116.261175 
L 78.3918 107.476736 
L 78.5592 107.181138 
L 78.7266 105.586392 
L 79.731 105.711038 
L 79.8984 107.350661 
L 80.0658 123.961162 
L 80.2332 125.684549 
L 80.4006 141.103816 
L 80.568 141.739216 
L 80.9028 142.213894 
L 81.405 143.359953 
L 81.5724 131.697251 
L 81.7398 129.151286 
L 82.0746 129.073613 
L 82.242 128.945695 
L 82.4094 129.106249 
L 82.7442 129.00445 
L 83.079 129.21664 
L 83.4138 144.214866 
L 83.5812 144.197509 
L 83.7486 144.954297 
L 83.916 146.338821 
L 84.0834 146.533332 
L 84.4182 147.838777 
L 84.753 143.659893 
L 84.9204 144.327542 
L 85.0878 143.070757 
L 85.4226 143.68269 
L 85.59 143.485273 
L 85.7574 133.132151 
L 85.9248 132.192247 
L 86.0922 132.208653 
L 86.9292 134.108093 
L 87.264 133.661736 
L 87.4314 145.046391 
L 87.5988 147.783326 
L 87.7662 147.721701 
L 87.9336 148.849293 
L 88.2684 141.764902 
L 88.6032 141.86778 
L 88.938 142.892045 
L 89.1054 142.926855 
L 89.4402 144.068001 
L 89.6076 143.938888 
L 89.775 146.873153 
L 89.9424 153.932306 
L 90.1098 153.495851 
L 90.4446 145.025003 
L 90.612 145.011615 
L 90.7794 144.683945 
L 90.9468 144.876943 
L 91.1142 141.412961 
L 91.449 140.122241 
L 91.7838 134.871781 
L 92.1186 136.978614 
L 92.4534 137.301653 
L 92.6208 137.113262 
L 92.9556 138.622298 
L 93.123 138.667886 
L 93.4578 146.269814 
L 93.6252 143.386109 
L 93.7926 131.01982 
L 93.96 129.939611 
L 94.2948 130.104218 
L 94.4622 130.800467 
L 94.6296 130.965783 
L 94.797 131.376218 
L 94.9644 131.350846 
L 95.1318 130.121089 
L 95.2992 105.070239 
L 95.4666 104.775023 
L 95.9688 104.740741 
L 96.6384 104.745271 
L 96.8058 104.916553 
L 97.308 164.59172 
L 97.6428 164.948982 
L 98.145 166.243196 
L 98.3124 166.177317 
L 98.4798 166.293273 
L 98.6472 166.145048 
L 98.982 166.595402 
L 99.1494 166.559853 
L 99.4842 165.76177 
L 99.6516 165.848702 
L 99.9864 166.619994 
L 100.1538 164.892558 
L 100.3212 164.458866 
L 100.8234 164.418852 
L 100.9908 164.658862 
L 101.1582 164.328871 
L 101.6604 161.238083 
L 101.8278 160.885923 
L 102.1626 158.739511 
L 102.33 158.705757 
L 102.4974 158.48385 
L 102.8322 157.112609 
L 102.9996 157.297801 
L 103.167 151.076417 
L 103.3344 122.927258 
L 103.5018 121.584495 
L 103.6692 121.439382 
L 103.8366 110.390513 
L 104.6736 110.415971 
L 104.841 110.581441 
L 105.0084 115.12497 
L 105.1758 115.915012 
L 105.3432 116.042024 
L 105.5106 164.299152 
L 105.678 165.626467 
L 105.8454 165.119346 
L 106.1802 165.624229 
L 106.3476 165.822311 
L 106.6824 165.329398 
L 107.0172 163.461775 
L 107.1846 163.928171 
L 107.352 163.000342 
L 107.5194 163.104785 
L 107.6868 162.074781 
L 107.8542 161.895494 
L 108.189 160.204315 
L 108.5238 160.853665 
L 108.6912 161.665401 
L 109.026 160.268602 
L 109.1934 160.293441 
L 109.3608 160.116233 
L 109.5282 159.355599 
L 109.863 160.161149 
L 110.0304 160.122298 
L 110.3652 155.677843 
L 110.5326 153.715021 
L 110.7 150.422159 
L 110.8674 150.176644 
L 111.2022 150.673566 
L 111.537 142.771161 
L 111.8718 140.455691 
L 112.0392 140.636592 
L 112.2066 141.105035 
L 112.374 142.042978 
L 112.7088 140.057071 
L 112.8762 139.641578 
L 113.3784 146.071123 
L 113.5458 149.85372 
L 113.7132 150.042761 
L 113.8806 149.650968 
L 114.048 150.61389 
L 114.2154 153.327612 
L 114.3828 146.865512 
L 114.5502 123.251095 
L 114.7176 122.861 
L 115.0524 122.913733 
L 115.5546 122.993073 
L 115.8894 123.145101 
L 116.0568 123.98727 
L 116.2242 155.432296 
L 116.3916 163.908605 
L 116.7264 164.230926 
L 117.0612 165.300894 
L 117.396 167.047244 
L 117.5634 167.342975 
L 117.7308 167.320288 
L 117.8982 167.514168 
L 118.0656 167.00236 
L 118.7352 158.03765 
L 119.07 157.612383 
L 119.2374 157.288196 
L 119.5722 157.371557 
L 119.7396 157.375916 
L 119.907 157.636932 
L 120.0744 159.359799 
L 120.2418 162.675587 
L 120.5766 161.17784 
L 120.9114 158.089916 
L 121.2462 157.038613 
L 121.4136 157.234915 
L 121.581 158.617934 
L 121.9158 158.20067 
L 122.2506 147.69423 
L 122.5854 149.023011 
L 122.7528 147.439604 
L 122.9202 143.918331 
L 123.0876 143.876363 
L 123.255 143.716788 
L 123.4224 143.731952 
L 123.5898 143.614576 
L 123.7572 145.895562 
L 123.9246 150.600002 
L 124.092 150.619075 
L 124.2594 150.816656 
L 124.4268 153.098447 
L 124.5942 162.045787 
L 124.929 160.436336 
L 125.0964 159.968789 
L 125.2638 159.963219 
L 125.5986 158.979839 
L 125.766 158.89633 
L 126.1008 158.584614 
L 126.603 160.769915 
L 126.7704 160.798538 
L 126.9378 157.713237 
L 127.1052 158.590208 
L 127.2726 158.849345 
L 127.6074 157.479292 
L 127.7748 157.865482 
L 127.9422 157.091523 
L 128.1096 149.925722 
L 128.277 149.12077 
L 128.4444 149.350875 
L 128.6118 151.140871 
L 128.7792 151.223662 
L 129.114 150.968125 
L 129.6162 152.049686 
L 129.951 165.709624 
L 130.1184 165.816677 
L 130.2858 157.292352 
L 130.6206 154.466305 
L 130.788 155.150291 
L 130.9554 154.415683 
L 131.625 154.196123 
L 131.7924 154.526612 
L 131.9598 159.481434 
L 132.1272 160.926314 
L 132.2946 163.39876 
L 132.462 163.095115 
L 132.6294 165.290692 
L 132.7968 163.313154 
L 132.9642 159.95889 
L 133.1316 159.602404 
L 133.299 159.675966 
L 133.4664 159.110085 
L 133.6338 160.231873 
L 134.136 155.879876 
L 134.4708 154.105297 
L 134.6382 155.998447 
L 135.3078 156.818496 
L 135.6426 159.218125 
L 135.81 158.252228 
L 135.9774 155.163572 
L 136.1448 157.212687 
L 136.3122 157.197863 
L 136.8144 157.624133 
L 136.9818 157.281559 
L 137.1492 157.662561 
L 137.3166 158.704833 
L 137.484 160.854946 
L 137.6514 168.334788 
L 137.8188 167.378502 
L 137.9862 167.667574 
L 138.321 166.491082 
L 138.4884 166.453833 
L 138.6558 166.154996 
L 138.8232 166.126157 
L 138.9906 167.43658 
L 139.158 165.798885 
L 139.3254 165.419764 
L 139.6602 162.12773 
L 139.995 162.535583 
L 140.1624 162.442171 
L 140.3298 162.661404 
L 140.4972 162.655812 
L 140.6646 162.040928 
L 140.832 163.079089 
L 140.9994 162.838628 
L 141.1668 164.689918 
L 141.3342 163.051857 
L 141.5016 162.725384 
L 141.8364 162.9525 
L 142.0038 163.317567 
L 142.1712 162.847106 
L 142.3386 159.4791 
L 142.8408 160.863328 
L 143.0082 163.443339 
L 143.1756 163.217188 
L 143.343 162.659522 
L 143.5104 162.896933 
L 143.6778 162.664294 
L 143.8452 163.16863 
L 144.0126 166.513605 
L 144.3474 166.25384 
L 144.5148 165.540204 
L 144.6822 163.845141 
L 144.8496 164.272392 
L 145.1844 163.612721 
L 145.3518 162.880941 
L 145.5192 162.852903 
L 145.6866 164.429197 
L 145.854 164.496482 
L 146.0214 164.182775 
L 146.3562 162.672873 
L 146.5236 161.779143 
L 146.8584 162.802766 
L 147.0258 163.294574 
L 147.3606 160.022931 
L 147.528 159.172814 
L 147.8628 160.550307 
L 148.1976 164.350673 
L 148.365 164.490464 
L 148.5324 164.37524 
L 148.6998 164.995373 
L 149.202 173.222976 
L 149.3694 172.760402 
L 149.5368 169.38477 
L 149.7042 163.399124 
L 150.039 163.096909 
L 150.5412 163.512463 
L 150.876 163.44298 
L 151.0434 163.528813 
L 151.2108 165.371779 
L 151.3782 172.894388 
L 151.713 173.92621 
L 151.8804 174.069338 
L 152.3826 172.320952 
L 152.55 172.347384 
L 152.7174 172.802928 
L 152.8848 172.148842 
L 153.0522 172.583403 
L 153.2196 172.340322 
L 153.7218 170.860561 
L 153.8892 171.729233 
L 154.0566 171.86175 
L 154.224 171.050945 
L 154.3914 171.147407 
L 154.5588 171.720531 
L 154.8936 170.776063 
L 155.061 170.862882 
L 155.2284 170.714755 
L 155.3958 171.838963 
L 155.5632 171.740717 
L 155.7306 171.351913 
L 155.898 171.933321 
L 156.0654 172.087472 
L 156.4002 173.289095 
L 156.5676 173.262259 
L 156.735 173.46589 
L 156.9024 173.847986 
L 157.0698 173.564716 
L 157.2372 174.052242 
L 157.4046 173.995948 
L 157.572 174.089555 
L 157.9068 172.507062 
L 158.2416 173.541325 
L 158.409 173.488751 
L 158.7438 174.326237 
L 159.0786 174.466538 
L 159.5808 176.377142 
L 159.9156 175.643115 
L 160.083 175.65179 
L 160.2504 175.368863 
L 160.5852 174.498034 
L 160.7526 174.97469 
L 161.0874 174.88749 
L 161.2548 174.305027 
L 161.4222 174.880403 
L 161.5896 174.79485 
L 161.9244 175.448572 
L 162.2592 176.625254 
L 162.594 176.546171 
L 162.9288 177.308515 
L 163.2636 177.042969 
L 163.431 176.419806 
L 163.7658 176.355004 
L 163.9332 176.412887 
L 164.268 176.8102 
L 164.4354 175.886005 
L 164.6028 176.289573 
L 164.7702 176.060262 
L 164.9376 176.459526 
L 165.105 177.477419 
L 165.4398 177.266881 
L 165.7746 177.45699 
L 165.942 177.14541 
L 166.1094 178.252073 
L 166.6116 179.29678 
L 166.779 178.952151 
L 167.1138 179.59374 
L 167.2812 179.484336 
L 167.4486 179.189596 
L 167.616 179.199644 
L 167.7834 179.052384 
L 168.1182 177.980562 
L 168.2856 177.869396 
L 168.453 177.997382 
L 168.7878 177.616967 
L 168.9552 177.647542 
L 169.4574 178.104421 
L 169.7922 179.433827 
L 170.2944 180.206446 
L 170.6292 180.49266 
L 170.964 181.172336 
L 171.9684 180.78505 
L 172.1358 180.833498 
L 172.3032 180.761878 
L 172.4706 180.495825 
L 172.8054 180.6861 
L 172.9728 180.592729 
L 173.3076 181.118288 
L 173.9772 181.140555 
L 174.1446 181.316244 
L 174.4794 181.038362 
L 175.149 181.04499 
L 175.4838 181.092488 
L 175.6512 181.372516 
L 175.8186 181.372748 
L 176.1534 181.738561 
L 176.4882 182.072982 
L 177.9948 182.41055 
L 178.497 182.427864 
L 179.5014 182.733172 
L 179.8362 182.842796 
L 180.0036 182.758693 
L 180.5058 182.804572 
L 181.1754 182.748294 
L 184.1886 183.230851 
L 185.0256 183.219505 
L 186.867 183.270326 
L 188.7084 183.275714 
L 189.7128 183.155728 
L 190.7172 183.379563 
L 191.7216 183.346553 
L 193.7304 183.211776 
L 194.2326 183.24575 
L 194.2326 183.24575 
" style="fill:none;stroke:#1f77b4;stroke-linecap:square;stroke-width:1.5;"/>
   </g>
   <g id="line2d_63">
    <path clip-path="url(#p53241da281)" d="M 27 32.863865 
L 28.3392 33.097891 
L 29.3436 33.554925 
L 30.0132 34.070221 
L 30.6828 34.839958 
L 31.3524 35.958932 
L 32.022 37.539903 
L 32.6916 39.689367 
L 33.696 43.871082 
L 34.7004 47.99266 
L 35.37 49.817141 
L 36.0396 50.955826 
L 37.044 52.501734 
L 38.0484 54.858624 
L 41.5638 64.013426 
L 41.8986 65.328965 
L 42.066 65.324515 
L 42.2334 65.7881 
L 42.7356 68.414977 
L 42.903 68.208131 
L 43.0704 68.459325 
L 43.74 71.257335 
L 44.0748 73.282502 
L 44.7444 76.670231 
L 44.9118 75.613822 
L 45.0792 75.570359 
L 45.2466 73.806314 
L 45.414 74.381318 
L 45.5814 72.033914 
L 45.9162 71.720691 
L 46.0836 71.017296 
L 46.251 72.10002 
L 46.4184 71.745346 
L 46.7532 72.177238 
L 46.9206 72.739074 
L 47.088 72.374686 
L 47.2554 74.227057 
L 47.5902 73.363907 
L 47.7576 73.785863 
L 48.0924 71.770921 
L 48.2598 72.320339 
L 48.4272 72.133768 
L 49.0968 74.315881 
L 49.2642 74.40461 
L 49.599 76.10212 
L 49.7664 77.824161 
L 50.1012 74.750592 
L 50.2686 75.050579 
L 50.436 74.926697 
L 50.7708 73.201759 
L 50.9382 73.113646 
L 51.273 72.455217 
L 51.4404 72.499062 
L 51.7752 73.754637 
L 51.9426 73.072728 
L 52.11 73.172435 
L 52.2774 73.888681 
L 52.4448 70.961554 
L 52.6122 70.92653 
L 52.947 69.360493 
L 53.1144 69.016864 
L 53.2818 68.99539 
L 53.4492 68.651992 
L 53.6166 68.856731 
L 53.9514 68.366241 
L 54.1188 70.320262 
L 54.4536 68.716256 
L 54.9558 69.084907 
L 55.2906 68.434046 
L 55.458 66.842182 
L 55.6254 66.703889 
L 55.9602 65.501395 
L 56.1276 66.342565 
L 56.295 65.747589 
L 56.4624 65.657124 
L 56.7972 64.536691 
L 56.9646 64.378535 
L 57.132 65.485641 
L 57.4668 64.073074 
L 57.969 64.443929 
L 58.1364 64.394509 
L 58.3038 64.739045 
L 58.4712 65.726357 
L 58.806 65.676768 
L 58.9734 66.340851 
L 59.3082 68.178641 
L 59.4756 68.01851 
L 59.643 68.194932 
L 59.9778 66.776085 
L 60.1452 65.66458 
L 60.48 66.084901 
L 60.6474 65.971247 
L 61.1496 66.876027 
L 61.317 65.153244 
L 61.4844 65.925156 
L 61.6518 66.084032 
L 61.8192 67.292239 
L 62.154 65.909518 
L 62.3214 66.190996 
L 62.4888 66.236843 
L 62.6562 64.515538 
L 62.8236 64.500592 
L 62.991 66.21425 
L 63.1584 65.948015 
L 63.3258 66.83664 
L 63.4932 65.911033 
L 63.828 67.22189 
L 64.1628 66.609896 
L 64.3302 68.331249 
L 64.4976 67.721161 
L 64.665 66.324391 
L 64.8324 66.476949 
L 64.9998 66.357526 
L 65.6694 67.228326 
L 66.1716 69.011898 
L 66.339 71.083518 
L 66.6738 70.670991 
L 67.176 68.942727 
L 67.3434 68.991993 
L 67.6782 68.149723 
L 68.1804 65.754422 
L 68.3478 65.955725 
L 68.5152 67.286973 
L 68.6826 65.823273 
L 68.85 65.873064 
L 69.0174 64.74924 
L 69.1848 64.849158 
L 69.3522 64.798567 
L 70.0218 67.442188 
L 70.1892 67.473956 
L 70.3566 69.941781 
L 70.524 69.847545 
L 70.6914 72.146081 
L 71.0262 70.002853 
L 71.1936 70.155053 
L 71.5284 70.967999 
L 71.6958 70.647535 
L 71.8632 69.668085 
L 72.0306 69.535626 
L 72.198 70.016654 
L 72.3654 69.60766 
L 72.7002 71.872653 
L 72.8676 72.287872 
L 73.2024 68.297297 
L 73.3698 68.456412 
L 73.5372 68.783732 
L 73.7046 68.598616 
L 73.872 68.633659 
L 74.0394 68.497033 
L 74.2068 68.692357 
L 74.3742 69.195902 
L 74.5416 68.502067 
L 74.709 69.360005 
L 74.8764 71.215078 
L 75.0438 70.853092 
L 75.7134 75.713407 
L 75.8808 75.841224 
L 76.7178 89.306103 
L 76.8852 89.216938 
L 77.22 89.132438 
L 77.3874 88.923034 
L 77.7222 88.968418 
L 77.8896 90.664016 
L 78.057 90.419869 
L 78.2244 78.426737 
L 78.3918 78.402404 
L 78.894 78.771353 
L 79.2288 79.150974 
L 79.5636 79.441167 
L 79.731 79.686055 
L 79.8984 94.700889 
L 80.0658 95.235099 
L 80.2332 94.962534 
L 80.568 95.020337 
L 80.7354 95.022537 
L 80.9028 94.897038 
L 81.2376 95.132863 
L 81.405 94.811724 
L 81.5724 85.310422 
L 81.7398 85.337961 
L 81.9072 85.513141 
L 82.242 85.259051 
L 82.4094 85.195701 
L 82.5768 85.25744 
L 82.9116 84.914388 
L 83.079 85.08267 
L 83.2464 93.12737 
L 83.5812 92.986233 
L 83.7486 93.465628 
L 83.916 92.551177 
L 84.0834 92.478659 
L 84.4182 93.069404 
L 84.5856 93.779309 
L 84.753 93.443985 
L 85.0878 94.986364 
L 85.4226 95.422073 
L 85.59 96.992806 
L 85.7574 95.865956 
L 86.0922 96.413387 
L 86.2596 96.532358 
L 86.427 97.79517 
L 86.5944 98.062222 
L 86.7618 97.621328 
L 86.9292 97.941378 
L 87.0966 97.394563 
L 87.264 96.344852 
L 87.4314 97.792962 
L 87.9336 94.215572 
L 88.101 94.25582 
L 88.2684 94.489418 
L 88.6032 94.569171 
L 88.7706 94.427428 
L 89.1054 95.905176 
L 89.4402 97.624544 
L 89.775 97.515608 
L 89.9424 97.345609 
L 90.2772 98.154154 
L 90.4446 99.241168 
L 90.9468 99.365872 
L 91.1142 93.219322 
L 91.2816 94.397806 
L 91.449 94.498261 
L 91.6164 90.913647 
L 91.7838 91.124838 
L 92.1186 91.121216 
L 92.4534 90.576262 
L 92.6208 90.758164 
L 92.7882 95.653973 
L 93.123 95.24263 
L 93.2904 100.739918 
L 93.4578 100.266857 
L 93.6252 94.469548 
L 93.7926 94.401929 
L 94.4622 95.751324 
L 94.6296 95.407385 
L 94.797 95.626132 
L 94.9644 96.125783 
L 95.1318 91.574116 
L 95.2992 95.497963 
L 95.4666 90.8997 
L 95.8014 90.865928 
L 95.9688 90.683991 
L 96.3036 90.763559 
L 96.6384 90.777703 
L 96.8058 95.027912 
L 96.9732 95.430484 
L 97.1406 103.074105 
L 97.308 103.170148 
L 97.4754 103.550751 
L 97.6428 104.297599 
L 97.8102 103.844807 
L 97.9776 104.224229 
L 98.145 103.907693 
L 98.8146 104.722526 
L 99.3168 103.809388 
L 99.6516 103.97367 
L 99.819 103.747527 
L 99.9864 103.762211 
L 100.1538 103.954622 
L 100.4886 102.835962 
L 100.656 102.91032 
L 100.8234 102.658623 
L 100.9908 102.838433 
L 101.1582 103.213294 
L 101.3256 101.729907 
L 101.493 102.410393 
L 101.8278 102.203999 
L 102.1626 103.361705 
L 102.33 103.700454 
L 102.4974 104.353391 
L 102.8322 104.45123 
L 102.9996 106.028923 
L 103.167 100.723224 
L 103.3344 87.252694 
L 103.5018 86.355508 
L 103.8366 86.517501 
L 104.1714 86.548894 
L 104.5062 86.305553 
L 104.6736 86.276207 
L 104.841 87.533248 
L 105.0084 101.670996 
L 105.1758 105.106983 
L 105.5106 103.361467 
L 105.678 103.476487 
L 106.0128 103.343561 
L 106.3476 103.262841 
L 106.515 103.167506 
L 106.8498 103.551734 
L 107.0172 103.554355 
L 107.1846 103.929741 
L 107.352 103.8459 
L 107.8542 105.034474 
L 108.189 103.712497 
L 108.5238 102.990633 
L 108.6912 102.928723 
L 109.1934 100.643695 
L 109.3608 100.907466 
L 109.5282 100.712276 
L 109.6956 101.862318 
L 110.0304 102.396312 
L 110.3652 100.965571 
L 110.5326 101.538867 
L 110.7 101.670514 
L 110.8674 102.525144 
L 111.0348 102.301834 
L 111.2022 102.64541 
L 111.3696 97.687145 
L 111.537 97.915634 
L 111.7044 97.47605 
L 112.374 100.546604 
L 112.5414 99.271266 
L 112.7088 99.583713 
L 112.8762 99.384492 
L 113.0436 105.341052 
L 113.211 105.515559 
L 113.3784 106.507469 
L 113.7132 105.932171 
L 114.048 104.412866 
L 114.2154 106.647966 
L 114.5502 103.061316 
L 114.7176 102.893487 
L 115.3872 104.436224 
L 115.722 106.092356 
L 115.8894 106.213682 
L 116.3916 112.611793 
L 116.559 111.939667 
L 116.7264 111.900803 
L 117.2286 110.379946 
L 117.396 110.536693 
L 117.8982 110.077529 
L 118.0656 107.798334 
L 118.233 107.825179 
L 118.5678 107.447344 
L 118.7352 106.858082 
L 118.9026 107.169826 
L 119.07 106.848371 
L 119.2374 106.895232 
L 119.4048 106.625437 
L 119.5722 106.799345 
L 119.7396 108.525716 
L 119.907 108.414958 
L 120.0744 108.439917 
L 120.2418 108.703678 
L 120.4092 109.176468 
L 120.5766 109.025774 
L 120.744 109.222977 
L 120.9114 107.947227 
L 121.0788 108.260255 
L 121.2462 106.41506 
L 121.4136 106.35647 
L 121.581 106.486319 
L 121.7484 106.414977 
L 121.9158 105.995725 
L 122.0832 104.854775 
L 122.2506 104.602109 
L 122.418 104.639519 
L 122.5854 105.338389 
L 122.9202 104.035183 
L 123.0876 104.159582 
L 123.255 104.058909 
L 123.4224 104.333159 
L 123.5898 104.842431 
L 123.7572 106.696174 
L 124.092 107.377938 
L 124.2594 107.776175 
L 124.4268 108.87549 
L 124.5942 110.988444 
L 124.7616 110.850282 
L 124.929 110.965379 
L 125.2638 109.628285 
L 125.5986 109.646264 
L 125.766 109.697989 
L 125.9334 109.078821 
L 126.1008 109.132262 
L 126.2682 110.307058 
L 126.603 110.215033 
L 126.7704 110.409413 
L 126.9378 110.122634 
L 127.2726 110.001426 
L 127.7748 109.898595 
L 127.9422 106.662513 
L 128.1096 106.978615 
L 128.277 106.39325 
L 128.6118 107.38752 
L 129.114 107.641802 
L 129.4488 108.709343 
L 129.6162 112.259198 
L 129.7836 112.26825 
L 129.951 112.992225 
L 130.1184 111.32991 
L 130.2858 111.612868 
L 130.4532 108.287092 
L 130.6206 108.348505 
L 130.788 108.100019 
L 130.9554 107.576746 
L 131.1228 107.634075 
L 131.4576 108.274182 
L 131.625 108.704324 
L 131.7924 109.726955 
L 131.9598 108.919622 
L 132.1272 111.133613 
L 132.2946 111.038653 
L 132.6294 111.646642 
L 132.7968 110.21851 
L 133.1316 109.583408 
L 133.299 109.067399 
L 133.4664 109.191877 
L 133.6338 109.89496 
L 133.9686 109.785786 
L 134.136 108.7352 
L 134.3034 108.828989 
L 134.4708 109.815355 
L 135.1404 110.552334 
L 135.3078 110.445822 
L 135.4752 109.130685 
L 135.6426 108.959985 
L 135.81 109.673705 
L 135.9774 108.098773 
L 136.1448 108.173039 
L 136.3122 107.845915 
L 136.4796 107.911942 
L 136.647 108.300884 
L 136.8144 107.951788 
L 136.9818 108.015261 
L 137.1492 110.51139 
L 137.484 111.218772 
L 137.6514 113.366137 
L 137.8188 112.576004 
L 137.9862 113.153967 
L 138.321 112.744056 
L 138.4884 113.13028 
L 138.6558 113.024582 
L 139.158 112.047283 
L 139.3254 112.251331 
L 139.4928 113.257585 
L 139.6602 113.166996 
L 140.6646 114.660961 
L 140.832 114.256708 
L 141.1668 114.198324 
L 141.5016 114.541405 
L 141.669 114.269838 
L 141.8364 114.264435 
L 142.3386 111.804482 
L 142.506 112.538204 
L 142.8408 112.336043 
L 143.0082 111.916197 
L 143.1756 111.805329 
L 143.343 112.00217 
L 143.5104 111.928644 
L 143.6778 112.115218 
L 143.8452 112.001389 
L 144.0126 112.990235 
L 144.18 112.996079 
L 144.3474 113.146087 
L 144.5148 112.469018 
L 144.8496 113.127473 
L 145.1844 112.819602 
L 145.3518 113.023938 
L 145.5192 113.630463 
L 145.854 113.298717 
L 146.0214 112.642724 
L 146.3562 112.548956 
L 146.5236 112.246918 
L 146.691 112.374146 
L 147.1932 113.506984 
L 147.3606 112.440391 
L 147.528 112.636024 
L 147.8628 114.569352 
L 148.0302 114.553117 
L 148.365 115.186886 
L 148.5324 115.235431 
L 148.8672 114.782703 
L 149.0346 116.614324 
L 149.202 116.737373 
L 149.3694 115.979313 
L 149.5368 116.006235 
L 149.8716 116.853532 
L 150.039 116.990963 
L 150.3738 118.094098 
L 150.5412 118.680643 
L 150.7086 118.461541 
L 150.876 118.459808 
L 151.0434 118.952709 
L 151.2108 118.902797 
L 151.3782 118.566591 
L 151.713 118.423158 
L 152.2152 117.784257 
L 152.3826 117.886081 
L 152.8848 117.775054 
L 153.2196 117.763272 
L 153.387 117.517063 
L 153.5544 116.886133 
L 153.7218 116.730986 
L 153.8892 116.910279 
L 154.0566 116.746169 
L 154.3914 117.133463 
L 154.5588 116.940518 
L 154.7262 116.40992 
L 154.8936 116.395356 
L 155.061 116.584723 
L 155.3958 117.502242 
L 155.5632 117.558489 
L 155.7306 118.055987 
L 156.2328 118.325112 
L 156.4002 118.967504 
L 156.5676 118.651593 
L 156.735 118.840304 
L 157.0698 118.076266 
L 157.7394 116.227966 
L 158.0742 116.102459 
L 158.2416 116.325194 
L 158.409 116.172577 
L 158.5764 116.678038 
L 158.7438 116.54695 
L 159.0786 115.868151 
L 159.5808 116.959083 
L 160.083 117.437687 
L 160.4178 117.678906 
L 160.7526 119.096868 
L 161.4222 118.735935 
L 161.9244 117.010475 
L 162.0918 116.983203 
L 162.594 117.380763 
L 163.2636 116.183914 
L 163.431 116.401328 
L 163.5984 117.108452 
L 164.1006 116.633371 
L 164.4354 116.669541 
L 164.9376 118.575011 
L 165.105 118.519156 
L 165.4398 118.956545 
L 165.7746 119.054803 
L 165.942 118.912272 
L 166.1094 119.313107 
L 166.6116 118.546106 
L 166.779 118.842735 
L 166.9464 118.824974 
L 167.2812 119.108716 
L 167.4486 118.511676 
L 167.616 118.409456 
L 167.7834 118.445744 
L 167.9508 118.605427 
L 168.2856 119.237581 
L 168.453 119.158534 
L 168.6204 118.951353 
L 168.7878 118.948999 
L 168.9552 118.731084 
L 169.1226 119.033135 
L 170.127 118.377863 
L 170.2944 118.57392 
L 170.4618 118.596817 
L 170.6292 118.748185 
L 170.7966 118.617476 
L 170.964 118.930366 
L 171.2988 119.110901 
L 171.4662 118.676528 
L 172.3032 118.763005 
L 172.4706 119.257487 
L 172.638 119.270425 
L 172.8054 119.706316 
L 172.9728 119.677795 
L 173.1402 120.069096 
L 173.3076 120.161972 
L 173.475 120.120647 
L 173.8098 119.68303 
L 174.4794 119.720799 
L 174.8142 119.922613 
L 175.149 119.775001 
L 175.6512 120.306556 
L 175.8186 120.180698 
L 175.986 120.228151 
L 176.1534 120.05644 
L 176.9904 120.331535 
L 177.1578 120.163507 
L 177.8274 120.100529 
L 177.9948 119.94456 
L 178.3296 119.979193 
L 178.6644 119.978417 
L 178.9992 120.163193 
L 180.171 120.38197 
L 180.3384 120.252923 
L 180.6732 120.357019 
L 181.6776 120.417562 
L 182.3472 120.305153 
L 183.6864 120.310906 
L 184.0212 120.241081 
L 184.6908 120.201141 
L 185.3604 120.216683 
L 186.1974 120.440448 
L 186.5322 120.481057 
L 187.0344 120.515043 
L 188.0388 120.479955 
L 188.541 120.301301 
L 188.8758 120.243991 
L 189.8802 120.215666 
L 190.0476 120.322461 
L 190.3824 120.295746 
L 190.7172 120.41585 
L 191.3868 120.378721 
L 191.7216 120.424231 
L 192.2238 120.295035 
L 193.0608 120.500052 
L 193.3956 120.435263 
L 193.8978 120.569408 
L 194.2326 120.496603 
L 194.2326 120.496603 
" style="fill:none;stroke:#ff7f0e;stroke-linecap:square;stroke-width:1.5;"/>
   </g>
   <g id="line2d_64">
    <path clip-path="url(#p53241da281)" d="M 27 42.945707 
L 194.4 42.945707 
" style="fill:none;stroke:#000000;stroke-dasharray:5.55,2.4;stroke-dashoffset:0;stroke-width:1.5;"/>
   </g>
   <g id="patch_3">
    <path d="M 27 189 
L 27 25.92 
" style="fill:none;stroke:#000000;stroke-linecap:square;stroke-linejoin:miter;stroke-width:0.8;"/>
   </g>
   <g id="patch_4">
    <path d="M 194.4 189 
L 194.4 25.92 
" style="fill:none;stroke:#000000;stroke-linecap:square;stroke-linejoin:miter;stroke-width:0.8;"/>
   </g>
   <g id="patch_5">
    <path d="M 27 189 
L 194.4 189 
" style="fill:none;stroke:#000000;stroke-linecap:square;stroke-linejoin:miter;stroke-width:0.8;"/>
   </g>
   <g id="patch_6">
    <path d="M 27 25.92 
L 194.4 25.92 
" style="fill:none;stroke:#000000;stroke-linecap:square;stroke-linejoin:miter;stroke-width:0.8;"/>
   </g>
   <g id="text_16">
    <!-- train 0.00000 -->
    <g transform="translate(126.42635 175.7225)scale(0.1 -0.1)">
     <defs>
      <path d="M 1172 4494 
L 1172 3500 
L 2356 3500 
L 2356 3053 
L 1172 3053 
L 1172 1153 
Q 1172 725 1289 603 
Q 1406 481 1766 481 
L 2356 481 
L 2356 0 
L 1766 0 
Q 1100 0 847 248 
Q 594 497 594 1153 
L 594 3053 
L 172 3053 
L 172 3500 
L 594 3500 
L 594 4494 
L 1172 4494 
z
" id="DejaVuSans-74" transform="scale(0.015625)"/>
      <path d="M 2631 2963 
Q 2534 3019 2420 3045 
Q 2306 3072 2169 3072 
Q 1681 3072 1420 2755 
Q 1159 2438 1159 1844 
L 1159 0 
L 581 0 
L 581 3500 
L 1159 3500 
L 1159 2956 
Q 1341 3275 1631 3429 
Q 1922 3584 2338 3584 
Q 2397 3584 2469 3576 
Q 2541 3569 2628 3553 
L 2631 2963 
z
" id="DejaVuSans-72" transform="scale(0.015625)"/>
      <path d="M 2194 1759 
Q 1497 1759 1228 1600 
Q 959 1441 959 1056 
Q 959 750 1161 570 
Q 1363 391 1709 391 
Q 2188 391 2477 730 
Q 2766 1069 2766 1631 
L 2766 1759 
L 2194 1759 
z
M 3341 1997 
L 3341 0 
L 2766 0 
L 2766 531 
Q 2569 213 2275 61 
Q 1981 -91 1556 -91 
Q 1019 -91 701 211 
Q 384 513 384 1019 
Q 384 1609 779 1909 
Q 1175 2209 1959 2209 
L 2766 2209 
L 2766 2266 
Q 2766 2663 2505 2880 
Q 2244 3097 1772 3097 
Q 1472 3097 1187 3025 
Q 903 2953 641 2809 
L 641 3341 
Q 956 3463 1253 3523 
Q 1550 3584 1831 3584 
Q 2591 3584 2966 3190 
Q 3341 2797 3341 1997 
z
" id="DejaVuSans-61" transform="scale(0.015625)"/>
      <path d="M 603 3500 
L 1178 3500 
L 1178 0 
L 603 0 
L 603 3500 
z
M 603 4863 
L 1178 4863 
L 1178 4134 
L 603 4134 
L 603 4863 
z
" id="DejaVuSans-69" transform="scale(0.015625)"/>
      <path d="M 3513 2113 
L 3513 0 
L 2938 0 
L 2938 2094 
Q 2938 2591 2744 2837 
Q 2550 3084 2163 3084 
Q 1697 3084 1428 2787 
Q 1159 2491 1159 1978 
L 1159 0 
L 581 0 
L 581 3500 
L 1159 3500 
L 1159 2956 
Q 1366 3272 1645 3428 
Q 1925 3584 2291 3584 
Q 2894 3584 3203 3211 
Q 3513 2838 3513 2113 
z
" id="DejaVuSans-6e" transform="scale(0.015625)"/>
      <path id="DejaVuSans-20" transform="scale(0.015625)"/>
      <path d="M 684 794 
L 1344 794 
L 1344 0 
L 684 0 
L 684 794 
z
" id="DejaVuSans-2e" transform="scale(0.015625)"/>
     </defs>
     <use xlink:href="#DejaVuSans-74"/>
     <use x="39.208984" xlink:href="#DejaVuSans-72"/>
     <use x="80.322266" xlink:href="#DejaVuSans-61"/>
     <use x="141.601562" xlink:href="#DejaVuSans-69"/>
     <use x="169.384766" xlink:href="#DejaVuSans-6e"/>
     <use x="232.763672" xlink:href="#DejaVuSans-20"/>
     <use x="264.550781" xlink:href="#DejaVuSans-30"/>
     <use x="328.173828" xlink:href="#DejaVuSans-2e"/>
     <use x="359.960938" xlink:href="#DejaVuSans-30"/>
     <use x="423.583984" xlink:href="#DejaVuSans-30"/>
     <use x="487.207031" xlink:href="#DejaVuSans-30"/>
     <use x="550.830078" xlink:href="#DejaVuSans-30"/>
     <use x="614.453125" xlink:href="#DejaVuSans-30"/>
    </g>
    <!-- test 0.00033 -->
    <g transform="translate(130.498225 186.920312)scale(0.1 -0.1)">
     <defs>
      <path d="M 3597 1894 
L 3597 1613 
L 953 1613 
Q 991 1019 1311 708 
Q 1631 397 2203 397 
Q 2534 397 2845 478 
Q 3156 559 3463 722 
L 3463 178 
Q 3153 47 2828 -22 
Q 2503 -91 2169 -91 
Q 1331 -91 842 396 
Q 353 884 353 1716 
Q 353 2575 817 3079 
Q 1281 3584 2069 3584 
Q 2775 3584 3186 3129 
Q 3597 2675 3597 1894 
z
M 3022 2063 
Q 3016 2534 2758 2815 
Q 2500 3097 2075 3097 
Q 1594 3097 1305 2825 
Q 1016 2553 972 2059 
L 3022 2063 
z
" id="DejaVuSans-65" transform="scale(0.015625)"/>
     </defs>
     <use xlink:href="#DejaVuSans-74"/>
     <use x="39.208984" xlink:href="#DejaVuSans-65"/>
     <use x="100.732422" xlink:href="#DejaVuSans-73"/>
     <use x="152.832031" xlink:href="#DejaVuSans-74"/>
     <use x="192.041016" xlink:href="#DejaVuSans-20"/>
     <use x="223.828125" xlink:href="#DejaVuSans-30"/>
     <use x="287.451172" xlink:href="#DejaVuSans-2e"/>
     <use x="319.238281" xlink:href="#DejaVuSans-30"/>
     <use x="382.861328" xlink:href="#DejaVuSans-30"/>
     <use x="446.484375" xlink:href="#DejaVuSans-30"/>
     <use x="510.107422" xlink:href="#DejaVuSans-33"/>
     <use x="573.730469" xlink:href="#DejaVuSans-33"/>
    </g>
   </g>
   <g id="legend_1">
    <g id="line2d_65">
     <path d="M 130.153125 39.018438 
L 150.153125 39.018438 
" style="fill:none;stroke:#1f77b4;stroke-linecap:square;stroke-width:1.5;"/>
    </g>
    <g id="line2d_66"/>
    <g id="text_17">
     <!-- Train -->
     <g transform="translate(158.153125 42.518438)scale(0.1 -0.1)">
      <defs>
       <path d="M -19 4666 
L 3928 4666 
L 3928 4134 
L 2272 4134 
L 2272 0 
L 1638 0 
L 1638 4134 
L -19 4134 
L -19 4666 
z
" id="DejaVuSans-54" transform="scale(0.015625)"/>
      </defs>
      <use xlink:href="#DejaVuSans-54"/>
      <use x="46.333984" xlink:href="#DejaVuSans-72"/>
      <use x="87.447266" xlink:href="#DejaVuSans-61"/>
      <use x="148.726562" xlink:href="#DejaVuSans-69"/>
      <use x="176.509766" xlink:href="#DejaVuSans-6e"/>
     </g>
    </g>
    <g id="line2d_67">
     <path d="M 130.153125 53.696562 
L 150.153125 53.696562 
" style="fill:none;stroke:#ff7f0e;stroke-linecap:square;stroke-width:1.5;"/>
    </g>
    <g id="line2d_68"/>
    <g id="text_18">
     <!-- Test -->
     <g transform="translate(158.153125 57.196562)scale(0.1 -0.1)">
      <use xlink:href="#DejaVuSans-54"/>
      <use x="44.083984" xlink:href="#DejaVuSans-65"/>
      <use x="105.607422" xlink:href="#DejaVuSans-73"/>
      <use x="157.707031" xlink:href="#DejaVuSans-74"/>
     </g>
    </g>
    <g id="line2d_69">
     <path d="M 130.153125 68.374687 
L 150.153125 68.374687 
" style="fill:none;stroke:#000000;stroke-dasharray:5.55,2.4;stroke-dashoffset:0;stroke-width:1.5;"/>
    </g>
    <g id="line2d_70"/>
    <g id="text_19">
     <!-- Mean -->
     <g transform="translate(158.153125 71.874687)scale(0.1 -0.1)">
      <defs>
       <path d="M 628 4666 
L 1569 4666 
L 2759 1491 
L 3956 4666 
L 4897 4666 
L 4897 0 
L 4281 0 
L 4281 4097 
L 3078 897 
L 2444 897 
L 1241 4097 
L 1241 0 
L 628 0 
L 628 4666 
z
" id="DejaVuSans-4d" transform="scale(0.015625)"/>
      </defs>
      <use xlink:href="#DejaVuSans-4d"/>
      <use x="86.279297" xlink:href="#DejaVuSans-65"/>
      <use x="147.802734" xlink:href="#DejaVuSans-61"/>
      <use x="209.082031" xlink:href="#DejaVuSans-6e"/>
     </g>
    </g>
   </g>
  </g>
 </g>
 <defs>
  <clipPath id="p53241da281">
   <rect height="163.08" width="167.4" x="27" y="25.92"/>
  </clipPath>
 </defs>
</svg>
