<?xml version="1.0" encoding="utf-8" standalone="no"?>
<!DOCTYPE svg PUBLIC "-//W3C//DTD SVG 1.1//EN"
  "http://www.w3.org/Graphics/SVG/1.1/DTD/svg11.dtd">
<svg height="216pt" version="1.1" viewBox="0 0 216 216" width="216pt" xmlns="http://www.w3.org/2000/svg" xmlns:xlink="http://www.w3.org/1999/xlink">
 <metadata>
  <rdf:RDF xmlns:cc="http://creativecommons.org/ns#" xmlns:dc="http://purl.org/dc/elements/1.1/" xmlns:rdf="http://www.w3.org/1999/02/22-rdf-syntax-ns#">
   <cc:Work>
    <dc:type rdf:resource="http://purl.org/dc/dcmitype/StillImage"/>
    <dc:date>2022-05-06T15:05:18.893666</dc:date>
    <dc:format>image/svg+xml</dc:format>
    <dc:creator>
     <cc:Agent>
      <dc:title>Matplotlib v3.4.3, https://matplotlib.org/</dc:title>
     </cc:Agent>
    </dc:creator>
   </cc:Work>
  </rdf:RDF>
 </metadata>
 <defs>
  <style type="text/css">*{stroke-linecap:butt;stroke-linejoin:round;}</style>
 </defs>
 <g id="figure_1">
  <g id="patch_1">
   <path d="M 0 216 
L 216 216 
L 216 0 
L 0 0 
z
" style="fill:#ffffff;"/>
  </g>
  <g id="axes_1">
   <g id="patch_2">
    <path d="M 27 189 
L 194.4 189 
L 194.4 25.92 
L 27 25.92 
z
" style="fill:#ffffff;"/>
   </g>
   <g id="matplotlib.axis_1">
    <g id="xtick_1">
     <g id="line2d_1">
      <defs>
       <path d="M 0 0 
L 0 3.5 
" id="mb6e4ff48c4" style="stroke:#000000;stroke-width:0.8;"/>
      </defs>
      <g>
       <use style="stroke:#000000;stroke-width:0.8;" x="27" xlink:href="#mb6e4ff48c4" y="189"/>
      </g>
     </g>
     <g id="text_1">
      <!-- 0 -->
      <g transform="translate(23.81875 203.598437)scale(0.1 -0.1)">
       <defs>
        <path d="M 2034 4250 
Q 1547 4250 1301 3770 
Q 1056 3291 1056 2328 
Q 1056 1369 1301 889 
Q 1547 409 2034 409 
Q 2525 409 2770 889 
Q 3016 1369 3016 2328 
Q 3016 3291 2770 3770 
Q 2525 4250 2034 4250 
z
M 2034 4750 
Q 2819 4750 3233 4129 
Q 3647 3509 3647 2328 
Q 3647 1150 3233 529 
Q 2819 -91 2034 -91 
Q 1250 -91 836 529 
Q 422 1150 422 2328 
Q 422 3509 836 4129 
Q 1250 4750 2034 4750 
z
" id="DejaVuSans-30" transform="scale(0.015625)"/>
       </defs>
       <use xlink:href="#DejaVuSans-30"/>
      </g>
     </g>
    </g>
    <g id="xtick_2">
     <g id="line2d_2">
      <g>
       <use style="stroke:#000000;stroke-width:0.8;" x="60.48" xlink:href="#mb6e4ff48c4" y="189"/>
      </g>
     </g>
     <g id="text_2">
      <!-- 200 -->
      <g transform="translate(50.93625 203.598437)scale(0.1 -0.1)">
       <defs>
        <path d="M 1228 531 
L 3431 531 
L 3431 0 
L 469 0 
L 469 531 
Q 828 903 1448 1529 
Q 2069 2156 2228 2338 
Q 2531 2678 2651 2914 
Q 2772 3150 2772 3378 
Q 2772 3750 2511 3984 
Q 2250 4219 1831 4219 
Q 1534 4219 1204 4116 
Q 875 4013 500 3803 
L 500 4441 
Q 881 4594 1212 4672 
Q 1544 4750 1819 4750 
Q 2544 4750 2975 4387 
Q 3406 4025 3406 3419 
Q 3406 3131 3298 2873 
Q 3191 2616 2906 2266 
Q 2828 2175 2409 1742 
Q 1991 1309 1228 531 
z
" id="DejaVuSans-32" transform="scale(0.015625)"/>
       </defs>
       <use xlink:href="#DejaVuSans-32"/>
       <use x="63.623047" xlink:href="#DejaVuSans-30"/>
       <use x="127.246094" xlink:href="#DejaVuSans-30"/>
      </g>
     </g>
    </g>
    <g id="xtick_3">
     <g id="line2d_3">
      <g>
       <use style="stroke:#000000;stroke-width:0.8;" x="93.96" xlink:href="#mb6e4ff48c4" y="189"/>
      </g>
     </g>
     <g id="text_3">
      <!-- 400 -->
      <g transform="translate(84.41625 203.598437)scale(0.1 -0.1)">
       <defs>
        <path d="M 2419 4116 
L 825 1625 
L 2419 1625 
L 2419 4116 
z
M 2253 4666 
L 3047 4666 
L 3047 1625 
L 3713 1625 
L 3713 1100 
L 3047 1100 
L 3047 0 
L 2419 0 
L 2419 1100 
L 313 1100 
L 313 1709 
L 2253 4666 
z
" id="DejaVuSans-34" transform="scale(0.015625)"/>
       </defs>
       <use xlink:href="#DejaVuSans-34"/>
       <use x="63.623047" xlink:href="#DejaVuSans-30"/>
       <use x="127.246094" xlink:href="#DejaVuSans-30"/>
      </g>
     </g>
    </g>
    <g id="xtick_4">
     <g id="line2d_4">
      <g>
       <use style="stroke:#000000;stroke-width:0.8;" x="127.44" xlink:href="#mb6e4ff48c4" y="189"/>
      </g>
     </g>
     <g id="text_4">
      <!-- 600 -->
      <g transform="translate(117.89625 203.598437)scale(0.1 -0.1)">
       <defs>
        <path d="M 2113 2584 
Q 1688 2584 1439 2293 
Q 1191 2003 1191 1497 
Q 1191 994 1439 701 
Q 1688 409 2113 409 
Q 2538 409 2786 701 
Q 3034 994 3034 1497 
Q 3034 2003 2786 2293 
Q 2538 2584 2113 2584 
z
M 3366 4563 
L 3366 3988 
Q 3128 4100 2886 4159 
Q 2644 4219 2406 4219 
Q 1781 4219 1451 3797 
Q 1122 3375 1075 2522 
Q 1259 2794 1537 2939 
Q 1816 3084 2150 3084 
Q 2853 3084 3261 2657 
Q 3669 2231 3669 1497 
Q 3669 778 3244 343 
Q 2819 -91 2113 -91 
Q 1303 -91 875 529 
Q 447 1150 447 2328 
Q 447 3434 972 4092 
Q 1497 4750 2381 4750 
Q 2619 4750 2861 4703 
Q 3103 4656 3366 4563 
z
" id="DejaVuSans-36" transform="scale(0.015625)"/>
       </defs>
       <use xlink:href="#DejaVuSans-36"/>
       <use x="63.623047" xlink:href="#DejaVuSans-30"/>
       <use x="127.246094" xlink:href="#DejaVuSans-30"/>
      </g>
     </g>
    </g>
    <g id="xtick_5">
     <g id="line2d_5">
      <g>
       <use style="stroke:#000000;stroke-width:0.8;" x="160.92" xlink:href="#mb6e4ff48c4" y="189"/>
      </g>
     </g>
     <g id="text_5">
      <!-- 800 -->
      <g transform="translate(151.37625 203.598437)scale(0.1 -0.1)">
       <defs>
        <path d="M 2034 2216 
Q 1584 2216 1326 1975 
Q 1069 1734 1069 1313 
Q 1069 891 1326 650 
Q 1584 409 2034 409 
Q 2484 409 2743 651 
Q 3003 894 3003 1313 
Q 3003 1734 2745 1975 
Q 2488 2216 2034 2216 
z
M 1403 2484 
Q 997 2584 770 2862 
Q 544 3141 544 3541 
Q 544 4100 942 4425 
Q 1341 4750 2034 4750 
Q 2731 4750 3128 4425 
Q 3525 4100 3525 3541 
Q 3525 3141 3298 2862 
Q 3072 2584 2669 2484 
Q 3125 2378 3379 2068 
Q 3634 1759 3634 1313 
Q 3634 634 3220 271 
Q 2806 -91 2034 -91 
Q 1263 -91 848 271 
Q 434 634 434 1313 
Q 434 1759 690 2068 
Q 947 2378 1403 2484 
z
M 1172 3481 
Q 1172 3119 1398 2916 
Q 1625 2713 2034 2713 
Q 2441 2713 2670 2916 
Q 2900 3119 2900 3481 
Q 2900 3844 2670 4047 
Q 2441 4250 2034 4250 
Q 1625 4250 1398 4047 
Q 1172 3844 1172 3481 
z
" id="DejaVuSans-38" transform="scale(0.015625)"/>
       </defs>
       <use xlink:href="#DejaVuSans-38"/>
       <use x="63.623047" xlink:href="#DejaVuSans-30"/>
       <use x="127.246094" xlink:href="#DejaVuSans-30"/>
      </g>
     </g>
    </g>
    <g id="xtick_6">
     <g id="line2d_6">
      <g>
       <use style="stroke:#000000;stroke-width:0.8;" x="194.4" xlink:href="#mb6e4ff48c4" y="189"/>
      </g>
     </g>
     <g id="text_6">
      <!-- 1000 -->
      <g transform="translate(181.675 203.598437)scale(0.1 -0.1)">
       <defs>
        <path d="M 794 531 
L 1825 531 
L 1825 4091 
L 703 3866 
L 703 4441 
L 1819 4666 
L 2450 4666 
L 2450 531 
L 3481 531 
L 3481 0 
L 794 0 
L 794 531 
z
" id="DejaVuSans-31" transform="scale(0.015625)"/>
       </defs>
       <use xlink:href="#DejaVuSans-31"/>
       <use x="63.623047" xlink:href="#DejaVuSans-30"/>
       <use x="127.246094" xlink:href="#DejaVuSans-30"/>
       <use x="190.869141" xlink:href="#DejaVuSans-30"/>
      </g>
     </g>
    </g>
    <g id="text_7">
     <!-- Epoch -->
     <g transform="translate(95.389062 217.276563)scale(0.1 -0.1)">
      <defs>
       <path d="M 628 4666 
L 3578 4666 
L 3578 4134 
L 1259 4134 
L 1259 2753 
L 3481 2753 
L 3481 2222 
L 1259 2222 
L 1259 531 
L 3634 531 
L 3634 0 
L 628 0 
L 628 4666 
z
" id="DejaVuSans-45" transform="scale(0.015625)"/>
       <path d="M 1159 525 
L 1159 -1331 
L 581 -1331 
L 581 3500 
L 1159 3500 
L 1159 2969 
Q 1341 3281 1617 3432 
Q 1894 3584 2278 3584 
Q 2916 3584 3314 3078 
Q 3713 2572 3713 1747 
Q 3713 922 3314 415 
Q 2916 -91 2278 -91 
Q 1894 -91 1617 61 
Q 1341 213 1159 525 
z
M 3116 1747 
Q 3116 2381 2855 2742 
Q 2594 3103 2138 3103 
Q 1681 3103 1420 2742 
Q 1159 2381 1159 1747 
Q 1159 1113 1420 752 
Q 1681 391 2138 391 
Q 2594 391 2855 752 
Q 3116 1113 3116 1747 
z
" id="DejaVuSans-70" transform="scale(0.015625)"/>
       <path d="M 1959 3097 
Q 1497 3097 1228 2736 
Q 959 2375 959 1747 
Q 959 1119 1226 758 
Q 1494 397 1959 397 
Q 2419 397 2687 759 
Q 2956 1122 2956 1747 
Q 2956 2369 2687 2733 
Q 2419 3097 1959 3097 
z
M 1959 3584 
Q 2709 3584 3137 3096 
Q 3566 2609 3566 1747 
Q 3566 888 3137 398 
Q 2709 -91 1959 -91 
Q 1206 -91 779 398 
Q 353 888 353 1747 
Q 353 2609 779 3096 
Q 1206 3584 1959 3584 
z
" id="DejaVuSans-6f" transform="scale(0.015625)"/>
       <path d="M 3122 3366 
L 3122 2828 
Q 2878 2963 2633 3030 
Q 2388 3097 2138 3097 
Q 1578 3097 1268 2742 
Q 959 2388 959 1747 
Q 959 1106 1268 751 
Q 1578 397 2138 397 
Q 2388 397 2633 464 
Q 2878 531 3122 666 
L 3122 134 
Q 2881 22 2623 -34 
Q 2366 -91 2075 -91 
Q 1284 -91 818 406 
Q 353 903 353 1747 
Q 353 2603 823 3093 
Q 1294 3584 2113 3584 
Q 2378 3584 2631 3529 
Q 2884 3475 3122 3366 
z
" id="DejaVuSans-63" transform="scale(0.015625)"/>
       <path d="M 3513 2113 
L 3513 0 
L 2938 0 
L 2938 2094 
Q 2938 2591 2744 2837 
Q 2550 3084 2163 3084 
Q 1697 3084 1428 2787 
Q 1159 2491 1159 1978 
L 1159 0 
L 581 0 
L 581 4863 
L 1159 4863 
L 1159 2956 
Q 1366 3272 1645 3428 
Q 1925 3584 2291 3584 
Q 2894 3584 3203 3211 
Q 3513 2838 3513 2113 
z
" id="DejaVuSans-68" transform="scale(0.015625)"/>
      </defs>
      <use xlink:href="#DejaVuSans-45"/>
      <use x="63.183594" xlink:href="#DejaVuSans-70"/>
      <use x="126.660156" xlink:href="#DejaVuSans-6f"/>
      <use x="187.841797" xlink:href="#DejaVuSans-63"/>
      <use x="242.822266" xlink:href="#DejaVuSans-68"/>
     </g>
    </g>
   </g>
   <g id="matplotlib.axis_2">
    <g id="ytick_1">
     <g id="line2d_7">
      <defs>
       <path d="M 0 0 
L -3.5 0 
" id="m6c56da2bd4" style="stroke:#000000;stroke-width:0.8;"/>
      </defs>
      <g>
       <use style="stroke:#000000;stroke-width:0.8;" x="27" xlink:href="#m6c56da2bd4" y="189"/>
      </g>
     </g>
     <g id="text_8">
      <!-- $\mathdefault{10^{-6}}$ -->
      <g transform="translate(-3.5 192.799219)scale(0.1 -0.1)">
       <defs>
        <path d="M 678 2272 
L 4684 2272 
L 4684 1741 
L 678 1741 
L 678 2272 
z
" id="DejaVuSans-2212" transform="scale(0.015625)"/>
       </defs>
       <use transform="translate(0 0.765625)" xlink:href="#DejaVuSans-31"/>
       <use transform="translate(63.623047 0.765625)" xlink:href="#DejaVuSans-30"/>
       <use transform="translate(128.203125 39.046875)scale(0.7)" xlink:href="#DejaVuSans-2212"/>
       <use transform="translate(186.855469 39.046875)scale(0.7)" xlink:href="#DejaVuSans-36"/>
      </g>
     </g>
    </g>
    <g id="ytick_2">
     <g id="line2d_8">
      <g>
       <use style="stroke:#000000;stroke-width:0.8;" x="27" xlink:href="#m6c56da2bd4" y="161.82"/>
      </g>
     </g>
     <g id="text_9">
      <!-- $\mathdefault{10^{-5}}$ -->
      <g transform="translate(-3.5 165.619219)scale(0.1 -0.1)">
       <defs>
        <path d="M 691 4666 
L 3169 4666 
L 3169 4134 
L 1269 4134 
L 1269 2991 
Q 1406 3038 1543 3061 
Q 1681 3084 1819 3084 
Q 2600 3084 3056 2656 
Q 3513 2228 3513 1497 
Q 3513 744 3044 326 
Q 2575 -91 1722 -91 
Q 1428 -91 1123 -41 
Q 819 9 494 109 
L 494 744 
Q 775 591 1075 516 
Q 1375 441 1709 441 
Q 2250 441 2565 725 
Q 2881 1009 2881 1497 
Q 2881 1984 2565 2268 
Q 2250 2553 1709 2553 
Q 1456 2553 1204 2497 
Q 953 2441 691 2322 
L 691 4666 
z
" id="DejaVuSans-35" transform="scale(0.015625)"/>
       </defs>
       <use transform="translate(0 0.684375)" xlink:href="#DejaVuSans-31"/>
       <use transform="translate(63.623047 0.684375)" xlink:href="#DejaVuSans-30"/>
       <use transform="translate(128.203125 38.965625)scale(0.7)" xlink:href="#DejaVuSans-2212"/>
       <use transform="translate(186.855469 38.965625)scale(0.7)" xlink:href="#DejaVuSans-35"/>
      </g>
     </g>
    </g>
    <g id="ytick_3">
     <g id="line2d_9">
      <g>
       <use style="stroke:#000000;stroke-width:0.8;" x="27" xlink:href="#m6c56da2bd4" y="134.64"/>
      </g>
     </g>
     <g id="text_10">
      <!-- $\mathdefault{10^{-4}}$ -->
      <g transform="translate(-3.5 138.439219)scale(0.1 -0.1)">
       <use transform="translate(0 0.684375)" xlink:href="#DejaVuSans-31"/>
       <use transform="translate(63.623047 0.684375)" xlink:href="#DejaVuSans-30"/>
       <use transform="translate(128.203125 38.965625)scale(0.7)" xlink:href="#DejaVuSans-2212"/>
       <use transform="translate(186.855469 38.965625)scale(0.7)" xlink:href="#DejaVuSans-34"/>
      </g>
     </g>
    </g>
    <g id="ytick_4">
     <g id="line2d_10">
      <g>
       <use style="stroke:#000000;stroke-width:0.8;" x="27" xlink:href="#m6c56da2bd4" y="107.46"/>
      </g>
     </g>
     <g id="text_11">
      <!-- $\mathdefault{10^{-3}}$ -->
      <g transform="translate(-3.5 111.259219)scale(0.1 -0.1)">
       <defs>
        <path d="M 2597 2516 
Q 3050 2419 3304 2112 
Q 3559 1806 3559 1356 
Q 3559 666 3084 287 
Q 2609 -91 1734 -91 
Q 1441 -91 1130 -33 
Q 819 25 488 141 
L 488 750 
Q 750 597 1062 519 
Q 1375 441 1716 441 
Q 2309 441 2620 675 
Q 2931 909 2931 1356 
Q 2931 1769 2642 2001 
Q 2353 2234 1838 2234 
L 1294 2234 
L 1294 2753 
L 1863 2753 
Q 2328 2753 2575 2939 
Q 2822 3125 2822 3475 
Q 2822 3834 2567 4026 
Q 2313 4219 1838 4219 
Q 1578 4219 1281 4162 
Q 984 4106 628 3988 
L 628 4550 
Q 988 4650 1302 4700 
Q 1616 4750 1894 4750 
Q 2613 4750 3031 4423 
Q 3450 4097 3450 3541 
Q 3450 3153 3228 2886 
Q 3006 2619 2597 2516 
z
" id="DejaVuSans-33" transform="scale(0.015625)"/>
       </defs>
       <use transform="translate(0 0.765625)" xlink:href="#DejaVuSans-31"/>
       <use transform="translate(63.623047 0.765625)" xlink:href="#DejaVuSans-30"/>
       <use transform="translate(128.203125 39.046875)scale(0.7)" xlink:href="#DejaVuSans-2212"/>
       <use transform="translate(186.855469 39.046875)scale(0.7)" xlink:href="#DejaVuSans-33"/>
      </g>
     </g>
    </g>
    <g id="ytick_5">
     <g id="line2d_11">
      <g>
       <use style="stroke:#000000;stroke-width:0.8;" x="27" xlink:href="#m6c56da2bd4" y="80.28"/>
      </g>
     </g>
     <g id="text_12">
      <!-- $\mathdefault{10^{-2}}$ -->
      <g transform="translate(-3.5 84.079219)scale(0.1 -0.1)">
       <use transform="translate(0 0.765625)" xlink:href="#DejaVuSans-31"/>
       <use transform="translate(63.623047 0.765625)" xlink:href="#DejaVuSans-30"/>
       <use transform="translate(128.203125 39.046875)scale(0.7)" xlink:href="#DejaVuSans-2212"/>
       <use transform="translate(186.855469 39.046875)scale(0.7)" xlink:href="#DejaVuSans-32"/>
      </g>
     </g>
    </g>
    <g id="ytick_6">
     <g id="line2d_12">
      <g>
       <use style="stroke:#000000;stroke-width:0.8;" x="27" xlink:href="#m6c56da2bd4" y="53.1"/>
      </g>
     </g>
     <g id="text_13">
      <!-- $\mathdefault{10^{-1}}$ -->
      <g transform="translate(-3.5 56.899219)scale(0.1 -0.1)">
       <use transform="translate(0 0.684375)" xlink:href="#DejaVuSans-31"/>
       <use transform="translate(63.623047 0.684375)" xlink:href="#DejaVuSans-30"/>
       <use transform="translate(128.203125 38.965625)scale(0.7)" xlink:href="#DejaVuSans-2212"/>
       <use transform="translate(186.855469 38.965625)scale(0.7)" xlink:href="#DejaVuSans-31"/>
      </g>
     </g>
    </g>
    <g id="ytick_7">
     <g id="line2d_13">
      <g>
       <use style="stroke:#000000;stroke-width:0.8;" x="27" xlink:href="#m6c56da2bd4" y="25.92"/>
      </g>
     </g>
     <g id="text_14">
      <!-- $\mathdefault{10^{0}}$ -->
      <g transform="translate(2.4 29.719219)scale(0.1 -0.1)">
       <use transform="translate(0 0.765625)" xlink:href="#DejaVuSans-31"/>
       <use transform="translate(63.623047 0.765625)" xlink:href="#DejaVuSans-30"/>
       <use transform="translate(128.203125 39.046875)scale(0.7)" xlink:href="#DejaVuSans-30"/>
      </g>
     </g>
    </g>
    <g id="ytick_8">
     <g id="line2d_14">
      <defs>
       <path d="M 0 0 
L -2 0 
" id="m0417141224" style="stroke:#000000;stroke-width:0.6;"/>
      </defs>
      <g>
       <use style="stroke:#000000;stroke-width:0.6;" x="27" xlink:href="#m0417141224" y="180.818005"/>
      </g>
     </g>
    </g>
    <g id="ytick_9">
     <g id="line2d_15">
      <g>
       <use style="stroke:#000000;stroke-width:0.6;" x="27" xlink:href="#m0417141224" y="176.031844"/>
      </g>
     </g>
    </g>
    <g id="ytick_10">
     <g id="line2d_16">
      <g>
       <use style="stroke:#000000;stroke-width:0.6;" x="27" xlink:href="#m0417141224" y="172.636009"/>
      </g>
     </g>
    </g>
    <g id="ytick_11">
     <g id="line2d_17">
      <g>
       <use style="stroke:#000000;stroke-width:0.6;" x="27" xlink:href="#m0417141224" y="170.001995"/>
      </g>
     </g>
    </g>
    <g id="ytick_12">
     <g id="line2d_18">
      <g>
       <use style="stroke:#000000;stroke-width:0.6;" x="27" xlink:href="#m0417141224" y="167.849849"/>
      </g>
     </g>
    </g>
    <g id="ytick_13">
     <g id="line2d_19">
      <g>
       <use style="stroke:#000000;stroke-width:0.6;" x="27" xlink:href="#m0417141224" y="166.030235"/>
      </g>
     </g>
    </g>
    <g id="ytick_14">
     <g id="line2d_20">
      <g>
       <use style="stroke:#000000;stroke-width:0.6;" x="27" xlink:href="#m0417141224" y="164.454014"/>
      </g>
     </g>
    </g>
    <g id="ytick_15">
     <g id="line2d_21">
      <g>
       <use style="stroke:#000000;stroke-width:0.6;" x="27" xlink:href="#m0417141224" y="163.063689"/>
      </g>
     </g>
    </g>
    <g id="ytick_16">
     <g id="line2d_22">
      <g>
       <use style="stroke:#000000;stroke-width:0.6;" x="27" xlink:href="#m0417141224" y="153.638005"/>
      </g>
     </g>
    </g>
    <g id="ytick_17">
     <g id="line2d_23">
      <g>
       <use style="stroke:#000000;stroke-width:0.6;" x="27" xlink:href="#m0417141224" y="148.851844"/>
      </g>
     </g>
    </g>
    <g id="ytick_18">
     <g id="line2d_24">
      <g>
       <use style="stroke:#000000;stroke-width:0.6;" x="27" xlink:href="#m0417141224" y="145.456009"/>
      </g>
     </g>
    </g>
    <g id="ytick_19">
     <g id="line2d_25">
      <g>
       <use style="stroke:#000000;stroke-width:0.6;" x="27" xlink:href="#m0417141224" y="142.821995"/>
      </g>
     </g>
    </g>
    <g id="ytick_20">
     <g id="line2d_26">
      <g>
       <use style="stroke:#000000;stroke-width:0.6;" x="27" xlink:href="#m0417141224" y="140.669849"/>
      </g>
     </g>
    </g>
    <g id="ytick_21">
     <g id="line2d_27">
      <g>
       <use style="stroke:#000000;stroke-width:0.6;" x="27" xlink:href="#m0417141224" y="138.850235"/>
      </g>
     </g>
    </g>
    <g id="ytick_22">
     <g id="line2d_28">
      <g>
       <use style="stroke:#000000;stroke-width:0.6;" x="27" xlink:href="#m0417141224" y="137.274014"/>
      </g>
     </g>
    </g>
    <g id="ytick_23">
     <g id="line2d_29">
      <g>
       <use style="stroke:#000000;stroke-width:0.6;" x="27" xlink:href="#m0417141224" y="135.883689"/>
      </g>
     </g>
    </g>
    <g id="ytick_24">
     <g id="line2d_30">
      <g>
       <use style="stroke:#000000;stroke-width:0.6;" x="27" xlink:href="#m0417141224" y="126.458005"/>
      </g>
     </g>
    </g>
    <g id="ytick_25">
     <g id="line2d_31">
      <g>
       <use style="stroke:#000000;stroke-width:0.6;" x="27" xlink:href="#m0417141224" y="121.671844"/>
      </g>
     </g>
    </g>
    <g id="ytick_26">
     <g id="line2d_32">
      <g>
       <use style="stroke:#000000;stroke-width:0.6;" x="27" xlink:href="#m0417141224" y="118.276009"/>
      </g>
     </g>
    </g>
    <g id="ytick_27">
     <g id="line2d_33">
      <g>
       <use style="stroke:#000000;stroke-width:0.6;" x="27" xlink:href="#m0417141224" y="115.641995"/>
      </g>
     </g>
    </g>
    <g id="ytick_28">
     <g id="line2d_34">
      <g>
       <use style="stroke:#000000;stroke-width:0.6;" x="27" xlink:href="#m0417141224" y="113.489849"/>
      </g>
     </g>
    </g>
    <g id="ytick_29">
     <g id="line2d_35">
      <g>
       <use style="stroke:#000000;stroke-width:0.6;" x="27" xlink:href="#m0417141224" y="111.670235"/>
      </g>
     </g>
    </g>
    <g id="ytick_30">
     <g id="line2d_36">
      <g>
       <use style="stroke:#000000;stroke-width:0.6;" x="27" xlink:href="#m0417141224" y="110.094014"/>
      </g>
     </g>
    </g>
    <g id="ytick_31">
     <g id="line2d_37">
      <g>
       <use style="stroke:#000000;stroke-width:0.6;" x="27" xlink:href="#m0417141224" y="108.703689"/>
      </g>
     </g>
    </g>
    <g id="ytick_32">
     <g id="line2d_38">
      <g>
       <use style="stroke:#000000;stroke-width:0.6;" x="27" xlink:href="#m0417141224" y="99.278005"/>
      </g>
     </g>
    </g>
    <g id="ytick_33">
     <g id="line2d_39">
      <g>
       <use style="stroke:#000000;stroke-width:0.6;" x="27" xlink:href="#m0417141224" y="94.491844"/>
      </g>
     </g>
    </g>
    <g id="ytick_34">
     <g id="line2d_40">
      <g>
       <use style="stroke:#000000;stroke-width:0.6;" x="27" xlink:href="#m0417141224" y="91.096009"/>
      </g>
     </g>
    </g>
    <g id="ytick_35">
     <g id="line2d_41">
      <g>
       <use style="stroke:#000000;stroke-width:0.6;" x="27" xlink:href="#m0417141224" y="88.461995"/>
      </g>
     </g>
    </g>
    <g id="ytick_36">
     <g id="line2d_42">
      <g>
       <use style="stroke:#000000;stroke-width:0.6;" x="27" xlink:href="#m0417141224" y="86.309849"/>
      </g>
     </g>
    </g>
    <g id="ytick_37">
     <g id="line2d_43">
      <g>
       <use style="stroke:#000000;stroke-width:0.6;" x="27" xlink:href="#m0417141224" y="84.490235"/>
      </g>
     </g>
    </g>
    <g id="ytick_38">
     <g id="line2d_44">
      <g>
       <use style="stroke:#000000;stroke-width:0.6;" x="27" xlink:href="#m0417141224" y="82.914014"/>
      </g>
     </g>
    </g>
    <g id="ytick_39">
     <g id="line2d_45">
      <g>
       <use style="stroke:#000000;stroke-width:0.6;" x="27" xlink:href="#m0417141224" y="81.523689"/>
      </g>
     </g>
    </g>
    <g id="ytick_40">
     <g id="line2d_46">
      <g>
       <use style="stroke:#000000;stroke-width:0.6;" x="27" xlink:href="#m0417141224" y="72.098005"/>
      </g>
     </g>
    </g>
    <g id="ytick_41">
     <g id="line2d_47">
      <g>
       <use style="stroke:#000000;stroke-width:0.6;" x="27" xlink:href="#m0417141224" y="67.311844"/>
      </g>
     </g>
    </g>
    <g id="ytick_42">
     <g id="line2d_48">
      <g>
       <use style="stroke:#000000;stroke-width:0.6;" x="27" xlink:href="#m0417141224" y="63.916009"/>
      </g>
     </g>
    </g>
    <g id="ytick_43">
     <g id="line2d_49">
      <g>
       <use style="stroke:#000000;stroke-width:0.6;" x="27" xlink:href="#m0417141224" y="61.281995"/>
      </g>
     </g>
    </g>
    <g id="ytick_44">
     <g id="line2d_50">
      <g>
       <use style="stroke:#000000;stroke-width:0.6;" x="27" xlink:href="#m0417141224" y="59.129849"/>
      </g>
     </g>
    </g>
    <g id="ytick_45">
     <g id="line2d_51">
      <g>
       <use style="stroke:#000000;stroke-width:0.6;" x="27" xlink:href="#m0417141224" y="57.310235"/>
      </g>
     </g>
    </g>
    <g id="ytick_46">
     <g id="line2d_52">
      <g>
       <use style="stroke:#000000;stroke-width:0.6;" x="27" xlink:href="#m0417141224" y="55.734014"/>
      </g>
     </g>
    </g>
    <g id="ytick_47">
     <g id="line2d_53">
      <g>
       <use style="stroke:#000000;stroke-width:0.6;" x="27" xlink:href="#m0417141224" y="54.343689"/>
      </g>
     </g>
    </g>
    <g id="ytick_48">
     <g id="line2d_54">
      <g>
       <use style="stroke:#000000;stroke-width:0.6;" x="27" xlink:href="#m0417141224" y="44.918005"/>
      </g>
     </g>
    </g>
    <g id="ytick_49">
     <g id="line2d_55">
      <g>
       <use style="stroke:#000000;stroke-width:0.6;" x="27" xlink:href="#m0417141224" y="40.131844"/>
      </g>
     </g>
    </g>
    <g id="ytick_50">
     <g id="line2d_56">
      <g>
       <use style="stroke:#000000;stroke-width:0.6;" x="27" xlink:href="#m0417141224" y="36.736009"/>
      </g>
     </g>
    </g>
    <g id="ytick_51">
     <g id="line2d_57">
      <g>
       <use style="stroke:#000000;stroke-width:0.6;" x="27" xlink:href="#m0417141224" y="34.101995"/>
      </g>
     </g>
    </g>
    <g id="ytick_52">
     <g id="line2d_58">
      <g>
       <use style="stroke:#000000;stroke-width:0.6;" x="27" xlink:href="#m0417141224" y="31.949849"/>
      </g>
     </g>
    </g>
    <g id="ytick_53">
     <g id="line2d_59">
      <g>
       <use style="stroke:#000000;stroke-width:0.6;" x="27" xlink:href="#m0417141224" y="30.130235"/>
      </g>
     </g>
    </g>
    <g id="ytick_54">
     <g id="line2d_60">
      <g>
       <use style="stroke:#000000;stroke-width:0.6;" x="27" xlink:href="#m0417141224" y="28.554014"/>
      </g>
     </g>
    </g>
    <g id="ytick_55">
     <g id="line2d_61">
      <g>
       <use style="stroke:#000000;stroke-width:0.6;" x="27" xlink:href="#m0417141224" y="27.163689"/>
      </g>
     </g>
    </g>
    <g id="text_15">
     <!-- Loss -->
     <g transform="translate(-9.579688 118.427188)rotate(-90)scale(0.1 -0.1)">
      <defs>
       <path d="M 628 4666 
L 1259 4666 
L 1259 531 
L 3531 531 
L 3531 0 
L 628 0 
L 628 4666 
z
" id="DejaVuSans-4c" transform="scale(0.015625)"/>
       <path d="M 2834 3397 
L 2834 2853 
Q 2591 2978 2328 3040 
Q 2066 3103 1784 3103 
Q 1356 3103 1142 2972 
Q 928 2841 928 2578 
Q 928 2378 1081 2264 
Q 1234 2150 1697 2047 
L 1894 2003 
Q 2506 1872 2764 1633 
Q 3022 1394 3022 966 
Q 3022 478 2636 193 
Q 2250 -91 1575 -91 
Q 1294 -91 989 -36 
Q 684 19 347 128 
L 347 722 
Q 666 556 975 473 
Q 1284 391 1588 391 
Q 1994 391 2212 530 
Q 2431 669 2431 922 
Q 2431 1156 2273 1281 
Q 2116 1406 1581 1522 
L 1381 1569 
Q 847 1681 609 1914 
Q 372 2147 372 2553 
Q 372 3047 722 3315 
Q 1072 3584 1716 3584 
Q 2034 3584 2315 3537 
Q 2597 3491 2834 3397 
z
" id="DejaVuSans-73" transform="scale(0.015625)"/>
      </defs>
      <use xlink:href="#DejaVuSans-4c"/>
      <use x="53.962891" xlink:href="#DejaVuSans-6f"/>
      <use x="115.144531" xlink:href="#DejaVuSans-73"/>
      <use x="167.244141" xlink:href="#DejaVuSans-73"/>
     </g>
    </g>
   </g>
   <g id="line2d_62">
    <path clip-path="url(#p1c949a7e52)" d="M 27 46.412175 
L 27.5022 46.412398 
L 27.837 42.787138 
L 28.674 42.78888 
L 28.8414 41.323926 
L 29.1762 41.325207 
L 29.3436 42.619024 
L 30.348 42.628871 
L 30.5154 44.084761 
L 30.6828 43.894873 
L 31.0176 41.047398 
L 31.185 42.478737 
L 31.3524 41.056959 
L 31.5198 41.059883 
L 31.6872 40.915224 
L 32.022 40.922345 
L 32.1894 39.805831 
L 32.3568 39.945404 
L 32.6916 42.697046 
L 32.859 42.535583 
L 33.1938 42.55715 
L 33.3612 42.733985 
L 33.5286 41.298183 
L 33.696 41.15817 
L 33.8634 42.436931 
L 34.1982 42.136277 
L 34.3656 42.145314 
L 34.533 42.316978 
L 34.7004 43.737414 
L 34.8678 43.74963 
L 35.0352 43.588686 
L 35.2026 43.621264 
L 35.37 42.264068 
L 35.8722 42.63794 
L 36.0396 42.50094 
L 36.207 42.516798 
L 36.3744 41.288996 
L 36.5418 41.304664 
L 36.7092 41.46434 
L 37.044 44.430423 
L 37.2114 44.286941 
L 37.5462 44.350986 
L 37.7136 44.555955 
L 37.881 44.583408 
L 38.0484 46.51183 
L 38.2158 44.686459 
L 38.3832 44.716291 
L 38.8854 45.168054 
L 39.0528 45.202852 
L 39.2202 43.743965 
L 39.3876 43.6405 
L 39.555 43.673241 
L 39.7224 42.262879 
L 39.8898 43.789979 
L 40.0572 42.380846 
L 40.8942 42.518822 
L 41.0616 41.400132 
L 41.229 41.439318 
L 41.3964 42.826344 
L 41.5638 42.873389 
L 41.7312 44.440112 
L 41.8986 44.495619 
L 42.066 44.68228 
L 42.2334 43.279381 
L 42.4008 43.243861 
L 42.5682 44.732158 
L 42.7356 44.881972 
L 43.0704 44.916735 
L 43.5726 45.028517 
L 43.74 45.015573 
L 43.9074 46.795426 
L 44.0748 45.342978 
L 44.2422 45.504756 
L 44.4096 47.326469 
L 44.577 47.505168 
L 45.0792 47.553383 
L 45.414 47.873929 
L 45.5814 46.24711 
L 45.9162 46.447751 
L 46.0836 45.02064 
L 46.4184 45.143779 
L 46.9206 45.29089 
L 47.088 44.039233 
L 47.4228 47.077618 
L 47.5902 47.141329 
L 47.7576 48.982684 
L 48.4272 49.379799 
L 48.5946 49.45094 
L 48.762 51.673598 
L 48.9294 51.808511 
L 49.0968 49.847333 
L 50.6034 50.534627 
L 50.7708 52.790648 
L 51.273 53.057911 
L 51.4404 51.067078 
L 51.7752 51.212059 
L 51.9426 49.535393 
L 52.947 49.921572 
L 53.1144 51.864183 
L 53.4492 52.020953 
L 53.6166 54.320595 
L 54.1188 54.579683 
L 54.2862 52.580472 
L 54.9558 52.851022 
L 55.2906 49.713559 
L 55.458 49.767335 
L 55.7928 47.361238 
L 55.9602 48.712276 
L 56.6298 48.945286 
L 56.7972 49.141631 
L 56.9646 50.639013 
L 57.132 50.69499 
L 57.4668 54.335361 
L 57.969 54.563902 
L 58.1364 52.944038 
L 58.3038 52.984786 
L 58.6386 53.246643 
L 58.9734 53.371822 
L 59.1408 51.978958 
L 59.643 52.15322 
L 59.8104 53.78675 
L 59.9778 53.849645 
L 60.3126 54.168385 
L 60.48 52.790291 
L 60.6474 52.816544 
L 60.8148 54.442926 
L 60.9822 54.470013 
L 61.317 51.856184 
L 61.6518 51.980264 
L 61.9866 52.189311 
L 62.154 53.602145 
L 62.8236 54.010652 
L 62.991 55.59835 
L 63.3258 55.770809 
L 63.4932 57.644668 
L 63.828 57.844949 
L 64.1628 54.8108 
L 64.9998 55.306988 
L 65.3346 55.354762 
L 65.502 55.413467 
L 65.8368 58.928529 
L 66.0042 59.004713 
L 66.1716 61.085512 
L 66.6738 61.094586 
L 66.8412 61.28015 
L 67.5108 61.221708 
L 67.8456 61.360704 
L 68.013 61.539905 
L 68.1804 59.676267 
L 69.0174 60.068048 
L 69.1848 58.560212 
L 69.687 58.724195 
L 69.8544 60.553657 
L 70.3566 60.754734 
L 70.524 59.254387 
L 70.6914 59.312181 
L 71.1936 59.706443 
L 71.5284 59.739938 
L 72.0306 59.830209 
L 72.198 61.546482 
L 72.3654 60.00837 
L 72.5328 61.716915 
L 73.3698 62.181772 
L 73.5372 60.631354 
L 74.0394 61.134785 
L 74.2068 59.853185 
L 74.5416 59.87372 
L 74.709 58.678738 
L 74.8764 58.646223 
L 75.0438 57.664843 
L 75.2112 58.962454 
L 75.3786 59.024851 
L 75.546 57.977416 
L 75.8808 60.616073 
L 76.2156 60.862038 
L 76.5504 61.141561 
L 76.8852 61.387739 
L 77.0526 60.207263 
L 77.3874 60.438205 
L 77.7222 58.528047 
L 78.057 58.741698 
L 78.2244 57.966339 
L 78.3918 59.076758 
L 78.5592 59.138285 
L 78.894 61.64997 
L 79.0614 61.592585 
L 79.3962 64.622126 
L 79.5636 63.335394 
L 79.8984 66.751206 
L 80.0658 66.841259 
L 80.4006 64.030159 
L 80.568 64.095101 
L 80.7354 64.32232 
L 80.9028 63.150619 
L 81.0702 63.211661 
L 81.405 63.464931 
L 81.5724 63.530023 
L 81.7398 62.496335 
L 82.0746 65.051895 
L 82.242 63.919809 
L 82.4094 63.98689 
L 82.5768 64.187702 
L 82.7442 64.100831 
L 82.9116 65.321593 
L 83.079 64.217223 
L 83.4138 64.462073 
L 83.7486 64.755998 
L 83.916 66.128711 
L 84.0834 65.006904 
L 84.2508 66.378021 
L 84.4182 65.422227 
L 84.5856 65.498035 
L 84.753 66.713859 
L 84.9204 66.780757 
L 85.0878 68.307709 
L 85.2552 68.197588 
L 85.4226 66.936815 
L 85.59 66.997399 
L 85.7574 68.491148 
L 85.9248 68.558935 
L 86.0922 70.244138 
L 86.427 70.479053 
L 86.5944 70.366298 
L 86.9292 70.550428 
L 87.0966 72.282879 
L 87.264 70.594226 
L 87.5988 70.715398 
L 87.7662 70.631859 
L 88.7706 71.399096 
L 88.938 73.363093 
L 89.1054 73.428655 
L 89.2728 73.367092 
L 89.6076 73.72466 
L 90.1098 74.237227 
L 90.2772 74.453093 
L 90.4446 72.547216 
L 90.9468 72.717394 
L 91.1142 72.883766 
L 91.2816 72.842418 
L 91.449 71.22218 
L 91.9512 71.369179 
L 92.1186 73.191646 
L 92.286 73.157017 
L 92.6208 73.375366 
L 92.9556 73.591606 
L 93.123 75.741045 
L 93.4578 75.759694 
L 93.7926 75.917154 
L 93.96 74.203948 
L 94.2948 74.161905 
L 95.4666 74.741137 
L 95.634 76.757238 
L 95.9688 77.108324 
L 96.1362 75.278523 
L 96.471 75.344689 
L 96.8058 75.711579 
L 96.9732 74.133252 
L 97.308 74.35523 
L 97.4754 73.058552 
L 97.6428 73.055096 
L 97.8102 74.696132 
L 97.9776 73.403455 
L 98.4798 73.608217 
L 98.6472 73.825222 
L 98.8146 72.61943 
L 98.982 72.681692 
L 99.1494 74.072599 
L 99.3168 72.949679 
L 99.4842 72.93709 
L 99.6516 74.311911 
L 99.819 74.382498 
L 100.1538 72.134671 
L 100.3212 73.432547 
L 100.4886 73.616885 
L 100.656 72.549389 
L 100.8234 72.67883 
L 100.9908 73.978735 
L 101.3256 74.269894 
L 101.493 74.248244 
L 101.6604 74.428748 
L 101.8278 75.878633 
L 101.9952 74.677579 
L 102.1626 76.126027 
L 102.33 76.31536 
L 102.6648 76.346594 
L 102.8322 76.40748 
L 102.9996 75.203876 
L 103.167 75.346911 
L 103.3344 76.684907 
L 103.5018 76.656684 
L 103.6692 78.237235 
L 104.004 78.468212 
L 104.3388 78.705358 
L 104.5062 78.765106 
L 104.6736 80.479567 
L 104.841 80.546687 
L 105.1758 80.837302 
L 105.5106 80.876338 
L 105.678 82.984023 
L 105.8454 81.083159 
L 106.0128 81.139491 
L 106.1802 79.510338 
L 107.1846 79.881273 
L 107.352 78.456548 
L 107.5194 80.056991 
L 107.6868 80.062481 
L 107.8542 81.893963 
L 108.189 81.98267 
L 108.3564 80.403357 
L 109.026 80.735629 
L 109.863 81.043406 
L 110.0304 81.182579 
L 110.1978 79.705973 
L 110.5326 79.757965 
L 110.7 81.377936 
L 110.8674 81.427622 
L 111.0348 79.992535 
L 111.3696 80.16096 
L 111.537 78.901793 
L 112.0392 79.303941 
L 112.374 77.172843 
L 112.5414 77.22269 
L 112.7088 78.410827 
L 113.0436 78.52072 
L 113.5458 82.899131 
L 113.7132 81.501083 
L 114.2154 81.902183 
L 114.3828 80.678265 
L 114.5502 80.730181 
L 114.885 78.613162 
L 115.3872 78.881815 
L 115.722 81.392962 
L 116.2242 81.66266 
L 116.559 84.800866 
L 116.8938 84.896877 
L 117.0612 86.791538 
L 117.396 86.931801 
L 117.5634 86.964699 
L 117.7308 89.17262 
L 117.8982 87.187882 
L 118.0656 87.242647 
L 118.233 85.55093 
L 118.9026 85.750331 
L 119.07 84.310224 
L 119.4048 84.403823 
L 119.5722 86.043933 
L 120.2418 86.337435 
L 120.5766 83.570526 
L 120.744 85.030338 
L 121.4136 85.208203 
L 121.581 86.851557 
L 121.9158 86.951799 
L 122.2506 91.077864 
L 124.092 91.639216 
L 124.4268 87.868374 
L 125.0964 88.019043 
L 125.5986 84.050069 
L 125.766 84.075818 
L 126.1008 86.838707 
L 126.7704 87.002334 
L 127.2726 92.770983 
L 127.44 90.806009 
L 128.1096 91.085053 
L 128.277 89.410543 
L 128.9466 89.646859 
L 129.114 91.559269 
L 129.7836 91.810259 
L 129.951 94.047516 
L 130.2858 90.351309 
L 130.4532 90.40869 
L 130.6206 88.93371 
L 131.625 89.2092 
L 131.9598 92.76131 
L 132.1272 92.826662 
L 132.2946 95.077123 
L 132.462 93.07167 
L 132.9642 93.222058 
L 133.1316 91.516372 
L 134.3034 91.912948 
L 134.6382 92.013156 
L 134.8056 93.902857 
L 134.973 93.962337 
L 135.3078 90.77005 
L 135.6426 90.846557 
L 135.81 92.493886 
L 136.647 92.712804 
L 136.9818 96.826575 
L 138.321 97.229803 
L 138.4884 95.181333 
L 138.9906 95.279947 
L 139.158 93.546061 
L 139.3254 93.573948 
L 139.4928 92.073686 
L 139.995 92.16885 
L 140.1624 93.797393 
L 140.3298 92.310253 
L 140.6646 92.379816 
L 140.832 94.010295 
L 140.9994 94.054108 
L 141.1668 95.939807 
L 142.0038 96.226709 
L 142.1712 94.486906 
L 142.6734 94.577594 
L 142.8408 93.071349 
L 143.5104 93.175853 
L 143.8452 96.666986 
L 144.3474 96.791907 
L 144.5148 98.99771 
L 145.1844 99.202664 
L 145.3518 97.164487 
L 146.1888 97.368352 
L 146.3562 95.63409 
L 146.5236 95.668716 
L 146.8584 92.841931 
L 147.3606 92.978861 
L 147.6954 90.734124 
L 147.8628 90.758241 
L 148.0302 91.923421 
L 148.1976 91.953566 
L 148.8672 96.338444 
L 149.0346 96.371243 
L 149.202 98.23038 
L 149.5368 98.366014 
L 149.7042 98.402057 
L 150.039 95.13437 
L 150.2064 95.152405 
L 150.5412 92.623926 
L 150.7086 92.644686 
L 150.876 91.568419 
L 151.3782 91.663063 
L 151.713 94.093586 
L 151.8804 92.909582 
L 152.2152 95.606182 
L 152.3826 95.635706 
L 152.7174 99.101341 
L 153.387 99.215358 
L 153.5544 101.394059 
L 153.7218 99.317178 
L 154.8936 99.466055 
L 155.061 97.699625 
L 155.2284 97.712526 
L 155.3958 99.551891 
L 156.4002 99.655519 
L 156.5676 97.887826 
L 156.735 99.728386 
L 156.9024 99.744834 
L 157.0698 97.973004 
L 157.2372 97.993261 
L 157.4046 96.457025 
L 158.0742 96.514823 
L 158.2416 98.108982 
L 158.409 96.574296 
L 158.5764 96.588941 
L 158.7438 98.18718 
L 159.246 98.26159 
L 159.5808 95.36825 
L 159.7482 95.380816 
L 159.9156 94.169938 
L 160.083 95.432533 
L 160.4178 95.453549 
L 160.5852 94.246081 
L 160.7526 95.503531 
L 160.92 95.520538 
L 161.2548 98.518992 
L 161.4222 98.534001 
L 161.5896 100.364403 
L 162.2592 100.452851 
L 162.4266 98.679052 
L 163.431 98.760661 
L 163.5984 97.224274 
L 163.7658 97.239421 
L 164.1006 100.664226 
L 165.105 100.733214 
L 165.2724 102.884169 
L 165.6072 102.898195 
L 165.7746 100.79059 
L 165.942 100.807726 
L 166.2768 97.481489 
L 166.6116 97.502593 
L 166.779 96.139776 
L 167.616 96.197294 
L 167.9508 99.173083 
L 168.2856 99.188019 
L 168.453 101.012404 
L 168.9552 96.314191 
L 169.1226 97.706457 
L 169.29 96.340892 
L 169.7922 96.35663 
L 169.9596 95.135634 
L 170.127 95.141365 
L 170.964 101.184863 
L 171.4662 101.213859 
L 171.6336 103.354843 
L 171.9684 103.362711 
L 172.1358 101.242255 
L 173.6424 101.28999 
L 173.8098 103.426986 
L 173.9772 103.433094 
L 174.312 99.519588 
L 174.6468 99.520608 
L 174.8142 97.965777 
L 175.3164 97.970529 
L 175.4838 96.597073 
L 175.6512 96.60268 
L 175.8186 97.986781 
L 176.3208 98.010246 
L 176.4882 99.58422 
L 176.6556 99.587658 
L 176.9904 96.653479 
L 177.1578 98.037899 
L 177.4926 98.040251 
L 177.66 99.612926 
L 177.8274 99.610072 
L 177.9948 98.052438 
L 178.3296 98.052279 
L 178.6644 101.428519 
L 179.5014 101.435926 
L 179.6688 103.566647 
L 180.3384 103.572692 
L 180.5058 101.455004 
L 181.6776 101.493623 
L 182.0124 98.135424 
L 182.1798 99.707015 
L 182.5146 99.701815 
L 182.8494 96.75577 
L 183.1842 96.760851 
L 183.3516 95.524641 
L 183.6864 98.151845 
L 183.8538 96.770425 
L 184.1886 96.781894 
L 184.5234 99.7411 
L 184.6908 98.179437 
L 184.8582 98.177244 
L 185.0256 99.749252 
L 185.3604 96.798641 
L 185.5278 98.182582 
L 185.6952 98.178434 
L 185.8626 96.796154 
L 186.03 96.794101 
L 186.1974 95.557416 
L 186.6996 95.564431 
L 187.0344 98.180828 
L 187.2018 98.180072 
L 187.3692 96.80399 
L 187.704 96.807744 
L 188.0388 99.758823 
L 188.8758 99.772379 
L 189.2106 103.705288 
L 189.378 103.706773 
L 189.5454 101.579553 
L 190.0476 101.582745 
L 190.3824 98.211921 
L 191.052 98.215268 
L 191.2194 99.777994 
L 191.7216 99.766926 
L 191.889 101.56589 
L 192.0564 101.569231 
L 192.3912 98.216412 
L 192.8934 98.229421 
L 193.2282 95.62055 
L 193.563 95.62782 
L 193.8978 97.199249 
L 194.0652 98.464727 
L 194.2326 97.777517 
L 194.2326 97.777517 
" style="fill:none;stroke:#1f77b4;stroke-linecap:square;stroke-width:1.5;"/>
   </g>
   <g id="line2d_63">
    <path clip-path="url(#p1c949a7e52)" d="M 27 47.132766 
L 194.4 47.132766 
" style="fill:none;stroke:#000000;stroke-dasharray:5.55,2.4;stroke-dashoffset:0;stroke-width:1.5;"/>
   </g>
   <g id="patch_3">
    <path d="M 27 189 
L 27 25.92 
" style="fill:none;stroke:#000000;stroke-linecap:square;stroke-linejoin:miter;stroke-width:0.8;"/>
   </g>
   <g id="patch_4">
    <path d="M 194.4 189 
L 194.4 25.92 
" style="fill:none;stroke:#000000;stroke-linecap:square;stroke-linejoin:miter;stroke-width:0.8;"/>
   </g>
   <g id="patch_5">
    <path d="M 27 189 
L 194.4 189 
" style="fill:none;stroke:#000000;stroke-linecap:square;stroke-linejoin:miter;stroke-width:0.8;"/>
   </g>
   <g id="patch_6">
    <path d="M 27 25.92 
L 194.4 25.92 
" style="fill:none;stroke:#000000;stroke-linecap:square;stroke-linejoin:miter;stroke-width:0.8;"/>
   </g>
  </g>
 </g>
 <defs>
  <clipPath id="p1c949a7e52">
   <rect height="163.08" width="167.4" x="27" y="25.92"/>
  </clipPath>
 </defs>
</svg>
