<?xml version="1.0" encoding="utf-8" standalone="no"?>
<!DOCTYPE svg PUBLIC "-//W3C//DTD SVG 1.1//EN"
  "http://www.w3.org/Graphics/SVG/1.1/DTD/svg11.dtd">
<svg height="216pt" version="1.1" viewBox="0 0 216 216" width="216pt" xmlns="http://www.w3.org/2000/svg" xmlns:xlink="http://www.w3.org/1999/xlink">
 <metadata>
  <rdf:RDF xmlns:cc="http://creativecommons.org/ns#" xmlns:dc="http://purl.org/dc/elements/1.1/" xmlns:rdf="http://www.w3.org/1999/02/22-rdf-syntax-ns#">
   <cc:Work>
    <dc:type rdf:resource="http://purl.org/dc/dcmitype/StillImage"/>
    <dc:date>2022-04-28T18:10:07.719765</dc:date>
    <dc:format>image/svg+xml</dc:format>
    <dc:creator>
     <cc:Agent>
      <dc:title>Matplotlib v3.4.3, https://matplotlib.org/</dc:title>
     </cc:Agent>
    </dc:creator>
   </cc:Work>
  </rdf:RDF>
 </metadata>
 <defs>
  <style type="text/css">*{stroke-linecap:butt;stroke-linejoin:round;}</style>
 </defs>
 <g id="figure_1">
  <g id="patch_1">
   <path d="M 0 216 
L 216 216 
L 216 0 
L 0 0 
z
" style="fill:#ffffff;"/>
  </g>
  <g id="axes_1">
   <g id="patch_2">
    <path d="M 27 189 
L 194.4 189 
L 194.4 25.92 
L 27 25.92 
z
" style="fill:#ffffff;"/>
   </g>
   <g id="matplotlib.axis_1">
    <g id="xtick_1">
     <g id="line2d_1">
      <defs>
       <path d="M 0 0 
L 0 3.5 
" id="m3becdf816d" style="stroke:#000000;stroke-width:0.8;"/>
      </defs>
      <g>
       <use style="stroke:#000000;stroke-width:0.8;" x="27" xlink:href="#m3becdf816d" y="189"/>
      </g>
     </g>
     <g id="text_1">
      <!-- 0 -->
      <g transform="translate(23.81875 203.598437)scale(0.1 -0.1)">
       <defs>
        <path d="M 2034 4250 
Q 1547 4250 1301 3770 
Q 1056 3291 1056 2328 
Q 1056 1369 1301 889 
Q 1547 409 2034 409 
Q 2525 409 2770 889 
Q 3016 1369 3016 2328 
Q 3016 3291 2770 3770 
Q 2525 4250 2034 4250 
z
M 2034 4750 
Q 2819 4750 3233 4129 
Q 3647 3509 3647 2328 
Q 3647 1150 3233 529 
Q 2819 -91 2034 -91 
Q 1250 -91 836 529 
Q 422 1150 422 2328 
Q 422 3509 836 4129 
Q 1250 4750 2034 4750 
z
" id="DejaVuSans-30" transform="scale(0.015625)"/>
       </defs>
       <use xlink:href="#DejaVuSans-30"/>
      </g>
     </g>
    </g>
    <g id="xtick_2">
     <g id="line2d_2">
      <g>
       <use style="stroke:#000000;stroke-width:0.8;" x="60.48" xlink:href="#m3becdf816d" y="189"/>
      </g>
     </g>
     <g id="text_2">
      <!-- 200 -->
      <g transform="translate(50.93625 203.598437)scale(0.1 -0.1)">
       <defs>
        <path d="M 1228 531 
L 3431 531 
L 3431 0 
L 469 0 
L 469 531 
Q 828 903 1448 1529 
Q 2069 2156 2228 2338 
Q 2531 2678 2651 2914 
Q 2772 3150 2772 3378 
Q 2772 3750 2511 3984 
Q 2250 4219 1831 4219 
Q 1534 4219 1204 4116 
Q 875 4013 500 3803 
L 500 4441 
Q 881 4594 1212 4672 
Q 1544 4750 1819 4750 
Q 2544 4750 2975 4387 
Q 3406 4025 3406 3419 
Q 3406 3131 3298 2873 
Q 3191 2616 2906 2266 
Q 2828 2175 2409 1742 
Q 1991 1309 1228 531 
z
" id="DejaVuSans-32" transform="scale(0.015625)"/>
       </defs>
       <use xlink:href="#DejaVuSans-32"/>
       <use x="63.623047" xlink:href="#DejaVuSans-30"/>
       <use x="127.246094" xlink:href="#DejaVuSans-30"/>
      </g>
     </g>
    </g>
    <g id="xtick_3">
     <g id="line2d_3">
      <g>
       <use style="stroke:#000000;stroke-width:0.8;" x="93.96" xlink:href="#m3becdf816d" y="189"/>
      </g>
     </g>
     <g id="text_3">
      <!-- 400 -->
      <g transform="translate(84.41625 203.598437)scale(0.1 -0.1)">
       <defs>
        <path d="M 2419 4116 
L 825 1625 
L 2419 1625 
L 2419 4116 
z
M 2253 4666 
L 3047 4666 
L 3047 1625 
L 3713 1625 
L 3713 1100 
L 3047 1100 
L 3047 0 
L 2419 0 
L 2419 1100 
L 313 1100 
L 313 1709 
L 2253 4666 
z
" id="DejaVuSans-34" transform="scale(0.015625)"/>
       </defs>
       <use xlink:href="#DejaVuSans-34"/>
       <use x="63.623047" xlink:href="#DejaVuSans-30"/>
       <use x="127.246094" xlink:href="#DejaVuSans-30"/>
      </g>
     </g>
    </g>
    <g id="xtick_4">
     <g id="line2d_4">
      <g>
       <use style="stroke:#000000;stroke-width:0.8;" x="127.44" xlink:href="#m3becdf816d" y="189"/>
      </g>
     </g>
     <g id="text_4">
      <!-- 600 -->
      <g transform="translate(117.89625 203.598437)scale(0.1 -0.1)">
       <defs>
        <path d="M 2113 2584 
Q 1688 2584 1439 2293 
Q 1191 2003 1191 1497 
Q 1191 994 1439 701 
Q 1688 409 2113 409 
Q 2538 409 2786 701 
Q 3034 994 3034 1497 
Q 3034 2003 2786 2293 
Q 2538 2584 2113 2584 
z
M 3366 4563 
L 3366 3988 
Q 3128 4100 2886 4159 
Q 2644 4219 2406 4219 
Q 1781 4219 1451 3797 
Q 1122 3375 1075 2522 
Q 1259 2794 1537 2939 
Q 1816 3084 2150 3084 
Q 2853 3084 3261 2657 
Q 3669 2231 3669 1497 
Q 3669 778 3244 343 
Q 2819 -91 2113 -91 
Q 1303 -91 875 529 
Q 447 1150 447 2328 
Q 447 3434 972 4092 
Q 1497 4750 2381 4750 
Q 2619 4750 2861 4703 
Q 3103 4656 3366 4563 
z
" id="DejaVuSans-36" transform="scale(0.015625)"/>
       </defs>
       <use xlink:href="#DejaVuSans-36"/>
       <use x="63.623047" xlink:href="#DejaVuSans-30"/>
       <use x="127.246094" xlink:href="#DejaVuSans-30"/>
      </g>
     </g>
    </g>
    <g id="xtick_5">
     <g id="line2d_5">
      <g>
       <use style="stroke:#000000;stroke-width:0.8;" x="160.92" xlink:href="#m3becdf816d" y="189"/>
      </g>
     </g>
     <g id="text_5">
      <!-- 800 -->
      <g transform="translate(151.37625 203.598437)scale(0.1 -0.1)">
       <defs>
        <path d="M 2034 2216 
Q 1584 2216 1326 1975 
Q 1069 1734 1069 1313 
Q 1069 891 1326 650 
Q 1584 409 2034 409 
Q 2484 409 2743 651 
Q 3003 894 3003 1313 
Q 3003 1734 2745 1975 
Q 2488 2216 2034 2216 
z
M 1403 2484 
Q 997 2584 770 2862 
Q 544 3141 544 3541 
Q 544 4100 942 4425 
Q 1341 4750 2034 4750 
Q 2731 4750 3128 4425 
Q 3525 4100 3525 3541 
Q 3525 3141 3298 2862 
Q 3072 2584 2669 2484 
Q 3125 2378 3379 2068 
Q 3634 1759 3634 1313 
Q 3634 634 3220 271 
Q 2806 -91 2034 -91 
Q 1263 -91 848 271 
Q 434 634 434 1313 
Q 434 1759 690 2068 
Q 947 2378 1403 2484 
z
M 1172 3481 
Q 1172 3119 1398 2916 
Q 1625 2713 2034 2713 
Q 2441 2713 2670 2916 
Q 2900 3119 2900 3481 
Q 2900 3844 2670 4047 
Q 2441 4250 2034 4250 
Q 1625 4250 1398 4047 
Q 1172 3844 1172 3481 
z
" id="DejaVuSans-38" transform="scale(0.015625)"/>
       </defs>
       <use xlink:href="#DejaVuSans-38"/>
       <use x="63.623047" xlink:href="#DejaVuSans-30"/>
       <use x="127.246094" xlink:href="#DejaVuSans-30"/>
      </g>
     </g>
    </g>
    <g id="xtick_6">
     <g id="line2d_6">
      <g>
       <use style="stroke:#000000;stroke-width:0.8;" x="194.4" xlink:href="#m3becdf816d" y="189"/>
      </g>
     </g>
     <g id="text_6">
      <!-- 1000 -->
      <g transform="translate(181.675 203.598437)scale(0.1 -0.1)">
       <defs>
        <path d="M 794 531 
L 1825 531 
L 1825 4091 
L 703 3866 
L 703 4441 
L 1819 4666 
L 2450 4666 
L 2450 531 
L 3481 531 
L 3481 0 
L 794 0 
L 794 531 
z
" id="DejaVuSans-31" transform="scale(0.015625)"/>
       </defs>
       <use xlink:href="#DejaVuSans-31"/>
       <use x="63.623047" xlink:href="#DejaVuSans-30"/>
       <use x="127.246094" xlink:href="#DejaVuSans-30"/>
       <use x="190.869141" xlink:href="#DejaVuSans-30"/>
      </g>
     </g>
    </g>
    <g id="text_7">
     <!-- Epoch -->
     <g transform="translate(95.389062 217.276563)scale(0.1 -0.1)">
      <defs>
       <path d="M 628 4666 
L 3578 4666 
L 3578 4134 
L 1259 4134 
L 1259 2753 
L 3481 2753 
L 3481 2222 
L 1259 2222 
L 1259 531 
L 3634 531 
L 3634 0 
L 628 0 
L 628 4666 
z
" id="DejaVuSans-45" transform="scale(0.015625)"/>
       <path d="M 1159 525 
L 1159 -1331 
L 581 -1331 
L 581 3500 
L 1159 3500 
L 1159 2969 
Q 1341 3281 1617 3432 
Q 1894 3584 2278 3584 
Q 2916 3584 3314 3078 
Q 3713 2572 3713 1747 
Q 3713 922 3314 415 
Q 2916 -91 2278 -91 
Q 1894 -91 1617 61 
Q 1341 213 1159 525 
z
M 3116 1747 
Q 3116 2381 2855 2742 
Q 2594 3103 2138 3103 
Q 1681 3103 1420 2742 
Q 1159 2381 1159 1747 
Q 1159 1113 1420 752 
Q 1681 391 2138 391 
Q 2594 391 2855 752 
Q 3116 1113 3116 1747 
z
" id="DejaVuSans-70" transform="scale(0.015625)"/>
       <path d="M 1959 3097 
Q 1497 3097 1228 2736 
Q 959 2375 959 1747 
Q 959 1119 1226 758 
Q 1494 397 1959 397 
Q 2419 397 2687 759 
Q 2956 1122 2956 1747 
Q 2956 2369 2687 2733 
Q 2419 3097 1959 3097 
z
M 1959 3584 
Q 2709 3584 3137 3096 
Q 3566 2609 3566 1747 
Q 3566 888 3137 398 
Q 2709 -91 1959 -91 
Q 1206 -91 779 398 
Q 353 888 353 1747 
Q 353 2609 779 3096 
Q 1206 3584 1959 3584 
z
" id="DejaVuSans-6f" transform="scale(0.015625)"/>
       <path d="M 3122 3366 
L 3122 2828 
Q 2878 2963 2633 3030 
Q 2388 3097 2138 3097 
Q 1578 3097 1268 2742 
Q 959 2388 959 1747 
Q 959 1106 1268 751 
Q 1578 397 2138 397 
Q 2388 397 2633 464 
Q 2878 531 3122 666 
L 3122 134 
Q 2881 22 2623 -34 
Q 2366 -91 2075 -91 
Q 1284 -91 818 406 
Q 353 903 353 1747 
Q 353 2603 823 3093 
Q 1294 3584 2113 3584 
Q 2378 3584 2631 3529 
Q 2884 3475 3122 3366 
z
" id="DejaVuSans-63" transform="scale(0.015625)"/>
       <path d="M 3513 2113 
L 3513 0 
L 2938 0 
L 2938 2094 
Q 2938 2591 2744 2837 
Q 2550 3084 2163 3084 
Q 1697 3084 1428 2787 
Q 1159 2491 1159 1978 
L 1159 0 
L 581 0 
L 581 4863 
L 1159 4863 
L 1159 2956 
Q 1366 3272 1645 3428 
Q 1925 3584 2291 3584 
Q 2894 3584 3203 3211 
Q 3513 2838 3513 2113 
z
" id="DejaVuSans-68" transform="scale(0.015625)"/>
      </defs>
      <use xlink:href="#DejaVuSans-45"/>
      <use x="63.183594" xlink:href="#DejaVuSans-70"/>
      <use x="126.660156" xlink:href="#DejaVuSans-6f"/>
      <use x="187.841797" xlink:href="#DejaVuSans-63"/>
      <use x="242.822266" xlink:href="#DejaVuSans-68"/>
     </g>
    </g>
   </g>
   <g id="matplotlib.axis_2">
    <g id="ytick_1">
     <g id="line2d_7">
      <defs>
       <path d="M 0 0 
L -3.5 0 
" id="m6940bd6013" style="stroke:#000000;stroke-width:0.8;"/>
      </defs>
      <g>
       <use style="stroke:#000000;stroke-width:0.8;" x="27" xlink:href="#m6940bd6013" y="189"/>
      </g>
     </g>
     <g id="text_8">
      <!-- $\mathdefault{10^{-6}}$ -->
      <g transform="translate(-3.5 192.799219)scale(0.1 -0.1)">
       <defs>
        <path d="M 678 2272 
L 4684 2272 
L 4684 1741 
L 678 1741 
L 678 2272 
z
" id="DejaVuSans-2212" transform="scale(0.015625)"/>
       </defs>
       <use transform="translate(0 0.765625)" xlink:href="#DejaVuSans-31"/>
       <use transform="translate(63.623047 0.765625)" xlink:href="#DejaVuSans-30"/>
       <use transform="translate(128.203125 39.046875)scale(0.7)" xlink:href="#DejaVuSans-2212"/>
       <use transform="translate(186.855469 39.046875)scale(0.7)" xlink:href="#DejaVuSans-36"/>
      </g>
     </g>
    </g>
    <g id="ytick_2">
     <g id="line2d_8">
      <g>
       <use style="stroke:#000000;stroke-width:0.8;" x="27" xlink:href="#m6940bd6013" y="161.82"/>
      </g>
     </g>
     <g id="text_9">
      <!-- $\mathdefault{10^{-5}}$ -->
      <g transform="translate(-3.5 165.619219)scale(0.1 -0.1)">
       <defs>
        <path d="M 691 4666 
L 3169 4666 
L 3169 4134 
L 1269 4134 
L 1269 2991 
Q 1406 3038 1543 3061 
Q 1681 3084 1819 3084 
Q 2600 3084 3056 2656 
Q 3513 2228 3513 1497 
Q 3513 744 3044 326 
Q 2575 -91 1722 -91 
Q 1428 -91 1123 -41 
Q 819 9 494 109 
L 494 744 
Q 775 591 1075 516 
Q 1375 441 1709 441 
Q 2250 441 2565 725 
Q 2881 1009 2881 1497 
Q 2881 1984 2565 2268 
Q 2250 2553 1709 2553 
Q 1456 2553 1204 2497 
Q 953 2441 691 2322 
L 691 4666 
z
" id="DejaVuSans-35" transform="scale(0.015625)"/>
       </defs>
       <use transform="translate(0 0.684375)" xlink:href="#DejaVuSans-31"/>
       <use transform="translate(63.623047 0.684375)" xlink:href="#DejaVuSans-30"/>
       <use transform="translate(128.203125 38.965625)scale(0.7)" xlink:href="#DejaVuSans-2212"/>
       <use transform="translate(186.855469 38.965625)scale(0.7)" xlink:href="#DejaVuSans-35"/>
      </g>
     </g>
    </g>
    <g id="ytick_3">
     <g id="line2d_9">
      <g>
       <use style="stroke:#000000;stroke-width:0.8;" x="27" xlink:href="#m6940bd6013" y="134.64"/>
      </g>
     </g>
     <g id="text_10">
      <!-- $\mathdefault{10^{-4}}$ -->
      <g transform="translate(-3.5 138.439219)scale(0.1 -0.1)">
       <use transform="translate(0 0.684375)" xlink:href="#DejaVuSans-31"/>
       <use transform="translate(63.623047 0.684375)" xlink:href="#DejaVuSans-30"/>
       <use transform="translate(128.203125 38.965625)scale(0.7)" xlink:href="#DejaVuSans-2212"/>
       <use transform="translate(186.855469 38.965625)scale(0.7)" xlink:href="#DejaVuSans-34"/>
      </g>
     </g>
    </g>
    <g id="ytick_4">
     <g id="line2d_10">
      <g>
       <use style="stroke:#000000;stroke-width:0.8;" x="27" xlink:href="#m6940bd6013" y="107.46"/>
      </g>
     </g>
     <g id="text_11">
      <!-- $\mathdefault{10^{-3}}$ -->
      <g transform="translate(-3.5 111.259219)scale(0.1 -0.1)">
       <defs>
        <path d="M 2597 2516 
Q 3050 2419 3304 2112 
Q 3559 1806 3559 1356 
Q 3559 666 3084 287 
Q 2609 -91 1734 -91 
Q 1441 -91 1130 -33 
Q 819 25 488 141 
L 488 750 
Q 750 597 1062 519 
Q 1375 441 1716 441 
Q 2309 441 2620 675 
Q 2931 909 2931 1356 
Q 2931 1769 2642 2001 
Q 2353 2234 1838 2234 
L 1294 2234 
L 1294 2753 
L 1863 2753 
Q 2328 2753 2575 2939 
Q 2822 3125 2822 3475 
Q 2822 3834 2567 4026 
Q 2313 4219 1838 4219 
Q 1578 4219 1281 4162 
Q 984 4106 628 3988 
L 628 4550 
Q 988 4650 1302 4700 
Q 1616 4750 1894 4750 
Q 2613 4750 3031 4423 
Q 3450 4097 3450 3541 
Q 3450 3153 3228 2886 
Q 3006 2619 2597 2516 
z
" id="DejaVuSans-33" transform="scale(0.015625)"/>
       </defs>
       <use transform="translate(0 0.765625)" xlink:href="#DejaVuSans-31"/>
       <use transform="translate(63.623047 0.765625)" xlink:href="#DejaVuSans-30"/>
       <use transform="translate(128.203125 39.046875)scale(0.7)" xlink:href="#DejaVuSans-2212"/>
       <use transform="translate(186.855469 39.046875)scale(0.7)" xlink:href="#DejaVuSans-33"/>
      </g>
     </g>
    </g>
    <g id="ytick_5">
     <g id="line2d_11">
      <g>
       <use style="stroke:#000000;stroke-width:0.8;" x="27" xlink:href="#m6940bd6013" y="80.28"/>
      </g>
     </g>
     <g id="text_12">
      <!-- $\mathdefault{10^{-2}}$ -->
      <g transform="translate(-3.5 84.079219)scale(0.1 -0.1)">
       <use transform="translate(0 0.765625)" xlink:href="#DejaVuSans-31"/>
       <use transform="translate(63.623047 0.765625)" xlink:href="#DejaVuSans-30"/>
       <use transform="translate(128.203125 39.046875)scale(0.7)" xlink:href="#DejaVuSans-2212"/>
       <use transform="translate(186.855469 39.046875)scale(0.7)" xlink:href="#DejaVuSans-32"/>
      </g>
     </g>
    </g>
    <g id="ytick_6">
     <g id="line2d_12">
      <g>
       <use style="stroke:#000000;stroke-width:0.8;" x="27" xlink:href="#m6940bd6013" y="53.1"/>
      </g>
     </g>
     <g id="text_13">
      <!-- $\mathdefault{10^{-1}}$ -->
      <g transform="translate(-3.5 56.899219)scale(0.1 -0.1)">
       <use transform="translate(0 0.684375)" xlink:href="#DejaVuSans-31"/>
       <use transform="translate(63.623047 0.684375)" xlink:href="#DejaVuSans-30"/>
       <use transform="translate(128.203125 38.965625)scale(0.7)" xlink:href="#DejaVuSans-2212"/>
       <use transform="translate(186.855469 38.965625)scale(0.7)" xlink:href="#DejaVuSans-31"/>
      </g>
     </g>
    </g>
    <g id="ytick_7">
     <g id="line2d_13">
      <g>
       <use style="stroke:#000000;stroke-width:0.8;" x="27" xlink:href="#m6940bd6013" y="25.92"/>
      </g>
     </g>
     <g id="text_14">
      <!-- $\mathdefault{10^{0}}$ -->
      <g transform="translate(2.4 29.719219)scale(0.1 -0.1)">
       <use transform="translate(0 0.765625)" xlink:href="#DejaVuSans-31"/>
       <use transform="translate(63.623047 0.765625)" xlink:href="#DejaVuSans-30"/>
       <use transform="translate(128.203125 39.046875)scale(0.7)" xlink:href="#DejaVuSans-30"/>
      </g>
     </g>
    </g>
    <g id="ytick_8">
     <g id="line2d_14">
      <defs>
       <path d="M 0 0 
L -2 0 
" id="m69cd263fb4" style="stroke:#000000;stroke-width:0.6;"/>
      </defs>
      <g>
       <use style="stroke:#000000;stroke-width:0.6;" x="27" xlink:href="#m69cd263fb4" y="180.818005"/>
      </g>
     </g>
    </g>
    <g id="ytick_9">
     <g id="line2d_15">
      <g>
       <use style="stroke:#000000;stroke-width:0.6;" x="27" xlink:href="#m69cd263fb4" y="176.031844"/>
      </g>
     </g>
    </g>
    <g id="ytick_10">
     <g id="line2d_16">
      <g>
       <use style="stroke:#000000;stroke-width:0.6;" x="27" xlink:href="#m69cd263fb4" y="172.636009"/>
      </g>
     </g>
    </g>
    <g id="ytick_11">
     <g id="line2d_17">
      <g>
       <use style="stroke:#000000;stroke-width:0.6;" x="27" xlink:href="#m69cd263fb4" y="170.001995"/>
      </g>
     </g>
    </g>
    <g id="ytick_12">
     <g id="line2d_18">
      <g>
       <use style="stroke:#000000;stroke-width:0.6;" x="27" xlink:href="#m69cd263fb4" y="167.849849"/>
      </g>
     </g>
    </g>
    <g id="ytick_13">
     <g id="line2d_19">
      <g>
       <use style="stroke:#000000;stroke-width:0.6;" x="27" xlink:href="#m69cd263fb4" y="166.030235"/>
      </g>
     </g>
    </g>
    <g id="ytick_14">
     <g id="line2d_20">
      <g>
       <use style="stroke:#000000;stroke-width:0.6;" x="27" xlink:href="#m69cd263fb4" y="164.454014"/>
      </g>
     </g>
    </g>
    <g id="ytick_15">
     <g id="line2d_21">
      <g>
       <use style="stroke:#000000;stroke-width:0.6;" x="27" xlink:href="#m69cd263fb4" y="163.063689"/>
      </g>
     </g>
    </g>
    <g id="ytick_16">
     <g id="line2d_22">
      <g>
       <use style="stroke:#000000;stroke-width:0.6;" x="27" xlink:href="#m69cd263fb4" y="153.638005"/>
      </g>
     </g>
    </g>
    <g id="ytick_17">
     <g id="line2d_23">
      <g>
       <use style="stroke:#000000;stroke-width:0.6;" x="27" xlink:href="#m69cd263fb4" y="148.851844"/>
      </g>
     </g>
    </g>
    <g id="ytick_18">
     <g id="line2d_24">
      <g>
       <use style="stroke:#000000;stroke-width:0.6;" x="27" xlink:href="#m69cd263fb4" y="145.456009"/>
      </g>
     </g>
    </g>
    <g id="ytick_19">
     <g id="line2d_25">
      <g>
       <use style="stroke:#000000;stroke-width:0.6;" x="27" xlink:href="#m69cd263fb4" y="142.821995"/>
      </g>
     </g>
    </g>
    <g id="ytick_20">
     <g id="line2d_26">
      <g>
       <use style="stroke:#000000;stroke-width:0.6;" x="27" xlink:href="#m69cd263fb4" y="140.669849"/>
      </g>
     </g>
    </g>
    <g id="ytick_21">
     <g id="line2d_27">
      <g>
       <use style="stroke:#000000;stroke-width:0.6;" x="27" xlink:href="#m69cd263fb4" y="138.850235"/>
      </g>
     </g>
    </g>
    <g id="ytick_22">
     <g id="line2d_28">
      <g>
       <use style="stroke:#000000;stroke-width:0.6;" x="27" xlink:href="#m69cd263fb4" y="137.274014"/>
      </g>
     </g>
    </g>
    <g id="ytick_23">
     <g id="line2d_29">
      <g>
       <use style="stroke:#000000;stroke-width:0.6;" x="27" xlink:href="#m69cd263fb4" y="135.883689"/>
      </g>
     </g>
    </g>
    <g id="ytick_24">
     <g id="line2d_30">
      <g>
       <use style="stroke:#000000;stroke-width:0.6;" x="27" xlink:href="#m69cd263fb4" y="126.458005"/>
      </g>
     </g>
    </g>
    <g id="ytick_25">
     <g id="line2d_31">
      <g>
       <use style="stroke:#000000;stroke-width:0.6;" x="27" xlink:href="#m69cd263fb4" y="121.671844"/>
      </g>
     </g>
    </g>
    <g id="ytick_26">
     <g id="line2d_32">
      <g>
       <use style="stroke:#000000;stroke-width:0.6;" x="27" xlink:href="#m69cd263fb4" y="118.276009"/>
      </g>
     </g>
    </g>
    <g id="ytick_27">
     <g id="line2d_33">
      <g>
       <use style="stroke:#000000;stroke-width:0.6;" x="27" xlink:href="#m69cd263fb4" y="115.641995"/>
      </g>
     </g>
    </g>
    <g id="ytick_28">
     <g id="line2d_34">
      <g>
       <use style="stroke:#000000;stroke-width:0.6;" x="27" xlink:href="#m69cd263fb4" y="113.489849"/>
      </g>
     </g>
    </g>
    <g id="ytick_29">
     <g id="line2d_35">
      <g>
       <use style="stroke:#000000;stroke-width:0.6;" x="27" xlink:href="#m69cd263fb4" y="111.670235"/>
      </g>
     </g>
    </g>
    <g id="ytick_30">
     <g id="line2d_36">
      <g>
       <use style="stroke:#000000;stroke-width:0.6;" x="27" xlink:href="#m69cd263fb4" y="110.094014"/>
      </g>
     </g>
    </g>
    <g id="ytick_31">
     <g id="line2d_37">
      <g>
       <use style="stroke:#000000;stroke-width:0.6;" x="27" xlink:href="#m69cd263fb4" y="108.703689"/>
      </g>
     </g>
    </g>
    <g id="ytick_32">
     <g id="line2d_38">
      <g>
       <use style="stroke:#000000;stroke-width:0.6;" x="27" xlink:href="#m69cd263fb4" y="99.278005"/>
      </g>
     </g>
    </g>
    <g id="ytick_33">
     <g id="line2d_39">
      <g>
       <use style="stroke:#000000;stroke-width:0.6;" x="27" xlink:href="#m69cd263fb4" y="94.491844"/>
      </g>
     </g>
    </g>
    <g id="ytick_34">
     <g id="line2d_40">
      <g>
       <use style="stroke:#000000;stroke-width:0.6;" x="27" xlink:href="#m69cd263fb4" y="91.096009"/>
      </g>
     </g>
    </g>
    <g id="ytick_35">
     <g id="line2d_41">
      <g>
       <use style="stroke:#000000;stroke-width:0.6;" x="27" xlink:href="#m69cd263fb4" y="88.461995"/>
      </g>
     </g>
    </g>
    <g id="ytick_36">
     <g id="line2d_42">
      <g>
       <use style="stroke:#000000;stroke-width:0.6;" x="27" xlink:href="#m69cd263fb4" y="86.309849"/>
      </g>
     </g>
    </g>
    <g id="ytick_37">
     <g id="line2d_43">
      <g>
       <use style="stroke:#000000;stroke-width:0.6;" x="27" xlink:href="#m69cd263fb4" y="84.490235"/>
      </g>
     </g>
    </g>
    <g id="ytick_38">
     <g id="line2d_44">
      <g>
       <use style="stroke:#000000;stroke-width:0.6;" x="27" xlink:href="#m69cd263fb4" y="82.914014"/>
      </g>
     </g>
    </g>
    <g id="ytick_39">
     <g id="line2d_45">
      <g>
       <use style="stroke:#000000;stroke-width:0.6;" x="27" xlink:href="#m69cd263fb4" y="81.523689"/>
      </g>
     </g>
    </g>
    <g id="ytick_40">
     <g id="line2d_46">
      <g>
       <use style="stroke:#000000;stroke-width:0.6;" x="27" xlink:href="#m69cd263fb4" y="72.098005"/>
      </g>
     </g>
    </g>
    <g id="ytick_41">
     <g id="line2d_47">
      <g>
       <use style="stroke:#000000;stroke-width:0.6;" x="27" xlink:href="#m69cd263fb4" y="67.311844"/>
      </g>
     </g>
    </g>
    <g id="ytick_42">
     <g id="line2d_48">
      <g>
       <use style="stroke:#000000;stroke-width:0.6;" x="27" xlink:href="#m69cd263fb4" y="63.916009"/>
      </g>
     </g>
    </g>
    <g id="ytick_43">
     <g id="line2d_49">
      <g>
       <use style="stroke:#000000;stroke-width:0.6;" x="27" xlink:href="#m69cd263fb4" y="61.281995"/>
      </g>
     </g>
    </g>
    <g id="ytick_44">
     <g id="line2d_50">
      <g>
       <use style="stroke:#000000;stroke-width:0.6;" x="27" xlink:href="#m69cd263fb4" y="59.129849"/>
      </g>
     </g>
    </g>
    <g id="ytick_45">
     <g id="line2d_51">
      <g>
       <use style="stroke:#000000;stroke-width:0.6;" x="27" xlink:href="#m69cd263fb4" y="57.310235"/>
      </g>
     </g>
    </g>
    <g id="ytick_46">
     <g id="line2d_52">
      <g>
       <use style="stroke:#000000;stroke-width:0.6;" x="27" xlink:href="#m69cd263fb4" y="55.734014"/>
      </g>
     </g>
    </g>
    <g id="ytick_47">
     <g id="line2d_53">
      <g>
       <use style="stroke:#000000;stroke-width:0.6;" x="27" xlink:href="#m69cd263fb4" y="54.343689"/>
      </g>
     </g>
    </g>
    <g id="ytick_48">
     <g id="line2d_54">
      <g>
       <use style="stroke:#000000;stroke-width:0.6;" x="27" xlink:href="#m69cd263fb4" y="44.918005"/>
      </g>
     </g>
    </g>
    <g id="ytick_49">
     <g id="line2d_55">
      <g>
       <use style="stroke:#000000;stroke-width:0.6;" x="27" xlink:href="#m69cd263fb4" y="40.131844"/>
      </g>
     </g>
    </g>
    <g id="ytick_50">
     <g id="line2d_56">
      <g>
       <use style="stroke:#000000;stroke-width:0.6;" x="27" xlink:href="#m69cd263fb4" y="36.736009"/>
      </g>
     </g>
    </g>
    <g id="ytick_51">
     <g id="line2d_57">
      <g>
       <use style="stroke:#000000;stroke-width:0.6;" x="27" xlink:href="#m69cd263fb4" y="34.101995"/>
      </g>
     </g>
    </g>
    <g id="ytick_52">
     <g id="line2d_58">
      <g>
       <use style="stroke:#000000;stroke-width:0.6;" x="27" xlink:href="#m69cd263fb4" y="31.949849"/>
      </g>
     </g>
    </g>
    <g id="ytick_53">
     <g id="line2d_59">
      <g>
       <use style="stroke:#000000;stroke-width:0.6;" x="27" xlink:href="#m69cd263fb4" y="30.130235"/>
      </g>
     </g>
    </g>
    <g id="ytick_54">
     <g id="line2d_60">
      <g>
       <use style="stroke:#000000;stroke-width:0.6;" x="27" xlink:href="#m69cd263fb4" y="28.554014"/>
      </g>
     </g>
    </g>
    <g id="ytick_55">
     <g id="line2d_61">
      <g>
       <use style="stroke:#000000;stroke-width:0.6;" x="27" xlink:href="#m69cd263fb4" y="27.163689"/>
      </g>
     </g>
    </g>
    <g id="text_15">
     <!-- Loss -->
     <g transform="translate(-9.579688 118.427188)rotate(-90)scale(0.1 -0.1)">
      <defs>
       <path d="M 628 4666 
L 1259 4666 
L 1259 531 
L 3531 531 
L 3531 0 
L 628 0 
L 628 4666 
z
" id="DejaVuSans-4c" transform="scale(0.015625)"/>
       <path d="M 2834 3397 
L 2834 2853 
Q 2591 2978 2328 3040 
Q 2066 3103 1784 3103 
Q 1356 3103 1142 2972 
Q 928 2841 928 2578 
Q 928 2378 1081 2264 
Q 1234 2150 1697 2047 
L 1894 2003 
Q 2506 1872 2764 1633 
Q 3022 1394 3022 966 
Q 3022 478 2636 193 
Q 2250 -91 1575 -91 
Q 1294 -91 989 -36 
Q 684 19 347 128 
L 347 722 
Q 666 556 975 473 
Q 1284 391 1588 391 
Q 1994 391 2212 530 
Q 2431 669 2431 922 
Q 2431 1156 2273 1281 
Q 2116 1406 1581 1522 
L 1381 1569 
Q 847 1681 609 1914 
Q 372 2147 372 2553 
Q 372 3047 722 3315 
Q 1072 3584 1716 3584 
Q 2034 3584 2315 3537 
Q 2597 3491 2834 3397 
z
" id="DejaVuSans-73" transform="scale(0.015625)"/>
      </defs>
      <use xlink:href="#DejaVuSans-4c"/>
      <use x="53.962891" xlink:href="#DejaVuSans-6f"/>
      <use x="115.144531" xlink:href="#DejaVuSans-73"/>
      <use x="167.244141" xlink:href="#DejaVuSans-73"/>
     </g>
    </g>
   </g>
   <g id="line2d_62">
    <path clip-path="url(#p76d562599c)" d="M 27 33.378925 
L 28.3392 33.56766 
L 29.3436 33.933149 
L 30.1806 34.480126 
L 30.8502 35.165247 
L 31.5198 36.159423 
L 32.1894 37.551884 
L 33.0264 39.898361 
L 34.3656 43.907759 
L 34.8678 44.86702 
L 35.37 45.457382 
L 36.207 46.005877 
L 37.3788 46.766528 
L 38.2158 47.573271 
L 38.5506 48.547441 
L 39.2202 51.482004 
L 40.5594 58.468299 
L 41.8986 63.29493 
L 43.0704 68.470771 
L 43.74 72.087537 
L 45.0792 79.778524 
L 45.414 80.906906 
L 46.0836 83.884503 
L 46.4184 84.974828 
L 46.5858 84.742993 
L 47.088 86.334415 
L 47.4228 85.552139 
L 47.7576 85.937104 
L 47.925 84.939248 
L 48.0924 84.790136 
L 48.2598 85.844335 
L 48.4272 85.666574 
L 48.762 85.968405 
L 49.2642 87.90099 
L 49.4316 87.430771 
L 49.7664 89.89919 
L 49.9338 89.597482 
L 50.2686 89.675335 
L 50.436 90.000125 
L 50.6034 88.844189 
L 50.9382 89.529114 
L 51.1056 90.675212 
L 51.273 90.218634 
L 51.7752 91.110372 
L 51.9426 91.499508 
L 52.11 88.215909 
L 52.2774 89.215754 
L 52.4448 88.37931 
L 52.6122 88.376318 
L 52.7796 86.791772 
L 52.947 86.450114 
L 53.1144 86.507414 
L 53.4492 87.023843 
L 53.6166 86.856612 
L 53.784 89.073768 
L 53.9514 88.390507 
L 54.1188 88.854555 
L 54.2862 88.455171 
L 54.621 89.62821 
L 54.7884 88.707437 
L 54.9558 88.759347 
L 55.1232 89.080248 
L 55.2906 88.687467 
L 55.9602 92.384055 
L 56.1276 94.52971 
L 56.295 95.053903 
L 56.4624 96.260415 
L 56.7972 96.322213 
L 56.9646 96.776212 
L 57.132 96.206703 
L 57.2994 95.154874 
L 57.4668 95.334059 
L 57.6342 94.673042 
L 57.8016 94.567815 
L 57.969 93.724659 
L 58.1364 93.511035 
L 58.3038 93.698836 
L 58.4712 93.623844 
L 58.9734 95.644022 
L 59.1408 95.595058 
L 59.3082 93.408226 
L 59.4756 93.93467 
L 59.8104 95.707047 
L 59.9778 95.74505 
L 60.6474 97.493232 
L 60.8148 95.939815 
L 60.9822 100.269041 
L 61.1496 97.710334 
L 61.317 98.050153 
L 61.4844 98.645854 
L 61.9866 98.853207 
L 62.154 99.243502 
L 62.3214 98.684169 
L 62.4888 101.424118 
L 62.6562 101.86423 
L 62.8236 105.420275 
L 62.991 105.697835 
L 63.1584 105.72475 
L 63.4932 107.297359 
L 63.6606 107.471366 
L 63.828 103.045283 
L 63.9954 103.474552 
L 64.1628 102.712172 
L 64.3302 102.560819 
L 64.4976 102.196806 
L 64.9998 102.038718 
L 65.1672 100.681335 
L 65.3346 98.270529 
L 65.502 100.773666 
L 65.6694 100.953317 
L 65.8368 101.612115 
L 66.0042 101.409731 
L 66.1716 101.485025 
L 66.339 101.125455 
L 66.5064 100.166451 
L 66.6738 100.178392 
L 66.8412 101.620905 
L 67.0086 105.025803 
L 67.3434 106.276197 
L 67.5108 106.481856 
L 67.6782 106.458456 
L 68.013 108.228385 
L 68.1804 110.811911 
L 68.3478 111.354599 
L 68.5152 111.42527 
L 68.6826 108.356316 
L 68.85 108.929839 
L 69.0174 108.68445 
L 69.1848 107.20644 
L 69.3522 107.116001 
L 69.5196 106.695717 
L 69.687 107.352002 
L 69.8544 107.32447 
L 70.1892 107.518668 
L 70.3566 111.308863 
L 70.524 111.502818 
L 70.6914 112.355618 
L 71.1936 120.041702 
L 71.5284 121.902547 
L 71.6958 121.728672 
L 71.8632 119.329664 
L 72.0306 118.717795 
L 72.3654 119.4487 
L 72.5328 120.316485 
L 72.7002 121.792276 
L 73.035 122.358376 
L 73.2024 122.957066 
L 73.3698 121.919985 
L 73.5372 128.019885 
L 73.7046 129.317868 
L 73.872 123.1591 
L 74.0394 122.947408 
L 74.2068 122.216526 
L 74.3742 119.853045 
L 74.709 119.775983 
L 74.8764 118.442756 
L 75.0438 104.071601 
L 75.2112 103.491515 
L 75.3786 103.635175 
L 75.546 104.576118 
L 75.8808 104.795764 
L 76.0482 105.454796 
L 76.383 105.4416 
L 76.5504 105.921078 
L 76.7178 129.145636 
L 76.8852 134.270277 
L 77.0526 132.135997 
L 77.22 102.88556 
L 77.3874 101.847648 
L 78.057 101.854707 
L 78.2244 101.856821 
L 78.5592 102.197692 
L 78.7266 102.395186 
L 79.0614 142.917877 
L 79.2288 130.602803 
L 79.3962 130.851924 
L 79.5636 130.415455 
L 79.731 130.342185 
L 79.8984 130.478443 
L 80.0658 130.396563 
L 80.4006 123.110362 
L 80.7354 122.53004 
L 80.9028 125.133383 
L 81.0702 125.186779 
L 81.2376 123.339455 
L 81.405 122.850707 
L 81.7398 122.712721 
L 82.0746 128.721307 
L 82.242 128.510185 
L 82.4094 127.742432 
L 82.5768 111.545677 
L 82.7442 108.567935 
L 82.9116 99.693308 
L 83.2464 98.574906 
L 83.5812 98.435135 
L 83.916 98.462668 
L 84.0834 98.546849 
L 84.4182 103.832608 
L 84.753 128.585557 
L 85.0878 138.721694 
L 85.2552 138.49133 
L 85.4226 141.384739 
L 85.59 141.913196 
L 85.7574 140.540854 
L 86.0922 142.033432 
L 86.427 142.553639 
L 86.5944 142.112967 
L 86.7618 140.700771 
L 87.264 116.7675 
L 88.101 116.893024 
L 88.2684 116.955565 
L 88.4358 117.153329 
L 88.6032 119.850516 
L 88.938 140.056425 
L 89.1054 119.976544 
L 89.4402 116.247727 
L 89.775 116.076899 
L 90.4446 115.94357 
L 90.612 116.551277 
L 90.7794 128.232359 
L 91.1142 137.049325 
L 91.449 133.985546 
L 91.6164 134.009345 
L 91.7838 132.635108 
L 91.9512 132.286196 
L 92.1186 132.379246 
L 92.286 132.673986 
L 92.4534 128.399155 
L 92.6208 106.432228 
L 92.7882 105.456863 
L 93.123 105.248383 
L 93.2904 105.18146 
L 93.6252 104.706305 
L 93.7926 104.712776 
L 93.96 98.925017 
L 94.1274 99.023653 
L 94.2948 106.445262 
L 94.6296 107.930061 
L 94.9644 108.21636 
L 95.2992 109.074384 
L 95.4666 109.108468 
L 95.634 138.885278 
L 95.8014 139.732496 
L 95.9688 109.635333 
L 96.1362 108.492046 
L 96.471 108.464388 
L 97.308 108.459163 
L 97.4754 108.940492 
L 97.8102 150.161669 
L 98.145 133.441478 
L 98.4798 126.581909 
L 98.6472 126.402616 
L 98.8146 125.648006 
L 99.1494 125.500106 
L 99.4842 124.094178 
L 99.819 128.707666 
L 99.9864 132.425758 
L 100.3212 103.604485 
L 100.4886 103.112656 
L 100.8234 103.095827 
L 101.3256 103.350646 
L 101.6604 103.332576 
L 101.8278 108.365098 
L 102.1626 146.367221 
L 102.8322 151.334603 
L 102.9996 149.934712 
L 103.167 151.915479 
L 103.6692 140.227003 
L 104.1714 136.030632 
L 104.5062 135.850908 
L 104.6736 121.906145 
L 104.841 118.876477 
L 105.0084 118.917693 
L 105.3432 118.624088 
L 105.8454 119.35697 
L 106.1802 107.792372 
L 106.515 111.777374 
L 106.6824 111.937704 
L 107.0172 112.59977 
L 107.5194 112.616575 
L 107.6868 119.453764 
L 107.8542 136.375508 
L 108.189 138.043726 
L 108.3564 135.298811 
L 108.5238 134.971899 
L 108.6912 134.974997 
L 108.8586 134.810166 
L 109.1934 135.54788 
L 109.5282 144.606977 
L 109.6956 144.882558 
L 109.863 145.883541 
L 110.0304 154.964846 
L 110.1978 149.96112 
L 110.3652 149.876367 
L 110.5326 150.155532 
L 110.8674 144.741186 
L 111.0348 128.343531 
L 111.3696 127.913349 
L 111.7044 127.950197 
L 111.8718 128.176754 
L 112.2066 128.161684 
L 112.5414 129.014885 
L 112.7088 145.445046 
L 112.8762 129.56361 
L 113.0436 126.119662 
L 113.211 126.014761 
L 113.3784 124.606939 
L 113.5458 124.973962 
L 113.8806 124.990229 
L 114.048 124.93098 
L 114.2154 124.634248 
L 114.3828 124.842404 
L 114.7176 140.825049 
L 114.885 141.112485 
L 115.0524 148.545753 
L 115.2198 146.185355 
L 115.3872 134.326416 
L 115.722 132.072504 
L 116.0568 132.621595 
L 116.559 130.597033 
L 116.7264 130.448996 
L 116.8938 131.229064 
L 117.0612 139.239374 
L 117.2286 141.501055 
L 117.396 145.313837 
L 117.5634 146.072417 
L 117.7308 143.601267 
L 117.8982 145.448716 
L 118.0656 145.636695 
L 118.233 143.226683 
L 118.7352 120.911007 
L 118.9026 120.650717 
L 119.2374 120.644351 
L 119.907 122.069077 
L 120.0744 124.659219 
L 120.5766 162.002198 
L 120.9114 162.768344 
L 121.0788 162.203382 
L 121.2462 163.369558 
L 121.4136 163.100745 
L 121.9158 160.23186 
L 122.0832 160.226386 
L 122.2506 160.007196 
L 122.418 160.248155 
L 122.5854 156.414546 
L 122.7528 146.375447 
L 122.9202 110.513113 
L 123.0876 108.102588 
L 123.5898 107.950675 
L 124.2594 107.943707 
L 124.4268 108.212013 
L 124.929 152.500767 
L 125.4312 155.631804 
L 125.766 158.450219 
L 125.9334 158.821971 
L 126.1008 158.777956 
L 126.2682 158.852331 
L 126.7704 155.627772 
L 126.9378 144.302752 
L 127.1052 144.49287 
L 127.6074 144.414611 
L 127.7748 141.824655 
L 127.9422 141.708448 
L 128.1096 141.29004 
L 128.4444 141.68918 
L 128.6118 150.317735 
L 128.7792 140.178479 
L 128.9466 138.114165 
L 129.114 134.478231 
L 129.2814 133.768628 
L 129.4488 134.971303 
L 129.6162 135.006375 
L 129.7836 135.475632 
L 129.951 135.237385 
L 130.1184 129.923806 
L 130.2858 128.287154 
L 130.788 135.09278 
L 130.9554 135.947595 
L 131.1228 135.822183 
L 131.4576 136.043369 
L 131.625 136.479192 
L 131.9598 155.908379 
L 132.1272 155.985184 
L 132.2946 155.688751 
L 132.6294 152.698359 
L 132.7968 153.253687 
L 132.9642 150.318666 
L 133.1316 141.786816 
L 133.299 141.396656 
L 133.6338 141.882277 
L 133.8012 140.905027 
L 133.9686 138.966778 
L 134.136 138.987231 
L 134.4708 139.389915 
L 134.6382 140.379294 
L 134.8056 145.252557 
L 134.973 143.249584 
L 135.1404 144.618464 
L 135.3078 144.571832 
L 135.4752 145.913001 
L 135.6426 149.566299 
L 135.9774 148.018721 
L 136.1448 147.960342 
L 136.3122 147.474765 
L 136.4796 143.812246 
L 136.647 146.526713 
L 136.8144 146.522743 
L 136.9818 146.678566 
L 137.1492 146.430245 
L 137.3166 146.651054 
L 137.6514 149.092682 
L 137.8188 149.07185 
L 137.9862 147.88178 
L 138.1536 149.137007 
L 138.321 148.602204 
L 138.6558 148.601169 
L 138.8232 148.911456 
L 139.3254 147.859023 
L 139.4928 146.670822 
L 139.6602 148.170108 
L 139.8276 156.253897 
L 139.995 156.55808 
L 140.1624 146.827468 
L 140.6646 147.17776 
L 140.832 147.106756 
L 140.9994 147.652846 
L 141.1668 148.904561 
L 141.3342 148.984818 
L 141.669 142.177697 
L 141.8364 147.702495 
L 142.1712 147.824354 
L 142.3386 147.910816 
L 142.506 147.432245 
L 142.6734 147.532981 
L 142.8408 147.382502 
L 143.0082 147.495727 
L 143.343 159.420445 
L 143.6778 157.917938 
L 144.0126 152.880172 
L 144.18 154.113199 
L 144.3474 145.248951 
L 144.5148 144.244167 
L 144.6822 144.22539 
L 145.1844 145.635269 
L 145.3518 145.842753 
L 145.6866 148.305305 
L 145.854 148.292521 
L 146.1888 167.041344 
L 146.691 157.360683 
L 146.8584 156.75739 
L 147.0258 154.67914 
L 147.1932 154.093527 
L 147.3606 154.174329 
L 147.528 153.789096 
L 147.6954 152.99534 
L 147.8628 153.209201 
L 148.0302 154.575957 
L 148.1976 157.787507 
L 148.5324 159.437939 
L 148.6998 163.481096 
L 148.8672 164.801075 
L 149.0346 164.617472 
L 149.202 164.836889 
L 149.3694 165.414707 
L 149.5368 158.986506 
L 149.7042 159.226603 
L 149.8716 159.088245 
L 150.2064 159.424201 
L 150.3738 159.478243 
L 150.5412 159.7593 
L 150.7086 159.13735 
L 150.876 159.213431 
L 151.0434 159.609532 
L 151.2108 161.111101 
L 151.3782 159.273205 
L 151.713 159.099978 
L 152.0478 157.967229 
L 152.2152 157.609541 
L 152.3826 157.665257 
L 152.55 157.886494 
L 152.7174 158.489504 
L 153.0522 164.463168 
L 153.2196 164.431299 
L 153.387 164.188608 
L 153.5544 165.064678 
L 153.7218 164.542914 
L 153.8892 162.330706 
L 154.0566 149.2723 
L 154.224 148.425905 
L 155.061 149.421065 
L 155.2284 149.42247 
L 155.3958 149.802903 
L 155.5632 150.683612 
L 155.7306 165.930693 
L 155.898 170.221237 
L 156.0654 170.208267 
L 156.4002 169.406238 
L 156.5676 169.533881 
L 156.735 164.744028 
L 157.0698 163.484569 
L 157.2372 161.741073 
L 157.4046 162.874768 
L 157.572 160.44073 
L 157.7394 160.322571 
L 157.9068 160.365257 
L 158.0742 160.617345 
L 158.2416 160.52517 
L 158.409 163.494283 
L 158.7438 164.538912 
L 159.0786 167.374829 
L 159.246 173.22052 
L 159.4134 172.201642 
L 159.5808 172.444617 
L 160.083 172.081856 
L 160.2504 172.23549 
L 160.4178 165.052036 
L 160.5852 165.718754 
L 160.7526 165.736591 
L 160.92 165.961969 
L 161.0874 166.896693 
L 161.2548 166.865928 
L 161.4222 166.963026 
L 161.757 167.672061 
L 161.9244 167.328306 
L 162.0918 176.533363 
L 162.4266 175.05948 
L 162.7614 175.179403 
L 162.9288 166.985363 
L 163.431 166.336943 
L 163.5984 166.491366 
L 163.9332 164.925853 
L 164.1006 165.343826 
L 164.4354 165.164851 
L 164.6028 172.042906 
L 164.7702 172.34858 
L 164.9376 171.893921 
L 165.105 171.887269 
L 165.2724 172.039532 
L 165.6072 175.936671 
L 165.7746 175.514512 
L 165.942 175.465446 
L 166.2768 175.829353 
L 166.4442 176.013714 
L 166.9464 178.273494 
L 167.1138 179.698801 
L 167.2812 179.623015 
L 167.4486 179.741342 
L 167.7834 178.556315 
L 167.9508 178.216585 
L 168.2856 178.42666 
L 168.453 178.437149 
L 168.6204 178.981163 
L 168.9552 177.869511 
L 169.1226 178.120654 
L 169.4574 179.720718 
L 169.6248 178.810628 
L 169.7922 177.065553 
L 169.9596 177.090894 
L 170.127 176.067995 
L 170.2944 175.840024 
L 170.6292 176.556682 
L 170.964 176.354886 
L 171.1314 175.495714 
L 171.4662 178.186261 
L 171.6336 176.801302 
L 171.801 178.198187 
L 171.9684 178.28763 
L 172.3032 179.06001 
L 172.4706 178.947071 
L 172.638 179.225798 
L 172.8054 180.541848 
L 173.1402 180.400037 
L 173.3076 182.211505 
L 173.475 182.189071 
L 173.6424 182.49047 
L 173.8098 182.349627 
L 173.9772 182.480478 
L 174.1446 182.837938 
L 174.312 182.419175 
L 174.8142 182.854841 
L 175.3164 183.036552 
L 175.4838 183.169316 
L 175.8186 182.65887 
L 175.986 183.103408 
L 176.1534 183.058559 
L 176.823 183.412821 
L 177.1578 182.857689 
L 177.4926 183.843407 
L 177.66 183.976428 
L 177.9948 183.756166 
L 178.1622 183.568165 
L 178.3296 183.999607 
L 178.497 184.003426 
L 178.8318 184.929454 
L 179.334 185.058324 
L 179.5014 185.01087 
L 179.8362 185.582481 
L 180.0036 185.202694 
L 180.5058 185.334641 
L 181.008 185.274934 
L 181.3428 185.640372 
L 181.5102 185.491217 
L 181.6776 185.900223 
L 182.1798 185.927688 
L 182.3472 185.658209 
L 183.1842 186.084202 
L 183.8538 186.058947 
L 184.0212 186.37144 
L 184.1886 186.327382 
L 184.5234 186.370528 
L 184.8582 186.282947 
L 186.5322 186.584002 
L 186.6996 186.530356 
L 187.0344 186.660286 
L 188.2062 186.44215 
L 188.8758 186.631142 
L 190.215 186.608963 
L 190.5498 186.428379 
L 190.8846 186.457608 
L 191.2194 186.688733 
L 191.3868 186.616914 
L 191.7216 186.672312 
L 192.5586 186.479601 
L 192.726 186.245008 
L 192.8934 186.248104 
L 193.2282 186.495353 
L 193.563 186.341929 
L 193.8978 186.54526 
L 194.2326 186.505985 
L 194.2326 186.505985 
" style="fill:none;stroke:#1f77b4;stroke-linecap:square;stroke-width:1.5;"/>
   </g>
   <g id="line2d_63">
    <path clip-path="url(#p76d562599c)" d="M 27 32.573373 
L 28.3392 32.762117 
L 29.3436 33.130781 
L 30.1806 33.680723 
L 30.8502 34.36681 
L 31.5198 35.364728 
L 32.1894 36.750455 
L 33.0264 39.048303 
L 34.3656 42.989129 
L 35.0352 44.227064 
L 35.7048 44.92361 
L 37.881 46.686697 
L 38.2158 47.255087 
L 38.8854 49.964132 
L 39.3876 52.864147 
L 40.2246 58.100432 
L 42.4008 68.193141 
L 42.903 71.40172 
L 43.74 77.521705 
L 44.4096 83.925895 
L 45.9162 99.453625 
L 46.251 101.687928 
L 46.4184 101.57909 
L 46.5858 101.828345 
L 47.2554 104.162533 
L 47.4228 104.286959 
L 47.5902 104.588841 
L 47.7576 104.642614 
L 47.925 103.971376 
L 48.0924 105.268222 
L 48.4272 105.80278 
L 48.5946 105.000318 
L 48.762 104.872374 
L 49.0968 105.688788 
L 49.2642 105.847992 
L 49.4316 105.240539 
L 49.599 105.697196 
L 49.9338 105.753423 
L 50.1012 104.957392 
L 50.2686 105.929298 
L 50.6034 106.074682 
L 50.9382 106.254823 
L 51.1056 107.133363 
L 51.4404 107.540075 
L 51.7752 109.278572 
L 51.9426 109.093245 
L 52.11 109.183941 
L 52.2774 108.674821 
L 52.6122 108.927288 
L 52.7796 103.190386 
L 52.947 103.39084 
L 53.1144 102.834221 
L 53.4492 102.961072 
L 53.784 102.084356 
L 54.1188 102.148545 
L 54.2862 101.947957 
L 54.4536 106.164775 
L 54.621 104.508542 
L 54.7884 105.246253 
L 55.1232 105.375872 
L 55.6254 107.74151 
L 55.9602 107.799843 
L 56.1276 109.004047 
L 56.295 111.712557 
L 56.4624 111.696152 
L 56.6298 111.431788 
L 56.9646 111.748202 
L 57.2994 112.304295 
L 57.4668 112.602988 
L 57.6342 113.196938 
L 57.8016 113.263159 
L 58.1364 110.196166 
L 58.3038 110.693409 
L 58.4712 110.554227 
L 58.6386 109.362761 
L 58.806 109.261557 
L 59.1408 108.61044 
L 59.3082 108.81353 
L 59.4756 108.687787 
L 59.8104 110.758548 
L 60.1452 111.408093 
L 60.3126 113.371917 
L 60.48 113.851911 
L 60.8148 115.723498 
L 61.1496 116.467309 
L 61.6518 120.228222 
L 61.8192 120.317726 
L 61.9866 120.060259 
L 62.154 120.031351 
L 62.3214 119.368817 
L 62.4888 119.941938 
L 62.6562 119.340461 
L 62.8236 120.352713 
L 63.4932 121.747678 
L 63.6606 122.162431 
L 63.9954 120.536803 
L 64.1628 120.699024 
L 64.3302 121.556346 
L 64.4976 120.554702 
L 64.665 120.703561 
L 64.8324 119.971001 
L 64.9998 120.092896 
L 65.1672 110.729284 
L 65.3346 110.411455 
L 65.502 110.612142 
L 65.6694 111.219048 
L 65.8368 111.187538 
L 66.0042 110.891922 
L 66.1716 111.062498 
L 66.339 108.940657 
L 66.5064 109.212596 
L 66.6738 109.22898 
L 66.8412 117.001081 
L 67.0086 116.870919 
L 67.176 117.778618 
L 67.3434 117.886254 
L 67.5108 113.817899 
L 67.8456 113.397747 
L 68.013 116.783607 
L 68.3478 117.071728 
L 68.5152 114.23664 
L 68.6826 115.078021 
L 68.85 114.97635 
L 69.0174 114.021591 
L 69.1848 118.130709 
L 69.687 120.193235 
L 69.8544 119.270636 
L 70.0218 119.581253 
L 70.1892 125.049988 
L 70.3566 125.323594 
L 70.524 126.338626 
L 70.6914 130.151308 
L 70.8588 129.775024 
L 71.1936 132.104996 
L 71.361 132.285092 
L 71.5284 135.749037 
L 71.6958 122.304891 
L 71.8632 118.335588 
L 72.3654 118.465665 
L 72.5328 119.397506 
L 73.035 119.765814 
L 73.2024 119.909009 
L 73.3698 129.624649 
L 73.5372 148.373093 
L 73.7046 149.131978 
L 74.0394 143.323949 
L 74.2068 143.578031 
L 74.3742 144.089449 
L 74.709 144.208647 
L 74.8764 130.790005 
L 75.0438 130.807795 
L 75.2112 130.653258 
L 75.3786 130.690529 
L 75.7134 132.333406 
L 75.8808 132.254386 
L 76.2156 131.979775 
L 76.383 132.14594 
L 76.5504 150.707282 
L 76.7178 143.158903 
L 76.8852 143.391057 
L 77.0526 137.259998 
L 77.22 110.050399 
L 77.7222 109.996775 
L 78.2244 110.034492 
L 78.3918 110.415507 
L 78.5592 110.428317 
L 78.7266 110.934846 
L 78.894 153.59037 
L 79.2288 145.027004 
L 79.3962 145.719982 
L 79.731 145.439707 
L 80.0658 145.655974 
L 80.7354 137.641169 
L 80.9028 139.997002 
L 81.0702 139.962835 
L 81.2376 126.071248 
L 81.7398 126.166078 
L 81.9072 126.640183 
L 82.0746 126.614451 
L 82.242 126.019409 
L 82.4094 121.961463 
L 82.5768 100.302129 
L 82.7442 96.558832 
L 82.9116 97.219471 
L 83.2464 97.108184 
L 83.916 97.084838 
L 84.0834 97.661401 
L 84.2508 110.809703 
L 84.4182 138.914835 
L 84.5856 139.904722 
L 84.9204 144.287641 
L 85.0878 144.628944 
L 85.2552 150.880476 
L 85.7574 151.428212 
L 86.2596 153.419007 
L 86.427 154.655616 
L 86.5944 155.007535 
L 86.7618 154.645977 
L 86.9292 156.396515 
L 87.0966 101.605232 
L 87.4314 101.533244 
L 88.6032 101.541769 
L 88.7706 151.369121 
L 88.938 135.031053 
L 89.1054 133.643991 
L 89.2728 133.470918 
L 89.6076 132.657754 
L 89.9424 132.419507 
L 90.4446 132.339087 
L 90.612 147.235578 
L 90.7794 147.613193 
L 90.9468 147.242731 
L 91.1142 147.51058 
L 91.2816 130.806413 
L 91.449 130.839532 
L 91.6164 130.417457 
L 91.7838 128.624815 
L 92.286 128.507912 
L 92.4534 126.855672 
L 92.6208 119.599434 
L 92.7882 119.698093 
L 92.9556 123.987574 
L 93.123 123.748685 
L 93.2904 124.043064 
L 93.4578 124.629072 
L 93.7926 124.581572 
L 93.96 123.085911 
L 94.1274 124.793819 
L 94.2948 139.975295 
L 94.4622 140.389921 
L 94.6296 139.965802 
L 94.797 141.13335 
L 94.9644 141.03442 
L 95.1318 143.470214 
L 95.2992 143.546146 
L 95.4666 144.057663 
L 95.634 155.43584 
L 95.8014 135.628967 
L 96.1362 128.91828 
L 96.471 129.080692 
L 97.1406 129.106669 
L 97.308 129.496683 
L 97.6428 148.44554 
L 97.8102 160.079594 
L 98.3124 141.081474 
L 98.4798 141.000037 
L 98.6472 141.097542 
L 98.8146 140.352833 
L 98.982 140.314871 
L 99.1494 139.967336 
L 99.3168 138.370364 
L 99.4842 138.825331 
L 99.6516 139.639742 
L 99.9864 148.68941 
L 100.1538 102.894457 
L 100.3212 102.528862 
L 100.8234 102.514388 
L 101.3256 102.616922 
L 101.6604 102.638552 
L 101.9952 156.412195 
L 102.1626 163.936525 
L 102.4974 165.553371 
L 102.6648 167.502872 
L 102.8322 164.78391 
L 102.9996 164.712312 
L 103.167 162.461736 
L 103.3344 162.113512 
L 103.5018 162.194479 
L 103.6692 151.632153 
L 103.8366 150.069942 
L 104.004 149.947952 
L 104.1714 149.174005 
L 104.3388 149.079821 
L 104.5062 150.054744 
L 104.6736 141.861359 
L 105.0084 139.612443 
L 105.1758 138.956066 
L 105.3432 141.577317 
L 105.5106 142.208644 
L 105.678 142.145412 
L 105.8454 142.344479 
L 106.0128 127.536113 
L 106.1802 127.210236 
L 106.3476 128.904658 
L 106.8498 129.948772 
L 107.0172 129.963436 
L 107.5194 129.613094 
L 107.6868 151.221961 
L 108.0216 154.403199 
L 108.189 156.087058 
L 108.3564 151.872075 
L 108.5238 152.280738 
L 108.6912 152.351787 
L 109.026 153.129406 
L 109.3608 157.438839 
L 109.6956 158.786916 
L 109.863 158.743101 
L 110.0304 158.509934 
L 110.1978 152.772886 
L 110.3652 152.945517 
L 110.5326 153.490447 
L 110.7 153.0481 
L 111.0348 145.412093 
L 111.2022 144.299281 
L 111.537 144.283241 
L 111.7044 143.087573 
L 111.8718 145.290883 
L 112.2066 145.09563 
L 112.374 145.057262 
L 112.5414 148.30451 
L 112.7088 148.103388 
L 112.8762 115.891933 
L 113.5458 115.888203 
L 113.8806 115.918054 
L 114.048 115.667737 
L 114.2154 115.666954 
L 114.3828 115.870466 
L 114.5502 149.406376 
L 114.7176 149.875958 
L 114.885 150.971575 
L 115.0524 155.423133 
L 115.2198 148.192933 
L 115.3872 146.296293 
L 115.5546 146.15397 
L 115.722 150.305716 
L 115.8894 150.217594 
L 116.0568 149.337477 
L 116.2242 144.607863 
L 116.3916 143.761114 
L 116.559 141.751233 
L 116.7264 141.787032 
L 117.0612 147.277216 
L 117.396 147.448828 
L 117.5634 147.018641 
L 117.7308 141.630825 
L 117.8982 145.124555 
L 118.0656 143.920384 
L 118.233 145.397781 
L 118.4004 139.442976 
L 118.5678 123.405148 
L 118.7352 122.626697 
L 119.07 122.590735 
L 119.2374 122.660662 
L 119.4048 123.678233 
L 119.5722 123.675028 
L 119.907 124.205347 
L 120.0744 125.572663 
L 120.4092 169.985344 
L 120.5766 172.268773 
L 120.744 171.79495 
L 120.9114 171.700512 
L 121.0788 173.210229 
L 121.2462 172.896888 
L 121.4136 173.002089 
L 121.581 170.896437 
L 121.9158 170.731781 
L 122.0832 158.555519 
L 122.418 158.745646 
L 122.5854 156.821603 
L 122.7528 156.466524 
L 122.9202 132.969221 
L 123.0876 131.58118 
L 123.5898 131.455946 
L 123.7572 132.066178 
L 124.092 131.908786 
L 124.4268 132.065922 
L 124.7616 159.582171 
L 124.929 160.260295 
L 125.0964 159.89287 
L 125.766 162.916373 
L 126.1008 164.497806 
L 126.2682 164.48661 
L 126.603 165.616583 
L 126.7704 166.440026 
L 126.9378 156.70667 
L 127.1052 157.734583 
L 127.2726 157.669693 
L 127.44 157.449555 
L 127.6074 152.138156 
L 127.7748 151.338912 
L 127.9422 151.400931 
L 128.1096 148.148361 
L 128.277 148.156822 
L 128.6118 143.064665 
L 128.7792 142.854799 
L 129.114 139.272512 
L 129.2814 140.763257 
L 129.4488 141.103196 
L 129.6162 141.082312 
L 129.7836 141.539342 
L 129.951 141.448437 
L 130.1184 140.331439 
L 130.2858 144.505899 
L 130.4532 144.817497 
L 130.788 151.458584 
L 130.9554 151.432484 
L 131.2902 151.244859 
L 131.4576 155.010002 
L 131.625 155.436246 
L 131.7924 168.108688 
L 131.9598 167.758409 
L 132.1272 157.71262 
L 132.462 157.130454 
L 132.6294 151.909644 
L 132.7968 151.99833 
L 133.1316 145.612038 
L 133.299 144.023996 
L 133.4664 144.487476 
L 133.6338 144.016956 
L 133.8012 145.486617 
L 133.9686 143.883957 
L 134.136 143.968689 
L 134.3034 146.445684 
L 134.4708 146.489857 
L 134.6382 149.727597 
L 134.973 147.467136 
L 135.1404 147.558876 
L 135.4752 149.267277 
L 135.6426 152.020154 
L 135.81 147.08252 
L 136.1448 146.960662 
L 136.3122 146.566213 
L 136.647 155.785892 
L 136.8144 155.470294 
L 136.9818 155.592638 
L 137.3166 155.366321 
L 137.484 169.463502 
L 137.6514 169.817945 
L 137.9862 150.996255 
L 138.321 150.674303 
L 138.4884 150.781456 
L 138.6558 150.754449 
L 138.8232 150.495011 
L 138.9906 150.472492 
L 139.158 150.025722 
L 139.3254 146.843694 
L 139.4928 146.887501 
L 139.6602 151.952748 
L 139.8276 151.893889 
L 139.995 152.014956 
L 140.3298 151.530713 
L 140.4972 151.884284 
L 140.6646 151.762318 
L 140.832 148.340535 
L 140.9994 151.895608 
L 141.1668 151.98586 
L 141.3342 148.51161 
L 141.5016 142.061194 
L 141.669 141.938074 
L 141.8364 140.459239 
L 142.0038 140.526854 
L 142.1712 140.427181 
L 142.3386 139.047234 
L 142.506 140.566065 
L 142.6734 140.619161 
L 143.0082 144.00652 
L 143.1756 151.994685 
L 143.343 151.552723 
L 143.5104 156.029636 
L 143.6778 155.999491 
L 143.8452 151.071477 
L 144.0126 151.123334 
L 144.5148 143.500568 
L 144.8496 143.675653 
L 145.017 144.016824 
L 145.1844 144.050023 
L 145.3518 143.875384 
L 145.854 152.685584 
L 146.0214 157.278011 
L 146.1888 158.10681 
L 146.3562 157.500488 
L 146.5236 157.464845 
L 146.691 157.578704 
L 147.0258 149.068041 
L 147.1932 146.343657 
L 147.3606 146.387835 
L 147.528 143.874759 
L 147.6954 146.14515 
L 147.8628 146.187621 
L 148.1976 146.414505 
L 148.365 146.378057 
L 148.5324 149.218571 
L 148.8672 148.998575 
L 149.0346 149.016611 
L 149.202 153.061455 
L 149.3694 152.916698 
L 149.5368 152.323103 
L 149.7042 152.300078 
L 149.8716 149.404658 
L 150.039 149.267746 
L 150.2064 149.449167 
L 150.7086 158.895853 
L 150.876 159.110856 
L 151.0434 158.877638 
L 151.2108 157.647045 
L 151.3782 157.808869 
L 151.5456 164.871299 
L 151.8804 165.310262 
L 152.0478 166.457863 
L 152.2152 166.721427 
L 152.3826 166.240199 
L 152.55 166.132844 
L 152.7174 166.832041 
L 152.8848 173.005172 
L 153.0522 172.867768 
L 153.2196 168.710757 
L 153.387 169.347699 
L 153.5544 169.533554 
L 153.7218 168.834735 
L 153.8892 167.215719 
L 154.0566 157.757862 
L 154.224 157.914243 
L 154.3914 152.547144 
L 154.7262 152.00788 
L 154.8936 152.824368 
L 155.3958 152.802209 
L 155.5632 152.965017 
L 155.7306 158.709384 
L 156.0654 158.112701 
L 156.2328 158.583544 
L 156.5676 158.507831 
L 156.735 157.834427 
L 157.0698 157.699474 
L 157.2372 158.090604 
L 157.572 157.783815 
L 157.9068 157.974743 
L 158.0742 158.19882 
L 158.2416 158.163174 
L 158.409 158.733073 
L 158.5764 158.686794 
L 158.7438 157.47105 
L 158.9112 157.222858 
L 159.0786 157.205881 
L 159.246 157.609152 
L 159.4134 167.756266 
L 159.5808 165.800425 
L 159.9156 165.906822 
L 160.083 166.1934 
L 160.2504 157.253928 
L 160.4178 158.414274 
L 161.0874 158.583714 
L 161.2548 159.553603 
L 161.4222 159.318477 
L 161.5896 159.318659 
L 161.757 159.192244 
L 161.9244 170.503578 
L 162.0918 169.970974 
L 162.2592 169.900449 
L 162.594 170.249469 
L 162.9288 152.422915 
L 163.431 152.470971 
L 163.5984 152.591232 
L 163.7658 151.151089 
L 164.268 151.223455 
L 164.4354 156.215448 
L 164.6028 165.754693 
L 164.7702 166.169442 
L 164.9376 166.249186 
L 165.2724 166.772108 
L 165.4398 175.430838 
L 165.6072 175.638279 
L 165.7746 176.134862 
L 165.942 175.656899 
L 166.1094 175.597531 
L 166.2768 175.238863 
L 166.4442 175.471227 
L 166.9464 174.874689 
L 167.4486 171.687785 
L 167.616 171.101771 
L 167.9508 171.496612 
L 168.453 169.517406 
L 168.6204 169.59726 
L 168.9552 170.881259 
L 169.29 173.241881 
L 169.4574 173.334743 
L 169.6248 173.223969 
L 170.127 175.745067 
L 170.2944 175.909714 
L 170.4618 175.488831 
L 170.6292 175.542899 
L 170.7966 175.088696 
L 170.964 174.288311 
L 171.1314 174.163667 
L 171.2988 173.477701 
L 171.4662 173.443715 
L 171.6336 173.76141 
L 171.9684 173.03526 
L 172.1358 173.488828 
L 172.3032 173.435664 
L 172.4706 173.612303 
L 172.638 174.181226 
L 172.8054 173.805614 
L 172.9728 174.480081 
L 173.1402 174.549258 
L 173.3076 173.789144 
L 173.475 174.375663 
L 173.6424 174.145148 
L 173.9772 174.053819 
L 174.1446 174.366214 
L 174.312 174.270718 
L 174.6468 174.72372 
L 174.8142 174.165641 
L 174.9816 174.560825 
L 175.149 174.350515 
L 175.3164 174.434376 
L 175.4838 174.369498 
L 176.1534 172.76619 
L 176.3208 172.700864 
L 176.4882 172.97896 
L 176.6556 172.993636 
L 176.9904 173.442662 
L 177.1578 173.324823 
L 177.4926 173.551003 
L 177.8274 174.907929 
L 177.9948 174.758926 
L 178.1622 175.290068 
L 178.497 175.644674 
L 178.6644 175.40047 
L 178.8318 175.548367 
L 178.9992 176.027555 
L 179.334 176.01999 
L 179.5014 175.783146 
L 179.6688 175.831134 
L 179.8362 175.207108 
L 180.0036 175.231552 
L 180.3384 174.97442 
L 181.008 175.361276 
L 181.1754 175.269252 
L 181.3428 175.49702 
L 181.5102 175.958125 
L 181.6776 175.97262 
L 182.0124 176.287985 
L 182.3472 176.097794 
L 182.682 175.58291 
L 183.0168 175.752779 
L 183.3516 175.467845 
L 183.519 175.606572 
L 183.6864 175.499724 
L 183.8538 175.545457 
L 184.1886 175.335867 
L 184.356 175.459835 
L 184.5234 175.418323 
L 184.6908 175.175422 
L 185.0256 175.420282 
L 185.193 175.372341 
L 185.3604 175.468903 
L 185.5278 175.35851 
L 186.1974 175.781996 
L 186.3648 176.087687 
L 186.6996 176.035314 
L 186.867 176.033262 
L 187.2018 175.842345 
L 187.8714 175.941874 
L 188.2062 175.771786 
L 188.3736 175.825079 
L 188.541 175.634901 
L 188.8758 175.840435 
L 189.2106 175.716336 
L 189.5454 175.785151 
L 190.0476 175.821296 
L 190.5498 175.421648 
L 190.7172 175.538581 
L 190.8846 175.510876 
L 191.5542 174.835395 
L 191.889 174.882275 
L 192.0564 174.630465 
L 192.5586 174.811803 
L 192.8934 175.20854 
L 193.3956 175.633968 
L 193.8978 176.534569 
L 194.0652 176.564909 
L 194.2326 176.337585 
L 194.2326 176.337585 
" style="fill:none;stroke:#ff7f0e;stroke-linecap:square;stroke-width:1.5;"/>
   </g>
   <g id="line2d_64">
    <path clip-path="url(#p76d562599c)" d="M 27 44.275542 
L 194.4 44.275542 
" style="fill:none;stroke:#000000;stroke-dasharray:5.55,2.4;stroke-dashoffset:0;stroke-width:1.5;"/>
   </g>
   <g id="patch_3">
    <path d="M 27 189 
L 27 25.92 
" style="fill:none;stroke:#000000;stroke-linecap:square;stroke-linejoin:miter;stroke-width:0.8;"/>
   </g>
   <g id="patch_4">
    <path d="M 194.4 189 
L 194.4 25.92 
" style="fill:none;stroke:#000000;stroke-linecap:square;stroke-linejoin:miter;stroke-width:0.8;"/>
   </g>
   <g id="patch_5">
    <path d="M 27 189 
L 194.4 189 
" style="fill:none;stroke:#000000;stroke-linecap:square;stroke-linejoin:miter;stroke-width:0.8;"/>
   </g>
   <g id="patch_6">
    <path d="M 27 25.92 
L 194.4 25.92 
" style="fill:none;stroke:#000000;stroke-linecap:square;stroke-linejoin:miter;stroke-width:0.8;"/>
   </g>
   <g id="text_16">
    <!-- train 0.00000 -->
    <g transform="translate(126.42635 175.7225)scale(0.1 -0.1)">
     <defs>
      <path d="M 1172 4494 
L 1172 3500 
L 2356 3500 
L 2356 3053 
L 1172 3053 
L 1172 1153 
Q 1172 725 1289 603 
Q 1406 481 1766 481 
L 2356 481 
L 2356 0 
L 1766 0 
Q 1100 0 847 248 
Q 594 497 594 1153 
L 594 3053 
L 172 3053 
L 172 3500 
L 594 3500 
L 594 4494 
L 1172 4494 
z
" id="DejaVuSans-74" transform="scale(0.015625)"/>
      <path d="M 2631 2963 
Q 2534 3019 2420 3045 
Q 2306 3072 2169 3072 
Q 1681 3072 1420 2755 
Q 1159 2438 1159 1844 
L 1159 0 
L 581 0 
L 581 3500 
L 1159 3500 
L 1159 2956 
Q 1341 3275 1631 3429 
Q 1922 3584 2338 3584 
Q 2397 3584 2469 3576 
Q 2541 3569 2628 3553 
L 2631 2963 
z
" id="DejaVuSans-72" transform="scale(0.015625)"/>
      <path d="M 2194 1759 
Q 1497 1759 1228 1600 
Q 959 1441 959 1056 
Q 959 750 1161 570 
Q 1363 391 1709 391 
Q 2188 391 2477 730 
Q 2766 1069 2766 1631 
L 2766 1759 
L 2194 1759 
z
M 3341 1997 
L 3341 0 
L 2766 0 
L 2766 531 
Q 2569 213 2275 61 
Q 1981 -91 1556 -91 
Q 1019 -91 701 211 
Q 384 513 384 1019 
Q 384 1609 779 1909 
Q 1175 2209 1959 2209 
L 2766 2209 
L 2766 2266 
Q 2766 2663 2505 2880 
Q 2244 3097 1772 3097 
Q 1472 3097 1187 3025 
Q 903 2953 641 2809 
L 641 3341 
Q 956 3463 1253 3523 
Q 1550 3584 1831 3584 
Q 2591 3584 2966 3190 
Q 3341 2797 3341 1997 
z
" id="DejaVuSans-61" transform="scale(0.015625)"/>
      <path d="M 603 3500 
L 1178 3500 
L 1178 0 
L 603 0 
L 603 3500 
z
M 603 4863 
L 1178 4863 
L 1178 4134 
L 603 4134 
L 603 4863 
z
" id="DejaVuSans-69" transform="scale(0.015625)"/>
      <path d="M 3513 2113 
L 3513 0 
L 2938 0 
L 2938 2094 
Q 2938 2591 2744 2837 
Q 2550 3084 2163 3084 
Q 1697 3084 1428 2787 
Q 1159 2491 1159 1978 
L 1159 0 
L 581 0 
L 581 3500 
L 1159 3500 
L 1159 2956 
Q 1366 3272 1645 3428 
Q 1925 3584 2291 3584 
Q 2894 3584 3203 3211 
Q 3513 2838 3513 2113 
z
" id="DejaVuSans-6e" transform="scale(0.015625)"/>
      <path id="DejaVuSans-20" transform="scale(0.015625)"/>
      <path d="M 684 794 
L 1344 794 
L 1344 0 
L 684 0 
L 684 794 
z
" id="DejaVuSans-2e" transform="scale(0.015625)"/>
     </defs>
     <use xlink:href="#DejaVuSans-74"/>
     <use x="39.208984" xlink:href="#DejaVuSans-72"/>
     <use x="80.322266" xlink:href="#DejaVuSans-61"/>
     <use x="141.601562" xlink:href="#DejaVuSans-69"/>
     <use x="169.384766" xlink:href="#DejaVuSans-6e"/>
     <use x="232.763672" xlink:href="#DejaVuSans-20"/>
     <use x="264.550781" xlink:href="#DejaVuSans-30"/>
     <use x="328.173828" xlink:href="#DejaVuSans-2e"/>
     <use x="359.960938" xlink:href="#DejaVuSans-30"/>
     <use x="423.583984" xlink:href="#DejaVuSans-30"/>
     <use x="487.207031" xlink:href="#DejaVuSans-30"/>
     <use x="550.830078" xlink:href="#DejaVuSans-30"/>
     <use x="614.453125" xlink:href="#DejaVuSans-30"/>
    </g>
    <!-- test 0.00000 -->
    <g transform="translate(130.498225 186.920312)scale(0.1 -0.1)">
     <defs>
      <path d="M 3597 1894 
L 3597 1613 
L 953 1613 
Q 991 1019 1311 708 
Q 1631 397 2203 397 
Q 2534 397 2845 478 
Q 3156 559 3463 722 
L 3463 178 
Q 3153 47 2828 -22 
Q 2503 -91 2169 -91 
Q 1331 -91 842 396 
Q 353 884 353 1716 
Q 353 2575 817 3079 
Q 1281 3584 2069 3584 
Q 2775 3584 3186 3129 
Q 3597 2675 3597 1894 
z
M 3022 2063 
Q 3016 2534 2758 2815 
Q 2500 3097 2075 3097 
Q 1594 3097 1305 2825 
Q 1016 2553 972 2059 
L 3022 2063 
z
" id="DejaVuSans-65" transform="scale(0.015625)"/>
     </defs>
     <use xlink:href="#DejaVuSans-74"/>
     <use x="39.208984" xlink:href="#DejaVuSans-65"/>
     <use x="100.732422" xlink:href="#DejaVuSans-73"/>
     <use x="152.832031" xlink:href="#DejaVuSans-74"/>
     <use x="192.041016" xlink:href="#DejaVuSans-20"/>
     <use x="223.828125" xlink:href="#DejaVuSans-30"/>
     <use x="287.451172" xlink:href="#DejaVuSans-2e"/>
     <use x="319.238281" xlink:href="#DejaVuSans-30"/>
     <use x="382.861328" xlink:href="#DejaVuSans-30"/>
     <use x="446.484375" xlink:href="#DejaVuSans-30"/>
     <use x="510.107422" xlink:href="#DejaVuSans-30"/>
     <use x="573.730469" xlink:href="#DejaVuSans-30"/>
    </g>
   </g>
   <g id="legend_1">
    <g id="line2d_65">
     <path d="M 130.153125 39.018438 
L 150.153125 39.018438 
" style="fill:none;stroke:#1f77b4;stroke-linecap:square;stroke-width:1.5;"/>
    </g>
    <g id="line2d_66"/>
    <g id="text_17">
     <!-- Train -->
     <g transform="translate(158.153125 42.518438)scale(0.1 -0.1)">
      <defs>
       <path d="M -19 4666 
L 3928 4666 
L 3928 4134 
L 2272 4134 
L 2272 0 
L 1638 0 
L 1638 4134 
L -19 4134 
L -19 4666 
z
" id="DejaVuSans-54" transform="scale(0.015625)"/>
      </defs>
      <use xlink:href="#DejaVuSans-54"/>
      <use x="46.333984" xlink:href="#DejaVuSans-72"/>
      <use x="87.447266" xlink:href="#DejaVuSans-61"/>
      <use x="148.726562" xlink:href="#DejaVuSans-69"/>
      <use x="176.509766" xlink:href="#DejaVuSans-6e"/>
     </g>
    </g>
    <g id="line2d_67">
     <path d="M 130.153125 53.696562 
L 150.153125 53.696562 
" style="fill:none;stroke:#ff7f0e;stroke-linecap:square;stroke-width:1.5;"/>
    </g>
    <g id="line2d_68"/>
    <g id="text_18">
     <!-- Test -->
     <g transform="translate(158.153125 57.196562)scale(0.1 -0.1)">
      <use xlink:href="#DejaVuSans-54"/>
      <use x="44.083984" xlink:href="#DejaVuSans-65"/>
      <use x="105.607422" xlink:href="#DejaVuSans-73"/>
      <use x="157.707031" xlink:href="#DejaVuSans-74"/>
     </g>
    </g>
    <g id="line2d_69">
     <path d="M 130.153125 68.374687 
L 150.153125 68.374687 
" style="fill:none;stroke:#000000;stroke-dasharray:5.55,2.4;stroke-dashoffset:0;stroke-width:1.5;"/>
    </g>
    <g id="line2d_70"/>
    <g id="text_19">
     <!-- Mean -->
     <g transform="translate(158.153125 71.874687)scale(0.1 -0.1)">
      <defs>
       <path d="M 628 4666 
L 1569 4666 
L 2759 1491 
L 3956 4666 
L 4897 4666 
L 4897 0 
L 4281 0 
L 4281 4097 
L 3078 897 
L 2444 897 
L 1241 4097 
L 1241 0 
L 628 0 
L 628 4666 
z
" id="DejaVuSans-4d" transform="scale(0.015625)"/>
      </defs>
      <use xlink:href="#DejaVuSans-4d"/>
      <use x="86.279297" xlink:href="#DejaVuSans-65"/>
      <use x="147.802734" xlink:href="#DejaVuSans-61"/>
      <use x="209.082031" xlink:href="#DejaVuSans-6e"/>
     </g>
    </g>
   </g>
  </g>
 </g>
 <defs>
  <clipPath id="p76d562599c">
   <rect height="163.08" width="167.4" x="27" y="25.92"/>
  </clipPath>
 </defs>
</svg>
