<?xml version="1.0" encoding="utf-8" standalone="no"?>
<!DOCTYPE svg PUBLIC "-//W3C//DTD SVG 1.1//EN"
  "http://www.w3.org/Graphics/SVG/1.1/DTD/svg11.dtd">
<svg height="216pt" version="1.1" viewBox="0 0 216 216" width="216pt" xmlns="http://www.w3.org/2000/svg" xmlns:xlink="http://www.w3.org/1999/xlink">
 <metadata>
  <rdf:RDF xmlns:cc="http://creativecommons.org/ns#" xmlns:dc="http://purl.org/dc/elements/1.1/" xmlns:rdf="http://www.w3.org/1999/02/22-rdf-syntax-ns#">
   <cc:Work>
    <dc:type rdf:resource="http://purl.org/dc/dcmitype/StillImage"/>
    <dc:date>2022-04-28T18:10:08.150824</dc:date>
    <dc:format>image/svg+xml</dc:format>
    <dc:creator>
     <cc:Agent>
      <dc:title>Matplotlib v3.4.3, https://matplotlib.org/</dc:title>
     </cc:Agent>
    </dc:creator>
   </cc:Work>
  </rdf:RDF>
 </metadata>
 <defs>
  <style type="text/css">*{stroke-linecap:butt;stroke-linejoin:round;}</style>
 </defs>
 <g id="figure_1">
  <g id="patch_1">
   <path d="M 0 216 
L 216 216 
L 216 0 
L 0 0 
z
" style="fill:#ffffff;"/>
  </g>
  <g id="axes_1">
   <g id="patch_2">
    <path d="M 27 189 
L 194.4 189 
L 194.4 25.92 
L 27 25.92 
z
" style="fill:#ffffff;"/>
   </g>
   <g id="PathCollection_1">
    <defs>
     <path d="M 0 3 
C 0.795609 3 1.55874 2.683901 2.12132 2.12132 
C 2.683901 1.55874 3 0.795609 3 0 
C 3 -0.795609 2.683901 -1.55874 2.12132 -2.12132 
C 1.55874 -2.683901 0.795609 -3 0 -3 
C -0.795609 -3 -1.55874 -2.683901 -2.12132 -2.12132 
C -2.683901 -1.55874 -3 -0.795609 -3 0 
C -3 0.795609 -2.683901 1.55874 -2.12132 2.12132 
C -1.55874 2.683901 -0.795609 3 0 3 
z
" id="mc2d324db3b" style="stroke:#1f77b4;"/>
    </defs>
    <g clip-path="url(#p195ac0744d)">
     <use style="fill:#1f77b4;stroke:#1f77b4;" x="41.682332" xlink:href="#mc2d324db3b" y="176.6091"/>
     <use style="fill:#1f77b4;stroke:#1f77b4;" x="79.869929" xlink:href="#mc2d324db3b" y="137.891819"/>
     <use style="fill:#1f77b4;stroke:#1f77b4;" x="118.853492" xlink:href="#mc2d324db3b" y="99.174538"/>
     <use style="fill:#1f77b4;stroke:#1f77b4;" x="166.21739" xlink:href="#mc2d324db3b" y="52.066791"/>
     <use style="fill:#1f77b4;stroke:#1f77b4;" x="177.402463" xlink:href="#mc2d324db3b" y="40.702791"/>
     <use style="fill:#1f77b4;stroke:#1f77b4;" x="178.601989" xlink:href="#mc2d324db3b" y="39.453569"/>
     <use style="fill:#1f77b4;stroke:#1f77b4;" x="179.711525" xlink:href="#mc2d324db3b" y="38.286446"/>
     <use style="fill:#1f77b4;stroke:#1f77b4;" x="41.53144" xlink:href="#mc2d324db3b" y="176.63231"/>
     <use style="fill:#1f77b4;stroke:#1f77b4;" x="41.53567" xlink:href="#mc2d324db3b" y="176.626327"/>
     <use style="fill:#1f77b4;stroke:#1f77b4;" x="118.720188" xlink:href="#mc2d324db3b" y="99.553995"/>
     <use style="fill:#1f77b4;stroke:#1f77b4;" x="150.052314" xlink:href="#mc2d324db3b" y="68.318157"/>
     <use style="fill:#1f77b4;stroke:#1f77b4;" x="166.178685" xlink:href="#mc2d324db3b" y="52.181978"/>
     <use style="fill:#1f77b4;stroke:#1f77b4;" x="177.388914" xlink:href="#mc2d324db3b" y="40.747823"/>
     <use style="fill:#1f77b4;stroke:#1f77b4;" x="179.267745" xlink:href="#mc2d324db3b" y="38.777902"/>
     <use style="fill:#1f77b4;stroke:#1f77b4;" x="179.702143" xlink:href="#mc2d324db3b" y="38.318014"/>
     <use style="fill:#1f77b4;stroke:#1f77b4;" x="41.530957" xlink:href="#mc2d324db3b" y="176.632675"/>
     <use style="fill:#1f77b4;stroke:#1f77b4;" x="41.541979" xlink:href="#mc2d324db3b" y="176.620115"/>
     <use style="fill:#1f77b4;stroke:#1f77b4;" x="149.858779" xlink:href="#mc2d324db3b" y="68.535299"/>
     <use style="fill:#1f77b4;stroke:#1f77b4;" x="166.070281" xlink:href="#mc2d324db3b" y="52.303813"/>
     <use style="fill:#1f77b4;stroke:#1f77b4;" x="174.610147" xlink:href="#mc2d324db3b" y="43.616434"/>
     <use style="fill:#1f77b4;stroke:#1f77b4;" x="177.349046" xlink:href="#mc2d324db3b" y="40.796405"/>
     <use style="fill:#1f77b4;stroke:#1f77b4;" x="178.557151" xlink:href="#mc2d324db3b" y="39.532226"/>
     <use style="fill:#1f77b4;stroke:#1f77b4;" x="179.237515" xlink:href="#mc2d324db3b" y="38.814712"/>
     <use style="fill:#1f77b4;stroke:#1f77b4;" x="179.673951" xlink:href="#mc2d324db3b" y="38.352312"/>
     <use style="fill:#1f77b4;stroke:#1f77b4;" x="41.530617" xlink:href="#mc2d324db3b" y="176.632945"/>
     <use style="fill:#1f77b4;stroke:#1f77b4;" x="41.54092" xlink:href="#mc2d324db3b" y="176.621034"/>
     <use style="fill:#1f77b4;stroke:#1f77b4;" x="41.549392" xlink:href="#mc2d324db3b" y="176.612594"/>
     <use style="fill:#1f77b4;stroke:#1f77b4;" x="165.961386" xlink:href="#mc2d324db3b" y="52.426264"/>
     <use style="fill:#1f77b4;stroke:#1f77b4;" x="178.523433" xlink:href="#mc2d324db3b" y="39.573351"/>
     <use style="fill:#1f77b4;stroke:#1f77b4;" x="179.20714" xlink:href="#mc2d324db3b" y="38.851728"/>
     <use style="fill:#1f77b4;stroke:#1f77b4;" x="179.645629" xlink:href="#mc2d324db3b" y="38.386794"/>
     <use style="fill:#1f77b4;stroke:#1f77b4;" x="41.530361" xlink:href="#mc2d324db3b" y="176.633156"/>
     <use style="fill:#1f77b4;stroke:#1f77b4;" x="41.534098" xlink:href="#mc2d324db3b" y="176.627732"/>
     <use style="fill:#1f77b4;stroke:#1f77b4;" x="41.540281" xlink:href="#mc2d324db3b" y="176.621621"/>
     <use style="fill:#1f77b4;stroke:#1f77b4;" x="41.547947" xlink:href="#mc2d324db3b" y="176.613976"/>
     <use style="fill:#1f77b4;stroke:#1f77b4;" x="84.673465" xlink:href="#mc2d324db3b" y="133.552799"/>
     <use style="fill:#1f77b4;stroke:#1f77b4;" x="177.268652" xlink:href="#mc2d324db3b" y="40.894504"/>
     <use style="fill:#1f77b4;stroke:#1f77b4;" x="178.489544" xlink:href="#mc2d324db3b" y="39.614718"/>
     <use style="fill:#1f77b4;stroke:#1f77b4;" x="179.17662" xlink:href="#mc2d324db3b" y="38.88895"/>
     <use style="fill:#1f77b4;stroke:#1f77b4;" x="41.539854" xlink:href="#mc2d324db3b" y="176.622024"/>
     <use style="fill:#1f77b4;stroke:#1f77b4;" x="41.547062" xlink:href="#mc2d324db3b" y="176.614856"/>
     <use style="fill:#1f77b4;stroke:#1f77b4;" x="69.103625" xlink:href="#mc2d324db3b" y="148.858922"/>
     <use style="fill:#1f77b4;stroke:#1f77b4;" x="178.457198" xlink:href="#mc2d324db3b" y="39.652557"/>
     <use style="fill:#1f77b4;stroke:#1f77b4;" x="179.147496" xlink:href="#mc2d324db3b" y="38.923003"/>
     <use style="fill:#1f77b4;stroke:#1f77b4;" x="179.59003" xlink:href="#mc2d324db3b" y="38.453182"/>
     <use style="fill:#1f77b4;stroke:#1f77b4;" x="41.530054" xlink:href="#mc2d324db3b" y="176.633415"/>
     <use style="fill:#1f77b4;stroke:#1f77b4;" x="41.539614" xlink:href="#mc2d324db3b" y="176.622253"/>
     <use style="fill:#1f77b4;stroke:#1f77b4;" x="41.546581" xlink:href="#mc2d324db3b" y="176.615326"/>
     <use style="fill:#1f77b4;stroke:#1f77b4;" x="61.860766" xlink:href="#mc2d324db3b" y="156.184139"/>
     <use style="fill:#1f77b4;stroke:#1f77b4;" x="139.702681" xlink:href="#mc2d324db3b" y="78.050347"/>
     <use style="fill:#1f77b4;stroke:#1f77b4;" x="164.124887" xlink:href="#mc2d324db3b" y="54.200336"/>
     <use style="fill:#1f77b4;stroke:#1f77b4;" x="172.719659" xlink:href="#mc2d324db3b" y="45.502354"/>
     <use style="fill:#1f77b4;stroke:#1f77b4;" x="176.696939" xlink:href="#mc2d324db3b" y="41.355429"/>
     <use style="fill:#1f77b4;stroke:#1f77b4;" x="179.572508" xlink:href="#mc2d324db3b" y="38.470316"/>
     <use style="fill:#1f77b4;stroke:#1f77b4;" x="41.529981" xlink:href="#mc2d324db3b" y="176.633478"/>
     <use style="fill:#1f77b4;stroke:#1f77b4;" x="41.533604" xlink:href="#mc2d324db3b" y="176.628202"/>
     <use style="fill:#1f77b4;stroke:#1f77b4;" x="41.539466" xlink:href="#mc2d324db3b" y="176.622395"/>
     <use style="fill:#1f77b4;stroke:#1f77b4;" x="41.546296" xlink:href="#mc2d324db3b" y="176.615601"/>
     <use style="fill:#1f77b4;stroke:#1f77b4;" x="57.702462" xlink:href="#mc2d324db3b" y="160.433982"/>
     <use style="fill:#1f77b4;stroke:#1f77b4;" x="134.452232" xlink:href="#mc2d324db3b" y="83.331637"/>
     <use style="fill:#1f77b4;stroke:#1f77b4;" x="160.616944" xlink:href="#mc2d324db3b" y="57.721085"/>
     <use style="fill:#1f77b4;stroke:#1f77b4;" x="169.539861" xlink:href="#mc2d324db3b" y="48.793444"/>
     <use style="fill:#1f77b4;stroke:#1f77b4;" x="173.735124" xlink:href="#mc2d324db3b" y="44.345422"/>
     <use style="fill:#1f77b4;stroke:#1f77b4;" x="175.97107" xlink:href="#mc2d324db3b" y="41.958684"/>
     <use style="fill:#1f77b4;stroke:#1f77b4;" x="41.539366" xlink:href="#mc2d324db3b" y="176.622492"/>
     <use style="fill:#1f77b4;stroke:#1f77b4;" x="41.54611" xlink:href="#mc2d324db3b" y="176.615782"/>
     <use style="fill:#1f77b4;stroke:#1f77b4;" x="54.979456" xlink:href="#mc2d324db3b" y="163.232789"/>
     <use style="fill:#1f77b4;stroke:#1f77b4;" x="130.846263" xlink:href="#mc2d324db3b" y="86.996083"/>
     <use style="fill:#1f77b4;stroke:#1f77b4;" x="158.420174" xlink:href="#mc2d324db3b" y="59.963745"/>
     <use style="fill:#1f77b4;stroke:#1f77b4;" x="167.617969" xlink:href="#mc2d324db3b" y="50.742821"/>
     <use style="fill:#1f77b4;stroke:#1f77b4;" x="172.127174" xlink:href="#mc2d324db3b" y="46.067333"/>
     <use style="fill:#1f77b4;stroke:#1f77b4;" x="174.512289" xlink:href="#mc2d324db3b" y="43.497189"/>
     <use style="fill:#1f77b4;stroke:#1f77b4;" x="41.533492" xlink:href="#mc2d324db3b" y="176.62831"/>
     <use style="fill:#1f77b4;stroke:#1f77b4;" x="41.539293" xlink:href="#mc2d324db3b" y="176.622563"/>
     <use style="fill:#1f77b4;stroke:#1f77b4;" x="41.545978" xlink:href="#mc2d324db3b" y="176.61591"/>
     <use style="fill:#1f77b4;stroke:#1f77b4;" x="53.05112" xlink:href="#mc2d324db3b" y="165.222037"/>
     <use style="fill:#1f77b4;stroke:#1f77b4;" x="128.190086" xlink:href="#mc2d324db3b" y="89.713304"/>
     <use style="fill:#1f77b4;stroke:#1f77b4;" x="156.879597" xlink:href="#mc2d324db3b" y="61.550812"/>
     <use style="fill:#1f77b4;stroke:#1f77b4;" x="166.322647" xlink:href="#mc2d324db3b" y="52.072001"/>
     <use style="fill:#1f77b4;stroke:#1f77b4;" x="173.546629" xlink:href="#mc2d324db3b" y="44.538167"/>
    </g>
   </g>
   <g id="PathCollection_2">
    <defs>
     <path d="M 0 3 
C 0.795609 3 1.55874 2.683901 2.12132 2.12132 
C 2.683901 1.55874 3 0.795609 3 0 
C 3 -0.795609 2.683901 -1.55874 2.12132 -2.12132 
C 1.55874 -2.683901 0.795609 -3 0 -3 
C -0.795609 -3 -1.55874 -2.683901 -2.12132 -2.12132 
C -2.683901 -1.55874 -3 -0.795609 -3 0 
C -3 0.795609 -2.683901 1.55874 -2.12132 2.12132 
C -1.55874 2.683901 -0.795609 3 0 3 
z
" id="m1ea3c0b15e" style="stroke:#ff7f0e;"/>
    </defs>
    <g clip-path="url(#p195ac0744d)">
     <use style="fill:#ff7f0e;stroke:#ff7f0e;" x="148.511111" xlink:href="#m1ea3c0b15e" y="69.374367"/>
     <use style="fill:#ff7f0e;stroke:#ff7f0e;" x="150.123608" xlink:href="#m1ea3c0b15e" y="68.110517"/>
     <use style="fill:#ff7f0e;stroke:#ff7f0e;" x="179.617176" xlink:href="#m1ea3c0b15e" y="38.421462"/>
     <use style="fill:#ff7f0e;stroke:#ff7f0e;" x="174.553577" xlink:href="#m1ea3c0b15e" y="43.685085"/>
     <use style="fill:#ff7f0e;stroke:#ff7f0e;" x="41.534925" xlink:href="#m1ea3c0b15e" y="176.626973"/>
     <use style="fill:#ff7f0e;stroke:#ff7f0e;" x="178.5907" xlink:href="#m1ea3c0b15e" y="39.491341"/>
     <use style="fill:#ff7f0e;stroke:#ff7f0e;" x="41.534444" xlink:href="#m1ea3c0b15e" y="176.627409"/>
     <use style="fill:#ff7f0e;stroke:#ff7f0e;" x="171.014791" xlink:href="#m1ea3c0b15e" y="47.281319"/>
     <use style="fill:#ff7f0e;stroke:#ff7f0e;" x="174.685777" xlink:href="#m1ea3c0b15e" y="43.484805"/>
     <use style="fill:#ff7f0e;stroke:#ff7f0e;" x="41.533539" xlink:href="#m1ea3c0b15e" y="176.628264"/>
     <use style="fill:#ff7f0e;stroke:#ff7f0e;" x="174.496636" xlink:href="#m1ea3c0b15e" y="43.754258"/>
     <use style="fill:#ff7f0e;stroke:#ff7f0e;" x="41.529893" xlink:href="#m1ea3c0b15e" y="176.633554"/>
     <use style="fill:#ff7f0e;stroke:#ff7f0e;" x="179.277851" xlink:href="#m1ea3c0b15e" y="38.743968"/>
     <use style="fill:#ff7f0e;stroke:#ff7f0e;" x="172.745213" xlink:href="#m1ea3c0b15e" y="46.334039"/>
     <use style="fill:#ff7f0e;stroke:#ff7f0e;" x="41.533846" xlink:href="#m1ea3c0b15e" y="176.62797"/>
     <use style="fill:#ff7f0e;stroke:#ff7f0e;" x="177.30896" xlink:href="#m1ea3c0b15e" y="40.845297"/>
     <use style="fill:#ff7f0e;stroke:#ff7f0e;" x="41.533697" xlink:href="#m1ea3c0b15e" y="176.628112"/>
     <use style="fill:#ff7f0e;stroke:#ff7f0e;" x="174.66635" xlink:href="#m1ea3c0b15e" y="43.5483"/>
     <use style="fill:#ff7f0e;stroke:#ff7f0e;" x="41.530169" xlink:href="#m1ea3c0b15e" y="176.633317"/>
     <use style="fill:#ff7f0e;stroke:#ff7f0e;" x="41.52993" xlink:href="#m1ea3c0b15e" y="176.633521"/>
    </g>
   </g>
   <g id="matplotlib.axis_1">
    <g id="xtick_1">
     <g id="line2d_1">
      <defs>
       <path d="M 0 0 
L 0 3.5 
" id="md715f50fc6" style="stroke:#000000;stroke-width:0.8;"/>
      </defs>
      <g>
       <use style="stroke:#000000;stroke-width:0.8;" x="41.5509" xlink:href="#md715f50fc6" y="189"/>
      </g>
     </g>
     <g id="text_1">
      <!-- 0.0 -->
      <g transform="translate(33.599337 203.598437)scale(0.1 -0.1)">
       <defs>
        <path d="M 2034 4250 
Q 1547 4250 1301 3770 
Q 1056 3291 1056 2328 
Q 1056 1369 1301 889 
Q 1547 409 2034 409 
Q 2525 409 2770 889 
Q 3016 1369 3016 2328 
Q 3016 3291 2770 3770 
Q 2525 4250 2034 4250 
z
M 2034 4750 
Q 2819 4750 3233 4129 
Q 3647 3509 3647 2328 
Q 3647 1150 3233 529 
Q 2819 -91 2034 -91 
Q 1250 -91 836 529 
Q 422 1150 422 2328 
Q 422 3509 836 4129 
Q 1250 4750 2034 4750 
z
" id="DejaVuSans-30" transform="scale(0.015625)"/>
        <path d="M 684 794 
L 1344 794 
L 1344 0 
L 684 0 
L 684 794 
z
" id="DejaVuSans-2e" transform="scale(0.015625)"/>
       </defs>
       <use xlink:href="#DejaVuSans-30"/>
       <use x="63.623047" xlink:href="#DejaVuSans-2e"/>
       <use x="95.410156" xlink:href="#DejaVuSans-30"/>
      </g>
     </g>
    </g>
    <g id="xtick_2">
     <g id="line2d_2">
      <g>
       <use style="stroke:#000000;stroke-width:0.8;" x="107.963781" xlink:href="#md715f50fc6" y="189"/>
      </g>
     </g>
     <g id="text_2">
      <!-- 0.5 -->
      <g transform="translate(100.012219 203.598437)scale(0.1 -0.1)">
       <defs>
        <path d="M 691 4666 
L 3169 4666 
L 3169 4134 
L 1269 4134 
L 1269 2991 
Q 1406 3038 1543 3061 
Q 1681 3084 1819 3084 
Q 2600 3084 3056 2656 
Q 3513 2228 3513 1497 
Q 3513 744 3044 326 
Q 2575 -91 1722 -91 
Q 1428 -91 1123 -41 
Q 819 9 494 109 
L 494 744 
Q 775 591 1075 516 
Q 1375 441 1709 441 
Q 2250 441 2565 725 
Q 2881 1009 2881 1497 
Q 2881 1984 2565 2268 
Q 2250 2553 1709 2553 
Q 1456 2553 1204 2497 
Q 953 2441 691 2322 
L 691 4666 
z
" id="DejaVuSans-35" transform="scale(0.015625)"/>
       </defs>
       <use xlink:href="#DejaVuSans-30"/>
       <use x="63.623047" xlink:href="#DejaVuSans-2e"/>
       <use x="95.410156" xlink:href="#DejaVuSans-35"/>
      </g>
     </g>
    </g>
    <g id="xtick_3">
     <g id="line2d_3">
      <g>
       <use style="stroke:#000000;stroke-width:0.8;" x="174.376663" xlink:href="#md715f50fc6" y="189"/>
      </g>
     </g>
     <g id="text_3">
      <!-- 1.0 -->
      <g transform="translate(166.4251 203.598437)scale(0.1 -0.1)">
       <defs>
        <path d="M 794 531 
L 1825 531 
L 1825 4091 
L 703 3866 
L 703 4441 
L 1819 4666 
L 2450 4666 
L 2450 531 
L 3481 531 
L 3481 0 
L 794 0 
L 794 531 
z
" id="DejaVuSans-31" transform="scale(0.015625)"/>
       </defs>
       <use xlink:href="#DejaVuSans-31"/>
       <use x="63.623047" xlink:href="#DejaVuSans-2e"/>
       <use x="95.410156" xlink:href="#DejaVuSans-30"/>
      </g>
     </g>
    </g>
    <g id="text_4">
     <!-- Fit -->
     <g transform="translate(104.8375 217.276563)scale(0.1 -0.1)">
      <defs>
       <path d="M 628 4666 
L 3309 4666 
L 3309 4134 
L 1259 4134 
L 1259 2759 
L 3109 2759 
L 3109 2228 
L 1259 2228 
L 1259 0 
L 628 0 
L 628 4666 
z
" id="DejaVuSans-46" transform="scale(0.015625)"/>
       <path d="M 603 3500 
L 1178 3500 
L 1178 0 
L 603 0 
L 603 3500 
z
M 603 4863 
L 1178 4863 
L 1178 4134 
L 603 4134 
L 603 4863 
z
" id="DejaVuSans-69" transform="scale(0.015625)"/>
       <path d="M 1172 4494 
L 1172 3500 
L 2356 3500 
L 2356 3053 
L 1172 3053 
L 1172 1153 
Q 1172 725 1289 603 
Q 1406 481 1766 481 
L 2356 481 
L 2356 0 
L 1766 0 
Q 1100 0 847 248 
Q 594 497 594 1153 
L 594 3053 
L 172 3053 
L 172 3500 
L 594 3500 
L 594 4494 
L 1172 4494 
z
" id="DejaVuSans-74" transform="scale(0.015625)"/>
      </defs>
      <use xlink:href="#DejaVuSans-46"/>
      <use x="50.269531" xlink:href="#DejaVuSans-69"/>
      <use x="78.052734" xlink:href="#DejaVuSans-74"/>
     </g>
    </g>
   </g>
   <g id="matplotlib.axis_2">
    <g id="ytick_1">
     <g id="line2d_4">
      <defs>
       <path d="M 0 0 
L -3.5 0 
" id="ma677275b41" style="stroke:#000000;stroke-width:0.8;"/>
      </defs>
      <g>
       <use style="stroke:#000000;stroke-width:0.8;" x="27" xlink:href="#ma677275b41" y="176.6091"/>
      </g>
     </g>
     <g id="text_5">
      <!-- 0.0 -->
      <g transform="translate(4.096875 180.408319)scale(0.1 -0.1)">
       <use xlink:href="#DejaVuSans-30"/>
       <use x="63.623047" xlink:href="#DejaVuSans-2e"/>
       <use x="95.410156" xlink:href="#DejaVuSans-30"/>
      </g>
     </g>
    </g>
    <g id="ytick_2">
     <g id="line2d_5">
      <g>
       <use style="stroke:#000000;stroke-width:0.8;" x="27" xlink:href="#ma677275b41" y="110.196219"/>
      </g>
     </g>
     <g id="text_6">
      <!-- 0.5 -->
      <g transform="translate(4.096875 113.995437)scale(0.1 -0.1)">
       <use xlink:href="#DejaVuSans-30"/>
       <use x="63.623047" xlink:href="#DejaVuSans-2e"/>
       <use x="95.410156" xlink:href="#DejaVuSans-35"/>
      </g>
     </g>
    </g>
    <g id="ytick_3">
     <g id="line2d_6">
      <g>
       <use style="stroke:#000000;stroke-width:0.8;" x="27" xlink:href="#ma677275b41" y="43.783337"/>
      </g>
     </g>
     <g id="text_7">
      <!-- 1.0 -->
      <g transform="translate(4.096875 47.582556)scale(0.1 -0.1)">
       <use xlink:href="#DejaVuSans-31"/>
       <use x="63.623047" xlink:href="#DejaVuSans-2e"/>
       <use x="95.410156" xlink:href="#DejaVuSans-30"/>
      </g>
     </g>
    </g>
    <g id="text_8">
     <!-- Reference data -->
     <g transform="translate(-1.982813 145.488125)rotate(-90)scale(0.1 -0.1)">
      <defs>
       <path d="M 2841 2188 
Q 3044 2119 3236 1894 
Q 3428 1669 3622 1275 
L 4263 0 
L 3584 0 
L 2988 1197 
Q 2756 1666 2539 1819 
Q 2322 1972 1947 1972 
L 1259 1972 
L 1259 0 
L 628 0 
L 628 4666 
L 2053 4666 
Q 2853 4666 3247 4331 
Q 3641 3997 3641 3322 
Q 3641 2881 3436 2590 
Q 3231 2300 2841 2188 
z
M 1259 4147 
L 1259 2491 
L 2053 2491 
Q 2509 2491 2742 2702 
Q 2975 2913 2975 3322 
Q 2975 3731 2742 3939 
Q 2509 4147 2053 4147 
L 1259 4147 
z
" id="DejaVuSans-52" transform="scale(0.015625)"/>
       <path d="M 3597 1894 
L 3597 1613 
L 953 1613 
Q 991 1019 1311 708 
Q 1631 397 2203 397 
Q 2534 397 2845 478 
Q 3156 559 3463 722 
L 3463 178 
Q 3153 47 2828 -22 
Q 2503 -91 2169 -91 
Q 1331 -91 842 396 
Q 353 884 353 1716 
Q 353 2575 817 3079 
Q 1281 3584 2069 3584 
Q 2775 3584 3186 3129 
Q 3597 2675 3597 1894 
z
M 3022 2063 
Q 3016 2534 2758 2815 
Q 2500 3097 2075 3097 
Q 1594 3097 1305 2825 
Q 1016 2553 972 2059 
L 3022 2063 
z
" id="DejaVuSans-65" transform="scale(0.015625)"/>
       <path d="M 2375 4863 
L 2375 4384 
L 1825 4384 
Q 1516 4384 1395 4259 
Q 1275 4134 1275 3809 
L 1275 3500 
L 2222 3500 
L 2222 3053 
L 1275 3053 
L 1275 0 
L 697 0 
L 697 3053 
L 147 3053 
L 147 3500 
L 697 3500 
L 697 3744 
Q 697 4328 969 4595 
Q 1241 4863 1831 4863 
L 2375 4863 
z
" id="DejaVuSans-66" transform="scale(0.015625)"/>
       <path d="M 2631 2963 
Q 2534 3019 2420 3045 
Q 2306 3072 2169 3072 
Q 1681 3072 1420 2755 
Q 1159 2438 1159 1844 
L 1159 0 
L 581 0 
L 581 3500 
L 1159 3500 
L 1159 2956 
Q 1341 3275 1631 3429 
Q 1922 3584 2338 3584 
Q 2397 3584 2469 3576 
Q 2541 3569 2628 3553 
L 2631 2963 
z
" id="DejaVuSans-72" transform="scale(0.015625)"/>
       <path d="M 3513 2113 
L 3513 0 
L 2938 0 
L 2938 2094 
Q 2938 2591 2744 2837 
Q 2550 3084 2163 3084 
Q 1697 3084 1428 2787 
Q 1159 2491 1159 1978 
L 1159 0 
L 581 0 
L 581 3500 
L 1159 3500 
L 1159 2956 
Q 1366 3272 1645 3428 
Q 1925 3584 2291 3584 
Q 2894 3584 3203 3211 
Q 3513 2838 3513 2113 
z
" id="DejaVuSans-6e" transform="scale(0.015625)"/>
       <path d="M 3122 3366 
L 3122 2828 
Q 2878 2963 2633 3030 
Q 2388 3097 2138 3097 
Q 1578 3097 1268 2742 
Q 959 2388 959 1747 
Q 959 1106 1268 751 
Q 1578 397 2138 397 
Q 2388 397 2633 464 
Q 2878 531 3122 666 
L 3122 134 
Q 2881 22 2623 -34 
Q 2366 -91 2075 -91 
Q 1284 -91 818 406 
Q 353 903 353 1747 
Q 353 2603 823 3093 
Q 1294 3584 2113 3584 
Q 2378 3584 2631 3529 
Q 2884 3475 3122 3366 
z
" id="DejaVuSans-63" transform="scale(0.015625)"/>
       <path id="DejaVuSans-20" transform="scale(0.015625)"/>
       <path d="M 2906 2969 
L 2906 4863 
L 3481 4863 
L 3481 0 
L 2906 0 
L 2906 525 
Q 2725 213 2448 61 
Q 2172 -91 1784 -91 
Q 1150 -91 751 415 
Q 353 922 353 1747 
Q 353 2572 751 3078 
Q 1150 3584 1784 3584 
Q 2172 3584 2448 3432 
Q 2725 3281 2906 2969 
z
M 947 1747 
Q 947 1113 1208 752 
Q 1469 391 1925 391 
Q 2381 391 2643 752 
Q 2906 1113 2906 1747 
Q 2906 2381 2643 2742 
Q 2381 3103 1925 3103 
Q 1469 3103 1208 2742 
Q 947 2381 947 1747 
z
" id="DejaVuSans-64" transform="scale(0.015625)"/>
       <path d="M 2194 1759 
Q 1497 1759 1228 1600 
Q 959 1441 959 1056 
Q 959 750 1161 570 
Q 1363 391 1709 391 
Q 2188 391 2477 730 
Q 2766 1069 2766 1631 
L 2766 1759 
L 2194 1759 
z
M 3341 1997 
L 3341 0 
L 2766 0 
L 2766 531 
Q 2569 213 2275 61 
Q 1981 -91 1556 -91 
Q 1019 -91 701 211 
Q 384 513 384 1019 
Q 384 1609 779 1909 
Q 1175 2209 1959 2209 
L 2766 2209 
L 2766 2266 
Q 2766 2663 2505 2880 
Q 2244 3097 1772 3097 
Q 1472 3097 1187 3025 
Q 903 2953 641 2809 
L 641 3341 
Q 956 3463 1253 3523 
Q 1550 3584 1831 3584 
Q 2591 3584 2966 3190 
Q 3341 2797 3341 1997 
z
" id="DejaVuSans-61" transform="scale(0.015625)"/>
      </defs>
      <use xlink:href="#DejaVuSans-52"/>
      <use x="64.982422" xlink:href="#DejaVuSans-65"/>
      <use x="126.505859" xlink:href="#DejaVuSans-66"/>
      <use x="161.710938" xlink:href="#DejaVuSans-65"/>
      <use x="223.234375" xlink:href="#DejaVuSans-72"/>
      <use x="262.097656" xlink:href="#DejaVuSans-65"/>
      <use x="323.621094" xlink:href="#DejaVuSans-6e"/>
      <use x="387" xlink:href="#DejaVuSans-63"/>
      <use x="441.980469" xlink:href="#DejaVuSans-65"/>
      <use x="503.503906" xlink:href="#DejaVuSans-20"/>
      <use x="535.291016" xlink:href="#DejaVuSans-64"/>
      <use x="598.767578" xlink:href="#DejaVuSans-61"/>
      <use x="660.046875" xlink:href="#DejaVuSans-74"/>
      <use x="699.255859" xlink:href="#DejaVuSans-61"/>
     </g>
    </g>
   </g>
   <g id="line2d_7">
    <path clip-path="url(#p195ac0744d)" d="M 34.609091 183.550909 
L 186.790909 31.369091 
" style="fill:none;stroke:#000000;stroke-linecap:square;stroke-width:1.5;"/>
   </g>
   <g id="patch_3">
    <path d="M 27 189 
L 27 25.92 
" style="fill:none;stroke:#000000;stroke-linecap:square;stroke-linejoin:miter;stroke-width:0.8;"/>
   </g>
   <g id="patch_4">
    <path d="M 194.4 189 
L 194.4 25.92 
" style="fill:none;stroke:#000000;stroke-linecap:square;stroke-linejoin:miter;stroke-width:0.8;"/>
   </g>
   <g id="patch_5">
    <path d="M 27 189 
L 194.4 189 
" style="fill:none;stroke:#000000;stroke-linecap:square;stroke-linejoin:miter;stroke-width:0.8;"/>
   </g>
   <g id="patch_6">
    <path d="M 27 25.92 
L 194.4 25.92 
" style="fill:none;stroke:#000000;stroke-linecap:square;stroke-linejoin:miter;stroke-width:0.8;"/>
   </g>
   <g id="text_9">
    <!-- X=Y  -->
    <g transform="translate(162.275284 75.277531)scale(0.1 -0.1)">
     <defs>
      <path d="M 403 4666 
L 1081 4666 
L 2241 2931 
L 3406 4666 
L 4084 4666 
L 2584 2425 
L 4184 0 
L 3506 0 
L 2194 1984 
L 872 0 
L 191 0 
L 1856 2491 
L 403 4666 
z
" id="DejaVuSans-58" transform="scale(0.015625)"/>
      <path d="M 678 2906 
L 4684 2906 
L 4684 2381 
L 678 2381 
L 678 2906 
z
M 678 1631 
L 4684 1631 
L 4684 1100 
L 678 1100 
L 678 1631 
z
" id="DejaVuSans-3d" transform="scale(0.015625)"/>
      <path d="M -13 4666 
L 666 4666 
L 1959 2747 
L 3244 4666 
L 3922 4666 
L 2272 2222 
L 2272 0 
L 1638 0 
L 1638 2222 
L -13 4666 
z
" id="DejaVuSans-59" transform="scale(0.015625)"/>
     </defs>
     <use xlink:href="#DejaVuSans-58"/>
     <use x="68.505859" xlink:href="#DejaVuSans-3d"/>
     <use x="152.294922" xlink:href="#DejaVuSans-59"/>
     <use x="213.378906" xlink:href="#DejaVuSans-20"/>
    </g>
   </g>
   <g id="text_10">
    <!-- r 1.00 -->
    <g transform="translate(134.528934 152.128711)scale(0.1 -0.1)">
     <use xlink:href="#DejaVuSans-72"/>
     <use x="41.113281" xlink:href="#DejaVuSans-20"/>
     <use x="72.900391" xlink:href="#DejaVuSans-31"/>
     <use x="136.523438" xlink:href="#DejaVuSans-2e"/>
     <use x="168.310547" xlink:href="#DejaVuSans-30"/>
     <use x="231.933594" xlink:href="#DejaVuSans-30"/>
    </g>
    <!-- p 7.11e-46 -->
    <g transform="translate(134.528934 163.326524)scale(0.1 -0.1)">
     <defs>
      <path d="M 1159 525 
L 1159 -1331 
L 581 -1331 
L 581 3500 
L 1159 3500 
L 1159 2969 
Q 1341 3281 1617 3432 
Q 1894 3584 2278 3584 
Q 2916 3584 3314 3078 
Q 3713 2572 3713 1747 
Q 3713 922 3314 415 
Q 2916 -91 2278 -91 
Q 1894 -91 1617 61 
Q 1341 213 1159 525 
z
M 3116 1747 
Q 3116 2381 2855 2742 
Q 2594 3103 2138 3103 
Q 1681 3103 1420 2742 
Q 1159 2381 1159 1747 
Q 1159 1113 1420 752 
Q 1681 391 2138 391 
Q 2594 391 2855 752 
Q 3116 1113 3116 1747 
z
" id="DejaVuSans-70" transform="scale(0.015625)"/>
      <path d="M 525 4666 
L 3525 4666 
L 3525 4397 
L 1831 0 
L 1172 0 
L 2766 4134 
L 525 4134 
L 525 4666 
z
" id="DejaVuSans-37" transform="scale(0.015625)"/>
      <path d="M 313 2009 
L 1997 2009 
L 1997 1497 
L 313 1497 
L 313 2009 
z
" id="DejaVuSans-2d" transform="scale(0.015625)"/>
      <path d="M 2419 4116 
L 825 1625 
L 2419 1625 
L 2419 4116 
z
M 2253 4666 
L 3047 4666 
L 3047 1625 
L 3713 1625 
L 3713 1100 
L 3047 1100 
L 3047 0 
L 2419 0 
L 2419 1100 
L 313 1100 
L 313 1709 
L 2253 4666 
z
" id="DejaVuSans-34" transform="scale(0.015625)"/>
      <path d="M 2113 2584 
Q 1688 2584 1439 2293 
Q 1191 2003 1191 1497 
Q 1191 994 1439 701 
Q 1688 409 2113 409 
Q 2538 409 2786 701 
Q 3034 994 3034 1497 
Q 3034 2003 2786 2293 
Q 2538 2584 2113 2584 
z
M 3366 4563 
L 3366 3988 
Q 3128 4100 2886 4159 
Q 2644 4219 2406 4219 
Q 1781 4219 1451 3797 
Q 1122 3375 1075 2522 
Q 1259 2794 1537 2939 
Q 1816 3084 2150 3084 
Q 2853 3084 3261 2657 
Q 3669 2231 3669 1497 
Q 3669 778 3244 343 
Q 2819 -91 2113 -91 
Q 1303 -91 875 529 
Q 447 1150 447 2328 
Q 447 3434 972 4092 
Q 1497 4750 2381 4750 
Q 2619 4750 2861 4703 
Q 3103 4656 3366 4563 
z
" id="DejaVuSans-36" transform="scale(0.015625)"/>
     </defs>
     <use xlink:href="#DejaVuSans-70"/>
     <use x="63.476562" xlink:href="#DejaVuSans-20"/>
     <use x="95.263672" xlink:href="#DejaVuSans-37"/>
     <use x="158.886719" xlink:href="#DejaVuSans-2e"/>
     <use x="190.673828" xlink:href="#DejaVuSans-31"/>
     <use x="254.296875" xlink:href="#DejaVuSans-31"/>
     <use x="317.919922" xlink:href="#DejaVuSans-65"/>
     <use x="379.443359" xlink:href="#DejaVuSans-2d"/>
     <use x="415.527344" xlink:href="#DejaVuSans-34"/>
     <use x="479.150391" xlink:href="#DejaVuSans-36"/>
    </g>
   </g>
   <g id="legend_1">
    <g id="PathCollection_3">
     <g>
      <use style="fill:#1f77b4;stroke:#1f77b4;" x="46" xlink:href="#mc2d324db3b" y="39.893438"/>
     </g>
    </g>
    <g id="text_11">
     <!-- Train -->
     <g transform="translate(64 42.518438)scale(0.1 -0.1)">
      <defs>
       <path d="M -19 4666 
L 3928 4666 
L 3928 4134 
L 2272 4134 
L 2272 0 
L 1638 0 
L 1638 4134 
L -19 4134 
L -19 4666 
z
" id="DejaVuSans-54" transform="scale(0.015625)"/>
      </defs>
      <use xlink:href="#DejaVuSans-54"/>
      <use x="46.333984" xlink:href="#DejaVuSans-72"/>
      <use x="87.447266" xlink:href="#DejaVuSans-61"/>
      <use x="148.726562" xlink:href="#DejaVuSans-69"/>
      <use x="176.509766" xlink:href="#DejaVuSans-6e"/>
     </g>
    </g>
    <g id="PathCollection_4">
     <g>
      <use style="fill:#ff7f0e;stroke:#ff7f0e;" x="46" xlink:href="#m1ea3c0b15e" y="54.571562"/>
     </g>
    </g>
    <g id="text_12">
     <!-- Test -->
     <g transform="translate(64 57.196562)scale(0.1 -0.1)">
      <defs>
       <path d="M 2834 3397 
L 2834 2853 
Q 2591 2978 2328 3040 
Q 2066 3103 1784 3103 
Q 1356 3103 1142 2972 
Q 928 2841 928 2578 
Q 928 2378 1081 2264 
Q 1234 2150 1697 2047 
L 1894 2003 
Q 2506 1872 2764 1633 
Q 3022 1394 3022 966 
Q 3022 478 2636 193 
Q 2250 -91 1575 -91 
Q 1294 -91 989 -36 
Q 684 19 347 128 
L 347 722 
Q 666 556 975 473 
Q 1284 391 1588 391 
Q 1994 391 2212 530 
Q 2431 669 2431 922 
Q 2431 1156 2273 1281 
Q 2116 1406 1581 1522 
L 1381 1569 
Q 847 1681 609 1914 
Q 372 2147 372 2553 
Q 372 3047 722 3315 
Q 1072 3584 1716 3584 
Q 2034 3584 2315 3537 
Q 2597 3491 2834 3397 
z
" id="DejaVuSans-73" transform="scale(0.015625)"/>
      </defs>
      <use xlink:href="#DejaVuSans-54"/>
      <use x="44.083984" xlink:href="#DejaVuSans-65"/>
      <use x="105.607422" xlink:href="#DejaVuSans-73"/>
      <use x="157.707031" xlink:href="#DejaVuSans-74"/>
     </g>
    </g>
   </g>
  </g>
 </g>
 <defs>
  <clipPath id="p195ac0744d">
   <rect height="163.08" width="167.4" x="27" y="25.92"/>
  </clipPath>
 </defs>
</svg>
