<?xml version="1.0" encoding="utf-8" standalone="no"?>
<!DOCTYPE svg PUBLIC "-//W3C//DTD SVG 1.1//EN"
  "http://www.w3.org/Graphics/SVG/1.1/DTD/svg11.dtd">
<svg height="216pt" version="1.1" viewBox="0 0 216 216" width="216pt" xmlns="http://www.w3.org/2000/svg" xmlns:xlink="http://www.w3.org/1999/xlink">
 <metadata>
  <rdf:RDF xmlns:cc="http://creativecommons.org/ns#" xmlns:dc="http://purl.org/dc/elements/1.1/" xmlns:rdf="http://www.w3.org/1999/02/22-rdf-syntax-ns#">
   <cc:Work>
    <dc:type rdf:resource="http://purl.org/dc/dcmitype/StillImage"/>
    <dc:date>2022-05-06T14:01:13.550159</dc:date>
    <dc:format>image/svg+xml</dc:format>
    <dc:creator>
     <cc:Agent>
      <dc:title>Matplotlib v3.4.3, https://matplotlib.org/</dc:title>
     </cc:Agent>
    </dc:creator>
   </cc:Work>
  </rdf:RDF>
 </metadata>
 <defs>
  <style type="text/css">*{stroke-linecap:butt;stroke-linejoin:round;}</style>
 </defs>
 <g id="figure_1">
  <g id="patch_1">
   <path d="M 0 216 
L 216 216 
L 216 0 
L 0 0 
z
" style="fill:#ffffff;"/>
  </g>
  <g id="axes_1">
   <g id="patch_2">
    <path d="M 27 189 
L 194.4 189 
L 194.4 25.92 
L 27 25.92 
z
" style="fill:#ffffff;"/>
   </g>
   <g id="matplotlib.axis_1">
    <g id="xtick_1">
     <g id="line2d_1">
      <defs>
       <path d="M 0 0 
L 0 3.5 
" id="m35fb7a368f" style="stroke:#000000;stroke-width:0.8;"/>
      </defs>
      <g>
       <use style="stroke:#000000;stroke-width:0.8;" x="27" xlink:href="#m35fb7a368f" y="189"/>
      </g>
     </g>
     <g id="text_1">
      <!-- 0 -->
      <g transform="translate(23.81875 203.598437)scale(0.1 -0.1)">
       <defs>
        <path d="M 2034 4250 
Q 1547 4250 1301 3770 
Q 1056 3291 1056 2328 
Q 1056 1369 1301 889 
Q 1547 409 2034 409 
Q 2525 409 2770 889 
Q 3016 1369 3016 2328 
Q 3016 3291 2770 3770 
Q 2525 4250 2034 4250 
z
M 2034 4750 
Q 2819 4750 3233 4129 
Q 3647 3509 3647 2328 
Q 3647 1150 3233 529 
Q 2819 -91 2034 -91 
Q 1250 -91 836 529 
Q 422 1150 422 2328 
Q 422 3509 836 4129 
Q 1250 4750 2034 4750 
z
" id="DejaVuSans-30" transform="scale(0.015625)"/>
       </defs>
       <use xlink:href="#DejaVuSans-30"/>
      </g>
     </g>
    </g>
    <g id="xtick_2">
     <g id="line2d_2">
      <g>
       <use style="stroke:#000000;stroke-width:0.8;" x="60.48" xlink:href="#m35fb7a368f" y="189"/>
      </g>
     </g>
     <g id="text_2">
      <!-- 200 -->
      <g transform="translate(50.93625 203.598437)scale(0.1 -0.1)">
       <defs>
        <path d="M 1228 531 
L 3431 531 
L 3431 0 
L 469 0 
L 469 531 
Q 828 903 1448 1529 
Q 2069 2156 2228 2338 
Q 2531 2678 2651 2914 
Q 2772 3150 2772 3378 
Q 2772 3750 2511 3984 
Q 2250 4219 1831 4219 
Q 1534 4219 1204 4116 
Q 875 4013 500 3803 
L 500 4441 
Q 881 4594 1212 4672 
Q 1544 4750 1819 4750 
Q 2544 4750 2975 4387 
Q 3406 4025 3406 3419 
Q 3406 3131 3298 2873 
Q 3191 2616 2906 2266 
Q 2828 2175 2409 1742 
Q 1991 1309 1228 531 
z
" id="DejaVuSans-32" transform="scale(0.015625)"/>
       </defs>
       <use xlink:href="#DejaVuSans-32"/>
       <use x="63.623047" xlink:href="#DejaVuSans-30"/>
       <use x="127.246094" xlink:href="#DejaVuSans-30"/>
      </g>
     </g>
    </g>
    <g id="xtick_3">
     <g id="line2d_3">
      <g>
       <use style="stroke:#000000;stroke-width:0.8;" x="93.96" xlink:href="#m35fb7a368f" y="189"/>
      </g>
     </g>
     <g id="text_3">
      <!-- 400 -->
      <g transform="translate(84.41625 203.598437)scale(0.1 -0.1)">
       <defs>
        <path d="M 2419 4116 
L 825 1625 
L 2419 1625 
L 2419 4116 
z
M 2253 4666 
L 3047 4666 
L 3047 1625 
L 3713 1625 
L 3713 1100 
L 3047 1100 
L 3047 0 
L 2419 0 
L 2419 1100 
L 313 1100 
L 313 1709 
L 2253 4666 
z
" id="DejaVuSans-34" transform="scale(0.015625)"/>
       </defs>
       <use xlink:href="#DejaVuSans-34"/>
       <use x="63.623047" xlink:href="#DejaVuSans-30"/>
       <use x="127.246094" xlink:href="#DejaVuSans-30"/>
      </g>
     </g>
    </g>
    <g id="xtick_4">
     <g id="line2d_4">
      <g>
       <use style="stroke:#000000;stroke-width:0.8;" x="127.44" xlink:href="#m35fb7a368f" y="189"/>
      </g>
     </g>
     <g id="text_4">
      <!-- 600 -->
      <g transform="translate(117.89625 203.598437)scale(0.1 -0.1)">
       <defs>
        <path d="M 2113 2584 
Q 1688 2584 1439 2293 
Q 1191 2003 1191 1497 
Q 1191 994 1439 701 
Q 1688 409 2113 409 
Q 2538 409 2786 701 
Q 3034 994 3034 1497 
Q 3034 2003 2786 2293 
Q 2538 2584 2113 2584 
z
M 3366 4563 
L 3366 3988 
Q 3128 4100 2886 4159 
Q 2644 4219 2406 4219 
Q 1781 4219 1451 3797 
Q 1122 3375 1075 2522 
Q 1259 2794 1537 2939 
Q 1816 3084 2150 3084 
Q 2853 3084 3261 2657 
Q 3669 2231 3669 1497 
Q 3669 778 3244 343 
Q 2819 -91 2113 -91 
Q 1303 -91 875 529 
Q 447 1150 447 2328 
Q 447 3434 972 4092 
Q 1497 4750 2381 4750 
Q 2619 4750 2861 4703 
Q 3103 4656 3366 4563 
z
" id="DejaVuSans-36" transform="scale(0.015625)"/>
       </defs>
       <use xlink:href="#DejaVuSans-36"/>
       <use x="63.623047" xlink:href="#DejaVuSans-30"/>
       <use x="127.246094" xlink:href="#DejaVuSans-30"/>
      </g>
     </g>
    </g>
    <g id="xtick_5">
     <g id="line2d_5">
      <g>
       <use style="stroke:#000000;stroke-width:0.8;" x="160.92" xlink:href="#m35fb7a368f" y="189"/>
      </g>
     </g>
     <g id="text_5">
      <!-- 800 -->
      <g transform="translate(151.37625 203.598437)scale(0.1 -0.1)">
       <defs>
        <path d="M 2034 2216 
Q 1584 2216 1326 1975 
Q 1069 1734 1069 1313 
Q 1069 891 1326 650 
Q 1584 409 2034 409 
Q 2484 409 2743 651 
Q 3003 894 3003 1313 
Q 3003 1734 2745 1975 
Q 2488 2216 2034 2216 
z
M 1403 2484 
Q 997 2584 770 2862 
Q 544 3141 544 3541 
Q 544 4100 942 4425 
Q 1341 4750 2034 4750 
Q 2731 4750 3128 4425 
Q 3525 4100 3525 3541 
Q 3525 3141 3298 2862 
Q 3072 2584 2669 2484 
Q 3125 2378 3379 2068 
Q 3634 1759 3634 1313 
Q 3634 634 3220 271 
Q 2806 -91 2034 -91 
Q 1263 -91 848 271 
Q 434 634 434 1313 
Q 434 1759 690 2068 
Q 947 2378 1403 2484 
z
M 1172 3481 
Q 1172 3119 1398 2916 
Q 1625 2713 2034 2713 
Q 2441 2713 2670 2916 
Q 2900 3119 2900 3481 
Q 2900 3844 2670 4047 
Q 2441 4250 2034 4250 
Q 1625 4250 1398 4047 
Q 1172 3844 1172 3481 
z
" id="DejaVuSans-38" transform="scale(0.015625)"/>
       </defs>
       <use xlink:href="#DejaVuSans-38"/>
       <use x="63.623047" xlink:href="#DejaVuSans-30"/>
       <use x="127.246094" xlink:href="#DejaVuSans-30"/>
      </g>
     </g>
    </g>
    <g id="xtick_6">
     <g id="line2d_6">
      <g>
       <use style="stroke:#000000;stroke-width:0.8;" x="194.4" xlink:href="#m35fb7a368f" y="189"/>
      </g>
     </g>
     <g id="text_6">
      <!-- 1000 -->
      <g transform="translate(181.675 203.598437)scale(0.1 -0.1)">
       <defs>
        <path d="M 794 531 
L 1825 531 
L 1825 4091 
L 703 3866 
L 703 4441 
L 1819 4666 
L 2450 4666 
L 2450 531 
L 3481 531 
L 3481 0 
L 794 0 
L 794 531 
z
" id="DejaVuSans-31" transform="scale(0.015625)"/>
       </defs>
       <use xlink:href="#DejaVuSans-31"/>
       <use x="63.623047" xlink:href="#DejaVuSans-30"/>
       <use x="127.246094" xlink:href="#DejaVuSans-30"/>
       <use x="190.869141" xlink:href="#DejaVuSans-30"/>
      </g>
     </g>
    </g>
    <g id="text_7">
     <!-- Epoch -->
     <g transform="translate(95.389062 217.276563)scale(0.1 -0.1)">
      <defs>
       <path d="M 628 4666 
L 3578 4666 
L 3578 4134 
L 1259 4134 
L 1259 2753 
L 3481 2753 
L 3481 2222 
L 1259 2222 
L 1259 531 
L 3634 531 
L 3634 0 
L 628 0 
L 628 4666 
z
" id="DejaVuSans-45" transform="scale(0.015625)"/>
       <path d="M 1159 525 
L 1159 -1331 
L 581 -1331 
L 581 3500 
L 1159 3500 
L 1159 2969 
Q 1341 3281 1617 3432 
Q 1894 3584 2278 3584 
Q 2916 3584 3314 3078 
Q 3713 2572 3713 1747 
Q 3713 922 3314 415 
Q 2916 -91 2278 -91 
Q 1894 -91 1617 61 
Q 1341 213 1159 525 
z
M 3116 1747 
Q 3116 2381 2855 2742 
Q 2594 3103 2138 3103 
Q 1681 3103 1420 2742 
Q 1159 2381 1159 1747 
Q 1159 1113 1420 752 
Q 1681 391 2138 391 
Q 2594 391 2855 752 
Q 3116 1113 3116 1747 
z
" id="DejaVuSans-70" transform="scale(0.015625)"/>
       <path d="M 1959 3097 
Q 1497 3097 1228 2736 
Q 959 2375 959 1747 
Q 959 1119 1226 758 
Q 1494 397 1959 397 
Q 2419 397 2687 759 
Q 2956 1122 2956 1747 
Q 2956 2369 2687 2733 
Q 2419 3097 1959 3097 
z
M 1959 3584 
Q 2709 3584 3137 3096 
Q 3566 2609 3566 1747 
Q 3566 888 3137 398 
Q 2709 -91 1959 -91 
Q 1206 -91 779 398 
Q 353 888 353 1747 
Q 353 2609 779 3096 
Q 1206 3584 1959 3584 
z
" id="DejaVuSans-6f" transform="scale(0.015625)"/>
       <path d="M 3122 3366 
L 3122 2828 
Q 2878 2963 2633 3030 
Q 2388 3097 2138 3097 
Q 1578 3097 1268 2742 
Q 959 2388 959 1747 
Q 959 1106 1268 751 
Q 1578 397 2138 397 
Q 2388 397 2633 464 
Q 2878 531 3122 666 
L 3122 134 
Q 2881 22 2623 -34 
Q 2366 -91 2075 -91 
Q 1284 -91 818 406 
Q 353 903 353 1747 
Q 353 2603 823 3093 
Q 1294 3584 2113 3584 
Q 2378 3584 2631 3529 
Q 2884 3475 3122 3366 
z
" id="DejaVuSans-63" transform="scale(0.015625)"/>
       <path d="M 3513 2113 
L 3513 0 
L 2938 0 
L 2938 2094 
Q 2938 2591 2744 2837 
Q 2550 3084 2163 3084 
Q 1697 3084 1428 2787 
Q 1159 2491 1159 1978 
L 1159 0 
L 581 0 
L 581 4863 
L 1159 4863 
L 1159 2956 
Q 1366 3272 1645 3428 
Q 1925 3584 2291 3584 
Q 2894 3584 3203 3211 
Q 3513 2838 3513 2113 
z
" id="DejaVuSans-68" transform="scale(0.015625)"/>
      </defs>
      <use xlink:href="#DejaVuSans-45"/>
      <use x="63.183594" xlink:href="#DejaVuSans-70"/>
      <use x="126.660156" xlink:href="#DejaVuSans-6f"/>
      <use x="187.841797" xlink:href="#DejaVuSans-63"/>
      <use x="242.822266" xlink:href="#DejaVuSans-68"/>
     </g>
    </g>
   </g>
   <g id="matplotlib.axis_2">
    <g id="ytick_1">
     <g id="line2d_7">
      <defs>
       <path d="M 0 0 
L -3.5 0 
" id="m7dbc7850e4" style="stroke:#000000;stroke-width:0.8;"/>
      </defs>
      <g>
       <use style="stroke:#000000;stroke-width:0.8;" x="27" xlink:href="#m7dbc7850e4" y="189"/>
      </g>
     </g>
     <g id="text_8">
      <!-- $\mathdefault{10^{-6}}$ -->
      <g transform="translate(-3.5 192.799219)scale(0.1 -0.1)">
       <defs>
        <path d="M 678 2272 
L 4684 2272 
L 4684 1741 
L 678 1741 
L 678 2272 
z
" id="DejaVuSans-2212" transform="scale(0.015625)"/>
       </defs>
       <use transform="translate(0 0.765625)" xlink:href="#DejaVuSans-31"/>
       <use transform="translate(63.623047 0.765625)" xlink:href="#DejaVuSans-30"/>
       <use transform="translate(128.203125 39.046875)scale(0.7)" xlink:href="#DejaVuSans-2212"/>
       <use transform="translate(186.855469 39.046875)scale(0.7)" xlink:href="#DejaVuSans-36"/>
      </g>
     </g>
    </g>
    <g id="ytick_2">
     <g id="line2d_8">
      <g>
       <use style="stroke:#000000;stroke-width:0.8;" x="27" xlink:href="#m7dbc7850e4" y="161.82"/>
      </g>
     </g>
     <g id="text_9">
      <!-- $\mathdefault{10^{-5}}$ -->
      <g transform="translate(-3.5 165.619219)scale(0.1 -0.1)">
       <defs>
        <path d="M 691 4666 
L 3169 4666 
L 3169 4134 
L 1269 4134 
L 1269 2991 
Q 1406 3038 1543 3061 
Q 1681 3084 1819 3084 
Q 2600 3084 3056 2656 
Q 3513 2228 3513 1497 
Q 3513 744 3044 326 
Q 2575 -91 1722 -91 
Q 1428 -91 1123 -41 
Q 819 9 494 109 
L 494 744 
Q 775 591 1075 516 
Q 1375 441 1709 441 
Q 2250 441 2565 725 
Q 2881 1009 2881 1497 
Q 2881 1984 2565 2268 
Q 2250 2553 1709 2553 
Q 1456 2553 1204 2497 
Q 953 2441 691 2322 
L 691 4666 
z
" id="DejaVuSans-35" transform="scale(0.015625)"/>
       </defs>
       <use transform="translate(0 0.684375)" xlink:href="#DejaVuSans-31"/>
       <use transform="translate(63.623047 0.684375)" xlink:href="#DejaVuSans-30"/>
       <use transform="translate(128.203125 38.965625)scale(0.7)" xlink:href="#DejaVuSans-2212"/>
       <use transform="translate(186.855469 38.965625)scale(0.7)" xlink:href="#DejaVuSans-35"/>
      </g>
     </g>
    </g>
    <g id="ytick_3">
     <g id="line2d_9">
      <g>
       <use style="stroke:#000000;stroke-width:0.8;" x="27" xlink:href="#m7dbc7850e4" y="134.64"/>
      </g>
     </g>
     <g id="text_10">
      <!-- $\mathdefault{10^{-4}}$ -->
      <g transform="translate(-3.5 138.439219)scale(0.1 -0.1)">
       <use transform="translate(0 0.684375)" xlink:href="#DejaVuSans-31"/>
       <use transform="translate(63.623047 0.684375)" xlink:href="#DejaVuSans-30"/>
       <use transform="translate(128.203125 38.965625)scale(0.7)" xlink:href="#DejaVuSans-2212"/>
       <use transform="translate(186.855469 38.965625)scale(0.7)" xlink:href="#DejaVuSans-34"/>
      </g>
     </g>
    </g>
    <g id="ytick_4">
     <g id="line2d_10">
      <g>
       <use style="stroke:#000000;stroke-width:0.8;" x="27" xlink:href="#m7dbc7850e4" y="107.46"/>
      </g>
     </g>
     <g id="text_11">
      <!-- $\mathdefault{10^{-3}}$ -->
      <g transform="translate(-3.5 111.259219)scale(0.1 -0.1)">
       <defs>
        <path d="M 2597 2516 
Q 3050 2419 3304 2112 
Q 3559 1806 3559 1356 
Q 3559 666 3084 287 
Q 2609 -91 1734 -91 
Q 1441 -91 1130 -33 
Q 819 25 488 141 
L 488 750 
Q 750 597 1062 519 
Q 1375 441 1716 441 
Q 2309 441 2620 675 
Q 2931 909 2931 1356 
Q 2931 1769 2642 2001 
Q 2353 2234 1838 2234 
L 1294 2234 
L 1294 2753 
L 1863 2753 
Q 2328 2753 2575 2939 
Q 2822 3125 2822 3475 
Q 2822 3834 2567 4026 
Q 2313 4219 1838 4219 
Q 1578 4219 1281 4162 
Q 984 4106 628 3988 
L 628 4550 
Q 988 4650 1302 4700 
Q 1616 4750 1894 4750 
Q 2613 4750 3031 4423 
Q 3450 4097 3450 3541 
Q 3450 3153 3228 2886 
Q 3006 2619 2597 2516 
z
" id="DejaVuSans-33" transform="scale(0.015625)"/>
       </defs>
       <use transform="translate(0 0.765625)" xlink:href="#DejaVuSans-31"/>
       <use transform="translate(63.623047 0.765625)" xlink:href="#DejaVuSans-30"/>
       <use transform="translate(128.203125 39.046875)scale(0.7)" xlink:href="#DejaVuSans-2212"/>
       <use transform="translate(186.855469 39.046875)scale(0.7)" xlink:href="#DejaVuSans-33"/>
      </g>
     </g>
    </g>
    <g id="ytick_5">
     <g id="line2d_11">
      <g>
       <use style="stroke:#000000;stroke-width:0.8;" x="27" xlink:href="#m7dbc7850e4" y="80.28"/>
      </g>
     </g>
     <g id="text_12">
      <!-- $\mathdefault{10^{-2}}$ -->
      <g transform="translate(-3.5 84.079219)scale(0.1 -0.1)">
       <use transform="translate(0 0.765625)" xlink:href="#DejaVuSans-31"/>
       <use transform="translate(63.623047 0.765625)" xlink:href="#DejaVuSans-30"/>
       <use transform="translate(128.203125 39.046875)scale(0.7)" xlink:href="#DejaVuSans-2212"/>
       <use transform="translate(186.855469 39.046875)scale(0.7)" xlink:href="#DejaVuSans-32"/>
      </g>
     </g>
    </g>
    <g id="ytick_6">
     <g id="line2d_12">
      <g>
       <use style="stroke:#000000;stroke-width:0.8;" x="27" xlink:href="#m7dbc7850e4" y="53.1"/>
      </g>
     </g>
     <g id="text_13">
      <!-- $\mathdefault{10^{-1}}$ -->
      <g transform="translate(-3.5 56.899219)scale(0.1 -0.1)">
       <use transform="translate(0 0.684375)" xlink:href="#DejaVuSans-31"/>
       <use transform="translate(63.623047 0.684375)" xlink:href="#DejaVuSans-30"/>
       <use transform="translate(128.203125 38.965625)scale(0.7)" xlink:href="#DejaVuSans-2212"/>
       <use transform="translate(186.855469 38.965625)scale(0.7)" xlink:href="#DejaVuSans-31"/>
      </g>
     </g>
    </g>
    <g id="ytick_7">
     <g id="line2d_13">
      <g>
       <use style="stroke:#000000;stroke-width:0.8;" x="27" xlink:href="#m7dbc7850e4" y="25.92"/>
      </g>
     </g>
     <g id="text_14">
      <!-- $\mathdefault{10^{0}}$ -->
      <g transform="translate(2.4 29.719219)scale(0.1 -0.1)">
       <use transform="translate(0 0.765625)" xlink:href="#DejaVuSans-31"/>
       <use transform="translate(63.623047 0.765625)" xlink:href="#DejaVuSans-30"/>
       <use transform="translate(128.203125 39.046875)scale(0.7)" xlink:href="#DejaVuSans-30"/>
      </g>
     </g>
    </g>
    <g id="ytick_8">
     <g id="line2d_14">
      <defs>
       <path d="M 0 0 
L -2 0 
" id="m44a02f8892" style="stroke:#000000;stroke-width:0.6;"/>
      </defs>
      <g>
       <use style="stroke:#000000;stroke-width:0.6;" x="27" xlink:href="#m44a02f8892" y="180.818005"/>
      </g>
     </g>
    </g>
    <g id="ytick_9">
     <g id="line2d_15">
      <g>
       <use style="stroke:#000000;stroke-width:0.6;" x="27" xlink:href="#m44a02f8892" y="176.031844"/>
      </g>
     </g>
    </g>
    <g id="ytick_10">
     <g id="line2d_16">
      <g>
       <use style="stroke:#000000;stroke-width:0.6;" x="27" xlink:href="#m44a02f8892" y="172.636009"/>
      </g>
     </g>
    </g>
    <g id="ytick_11">
     <g id="line2d_17">
      <g>
       <use style="stroke:#000000;stroke-width:0.6;" x="27" xlink:href="#m44a02f8892" y="170.001995"/>
      </g>
     </g>
    </g>
    <g id="ytick_12">
     <g id="line2d_18">
      <g>
       <use style="stroke:#000000;stroke-width:0.6;" x="27" xlink:href="#m44a02f8892" y="167.849849"/>
      </g>
     </g>
    </g>
    <g id="ytick_13">
     <g id="line2d_19">
      <g>
       <use style="stroke:#000000;stroke-width:0.6;" x="27" xlink:href="#m44a02f8892" y="166.030235"/>
      </g>
     </g>
    </g>
    <g id="ytick_14">
     <g id="line2d_20">
      <g>
       <use style="stroke:#000000;stroke-width:0.6;" x="27" xlink:href="#m44a02f8892" y="164.454014"/>
      </g>
     </g>
    </g>
    <g id="ytick_15">
     <g id="line2d_21">
      <g>
       <use style="stroke:#000000;stroke-width:0.6;" x="27" xlink:href="#m44a02f8892" y="163.063689"/>
      </g>
     </g>
    </g>
    <g id="ytick_16">
     <g id="line2d_22">
      <g>
       <use style="stroke:#000000;stroke-width:0.6;" x="27" xlink:href="#m44a02f8892" y="153.638005"/>
      </g>
     </g>
    </g>
    <g id="ytick_17">
     <g id="line2d_23">
      <g>
       <use style="stroke:#000000;stroke-width:0.6;" x="27" xlink:href="#m44a02f8892" y="148.851844"/>
      </g>
     </g>
    </g>
    <g id="ytick_18">
     <g id="line2d_24">
      <g>
       <use style="stroke:#000000;stroke-width:0.6;" x="27" xlink:href="#m44a02f8892" y="145.456009"/>
      </g>
     </g>
    </g>
    <g id="ytick_19">
     <g id="line2d_25">
      <g>
       <use style="stroke:#000000;stroke-width:0.6;" x="27" xlink:href="#m44a02f8892" y="142.821995"/>
      </g>
     </g>
    </g>
    <g id="ytick_20">
     <g id="line2d_26">
      <g>
       <use style="stroke:#000000;stroke-width:0.6;" x="27" xlink:href="#m44a02f8892" y="140.669849"/>
      </g>
     </g>
    </g>
    <g id="ytick_21">
     <g id="line2d_27">
      <g>
       <use style="stroke:#000000;stroke-width:0.6;" x="27" xlink:href="#m44a02f8892" y="138.850235"/>
      </g>
     </g>
    </g>
    <g id="ytick_22">
     <g id="line2d_28">
      <g>
       <use style="stroke:#000000;stroke-width:0.6;" x="27" xlink:href="#m44a02f8892" y="137.274014"/>
      </g>
     </g>
    </g>
    <g id="ytick_23">
     <g id="line2d_29">
      <g>
       <use style="stroke:#000000;stroke-width:0.6;" x="27" xlink:href="#m44a02f8892" y="135.883689"/>
      </g>
     </g>
    </g>
    <g id="ytick_24">
     <g id="line2d_30">
      <g>
       <use style="stroke:#000000;stroke-width:0.6;" x="27" xlink:href="#m44a02f8892" y="126.458005"/>
      </g>
     </g>
    </g>
    <g id="ytick_25">
     <g id="line2d_31">
      <g>
       <use style="stroke:#000000;stroke-width:0.6;" x="27" xlink:href="#m44a02f8892" y="121.671844"/>
      </g>
     </g>
    </g>
    <g id="ytick_26">
     <g id="line2d_32">
      <g>
       <use style="stroke:#000000;stroke-width:0.6;" x="27" xlink:href="#m44a02f8892" y="118.276009"/>
      </g>
     </g>
    </g>
    <g id="ytick_27">
     <g id="line2d_33">
      <g>
       <use style="stroke:#000000;stroke-width:0.6;" x="27" xlink:href="#m44a02f8892" y="115.641995"/>
      </g>
     </g>
    </g>
    <g id="ytick_28">
     <g id="line2d_34">
      <g>
       <use style="stroke:#000000;stroke-width:0.6;" x="27" xlink:href="#m44a02f8892" y="113.489849"/>
      </g>
     </g>
    </g>
    <g id="ytick_29">
     <g id="line2d_35">
      <g>
       <use style="stroke:#000000;stroke-width:0.6;" x="27" xlink:href="#m44a02f8892" y="111.670235"/>
      </g>
     </g>
    </g>
    <g id="ytick_30">
     <g id="line2d_36">
      <g>
       <use style="stroke:#000000;stroke-width:0.6;" x="27" xlink:href="#m44a02f8892" y="110.094014"/>
      </g>
     </g>
    </g>
    <g id="ytick_31">
     <g id="line2d_37">
      <g>
       <use style="stroke:#000000;stroke-width:0.6;" x="27" xlink:href="#m44a02f8892" y="108.703689"/>
      </g>
     </g>
    </g>
    <g id="ytick_32">
     <g id="line2d_38">
      <g>
       <use style="stroke:#000000;stroke-width:0.6;" x="27" xlink:href="#m44a02f8892" y="99.278005"/>
      </g>
     </g>
    </g>
    <g id="ytick_33">
     <g id="line2d_39">
      <g>
       <use style="stroke:#000000;stroke-width:0.6;" x="27" xlink:href="#m44a02f8892" y="94.491844"/>
      </g>
     </g>
    </g>
    <g id="ytick_34">
     <g id="line2d_40">
      <g>
       <use style="stroke:#000000;stroke-width:0.6;" x="27" xlink:href="#m44a02f8892" y="91.096009"/>
      </g>
     </g>
    </g>
    <g id="ytick_35">
     <g id="line2d_41">
      <g>
       <use style="stroke:#000000;stroke-width:0.6;" x="27" xlink:href="#m44a02f8892" y="88.461995"/>
      </g>
     </g>
    </g>
    <g id="ytick_36">
     <g id="line2d_42">
      <g>
       <use style="stroke:#000000;stroke-width:0.6;" x="27" xlink:href="#m44a02f8892" y="86.309849"/>
      </g>
     </g>
    </g>
    <g id="ytick_37">
     <g id="line2d_43">
      <g>
       <use style="stroke:#000000;stroke-width:0.6;" x="27" xlink:href="#m44a02f8892" y="84.490235"/>
      </g>
     </g>
    </g>
    <g id="ytick_38">
     <g id="line2d_44">
      <g>
       <use style="stroke:#000000;stroke-width:0.6;" x="27" xlink:href="#m44a02f8892" y="82.914014"/>
      </g>
     </g>
    </g>
    <g id="ytick_39">
     <g id="line2d_45">
      <g>
       <use style="stroke:#000000;stroke-width:0.6;" x="27" xlink:href="#m44a02f8892" y="81.523689"/>
      </g>
     </g>
    </g>
    <g id="ytick_40">
     <g id="line2d_46">
      <g>
       <use style="stroke:#000000;stroke-width:0.6;" x="27" xlink:href="#m44a02f8892" y="72.098005"/>
      </g>
     </g>
    </g>
    <g id="ytick_41">
     <g id="line2d_47">
      <g>
       <use style="stroke:#000000;stroke-width:0.6;" x="27" xlink:href="#m44a02f8892" y="67.311844"/>
      </g>
     </g>
    </g>
    <g id="ytick_42">
     <g id="line2d_48">
      <g>
       <use style="stroke:#000000;stroke-width:0.6;" x="27" xlink:href="#m44a02f8892" y="63.916009"/>
      </g>
     </g>
    </g>
    <g id="ytick_43">
     <g id="line2d_49">
      <g>
       <use style="stroke:#000000;stroke-width:0.6;" x="27" xlink:href="#m44a02f8892" y="61.281995"/>
      </g>
     </g>
    </g>
    <g id="ytick_44">
     <g id="line2d_50">
      <g>
       <use style="stroke:#000000;stroke-width:0.6;" x="27" xlink:href="#m44a02f8892" y="59.129849"/>
      </g>
     </g>
    </g>
    <g id="ytick_45">
     <g id="line2d_51">
      <g>
       <use style="stroke:#000000;stroke-width:0.6;" x="27" xlink:href="#m44a02f8892" y="57.310235"/>
      </g>
     </g>
    </g>
    <g id="ytick_46">
     <g id="line2d_52">
      <g>
       <use style="stroke:#000000;stroke-width:0.6;" x="27" xlink:href="#m44a02f8892" y="55.734014"/>
      </g>
     </g>
    </g>
    <g id="ytick_47">
     <g id="line2d_53">
      <g>
       <use style="stroke:#000000;stroke-width:0.6;" x="27" xlink:href="#m44a02f8892" y="54.343689"/>
      </g>
     </g>
    </g>
    <g id="ytick_48">
     <g id="line2d_54">
      <g>
       <use style="stroke:#000000;stroke-width:0.6;" x="27" xlink:href="#m44a02f8892" y="44.918005"/>
      </g>
     </g>
    </g>
    <g id="ytick_49">
     <g id="line2d_55">
      <g>
       <use style="stroke:#000000;stroke-width:0.6;" x="27" xlink:href="#m44a02f8892" y="40.131844"/>
      </g>
     </g>
    </g>
    <g id="ytick_50">
     <g id="line2d_56">
      <g>
       <use style="stroke:#000000;stroke-width:0.6;" x="27" xlink:href="#m44a02f8892" y="36.736009"/>
      </g>
     </g>
    </g>
    <g id="ytick_51">
     <g id="line2d_57">
      <g>
       <use style="stroke:#000000;stroke-width:0.6;" x="27" xlink:href="#m44a02f8892" y="34.101995"/>
      </g>
     </g>
    </g>
    <g id="ytick_52">
     <g id="line2d_58">
      <g>
       <use style="stroke:#000000;stroke-width:0.6;" x="27" xlink:href="#m44a02f8892" y="31.949849"/>
      </g>
     </g>
    </g>
    <g id="ytick_53">
     <g id="line2d_59">
      <g>
       <use style="stroke:#000000;stroke-width:0.6;" x="27" xlink:href="#m44a02f8892" y="30.130235"/>
      </g>
     </g>
    </g>
    <g id="ytick_54">
     <g id="line2d_60">
      <g>
       <use style="stroke:#000000;stroke-width:0.6;" x="27" xlink:href="#m44a02f8892" y="28.554014"/>
      </g>
     </g>
    </g>
    <g id="ytick_55">
     <g id="line2d_61">
      <g>
       <use style="stroke:#000000;stroke-width:0.6;" x="27" xlink:href="#m44a02f8892" y="27.163689"/>
      </g>
     </g>
    </g>
    <g id="text_15">
     <!-- Loss -->
     <g transform="translate(-9.579688 118.427188)rotate(-90)scale(0.1 -0.1)">
      <defs>
       <path d="M 628 4666 
L 1259 4666 
L 1259 531 
L 3531 531 
L 3531 0 
L 628 0 
L 628 4666 
z
" id="DejaVuSans-4c" transform="scale(0.015625)"/>
       <path d="M 2834 3397 
L 2834 2853 
Q 2591 2978 2328 3040 
Q 2066 3103 1784 3103 
Q 1356 3103 1142 2972 
Q 928 2841 928 2578 
Q 928 2378 1081 2264 
Q 1234 2150 1697 2047 
L 1894 2003 
Q 2506 1872 2764 1633 
Q 3022 1394 3022 966 
Q 3022 478 2636 193 
Q 2250 -91 1575 -91 
Q 1294 -91 989 -36 
Q 684 19 347 128 
L 347 722 
Q 666 556 975 473 
Q 1284 391 1588 391 
Q 1994 391 2212 530 
Q 2431 669 2431 922 
Q 2431 1156 2273 1281 
Q 2116 1406 1581 1522 
L 1381 1569 
Q 847 1681 609 1914 
Q 372 2147 372 2553 
Q 372 3047 722 3315 
Q 1072 3584 1716 3584 
Q 2034 3584 2315 3537 
Q 2597 3491 2834 3397 
z
" id="DejaVuSans-73" transform="scale(0.015625)"/>
      </defs>
      <use xlink:href="#DejaVuSans-4c"/>
      <use x="53.962891" xlink:href="#DejaVuSans-6f"/>
      <use x="115.144531" xlink:href="#DejaVuSans-73"/>
      <use x="167.244141" xlink:href="#DejaVuSans-73"/>
     </g>
    </g>
   </g>
   <g id="line2d_62">
    <path clip-path="url(#p8999382b7e)" d="M 27 32.045221 
L 28.3392 32.235976 
L 29.3436 32.606423 
L 30.1806 33.164733 
L 30.8502 33.871813 
L 31.5198 34.91829 
L 32.1894 36.425255 
L 32.859 38.47658 
L 34.7004 44.745047 
L 35.5374 46.437456 
L 36.207 47.794353 
L 36.8766 49.742756 
L 37.7136 53.120871 
L 41.0616 68.445378 
L 42.066 74.421215 
L 43.5726 84.916557 
L 44.4096 92.718555 
L 45.414 103.909303 
L 45.7488 105.779897 
L 45.9162 105.314837 
L 46.0836 105.534315 
L 46.4184 106.413376 
L 46.5858 106.584035 
L 46.7532 107.074557 
L 46.9206 107.012896 
L 47.088 106.421838 
L 47.4228 107.653028 
L 47.7576 111.52562 
L 47.925 110.87281 
L 48.0924 111.43492 
L 48.2598 111.182877 
L 48.5946 112.482206 
L 48.762 113.942785 
L 48.9294 113.980695 
L 49.0968 112.802042 
L 49.2642 113.704718 
L 49.4316 113.863563 
L 49.599 115.130375 
L 49.7664 114.668567 
L 49.9338 115.547792 
L 50.1012 115.595133 
L 50.2686 113.534114 
L 50.436 113.830288 
L 50.7708 115.666349 
L 51.1056 114.176223 
L 51.273 114.15527 
L 51.6078 114.901641 
L 51.7752 109.861969 
L 51.9426 111.541681 
L 52.11 111.303663 
L 52.2774 110.869641 
L 52.4448 108.368242 
L 52.6122 107.639134 
L 52.947 108.107992 
L 53.1144 108.22333 
L 53.2818 108.617444 
L 53.4492 113.046852 
L 53.6166 112.543676 
L 53.9514 105.975179 
L 54.2862 110.209462 
L 54.621 110.384768 
L 54.7884 110.610724 
L 54.9558 110.626937 
L 55.1232 110.961352 
L 55.458 112.586399 
L 55.7928 109.803258 
L 56.4624 107.981463 
L 56.6298 107.86291 
L 56.9646 107.409371 
L 57.4668 110.677776 
L 57.6342 111.31973 
L 58.1364 108.461468 
L 58.3038 108.444506 
L 58.4712 108.585159 
L 58.6386 108.541247 
L 58.806 109.698837 
L 58.9734 115.067854 
L 59.3082 113.539556 
L 59.4756 115.840873 
L 59.643 121.903306 
L 59.8104 122.496353 
L 59.9778 119.16775 
L 60.1452 110.375713 
L 60.3126 110.428392 
L 60.48 111.135383 
L 60.6474 111.17129 
L 60.8148 111.39955 
L 60.9822 112.288327 
L 61.317 111.362479 
L 61.4844 109.089925 
L 61.6518 103.054726 
L 61.8192 104.394491 
L 62.154 104.453697 
L 62.3214 104.027475 
L 62.6562 104.011789 
L 63.1584 104.942319 
L 63.4932 116.735842 
L 63.828 117.174442 
L 63.9954 118.243918 
L 64.1628 117.381389 
L 64.3302 117.400319 
L 64.4976 117.259456 
L 64.665 115.865556 
L 64.9998 120.553814 
L 65.502 116.265691 
L 65.6694 106.508485 
L 66.1716 106.072655 
L 66.339 106.552462 
L 66.5064 106.480227 
L 67.0086 107.954792 
L 67.176 108.409523 
L 67.3434 121.524631 
L 67.8456 122.50536 
L 68.013 120.58384 
L 68.1804 120.638548 
L 68.3478 122.698216 
L 68.5152 122.611994 
L 68.6826 119.82167 
L 68.85 101.250692 
L 69.0174 98.239489 
L 69.1848 98.245843 
L 69.3522 98.137618 
L 69.5196 97.846719 
L 69.687 98.110817 
L 69.8544 98.055976 
L 70.0218 97.81917 
L 70.1892 97.909207 
L 70.3566 98.17035 
L 70.6914 117.532521 
L 71.0262 110.09867 
L 71.1936 110.881114 
L 71.361 109.504601 
L 71.5284 109.774934 
L 71.6958 110.594841 
L 71.8632 110.749416 
L 72.3654 112.097717 
L 72.5328 116.148654 
L 72.7002 109.58268 
L 72.8676 109.72433 
L 73.035 111.403871 
L 73.5372 111.517945 
L 73.872 111.401601 
L 74.0394 111.435323 
L 74.2068 112.878341 
L 74.3742 133.937481 
L 74.709 119.283364 
L 75.0438 118.733509 
L 75.2112 113.90467 
L 75.3786 105.549401 
L 75.546 103.919177 
L 75.8808 103.552468 
L 76.0482 103.572706 
L 76.383 106.023762 
L 76.5504 106.109774 
L 76.7178 105.750974 
L 76.8852 107.391377 
L 77.0526 116.586912 
L 77.22 115.817517 
L 77.3874 115.897779 
L 77.5548 116.237688 
L 77.8896 116.139345 
L 78.2244 116.533046 
L 78.3918 117.140212 
L 78.5592 116.157561 
L 78.7266 117.778723 
L 78.894 126.436328 
L 79.0614 128.341298 
L 79.2288 128.264484 
L 79.3962 127.767952 
L 79.8984 119.344754 
L 80.0658 109.414989 
L 80.4006 105.083233 
L 81.0702 105.065631 
L 81.405 105.663269 
L 81.5724 106.789238 
L 82.242 133.003283 
L 82.4094 133.470626 
L 82.5768 134.415804 
L 82.7442 134.360184 
L 82.9116 136.43785 
L 83.079 134.835882 
L 83.2464 129.963989 
L 83.4138 111.678138 
L 83.5812 106.011212 
L 84.753 105.894772 
L 84.9204 106.390804 
L 85.0878 114.913134 
L 85.2552 134.403489 
L 85.4226 134.520357 
L 85.7574 135.710003 
L 85.9248 135.283164 
L 86.0922 134.012669 
L 86.427 128.765773 
L 86.5944 129.168047 
L 86.7618 128.593703 
L 86.9292 128.505708 
L 87.264 125.880115 
L 87.4314 119.611807 
L 87.5988 118.657135 
L 87.7662 119.258872 
L 88.101 120.98468 
L 88.2684 119.188338 
L 88.6032 119.55715 
L 88.7706 120.160815 
L 88.938 117.268431 
L 89.1054 122.045538 
L 89.2728 123.352334 
L 89.4402 123.305551 
L 89.6076 123.023033 
L 89.775 123.336324 
L 89.9424 125.499519 
L 90.1098 124.73534 
L 90.2772 123.396928 
L 90.4446 117.012847 
L 90.612 102.167871 
L 91.1142 100.365987 
L 91.2816 100.109558 
L 91.7838 100.272502 
L 91.9512 100.442527 
L 92.1186 101.694752 
L 92.286 118.625046 
L 92.9556 135.150102 
L 93.123 133.375276 
L 93.2904 133.548306 
L 93.4578 132.919873 
L 93.6252 124.10725 
L 93.7926 124.33261 
L 94.2948 124.356469 
L 94.4622 123.997161 
L 94.6296 123.114012 
L 94.9644 120.338521 
L 95.1318 116.001218 
L 95.2992 117.653053 
L 95.4666 117.281503 
L 95.634 117.216804 
L 96.1362 117.53934 
L 96.3036 118.558279 
L 96.471 120.726485 
L 96.6384 121.286422 
L 96.9732 137.056877 
L 97.1406 138.718169 
L 97.308 133.428345 
L 97.4754 123.261174 
L 97.6428 120.891356 
L 98.145 120.95254 
L 98.3124 121.647568 
L 98.6472 121.615992 
L 98.8146 121.731108 
L 98.982 123.583662 
L 99.1494 134.220206 
L 99.3168 126.290314 
L 99.4842 124.427743 
L 99.6516 124.161147 
L 99.819 121.675337 
L 99.9864 121.466703 
L 100.4886 121.523132 
L 100.8234 121.453511 
L 100.9908 129.22384 
L 101.1582 129.378964 
L 101.3256 129.233005 
L 101.493 133.808625 
L 101.6604 132.69541 
L 101.8278 117.712029 
L 102.1626 116.480741 
L 102.6648 115.547198 
L 102.8322 116.36837 
L 103.167 116.661961 
L 103.3344 117.098772 
L 103.5018 130.590184 
L 103.6692 133.18297 
L 103.8366 116.431647 
L 104.1714 116.974759 
L 104.3388 117.585515 
L 104.5062 117.428861 
L 104.841 117.483065 
L 105.0084 117.212017 
L 105.3432 117.221951 
L 105.5106 138.46214 
L 105.678 139.334521 
L 105.8454 139.34639 
L 106.0128 125.918651 
L 106.1802 125.97235 
L 106.515 125.518652 
L 106.6824 126.065102 
L 106.8498 126.096326 
L 107.352 125.268406 
L 107.5194 118.50249 
L 107.6868 120.8516 
L 108.3564 121.377756 
L 108.5238 121.351995 
L 109.026 122.251349 
L 109.3608 145.512755 
L 109.5282 145.928996 
L 109.6956 145.879058 
L 109.863 145.653918 
L 110.1978 131.888894 
L 110.3652 129.870912 
L 110.5326 129.894442 
L 110.7 126.11304 
L 111.0348 124.854175 
L 111.2022 124.55648 
L 111.3696 121.84485 
L 111.537 121.728359 
L 111.8718 125.579096 
L 112.0392 126.394023 
L 112.2066 125.864706 
L 112.374 129.070538 
L 112.7088 130.258814 
L 112.8762 129.813526 
L 113.0436 135.34857 
L 113.211 134.646582 
L 113.3784 125.701741 
L 113.5458 125.816482 
L 114.048 127.425585 
L 114.2154 127.736625 
L 114.3828 127.633957 
L 114.7176 128.576687 
L 114.885 128.605001 
L 115.0524 142.054804 
L 115.2198 139.250639 
L 115.3872 134.23112 
L 115.5546 133.704556 
L 115.8894 131.580976 
L 116.2242 123.778802 
L 116.3916 123.588703 
L 116.559 123.99404 
L 116.7264 124.001942 
L 116.8938 124.726097 
L 117.0612 126.741618 
L 117.2286 127.038721 
L 117.5634 128.518686 
L 117.7308 133.975874 
L 117.8982 145.114726 
L 118.0656 143.238697 
L 118.233 142.973835 
L 118.4004 143.138276 
L 118.5678 129.676484 
L 118.7352 127.312724 
L 119.5722 127.309665 
L 119.7396 128.075452 
L 120.0744 128.097706 
L 120.4092 147.098831 
L 120.5766 147.036341 
L 120.744 147.181217 
L 120.9114 147.477794 
L 121.2462 143.273416 
L 121.4136 135.34679 
L 121.581 133.001424 
L 121.7484 132.998924 
L 121.9158 131.938795 
L 122.2506 131.838962 
L 122.418 131.891475 
L 122.5854 131.802341 
L 122.7528 132.379499 
L 123.0876 130.935318 
L 123.255 131.283905 
L 123.4224 130.022054 
L 123.5898 130.005562 
L 123.9246 130.22299 
L 124.2594 130.263491 
L 124.4268 130.261849 
L 124.5942 131.536638 
L 124.7616 137.746884 
L 125.0964 142.696415 
L 125.2638 145.405713 
L 125.4312 144.256403 
L 125.5986 143.883664 
L 125.766 140.933953 
L 126.1008 140.027639 
L 126.2682 139.511775 
L 126.4356 139.531327 
L 126.603 139.871973 
L 126.7704 139.825179 
L 126.9378 138.123783 
L 127.1052 138.541974 
L 127.2726 138.589152 
L 127.44 139.370876 
L 127.6074 139.603119 
L 127.9422 141.107132 
L 128.1096 139.400115 
L 128.4444 138.801804 
L 128.6118 140.55268 
L 128.7792 140.217483 
L 128.9466 139.60849 
L 129.114 137.16903 
L 129.6162 135.114208 
L 129.951 136.694432 
L 130.1184 136.96043 
L 130.2858 136.800289 
L 130.4532 134.206198 
L 130.6206 134.064038 
L 130.788 137.134805 
L 131.2902 139.386497 
L 131.4576 137.543294 
L 131.625 132.498454 
L 131.7924 123.331903 
L 131.9598 123.312445 
L 132.1272 124.360953 
L 132.2946 124.648697 
L 132.6294 124.583982 
L 132.9642 124.610673 
L 133.1316 125.243326 
L 133.299 127.937091 
L 133.4664 142.725632 
L 133.8012 143.519845 
L 133.9686 143.312166 
L 134.136 143.687431 
L 134.3034 143.404175 
L 134.4708 143.666123 
L 134.6382 143.570239 
L 134.8056 142.459394 
L 134.973 142.366247 
L 135.1404 146.228792 
L 135.3078 141.264791 
L 135.4752 140.378792 
L 135.81 140.113652 
L 136.1448 140.420753 
L 136.3122 139.896641 
L 136.4796 140.706563 
L 136.647 136.916388 
L 136.8144 129.501243 
L 136.9818 131.143417 
L 137.1492 131.541106 
L 137.6514 131.603978 
L 137.8188 131.644274 
L 137.9862 131.935462 
L 138.1536 131.974673 
L 138.321 134.405213 
L 138.4884 149.080428 
L 138.8232 142.938186 
L 139.3254 143.27942 
L 139.4928 143.048345 
L 139.6602 142.305505 
L 139.995 139.000212 
L 140.1624 137.754422 
L 140.6646 141.346428 
L 140.832 141.359509 
L 141.3342 140.348848 
L 141.8364 145.885965 
L 142.0038 146.18368 
L 142.1712 146.128104 
L 142.6734 146.447838 
L 143.0082 149.049887 
L 143.1756 148.799009 
L 143.343 149.122371 
L 143.5104 148.688824 
L 143.6778 146.422389 
L 143.8452 146.531053 
L 144.18 145.690274 
L 144.3474 145.306713 
L 144.6822 145.301673 
L 144.8496 143.21199 
L 145.017 143.076103 
L 145.1844 143.798483 
L 145.3518 145.745852 
L 145.5192 144.537419 
L 145.6866 138.817999 
L 146.1888 139.650816 
L 146.3562 139.65155 
L 146.5236 140.91156 
L 146.691 141.095901 
L 146.8584 141.050752 
L 147.0258 141.146902 
L 147.1932 142.211029 
L 147.3606 150.950598 
L 147.6954 150.673943 
L 147.8628 145.501509 
L 148.0302 145.015824 
L 148.1976 145.558142 
L 148.365 145.705592 
L 148.6998 145.693077 
L 148.8672 145.464212 
L 149.202 145.695651 
L 149.3694 145.661967 
L 149.5368 150.762789 
L 149.7042 151.593586 
L 150.039 145.732906 
L 150.3738 145.861486 
L 150.5412 146.14998 
L 150.7086 145.832289 
L 151.2108 143.271367 
L 151.3782 143.263548 
L 151.713 147.582608 
L 152.0478 146.960642 
L 152.2152 146.675647 
L 152.3826 147.034066 
L 152.8848 150.316901 
L 153.0522 149.97448 
L 153.2196 149.374237 
L 153.387 149.4775 
L 153.5544 148.891059 
L 153.7218 148.749717 
L 153.8892 149.103921 
L 154.224 148.947774 
L 154.3914 149.729674 
L 154.5588 149.246776 
L 154.7262 149.354193 
L 154.8936 149.994715 
L 155.061 149.890334 
L 155.3958 151.263356 
L 155.7306 151.475129 
L 156.0654 151.084002 
L 156.4002 151.968592 
L 156.5676 150.884574 
L 156.735 150.546292 
L 157.0698 150.46985 
L 157.2372 150.053588 
L 157.4046 150.097238 
L 157.572 150.385814 
L 157.9068 149.871616 
L 158.0742 149.922903 
L 158.409 151.536263 
L 158.5764 150.736787 
L 158.7438 150.90009 
L 158.9112 151.257227 
L 159.246 150.902403 
L 159.5808 151.690749 
L 160.083 152.184668 
L 160.2504 153.360709 
L 160.5852 153.31535 
L 160.7526 153.554229 
L 160.92 153.252848 
L 161.0874 153.33735 
L 161.4222 152.839938 
L 161.757 152.577273 
L 161.9244 152.541788 
L 162.2592 152.098615 
L 162.4266 151.864238 
L 162.594 152.388507 
L 162.7614 152.326933 
L 162.9288 152.558212 
L 163.0962 152.564689 
L 163.431 152.818859 
L 163.5984 152.851694 
L 163.7658 153.150257 
L 163.9332 152.561823 
L 164.4354 153.038396 
L 165.4398 153.393199 
L 165.6072 154.263024 
L 165.942 154.477507 
L 166.1094 154.371366 
L 166.2768 153.893348 
L 166.779 153.87475 
L 166.9464 153.835972 
L 167.1138 154.126414 
L 167.2812 154.146658 
L 167.616 154.007888 
L 167.7834 154.148275 
L 167.9508 154.679007 
L 169.4574 155.044299 
L 169.6248 154.9086 
L 169.9596 154.951214 
L 170.2944 155.150749 
L 170.4618 155.17492 
L 170.7966 154.824616 
L 170.964 154.877837 
L 171.1314 154.796379 
L 171.2988 155.02469 
L 171.4662 154.927757 
L 171.6336 154.989431 
L 172.1358 154.882968 
L 172.4706 155.240883 
L 172.9728 155.26264 
L 173.1402 155.38109 
L 173.3076 155.175091 
L 173.6424 155.315038 
L 174.1446 155.572061 
L 174.8142 155.576464 
L 174.9816 155.810236 
L 175.3164 155.78859 
L 175.6512 155.668151 
L 175.986 155.778472 
L 176.6556 155.918215 
L 176.9904 155.907293 
L 177.3252 155.992383 
L 177.66 156.004124 
L 178.497 156.114026 
L 178.8318 156.148481 
L 179.334 156.166829 
L 189.2106 156.499602 
L 191.2194 156.496842 
L 192.726 156.520528 
L 194.2326 156.480367 
L 194.2326 156.480367 
" style="fill:none;stroke:#1f77b4;stroke-linecap:square;stroke-width:1.5;"/>
   </g>
   <g id="line2d_63">
    <path clip-path="url(#p8999382b7e)" d="M 27 39.790137 
L 28.3392 40.020894 
L 29.3436 40.467271 
L 30.1806 41.121082 
L 30.8502 41.917213 
L 31.5198 43.029963 
L 32.5242 45.266662 
L 33.3612 47.053029 
L 33.8634 47.63178 
L 34.1982 47.760614 
L 34.8678 47.645474 
L 35.5374 47.579312 
L 35.8722 47.715571 
L 36.3744 48.250303 
L 36.8766 49.227921 
L 37.5462 51.16448 
L 38.718 54.808039 
L 39.7224 56.08377 
L 40.7268 56.847287 
L 40.8942 56.719037 
L 41.0616 56.871769 
L 41.229 56.70896 
L 42.5682 54.003111 
L 42.7356 53.198655 
L 43.2378 52.670089 
L 43.4052 52.974864 
L 43.74 51.881432 
L 44.0748 51.111009 
L 44.4096 50.516707 
L 44.577 50.446686 
L 45.0792 48.899746 
L 45.414 48.808973 
L 45.5814 48.92909 
L 45.7488 48.854621 
L 46.0836 49.899424 
L 46.251 49.819967 
L 46.5858 50.079916 
L 46.7532 50.446484 
L 46.9206 50.279357 
L 47.088 50.651884 
L 47.2554 50.350035 
L 47.4228 50.352207 
L 47.7576 49.016728 
L 47.925 48.982393 
L 48.0924 48.721013 
L 48.2598 48.900076 
L 48.4272 48.718801 
L 48.5946 48.993258 
L 48.762 48.491219 
L 48.9294 48.81123 
L 49.0968 48.860815 
L 49.7664 49.840762 
L 50.2686 49.936601 
L 50.436 50.296528 
L 50.6034 50.369336 
L 50.9382 50.908642 
L 51.273 51.156673 
L 51.6078 51.180837 
L 51.7752 50.588505 
L 52.4448 50.668647 
L 52.6122 50.77184 
L 52.7796 50.723704 
L 53.2818 51.270936 
L 53.4492 51.822688 
L 53.6166 51.617331 
L 53.784 51.994309 
L 53.9514 51.922001 
L 54.1188 51.692487 
L 54.7884 51.611158 
L 54.9558 51.51535 
L 55.458 52.684437 
L 55.7928 52.301094 
L 55.9602 52.404047 
L 56.295 52.176271 
L 56.4624 52.18941 
L 56.6298 52.502862 
L 56.7972 52.351548 
L 56.9646 51.979727 
L 57.132 50.895452 
L 57.2994 51.074389 
L 57.4668 51.550239 
L 57.6342 51.628066 
L 57.969 52.079063 
L 58.1364 51.846933 
L 58.4712 51.769437 
L 58.6386 52.235969 
L 58.806 53.238278 
L 58.9734 53.223083 
L 59.643 53.776644 
L 59.8104 54.285391 
L 59.9778 54.378191 
L 60.1452 54.200219 
L 60.3126 53.706071 
L 60.6474 53.620595 
L 61.1496 52.836179 
L 61.4844 52.926623 
L 61.6518 51.455787 
L 62.154 52.001201 
L 62.4888 51.960118 
L 62.8236 52.312884 
L 62.991 52.154307 
L 63.1584 51.803477 
L 63.3258 53.234911 
L 63.6606 53.637674 
L 63.828 53.63765 
L 64.1628 53.826529 
L 64.665 53.800731 
L 64.9998 54.643327 
L 65.1672 54.368186 
L 65.502 54.540031 
L 65.6694 54.794133 
L 65.8368 54.669276 
L 66.5064 54.883701 
L 66.6738 54.671444 
L 66.8412 55.058313 
L 67.176 54.928343 
L 67.3434 54.677191 
L 67.6782 54.88033 
L 68.013 55.221933 
L 68.5152 54.975394 
L 68.6826 54.173186 
L 68.85 54.204099 
L 69.1848 53.582136 
L 69.3522 53.683294 
L 69.5196 53.440856 
L 69.687 52.895397 
L 70.0218 52.921835 
L 70.1892 52.806089 
L 70.3566 53.330258 
L 70.524 53.177432 
L 70.6914 53.905446 
L 70.8588 53.967841 
L 71.0262 53.704303 
L 71.1936 53.686663 
L 71.361 54.121265 
L 71.5284 54.194392 
L 71.6958 54.120256 
L 71.8632 54.194427 
L 72.198 54.467573 
L 72.3654 54.081447 
L 72.5328 54.612648 
L 72.7002 54.647987 
L 72.8676 54.80364 
L 73.2024 54.771034 
L 73.5372 54.852573 
L 73.7046 54.739697 
L 74.0394 54.878242 
L 74.2068 54.636698 
L 74.3742 54.613967 
L 74.709 54.974417 
L 75.0438 54.947695 
L 75.2112 55.596929 
L 75.546 55.340101 
L 75.8808 55.093321 
L 76.0482 55.175038 
L 76.383 54.956876 
L 76.7178 55.179046 
L 76.8852 54.61252 
L 77.3874 55.302327 
L 77.5548 55.338337 
L 78.057 55.669078 
L 78.5592 55.46926 
L 79.0614 55.625557 
L 79.2288 55.736697 
L 79.5636 55.592373 
L 79.731 55.475821 
L 79.8984 54.521963 
L 80.0658 54.56295 
L 80.2332 55.260168 
L 80.9028 55.082577 
L 81.0702 54.964273 
L 81.405 55.222743 
L 81.5724 56.340004 
L 81.7398 56.481214 
L 81.9072 55.714749 
L 82.242 55.879928 
L 83.2464 56.314549 
L 83.4138 55.462277 
L 83.5812 55.478446 
L 83.916 55.21852 
L 84.0834 55.139491 
L 84.2508 54.883475 
L 84.9204 54.752291 
L 85.0878 55.585393 
L 85.2552 55.578073 
L 85.59 55.852871 
L 85.7574 55.889532 
L 85.9248 56.177873 
L 86.0922 56.23965 
L 86.2596 56.435473 
L 86.9292 56.436202 
L 87.0966 56.133457 
L 87.264 56.116909 
L 87.4314 55.624341 
L 87.7662 55.577147 
L 87.9336 55.423459 
L 88.101 55.581727 
L 88.6032 55.633669 
L 88.938 56.364916 
L 89.1054 56.96577 
L 89.775 56.920258 
L 90.2772 56.876646 
L 90.4446 56.675997 
L 90.612 56.885336 
L 90.9468 56.496337 
L 91.1142 55.876282 
L 91.449 55.655542 
L 91.7838 55.636481 
L 91.9512 55.597647 
L 92.1186 55.751363 
L 92.286 55.194175 
L 92.6208 55.49681 
L 92.9556 56.241467 
L 93.2904 56.247025 
L 93.4578 56.595323 
L 93.96 56.754665 
L 94.4622 56.818688 
L 95.1318 56.661261 
L 95.4666 56.68786 
L 95.9688 56.622576 
L 96.6384 56.699442 
L 96.8058 56.382427 
L 96.9732 56.359403 
L 97.1406 56.472948 
L 97.6428 57.165933 
L 98.145 57.280149 
L 98.6472 57.419735 
L 98.982 57.100134 
L 99.1494 56.669814 
L 99.4842 56.711058 
L 100.1538 56.54953 
L 101.6604 56.468481 
L 101.9952 56.769099 
L 102.33 56.610286 
L 102.4974 56.952694 
L 103.3344 57.050743 
L 103.5018 56.76042 
L 103.6692 56.984529 
L 104.004 56.928873 
L 104.1714 56.57258 
L 105.1758 56.854779 
L 105.3432 56.547655 
L 105.8454 56.816455 
L 106.3476 56.73311 
L 107.0172 56.675238 
L 107.1846 56.777104 
L 107.352 56.555303 
L 107.5194 57.040022 
L 107.6868 57.026106 
L 108.0216 57.218061 
L 108.3564 57.269532 
L 108.6912 57.341217 
L 108.8586 57.320342 
L 109.026 57.605701 
L 109.1934 57.123897 
L 109.5282 57.155509 
L 109.863 57.198902 
L 110.1978 56.982938 
L 110.3652 57.042155 
L 111.0348 56.80634 
L 111.7044 56.948448 
L 111.8718 57.076043 
L 112.2066 56.975069 
L 112.7088 57.324224 
L 112.8762 57.246036 
L 113.0436 57.469125 
L 113.211 57.319646 
L 113.7132 57.410813 
L 114.048 57.545604 
L 114.2154 57.417811 
L 114.3828 57.436772 
L 114.5502 57.582085 
L 114.7176 57.421874 
L 114.885 57.721032 
L 115.0524 57.632906 
L 115.2198 57.399953 
L 115.3872 57.427828 
L 115.5546 57.574107 
L 115.722 57.962569 
L 115.8894 58.018003 
L 116.0568 57.82184 
L 116.7264 58.065779 
L 116.8938 58.390053 
L 117.2286 58.383485 
L 117.396 58.030167 
L 117.5634 58.08937 
L 117.7308 58.416045 
L 118.5678 58.434918 
L 118.9026 58.005984 
L 119.907 57.539419 
L 120.0744 57.650275 
L 120.2418 57.456281 
L 120.5766 57.907675 
L 120.9114 58.027001 
L 121.4136 59.250069 
L 122.0832 59.109156 
L 122.418 58.926771 
L 122.5854 58.911486 
L 122.7528 58.489182 
L 123.0876 58.705304 
L 123.255 59.266407 
L 124.2594 59.789623 
L 124.4268 59.789887 
L 124.5942 59.208274 
L 124.7616 59.028617 
L 124.929 58.545941 
L 125.4312 58.57135 
L 126.1008 58.266429 
L 126.4356 58.277722 
L 127.1052 57.978448 
L 127.6074 58.20541 
L 128.1096 57.991029 
L 128.7792 58.015156 
L 129.114 57.849484 
L 129.4488 57.924367 
L 129.6162 58.050305 
L 130.1184 57.718489 
L 130.4532 57.747109 
L 131.1228 57.933183 
L 131.2902 57.909043 
L 131.4576 58.06369 
L 131.625 58.835919 
L 132.6294 58.121673 
L 133.1316 57.984334 
L 133.299 57.3961 
L 133.6338 57.760882 
L 134.136 57.915202 
L 134.4708 58.092496 
L 135.9774 58.793694 
L 136.3122 58.663661 
L 136.4796 58.718237 
L 136.8144 57.927944 
L 137.1492 57.801704 
L 137.3166 57.702355 
L 137.9862 57.747177 
L 138.1536 57.700215 
L 138.4884 58.3572 
L 138.8232 58.316287 
L 140.3298 58.216135 
L 140.9994 58.470766 
L 141.1668 58.214713 
L 141.3342 58.221672 
L 141.669 58.387469 
L 142.6734 58.380137 
L 142.8408 58.603825 
L 143.343 58.576366 
L 144.0126 58.55643 
L 145.017 58.682769 
L 145.3518 58.585195 
L 145.6866 58.745089 
L 147.1932 58.793604 
L 148.365 58.507437 
L 149.7042 58.546159 
L 149.8716 58.834994 
L 150.3738 58.836026 
L 151.2108 59.063311 
L 151.3782 59.110272 
L 151.5456 58.882954 
L 152.0478 58.99992 
L 153.387 58.838098 
L 155.061 58.912667 
L 155.7306 58.698522 
L 157.2372 58.805696 
L 157.572 58.817074 
L 158.9112 58.71501 
L 163.7658 58.689543 
L 164.1006 58.637001 
L 165.105 58.678815 
L 165.6072 58.770487 
L 167.1138 58.78867 
L 172.8054 58.814499 
L 174.1446 58.833958 
L 179.1666 58.826279 
L 194.2326 58.809915 
L 194.2326 58.809915 
" style="fill:none;stroke:#ff7f0e;stroke-linecap:square;stroke-width:1.5;"/>
   </g>
   <g id="line2d_64">
    <path clip-path="url(#p8999382b7e)" d="M 27 44.005083 
L 194.4 44.005083 
" style="fill:none;stroke:#000000;stroke-dasharray:5.55,2.4;stroke-dashoffset:0;stroke-width:1.5;"/>
   </g>
   <g id="patch_3">
    <path d="M 27 189 
L 27 25.92 
" style="fill:none;stroke:#000000;stroke-linecap:square;stroke-linejoin:miter;stroke-width:0.8;"/>
   </g>
   <g id="patch_4">
    <path d="M 194.4 189 
L 194.4 25.92 
" style="fill:none;stroke:#000000;stroke-linecap:square;stroke-linejoin:miter;stroke-width:0.8;"/>
   </g>
   <g id="patch_5">
    <path d="M 27 189 
L 194.4 189 
" style="fill:none;stroke:#000000;stroke-linecap:square;stroke-linejoin:miter;stroke-width:0.8;"/>
   </g>
   <g id="patch_6">
    <path d="M 27 25.92 
L 194.4 25.92 
" style="fill:none;stroke:#000000;stroke-linecap:square;stroke-linejoin:miter;stroke-width:0.8;"/>
   </g>
   <g id="text_16">
    <!-- train 0.00002 -->
    <g transform="translate(126.42635 175.7225)scale(0.1 -0.1)">
     <defs>
      <path d="M 1172 4494 
L 1172 3500 
L 2356 3500 
L 2356 3053 
L 1172 3053 
L 1172 1153 
Q 1172 725 1289 603 
Q 1406 481 1766 481 
L 2356 481 
L 2356 0 
L 1766 0 
Q 1100 0 847 248 
Q 594 497 594 1153 
L 594 3053 
L 172 3053 
L 172 3500 
L 594 3500 
L 594 4494 
L 1172 4494 
z
" id="DejaVuSans-74" transform="scale(0.015625)"/>
      <path d="M 2631 2963 
Q 2534 3019 2420 3045 
Q 2306 3072 2169 3072 
Q 1681 3072 1420 2755 
Q 1159 2438 1159 1844 
L 1159 0 
L 581 0 
L 581 3500 
L 1159 3500 
L 1159 2956 
Q 1341 3275 1631 3429 
Q 1922 3584 2338 3584 
Q 2397 3584 2469 3576 
Q 2541 3569 2628 3553 
L 2631 2963 
z
" id="DejaVuSans-72" transform="scale(0.015625)"/>
      <path d="M 2194 1759 
Q 1497 1759 1228 1600 
Q 959 1441 959 1056 
Q 959 750 1161 570 
Q 1363 391 1709 391 
Q 2188 391 2477 730 
Q 2766 1069 2766 1631 
L 2766 1759 
L 2194 1759 
z
M 3341 1997 
L 3341 0 
L 2766 0 
L 2766 531 
Q 2569 213 2275 61 
Q 1981 -91 1556 -91 
Q 1019 -91 701 211 
Q 384 513 384 1019 
Q 384 1609 779 1909 
Q 1175 2209 1959 2209 
L 2766 2209 
L 2766 2266 
Q 2766 2663 2505 2880 
Q 2244 3097 1772 3097 
Q 1472 3097 1187 3025 
Q 903 2953 641 2809 
L 641 3341 
Q 956 3463 1253 3523 
Q 1550 3584 1831 3584 
Q 2591 3584 2966 3190 
Q 3341 2797 3341 1997 
z
" id="DejaVuSans-61" transform="scale(0.015625)"/>
      <path d="M 603 3500 
L 1178 3500 
L 1178 0 
L 603 0 
L 603 3500 
z
M 603 4863 
L 1178 4863 
L 1178 4134 
L 603 4134 
L 603 4863 
z
" id="DejaVuSans-69" transform="scale(0.015625)"/>
      <path d="M 3513 2113 
L 3513 0 
L 2938 0 
L 2938 2094 
Q 2938 2591 2744 2837 
Q 2550 3084 2163 3084 
Q 1697 3084 1428 2787 
Q 1159 2491 1159 1978 
L 1159 0 
L 581 0 
L 581 3500 
L 1159 3500 
L 1159 2956 
Q 1366 3272 1645 3428 
Q 1925 3584 2291 3584 
Q 2894 3584 3203 3211 
Q 3513 2838 3513 2113 
z
" id="DejaVuSans-6e" transform="scale(0.015625)"/>
      <path id="DejaVuSans-20" transform="scale(0.015625)"/>
      <path d="M 684 794 
L 1344 794 
L 1344 0 
L 684 0 
L 684 794 
z
" id="DejaVuSans-2e" transform="scale(0.015625)"/>
     </defs>
     <use xlink:href="#DejaVuSans-74"/>
     <use x="39.208984" xlink:href="#DejaVuSans-72"/>
     <use x="80.322266" xlink:href="#DejaVuSans-61"/>
     <use x="141.601562" xlink:href="#DejaVuSans-69"/>
     <use x="169.384766" xlink:href="#DejaVuSans-6e"/>
     <use x="232.763672" xlink:href="#DejaVuSans-20"/>
     <use x="264.550781" xlink:href="#DejaVuSans-30"/>
     <use x="328.173828" xlink:href="#DejaVuSans-2e"/>
     <use x="359.960938" xlink:href="#DejaVuSans-30"/>
     <use x="423.583984" xlink:href="#DejaVuSans-30"/>
     <use x="487.207031" xlink:href="#DejaVuSans-30"/>
     <use x="550.830078" xlink:href="#DejaVuSans-30"/>
     <use x="614.453125" xlink:href="#DejaVuSans-32"/>
    </g>
    <!-- test 0.06166 -->
    <g transform="translate(130.498225 186.920312)scale(0.1 -0.1)">
     <defs>
      <path d="M 3597 1894 
L 3597 1613 
L 953 1613 
Q 991 1019 1311 708 
Q 1631 397 2203 397 
Q 2534 397 2845 478 
Q 3156 559 3463 722 
L 3463 178 
Q 3153 47 2828 -22 
Q 2503 -91 2169 -91 
Q 1331 -91 842 396 
Q 353 884 353 1716 
Q 353 2575 817 3079 
Q 1281 3584 2069 3584 
Q 2775 3584 3186 3129 
Q 3597 2675 3597 1894 
z
M 3022 2063 
Q 3016 2534 2758 2815 
Q 2500 3097 2075 3097 
Q 1594 3097 1305 2825 
Q 1016 2553 972 2059 
L 3022 2063 
z
" id="DejaVuSans-65" transform="scale(0.015625)"/>
     </defs>
     <use xlink:href="#DejaVuSans-74"/>
     <use x="39.208984" xlink:href="#DejaVuSans-65"/>
     <use x="100.732422" xlink:href="#DejaVuSans-73"/>
     <use x="152.832031" xlink:href="#DejaVuSans-74"/>
     <use x="192.041016" xlink:href="#DejaVuSans-20"/>
     <use x="223.828125" xlink:href="#DejaVuSans-30"/>
     <use x="287.451172" xlink:href="#DejaVuSans-2e"/>
     <use x="319.238281" xlink:href="#DejaVuSans-30"/>
     <use x="382.861328" xlink:href="#DejaVuSans-36"/>
     <use x="446.484375" xlink:href="#DejaVuSans-31"/>
     <use x="510.107422" xlink:href="#DejaVuSans-36"/>
     <use x="573.730469" xlink:href="#DejaVuSans-36"/>
    </g>
   </g>
   <g id="legend_1">
    <g id="line2d_65">
     <path d="M 36 145.064063 
L 56 145.064063 
" style="fill:none;stroke:#1f77b4;stroke-linecap:square;stroke-width:1.5;"/>
    </g>
    <g id="line2d_66"/>
    <g id="text_17">
     <!-- Train -->
     <g transform="translate(64 148.564063)scale(0.1 -0.1)">
      <defs>
       <path d="M -19 4666 
L 3928 4666 
L 3928 4134 
L 2272 4134 
L 2272 0 
L 1638 0 
L 1638 4134 
L -19 4134 
L -19 4666 
z
" id="DejaVuSans-54" transform="scale(0.015625)"/>
      </defs>
      <use xlink:href="#DejaVuSans-54"/>
      <use x="46.333984" xlink:href="#DejaVuSans-72"/>
      <use x="87.447266" xlink:href="#DejaVuSans-61"/>
      <use x="148.726562" xlink:href="#DejaVuSans-69"/>
      <use x="176.509766" xlink:href="#DejaVuSans-6e"/>
     </g>
    </g>
    <g id="line2d_67">
     <path d="M 36 159.742188 
L 56 159.742188 
" style="fill:none;stroke:#ff7f0e;stroke-linecap:square;stroke-width:1.5;"/>
    </g>
    <g id="line2d_68"/>
    <g id="text_18">
     <!-- Test -->
     <g transform="translate(64 163.242188)scale(0.1 -0.1)">
      <use xlink:href="#DejaVuSans-54"/>
      <use x="44.083984" xlink:href="#DejaVuSans-65"/>
      <use x="105.607422" xlink:href="#DejaVuSans-73"/>
      <use x="157.707031" xlink:href="#DejaVuSans-74"/>
     </g>
    </g>
    <g id="line2d_69">
     <path d="M 36 174.420313 
L 56 174.420313 
" style="fill:none;stroke:#000000;stroke-dasharray:5.55,2.4;stroke-dashoffset:0;stroke-width:1.5;"/>
    </g>
    <g id="line2d_70"/>
    <g id="text_19">
     <!-- Mean -->
     <g transform="translate(64 177.920313)scale(0.1 -0.1)">
      <defs>
       <path d="M 628 4666 
L 1569 4666 
L 2759 1491 
L 3956 4666 
L 4897 4666 
L 4897 0 
L 4281 0 
L 4281 4097 
L 3078 897 
L 2444 897 
L 1241 4097 
L 1241 0 
L 628 0 
L 628 4666 
z
" id="DejaVuSans-4d" transform="scale(0.015625)"/>
      </defs>
      <use xlink:href="#DejaVuSans-4d"/>
      <use x="86.279297" xlink:href="#DejaVuSans-65"/>
      <use x="147.802734" xlink:href="#DejaVuSans-61"/>
      <use x="209.082031" xlink:href="#DejaVuSans-6e"/>
     </g>
    </g>
   </g>
  </g>
 </g>
 <defs>
  <clipPath id="p8999382b7e">
   <rect height="163.08" width="167.4" x="27" y="25.92"/>
  </clipPath>
 </defs>
</svg>
