<?xml version="1.0" encoding="utf-8" standalone="no"?>
<!DOCTYPE svg PUBLIC "-//W3C//DTD SVG 1.1//EN"
  "http://www.w3.org/Graphics/SVG/1.1/DTD/svg11.dtd">
<svg height="216pt" version="1.1" viewBox="0 0 216 216" width="216pt" xmlns="http://www.w3.org/2000/svg" xmlns:xlink="http://www.w3.org/1999/xlink">
 <metadata>
  <rdf:RDF xmlns:cc="http://creativecommons.org/ns#" xmlns:dc="http://purl.org/dc/elements/1.1/" xmlns:rdf="http://www.w3.org/1999/02/22-rdf-syntax-ns#">
   <cc:Work>
    <dc:type rdf:resource="http://purl.org/dc/dcmitype/StillImage"/>
    <dc:date>2022-05-06T13:49:13.033878</dc:date>
    <dc:format>image/svg+xml</dc:format>
    <dc:creator>
     <cc:Agent>
      <dc:title>Matplotlib v3.4.3, https://matplotlib.org/</dc:title>
     </cc:Agent>
    </dc:creator>
   </cc:Work>
  </rdf:RDF>
 </metadata>
 <defs>
  <style type="text/css">*{stroke-linecap:butt;stroke-linejoin:round;}</style>
 </defs>
 <g id="figure_1">
  <g id="patch_1">
   <path d="M 0 216 
L 216 216 
L 216 0 
L 0 0 
z
" style="fill:#ffffff;"/>
  </g>
  <g id="axes_1">
   <g id="patch_2">
    <path d="M 27 189 
L 194.4 189 
L 194.4 25.92 
L 27 25.92 
z
" style="fill:#ffffff;"/>
   </g>
   <g id="matplotlib.axis_1">
    <g id="xtick_1">
     <g id="line2d_1">
      <defs>
       <path d="M 0 0 
L 0 3.5 
" id="m907b8b23f6" style="stroke:#000000;stroke-width:0.8;"/>
      </defs>
      <g>
       <use style="stroke:#000000;stroke-width:0.8;" x="27" xlink:href="#m907b8b23f6" y="189"/>
      </g>
     </g>
     <g id="text_1">
      <!-- 0 -->
      <g transform="translate(23.81875 203.598437)scale(0.1 -0.1)">
       <defs>
        <path d="M 2034 4250 
Q 1547 4250 1301 3770 
Q 1056 3291 1056 2328 
Q 1056 1369 1301 889 
Q 1547 409 2034 409 
Q 2525 409 2770 889 
Q 3016 1369 3016 2328 
Q 3016 3291 2770 3770 
Q 2525 4250 2034 4250 
z
M 2034 4750 
Q 2819 4750 3233 4129 
Q 3647 3509 3647 2328 
Q 3647 1150 3233 529 
Q 2819 -91 2034 -91 
Q 1250 -91 836 529 
Q 422 1150 422 2328 
Q 422 3509 836 4129 
Q 1250 4750 2034 4750 
z
" id="DejaVuSans-30" transform="scale(0.015625)"/>
       </defs>
       <use xlink:href="#DejaVuSans-30"/>
      </g>
     </g>
    </g>
    <g id="xtick_2">
     <g id="line2d_2">
      <g>
       <use style="stroke:#000000;stroke-width:0.8;" x="60.48" xlink:href="#m907b8b23f6" y="189"/>
      </g>
     </g>
     <g id="text_2">
      <!-- 200 -->
      <g transform="translate(50.93625 203.598437)scale(0.1 -0.1)">
       <defs>
        <path d="M 1228 531 
L 3431 531 
L 3431 0 
L 469 0 
L 469 531 
Q 828 903 1448 1529 
Q 2069 2156 2228 2338 
Q 2531 2678 2651 2914 
Q 2772 3150 2772 3378 
Q 2772 3750 2511 3984 
Q 2250 4219 1831 4219 
Q 1534 4219 1204 4116 
Q 875 4013 500 3803 
L 500 4441 
Q 881 4594 1212 4672 
Q 1544 4750 1819 4750 
Q 2544 4750 2975 4387 
Q 3406 4025 3406 3419 
Q 3406 3131 3298 2873 
Q 3191 2616 2906 2266 
Q 2828 2175 2409 1742 
Q 1991 1309 1228 531 
z
" id="DejaVuSans-32" transform="scale(0.015625)"/>
       </defs>
       <use xlink:href="#DejaVuSans-32"/>
       <use x="63.623047" xlink:href="#DejaVuSans-30"/>
       <use x="127.246094" xlink:href="#DejaVuSans-30"/>
      </g>
     </g>
    </g>
    <g id="xtick_3">
     <g id="line2d_3">
      <g>
       <use style="stroke:#000000;stroke-width:0.8;" x="93.96" xlink:href="#m907b8b23f6" y="189"/>
      </g>
     </g>
     <g id="text_3">
      <!-- 400 -->
      <g transform="translate(84.41625 203.598437)scale(0.1 -0.1)">
       <defs>
        <path d="M 2419 4116 
L 825 1625 
L 2419 1625 
L 2419 4116 
z
M 2253 4666 
L 3047 4666 
L 3047 1625 
L 3713 1625 
L 3713 1100 
L 3047 1100 
L 3047 0 
L 2419 0 
L 2419 1100 
L 313 1100 
L 313 1709 
L 2253 4666 
z
" id="DejaVuSans-34" transform="scale(0.015625)"/>
       </defs>
       <use xlink:href="#DejaVuSans-34"/>
       <use x="63.623047" xlink:href="#DejaVuSans-30"/>
       <use x="127.246094" xlink:href="#DejaVuSans-30"/>
      </g>
     </g>
    </g>
    <g id="xtick_4">
     <g id="line2d_4">
      <g>
       <use style="stroke:#000000;stroke-width:0.8;" x="127.44" xlink:href="#m907b8b23f6" y="189"/>
      </g>
     </g>
     <g id="text_4">
      <!-- 600 -->
      <g transform="translate(117.89625 203.598437)scale(0.1 -0.1)">
       <defs>
        <path d="M 2113 2584 
Q 1688 2584 1439 2293 
Q 1191 2003 1191 1497 
Q 1191 994 1439 701 
Q 1688 409 2113 409 
Q 2538 409 2786 701 
Q 3034 994 3034 1497 
Q 3034 2003 2786 2293 
Q 2538 2584 2113 2584 
z
M 3366 4563 
L 3366 3988 
Q 3128 4100 2886 4159 
Q 2644 4219 2406 4219 
Q 1781 4219 1451 3797 
Q 1122 3375 1075 2522 
Q 1259 2794 1537 2939 
Q 1816 3084 2150 3084 
Q 2853 3084 3261 2657 
Q 3669 2231 3669 1497 
Q 3669 778 3244 343 
Q 2819 -91 2113 -91 
Q 1303 -91 875 529 
Q 447 1150 447 2328 
Q 447 3434 972 4092 
Q 1497 4750 2381 4750 
Q 2619 4750 2861 4703 
Q 3103 4656 3366 4563 
z
" id="DejaVuSans-36" transform="scale(0.015625)"/>
       </defs>
       <use xlink:href="#DejaVuSans-36"/>
       <use x="63.623047" xlink:href="#DejaVuSans-30"/>
       <use x="127.246094" xlink:href="#DejaVuSans-30"/>
      </g>
     </g>
    </g>
    <g id="xtick_5">
     <g id="line2d_5">
      <g>
       <use style="stroke:#000000;stroke-width:0.8;" x="160.92" xlink:href="#m907b8b23f6" y="189"/>
      </g>
     </g>
     <g id="text_5">
      <!-- 800 -->
      <g transform="translate(151.37625 203.598437)scale(0.1 -0.1)">
       <defs>
        <path d="M 2034 2216 
Q 1584 2216 1326 1975 
Q 1069 1734 1069 1313 
Q 1069 891 1326 650 
Q 1584 409 2034 409 
Q 2484 409 2743 651 
Q 3003 894 3003 1313 
Q 3003 1734 2745 1975 
Q 2488 2216 2034 2216 
z
M 1403 2484 
Q 997 2584 770 2862 
Q 544 3141 544 3541 
Q 544 4100 942 4425 
Q 1341 4750 2034 4750 
Q 2731 4750 3128 4425 
Q 3525 4100 3525 3541 
Q 3525 3141 3298 2862 
Q 3072 2584 2669 2484 
Q 3125 2378 3379 2068 
Q 3634 1759 3634 1313 
Q 3634 634 3220 271 
Q 2806 -91 2034 -91 
Q 1263 -91 848 271 
Q 434 634 434 1313 
Q 434 1759 690 2068 
Q 947 2378 1403 2484 
z
M 1172 3481 
Q 1172 3119 1398 2916 
Q 1625 2713 2034 2713 
Q 2441 2713 2670 2916 
Q 2900 3119 2900 3481 
Q 2900 3844 2670 4047 
Q 2441 4250 2034 4250 
Q 1625 4250 1398 4047 
Q 1172 3844 1172 3481 
z
" id="DejaVuSans-38" transform="scale(0.015625)"/>
       </defs>
       <use xlink:href="#DejaVuSans-38"/>
       <use x="63.623047" xlink:href="#DejaVuSans-30"/>
       <use x="127.246094" xlink:href="#DejaVuSans-30"/>
      </g>
     </g>
    </g>
    <g id="xtick_6">
     <g id="line2d_6">
      <g>
       <use style="stroke:#000000;stroke-width:0.8;" x="194.4" xlink:href="#m907b8b23f6" y="189"/>
      </g>
     </g>
     <g id="text_6">
      <!-- 1000 -->
      <g transform="translate(181.675 203.598437)scale(0.1 -0.1)">
       <defs>
        <path d="M 794 531 
L 1825 531 
L 1825 4091 
L 703 3866 
L 703 4441 
L 1819 4666 
L 2450 4666 
L 2450 531 
L 3481 531 
L 3481 0 
L 794 0 
L 794 531 
z
" id="DejaVuSans-31" transform="scale(0.015625)"/>
       </defs>
       <use xlink:href="#DejaVuSans-31"/>
       <use x="63.623047" xlink:href="#DejaVuSans-30"/>
       <use x="127.246094" xlink:href="#DejaVuSans-30"/>
       <use x="190.869141" xlink:href="#DejaVuSans-30"/>
      </g>
     </g>
    </g>
    <g id="text_7">
     <!-- Epoch -->
     <g transform="translate(95.389062 217.276563)scale(0.1 -0.1)">
      <defs>
       <path d="M 628 4666 
L 3578 4666 
L 3578 4134 
L 1259 4134 
L 1259 2753 
L 3481 2753 
L 3481 2222 
L 1259 2222 
L 1259 531 
L 3634 531 
L 3634 0 
L 628 0 
L 628 4666 
z
" id="DejaVuSans-45" transform="scale(0.015625)"/>
       <path d="M 1159 525 
L 1159 -1331 
L 581 -1331 
L 581 3500 
L 1159 3500 
L 1159 2969 
Q 1341 3281 1617 3432 
Q 1894 3584 2278 3584 
Q 2916 3584 3314 3078 
Q 3713 2572 3713 1747 
Q 3713 922 3314 415 
Q 2916 -91 2278 -91 
Q 1894 -91 1617 61 
Q 1341 213 1159 525 
z
M 3116 1747 
Q 3116 2381 2855 2742 
Q 2594 3103 2138 3103 
Q 1681 3103 1420 2742 
Q 1159 2381 1159 1747 
Q 1159 1113 1420 752 
Q 1681 391 2138 391 
Q 2594 391 2855 752 
Q 3116 1113 3116 1747 
z
" id="DejaVuSans-70" transform="scale(0.015625)"/>
       <path d="M 1959 3097 
Q 1497 3097 1228 2736 
Q 959 2375 959 1747 
Q 959 1119 1226 758 
Q 1494 397 1959 397 
Q 2419 397 2687 759 
Q 2956 1122 2956 1747 
Q 2956 2369 2687 2733 
Q 2419 3097 1959 3097 
z
M 1959 3584 
Q 2709 3584 3137 3096 
Q 3566 2609 3566 1747 
Q 3566 888 3137 398 
Q 2709 -91 1959 -91 
Q 1206 -91 779 398 
Q 353 888 353 1747 
Q 353 2609 779 3096 
Q 1206 3584 1959 3584 
z
" id="DejaVuSans-6f" transform="scale(0.015625)"/>
       <path d="M 3122 3366 
L 3122 2828 
Q 2878 2963 2633 3030 
Q 2388 3097 2138 3097 
Q 1578 3097 1268 2742 
Q 959 2388 959 1747 
Q 959 1106 1268 751 
Q 1578 397 2138 397 
Q 2388 397 2633 464 
Q 2878 531 3122 666 
L 3122 134 
Q 2881 22 2623 -34 
Q 2366 -91 2075 -91 
Q 1284 -91 818 406 
Q 353 903 353 1747 
Q 353 2603 823 3093 
Q 1294 3584 2113 3584 
Q 2378 3584 2631 3529 
Q 2884 3475 3122 3366 
z
" id="DejaVuSans-63" transform="scale(0.015625)"/>
       <path d="M 3513 2113 
L 3513 0 
L 2938 0 
L 2938 2094 
Q 2938 2591 2744 2837 
Q 2550 3084 2163 3084 
Q 1697 3084 1428 2787 
Q 1159 2491 1159 1978 
L 1159 0 
L 581 0 
L 581 4863 
L 1159 4863 
L 1159 2956 
Q 1366 3272 1645 3428 
Q 1925 3584 2291 3584 
Q 2894 3584 3203 3211 
Q 3513 2838 3513 2113 
z
" id="DejaVuSans-68" transform="scale(0.015625)"/>
      </defs>
      <use xlink:href="#DejaVuSans-45"/>
      <use x="63.183594" xlink:href="#DejaVuSans-70"/>
      <use x="126.660156" xlink:href="#DejaVuSans-6f"/>
      <use x="187.841797" xlink:href="#DejaVuSans-63"/>
      <use x="242.822266" xlink:href="#DejaVuSans-68"/>
     </g>
    </g>
   </g>
   <g id="matplotlib.axis_2">
    <g id="ytick_1">
     <g id="line2d_7">
      <defs>
       <path d="M 0 0 
L -3.5 0 
" id="m7f37cfb282" style="stroke:#000000;stroke-width:0.8;"/>
      </defs>
      <g>
       <use style="stroke:#000000;stroke-width:0.8;" x="27" xlink:href="#m7f37cfb282" y="189"/>
      </g>
     </g>
     <g id="text_8">
      <!-- $\mathdefault{10^{-6}}$ -->
      <g transform="translate(-3.5 192.799219)scale(0.1 -0.1)">
       <defs>
        <path d="M 678 2272 
L 4684 2272 
L 4684 1741 
L 678 1741 
L 678 2272 
z
" id="DejaVuSans-2212" transform="scale(0.015625)"/>
       </defs>
       <use transform="translate(0 0.765625)" xlink:href="#DejaVuSans-31"/>
       <use transform="translate(63.623047 0.765625)" xlink:href="#DejaVuSans-30"/>
       <use transform="translate(128.203125 39.046875)scale(0.7)" xlink:href="#DejaVuSans-2212"/>
       <use transform="translate(186.855469 39.046875)scale(0.7)" xlink:href="#DejaVuSans-36"/>
      </g>
     </g>
    </g>
    <g id="ytick_2">
     <g id="line2d_8">
      <g>
       <use style="stroke:#000000;stroke-width:0.8;" x="27" xlink:href="#m7f37cfb282" y="161.82"/>
      </g>
     </g>
     <g id="text_9">
      <!-- $\mathdefault{10^{-5}}$ -->
      <g transform="translate(-3.5 165.619219)scale(0.1 -0.1)">
       <defs>
        <path d="M 691 4666 
L 3169 4666 
L 3169 4134 
L 1269 4134 
L 1269 2991 
Q 1406 3038 1543 3061 
Q 1681 3084 1819 3084 
Q 2600 3084 3056 2656 
Q 3513 2228 3513 1497 
Q 3513 744 3044 326 
Q 2575 -91 1722 -91 
Q 1428 -91 1123 -41 
Q 819 9 494 109 
L 494 744 
Q 775 591 1075 516 
Q 1375 441 1709 441 
Q 2250 441 2565 725 
Q 2881 1009 2881 1497 
Q 2881 1984 2565 2268 
Q 2250 2553 1709 2553 
Q 1456 2553 1204 2497 
Q 953 2441 691 2322 
L 691 4666 
z
" id="DejaVuSans-35" transform="scale(0.015625)"/>
       </defs>
       <use transform="translate(0 0.684375)" xlink:href="#DejaVuSans-31"/>
       <use transform="translate(63.623047 0.684375)" xlink:href="#DejaVuSans-30"/>
       <use transform="translate(128.203125 38.965625)scale(0.7)" xlink:href="#DejaVuSans-2212"/>
       <use transform="translate(186.855469 38.965625)scale(0.7)" xlink:href="#DejaVuSans-35"/>
      </g>
     </g>
    </g>
    <g id="ytick_3">
     <g id="line2d_9">
      <g>
       <use style="stroke:#000000;stroke-width:0.8;" x="27" xlink:href="#m7f37cfb282" y="134.64"/>
      </g>
     </g>
     <g id="text_10">
      <!-- $\mathdefault{10^{-4}}$ -->
      <g transform="translate(-3.5 138.439219)scale(0.1 -0.1)">
       <use transform="translate(0 0.684375)" xlink:href="#DejaVuSans-31"/>
       <use transform="translate(63.623047 0.684375)" xlink:href="#DejaVuSans-30"/>
       <use transform="translate(128.203125 38.965625)scale(0.7)" xlink:href="#DejaVuSans-2212"/>
       <use transform="translate(186.855469 38.965625)scale(0.7)" xlink:href="#DejaVuSans-34"/>
      </g>
     </g>
    </g>
    <g id="ytick_4">
     <g id="line2d_10">
      <g>
       <use style="stroke:#000000;stroke-width:0.8;" x="27" xlink:href="#m7f37cfb282" y="107.46"/>
      </g>
     </g>
     <g id="text_11">
      <!-- $\mathdefault{10^{-3}}$ -->
      <g transform="translate(-3.5 111.259219)scale(0.1 -0.1)">
       <defs>
        <path d="M 2597 2516 
Q 3050 2419 3304 2112 
Q 3559 1806 3559 1356 
Q 3559 666 3084 287 
Q 2609 -91 1734 -91 
Q 1441 -91 1130 -33 
Q 819 25 488 141 
L 488 750 
Q 750 597 1062 519 
Q 1375 441 1716 441 
Q 2309 441 2620 675 
Q 2931 909 2931 1356 
Q 2931 1769 2642 2001 
Q 2353 2234 1838 2234 
L 1294 2234 
L 1294 2753 
L 1863 2753 
Q 2328 2753 2575 2939 
Q 2822 3125 2822 3475 
Q 2822 3834 2567 4026 
Q 2313 4219 1838 4219 
Q 1578 4219 1281 4162 
Q 984 4106 628 3988 
L 628 4550 
Q 988 4650 1302 4700 
Q 1616 4750 1894 4750 
Q 2613 4750 3031 4423 
Q 3450 4097 3450 3541 
Q 3450 3153 3228 2886 
Q 3006 2619 2597 2516 
z
" id="DejaVuSans-33" transform="scale(0.015625)"/>
       </defs>
       <use transform="translate(0 0.765625)" xlink:href="#DejaVuSans-31"/>
       <use transform="translate(63.623047 0.765625)" xlink:href="#DejaVuSans-30"/>
       <use transform="translate(128.203125 39.046875)scale(0.7)" xlink:href="#DejaVuSans-2212"/>
       <use transform="translate(186.855469 39.046875)scale(0.7)" xlink:href="#DejaVuSans-33"/>
      </g>
     </g>
    </g>
    <g id="ytick_5">
     <g id="line2d_11">
      <g>
       <use style="stroke:#000000;stroke-width:0.8;" x="27" xlink:href="#m7f37cfb282" y="80.28"/>
      </g>
     </g>
     <g id="text_12">
      <!-- $\mathdefault{10^{-2}}$ -->
      <g transform="translate(-3.5 84.079219)scale(0.1 -0.1)">
       <use transform="translate(0 0.765625)" xlink:href="#DejaVuSans-31"/>
       <use transform="translate(63.623047 0.765625)" xlink:href="#DejaVuSans-30"/>
       <use transform="translate(128.203125 39.046875)scale(0.7)" xlink:href="#DejaVuSans-2212"/>
       <use transform="translate(186.855469 39.046875)scale(0.7)" xlink:href="#DejaVuSans-32"/>
      </g>
     </g>
    </g>
    <g id="ytick_6">
     <g id="line2d_12">
      <g>
       <use style="stroke:#000000;stroke-width:0.8;" x="27" xlink:href="#m7f37cfb282" y="53.1"/>
      </g>
     </g>
     <g id="text_13">
      <!-- $\mathdefault{10^{-1}}$ -->
      <g transform="translate(-3.5 56.899219)scale(0.1 -0.1)">
       <use transform="translate(0 0.684375)" xlink:href="#DejaVuSans-31"/>
       <use transform="translate(63.623047 0.684375)" xlink:href="#DejaVuSans-30"/>
       <use transform="translate(128.203125 38.965625)scale(0.7)" xlink:href="#DejaVuSans-2212"/>
       <use transform="translate(186.855469 38.965625)scale(0.7)" xlink:href="#DejaVuSans-31"/>
      </g>
     </g>
    </g>
    <g id="ytick_7">
     <g id="line2d_13">
      <g>
       <use style="stroke:#000000;stroke-width:0.8;" x="27" xlink:href="#m7f37cfb282" y="25.92"/>
      </g>
     </g>
     <g id="text_14">
      <!-- $\mathdefault{10^{0}}$ -->
      <g transform="translate(2.4 29.719219)scale(0.1 -0.1)">
       <use transform="translate(0 0.765625)" xlink:href="#DejaVuSans-31"/>
       <use transform="translate(63.623047 0.765625)" xlink:href="#DejaVuSans-30"/>
       <use transform="translate(128.203125 39.046875)scale(0.7)" xlink:href="#DejaVuSans-30"/>
      </g>
     </g>
    </g>
    <g id="ytick_8">
     <g id="line2d_14">
      <defs>
       <path d="M 0 0 
L -2 0 
" id="m922faa98a4" style="stroke:#000000;stroke-width:0.6;"/>
      </defs>
      <g>
       <use style="stroke:#000000;stroke-width:0.6;" x="27" xlink:href="#m922faa98a4" y="180.818005"/>
      </g>
     </g>
    </g>
    <g id="ytick_9">
     <g id="line2d_15">
      <g>
       <use style="stroke:#000000;stroke-width:0.6;" x="27" xlink:href="#m922faa98a4" y="176.031844"/>
      </g>
     </g>
    </g>
    <g id="ytick_10">
     <g id="line2d_16">
      <g>
       <use style="stroke:#000000;stroke-width:0.6;" x="27" xlink:href="#m922faa98a4" y="172.636009"/>
      </g>
     </g>
    </g>
    <g id="ytick_11">
     <g id="line2d_17">
      <g>
       <use style="stroke:#000000;stroke-width:0.6;" x="27" xlink:href="#m922faa98a4" y="170.001995"/>
      </g>
     </g>
    </g>
    <g id="ytick_12">
     <g id="line2d_18">
      <g>
       <use style="stroke:#000000;stroke-width:0.6;" x="27" xlink:href="#m922faa98a4" y="167.849849"/>
      </g>
     </g>
    </g>
    <g id="ytick_13">
     <g id="line2d_19">
      <g>
       <use style="stroke:#000000;stroke-width:0.6;" x="27" xlink:href="#m922faa98a4" y="166.030235"/>
      </g>
     </g>
    </g>
    <g id="ytick_14">
     <g id="line2d_20">
      <g>
       <use style="stroke:#000000;stroke-width:0.6;" x="27" xlink:href="#m922faa98a4" y="164.454014"/>
      </g>
     </g>
    </g>
    <g id="ytick_15">
     <g id="line2d_21">
      <g>
       <use style="stroke:#000000;stroke-width:0.6;" x="27" xlink:href="#m922faa98a4" y="163.063689"/>
      </g>
     </g>
    </g>
    <g id="ytick_16">
     <g id="line2d_22">
      <g>
       <use style="stroke:#000000;stroke-width:0.6;" x="27" xlink:href="#m922faa98a4" y="153.638005"/>
      </g>
     </g>
    </g>
    <g id="ytick_17">
     <g id="line2d_23">
      <g>
       <use style="stroke:#000000;stroke-width:0.6;" x="27" xlink:href="#m922faa98a4" y="148.851844"/>
      </g>
     </g>
    </g>
    <g id="ytick_18">
     <g id="line2d_24">
      <g>
       <use style="stroke:#000000;stroke-width:0.6;" x="27" xlink:href="#m922faa98a4" y="145.456009"/>
      </g>
     </g>
    </g>
    <g id="ytick_19">
     <g id="line2d_25">
      <g>
       <use style="stroke:#000000;stroke-width:0.6;" x="27" xlink:href="#m922faa98a4" y="142.821995"/>
      </g>
     </g>
    </g>
    <g id="ytick_20">
     <g id="line2d_26">
      <g>
       <use style="stroke:#000000;stroke-width:0.6;" x="27" xlink:href="#m922faa98a4" y="140.669849"/>
      </g>
     </g>
    </g>
    <g id="ytick_21">
     <g id="line2d_27">
      <g>
       <use style="stroke:#000000;stroke-width:0.6;" x="27" xlink:href="#m922faa98a4" y="138.850235"/>
      </g>
     </g>
    </g>
    <g id="ytick_22">
     <g id="line2d_28">
      <g>
       <use style="stroke:#000000;stroke-width:0.6;" x="27" xlink:href="#m922faa98a4" y="137.274014"/>
      </g>
     </g>
    </g>
    <g id="ytick_23">
     <g id="line2d_29">
      <g>
       <use style="stroke:#000000;stroke-width:0.6;" x="27" xlink:href="#m922faa98a4" y="135.883689"/>
      </g>
     </g>
    </g>
    <g id="ytick_24">
     <g id="line2d_30">
      <g>
       <use style="stroke:#000000;stroke-width:0.6;" x="27" xlink:href="#m922faa98a4" y="126.458005"/>
      </g>
     </g>
    </g>
    <g id="ytick_25">
     <g id="line2d_31">
      <g>
       <use style="stroke:#000000;stroke-width:0.6;" x="27" xlink:href="#m922faa98a4" y="121.671844"/>
      </g>
     </g>
    </g>
    <g id="ytick_26">
     <g id="line2d_32">
      <g>
       <use style="stroke:#000000;stroke-width:0.6;" x="27" xlink:href="#m922faa98a4" y="118.276009"/>
      </g>
     </g>
    </g>
    <g id="ytick_27">
     <g id="line2d_33">
      <g>
       <use style="stroke:#000000;stroke-width:0.6;" x="27" xlink:href="#m922faa98a4" y="115.641995"/>
      </g>
     </g>
    </g>
    <g id="ytick_28">
     <g id="line2d_34">
      <g>
       <use style="stroke:#000000;stroke-width:0.6;" x="27" xlink:href="#m922faa98a4" y="113.489849"/>
      </g>
     </g>
    </g>
    <g id="ytick_29">
     <g id="line2d_35">
      <g>
       <use style="stroke:#000000;stroke-width:0.6;" x="27" xlink:href="#m922faa98a4" y="111.670235"/>
      </g>
     </g>
    </g>
    <g id="ytick_30">
     <g id="line2d_36">
      <g>
       <use style="stroke:#000000;stroke-width:0.6;" x="27" xlink:href="#m922faa98a4" y="110.094014"/>
      </g>
     </g>
    </g>
    <g id="ytick_31">
     <g id="line2d_37">
      <g>
       <use style="stroke:#000000;stroke-width:0.6;" x="27" xlink:href="#m922faa98a4" y="108.703689"/>
      </g>
     </g>
    </g>
    <g id="ytick_32">
     <g id="line2d_38">
      <g>
       <use style="stroke:#000000;stroke-width:0.6;" x="27" xlink:href="#m922faa98a4" y="99.278005"/>
      </g>
     </g>
    </g>
    <g id="ytick_33">
     <g id="line2d_39">
      <g>
       <use style="stroke:#000000;stroke-width:0.6;" x="27" xlink:href="#m922faa98a4" y="94.491844"/>
      </g>
     </g>
    </g>
    <g id="ytick_34">
     <g id="line2d_40">
      <g>
       <use style="stroke:#000000;stroke-width:0.6;" x="27" xlink:href="#m922faa98a4" y="91.096009"/>
      </g>
     </g>
    </g>
    <g id="ytick_35">
     <g id="line2d_41">
      <g>
       <use style="stroke:#000000;stroke-width:0.6;" x="27" xlink:href="#m922faa98a4" y="88.461995"/>
      </g>
     </g>
    </g>
    <g id="ytick_36">
     <g id="line2d_42">
      <g>
       <use style="stroke:#000000;stroke-width:0.6;" x="27" xlink:href="#m922faa98a4" y="86.309849"/>
      </g>
     </g>
    </g>
    <g id="ytick_37">
     <g id="line2d_43">
      <g>
       <use style="stroke:#000000;stroke-width:0.6;" x="27" xlink:href="#m922faa98a4" y="84.490235"/>
      </g>
     </g>
    </g>
    <g id="ytick_38">
     <g id="line2d_44">
      <g>
       <use style="stroke:#000000;stroke-width:0.6;" x="27" xlink:href="#m922faa98a4" y="82.914014"/>
      </g>
     </g>
    </g>
    <g id="ytick_39">
     <g id="line2d_45">
      <g>
       <use style="stroke:#000000;stroke-width:0.6;" x="27" xlink:href="#m922faa98a4" y="81.523689"/>
      </g>
     </g>
    </g>
    <g id="ytick_40">
     <g id="line2d_46">
      <g>
       <use style="stroke:#000000;stroke-width:0.6;" x="27" xlink:href="#m922faa98a4" y="72.098005"/>
      </g>
     </g>
    </g>
    <g id="ytick_41">
     <g id="line2d_47">
      <g>
       <use style="stroke:#000000;stroke-width:0.6;" x="27" xlink:href="#m922faa98a4" y="67.311844"/>
      </g>
     </g>
    </g>
    <g id="ytick_42">
     <g id="line2d_48">
      <g>
       <use style="stroke:#000000;stroke-width:0.6;" x="27" xlink:href="#m922faa98a4" y="63.916009"/>
      </g>
     </g>
    </g>
    <g id="ytick_43">
     <g id="line2d_49">
      <g>
       <use style="stroke:#000000;stroke-width:0.6;" x="27" xlink:href="#m922faa98a4" y="61.281995"/>
      </g>
     </g>
    </g>
    <g id="ytick_44">
     <g id="line2d_50">
      <g>
       <use style="stroke:#000000;stroke-width:0.6;" x="27" xlink:href="#m922faa98a4" y="59.129849"/>
      </g>
     </g>
    </g>
    <g id="ytick_45">
     <g id="line2d_51">
      <g>
       <use style="stroke:#000000;stroke-width:0.6;" x="27" xlink:href="#m922faa98a4" y="57.310235"/>
      </g>
     </g>
    </g>
    <g id="ytick_46">
     <g id="line2d_52">
      <g>
       <use style="stroke:#000000;stroke-width:0.6;" x="27" xlink:href="#m922faa98a4" y="55.734014"/>
      </g>
     </g>
    </g>
    <g id="ytick_47">
     <g id="line2d_53">
      <g>
       <use style="stroke:#000000;stroke-width:0.6;" x="27" xlink:href="#m922faa98a4" y="54.343689"/>
      </g>
     </g>
    </g>
    <g id="ytick_48">
     <g id="line2d_54">
      <g>
       <use style="stroke:#000000;stroke-width:0.6;" x="27" xlink:href="#m922faa98a4" y="44.918005"/>
      </g>
     </g>
    </g>
    <g id="ytick_49">
     <g id="line2d_55">
      <g>
       <use style="stroke:#000000;stroke-width:0.6;" x="27" xlink:href="#m922faa98a4" y="40.131844"/>
      </g>
     </g>
    </g>
    <g id="ytick_50">
     <g id="line2d_56">
      <g>
       <use style="stroke:#000000;stroke-width:0.6;" x="27" xlink:href="#m922faa98a4" y="36.736009"/>
      </g>
     </g>
    </g>
    <g id="ytick_51">
     <g id="line2d_57">
      <g>
       <use style="stroke:#000000;stroke-width:0.6;" x="27" xlink:href="#m922faa98a4" y="34.101995"/>
      </g>
     </g>
    </g>
    <g id="ytick_52">
     <g id="line2d_58">
      <g>
       <use style="stroke:#000000;stroke-width:0.6;" x="27" xlink:href="#m922faa98a4" y="31.949849"/>
      </g>
     </g>
    </g>
    <g id="ytick_53">
     <g id="line2d_59">
      <g>
       <use style="stroke:#000000;stroke-width:0.6;" x="27" xlink:href="#m922faa98a4" y="30.130235"/>
      </g>
     </g>
    </g>
    <g id="ytick_54">
     <g id="line2d_60">
      <g>
       <use style="stroke:#000000;stroke-width:0.6;" x="27" xlink:href="#m922faa98a4" y="28.554014"/>
      </g>
     </g>
    </g>
    <g id="ytick_55">
     <g id="line2d_61">
      <g>
       <use style="stroke:#000000;stroke-width:0.6;" x="27" xlink:href="#m922faa98a4" y="27.163689"/>
      </g>
     </g>
    </g>
    <g id="text_15">
     <!-- Loss -->
     <g transform="translate(-9.579688 118.427188)rotate(-90)scale(0.1 -0.1)">
      <defs>
       <path d="M 628 4666 
L 1259 4666 
L 1259 531 
L 3531 531 
L 3531 0 
L 628 0 
L 628 4666 
z
" id="DejaVuSans-4c" transform="scale(0.015625)"/>
       <path d="M 2834 3397 
L 2834 2853 
Q 2591 2978 2328 3040 
Q 2066 3103 1784 3103 
Q 1356 3103 1142 2972 
Q 928 2841 928 2578 
Q 928 2378 1081 2264 
Q 1234 2150 1697 2047 
L 1894 2003 
Q 2506 1872 2764 1633 
Q 3022 1394 3022 966 
Q 3022 478 2636 193 
Q 2250 -91 1575 -91 
Q 1294 -91 989 -36 
Q 684 19 347 128 
L 347 722 
Q 666 556 975 473 
Q 1284 391 1588 391 
Q 1994 391 2212 530 
Q 2431 669 2431 922 
Q 2431 1156 2273 1281 
Q 2116 1406 1581 1522 
L 1381 1569 
Q 847 1681 609 1914 
Q 372 2147 372 2553 
Q 372 3047 722 3315 
Q 1072 3584 1716 3584 
Q 2034 3584 2315 3537 
Q 2597 3491 2834 3397 
z
" id="DejaVuSans-73" transform="scale(0.015625)"/>
      </defs>
      <use xlink:href="#DejaVuSans-4c"/>
      <use x="53.962891" xlink:href="#DejaVuSans-6f"/>
      <use x="115.144531" xlink:href="#DejaVuSans-73"/>
      <use x="167.244141" xlink:href="#DejaVuSans-73"/>
     </g>
    </g>
   </g>
   <g id="line2d_62">
    <path clip-path="url(#pceb413b4eb)" d="M 27 31.772749 
L 28.3392 31.962219 
L 29.3436 32.330646 
L 30.1806 32.882989 
L 30.8502 33.576829 
L 31.5198 34.592575 
L 32.1894 36.042088 
L 32.859 38.0045 
L 35.0352 45.13061 
L 36.3744 48.145634 
L 36.8766 49.929184 
L 37.7136 53.929582 
L 38.8854 59.610274 
L 40.2246 65.713799 
L 41.0616 70.47405 
L 42.4008 79.604405 
L 44.577 95.625666 
L 44.9118 97.953317 
L 45.0792 98.431134 
L 45.2466 96.514055 
L 45.414 96.369292 
L 45.5814 96.517341 
L 45.9162 96.366203 
L 46.4184 97.270422 
L 46.5858 98.058371 
L 46.7532 97.624109 
L 47.088 102.990688 
L 47.2554 101.545643 
L 47.4228 102.256489 
L 47.7576 100.854983 
L 47.925 100.793869 
L 48.0924 100.968229 
L 48.2598 99.665209 
L 48.4272 100.008045 
L 48.5946 99.777383 
L 48.762 99.98184 
L 48.9294 101.695387 
L 49.0968 100.8767 
L 49.4316 103.376812 
L 49.7664 104.047925 
L 50.1012 107.641489 
L 50.2686 108.621505 
L 50.6034 107.579094 
L 50.7708 109.395231 
L 50.9382 109.578007 
L 51.1056 109.981512 
L 51.4404 107.786626 
L 51.6078 107.719081 
L 51.7752 107.354634 
L 51.9426 107.537572 
L 52.2774 109.183633 
L 52.4448 108.410086 
L 52.6122 108.728403 
L 52.7796 106.805232 
L 53.1144 108.775013 
L 53.2818 108.564836 
L 53.6166 109.042514 
L 53.784 108.5973 
L 54.1188 107.158268 
L 54.2862 106.909338 
L 54.4536 108.824629 
L 54.621 109.434925 
L 55.1232 109.207485 
L 55.2906 109.097564 
L 55.458 109.647898 
L 55.6254 110.951221 
L 55.9602 114.433135 
L 56.295 115.895006 
L 56.4624 115.251409 
L 56.7972 116.444078 
L 56.9646 117.030119 
L 57.132 113.009996 
L 57.2994 112.147452 
L 57.4668 111.882052 
L 57.6342 112.652921 
L 57.969 112.908586 
L 58.3038 114.37572 
L 58.6386 110.27828 
L 58.9734 112.592515 
L 59.1408 112.737768 
L 59.3082 112.356791 
L 59.4756 111.252348 
L 59.8104 111.153536 
L 59.9778 110.805271 
L 60.1452 114.117039 
L 60.3126 109.260095 
L 60.48 110.445771 
L 60.8148 110.701096 
L 60.9822 110.739491 
L 61.1496 111.976743 
L 61.317 112.112493 
L 61.4844 111.981079 
L 61.8192 110.408296 
L 61.9866 116.746925 
L 62.3214 116.813352 
L 62.4888 116.383418 
L 62.6562 116.707279 
L 62.8236 114.95616 
L 62.991 114.862157 
L 63.1584 114.958252 
L 63.3258 116.0325 
L 63.6606 119.998828 
L 63.828 120.119371 
L 64.1628 115.861711 
L 64.3302 115.407751 
L 64.4976 116.960429 
L 64.8324 117.289168 
L 64.9998 117.121887 
L 65.1672 116.253981 
L 65.502 116.907633 
L 66.0042 124.129598 
L 66.1716 117.293138 
L 66.5064 116.87562 
L 66.6738 117.223891 
L 66.8412 118.19936 
L 67.0086 118.326112 
L 67.176 118.118763 
L 67.5108 115.188774 
L 67.6782 109.165263 
L 67.8456 112.01627 
L 68.1804 112.043397 
L 68.6826 111.835194 
L 68.85 111.908606 
L 69.0174 112.724333 
L 69.1848 114.122393 
L 69.3522 125.021751 
L 69.5196 125.618495 
L 69.687 125.406052 
L 70.0218 125.829398 
L 70.1892 117.144889 
L 70.524 117.109398 
L 70.8588 117.321201 
L 71.1936 117.186413 
L 71.361 112.950731 
L 71.5284 112.629303 
L 71.6958 112.727106 
L 71.8632 118.205667 
L 72.0306 117.444698 
L 72.3654 117.077559 
L 72.5328 116.767586 
L 72.7002 116.787291 
L 72.8676 117.313643 
L 73.035 124.728426 
L 73.2024 125.691023 
L 73.5372 125.409629 
L 73.7046 126.922663 
L 73.872 127.380271 
L 74.3742 115.964382 
L 75.546 115.16151 
L 75.7134 117.520112 
L 75.8808 126.331672 
L 76.0482 125.863527 
L 76.2156 125.891917 
L 76.383 125.003636 
L 76.5504 117.893071 
L 76.7178 117.485809 
L 77.0526 117.363411 
L 77.3874 116.673418 
L 77.5548 116.446035 
L 77.7222 116.889857 
L 77.8896 116.835543 
L 78.057 116.957246 
L 78.2244 122.970719 
L 78.3918 123.337073 
L 78.5592 122.917586 
L 78.7266 123.115837 
L 79.2288 124.465317 
L 79.3962 121.078801 
L 79.5636 120.953893 
L 80.0658 122.156885 
L 80.2332 122.530487 
L 80.4006 118.134974 
L 80.568 118.396854 
L 80.9028 118.304672 
L 81.0702 120.791425 
L 81.405 120.7919 
L 81.5724 120.645382 
L 81.7398 120.797392 
L 81.9072 121.344397 
L 82.0746 127.507138 
L 82.5768 128.156234 
L 82.9116 125.612108 
L 83.079 125.663732 
L 83.2464 125.990647 
L 83.4138 125.253222 
L 83.5812 125.254262 
L 83.7486 125.536747 
L 83.916 124.633781 
L 84.0834 124.796152 
L 84.2508 123.936484 
L 84.4182 123.938389 
L 84.5856 125.087771 
L 84.753 125.210111 
L 84.9204 123.607395 
L 85.0878 124.179799 
L 85.2552 123.638298 
L 85.4226 123.603721 
L 85.59 124.553772 
L 85.7574 124.251031 
L 85.9248 122.855558 
L 86.2596 123.927989 
L 86.427 123.852022 
L 86.5944 125.782171 
L 86.7618 122.404155 
L 86.9292 114.336896 
L 87.0966 113.231083 
L 87.4314 113.105773 
L 87.5988 114.11247 
L 88.2684 114.024524 
L 88.4358 115.615169 
L 88.7706 128.803003 
L 89.1054 129.460237 
L 89.2728 129.34646 
L 89.6076 129.929328 
L 89.775 129.640444 
L 89.9424 129.637939 
L 90.1098 122.085427 
L 90.2772 122.396318 
L 90.612 122.280514 
L 90.7794 122.178027 
L 90.9468 122.351633 
L 91.449 122.009014 
L 91.6164 121.946564 
L 91.7838 129.384013 
L 91.9512 129.393408 
L 92.1186 129.554877 
L 92.286 129.421566 
L 92.4534 129.576321 
L 92.6208 121.395652 
L 92.7882 121.322764 
L 92.9556 120.986097 
L 93.123 121.059448 
L 93.4578 120.610149 
L 93.6252 120.664068 
L 93.7926 120.496144 
L 93.96 120.600132 
L 94.1274 120.523479 
L 94.2948 127.793621 
L 94.4622 127.871502 
L 94.6296 125.543375 
L 94.797 125.375797 
L 94.9644 125.573722 
L 95.2992 124.927598 
L 95.634 125.502359 
L 95.8014 125.458229 
L 96.1362 124.568595 
L 96.3036 127.657092 
L 96.471 128.093965 
L 96.6384 128.041795 
L 96.8058 129.146232 
L 96.9732 128.616481 
L 97.1406 128.682282 
L 97.308 128.319388 
L 97.6428 128.966229 
L 97.8102 130.029554 
L 97.9776 128.659425 
L 98.145 128.207134 
L 98.3124 128.708131 
L 98.4798 128.738538 
L 98.6472 129.12804 
L 98.8146 128.520141 
L 98.982 128.697376 
L 99.1494 128.052716 
L 99.3168 128.045082 
L 99.4842 127.776094 
L 99.819 129.663886 
L 99.9864 129.218701 
L 100.3212 127.398298 
L 100.4886 125.718881 
L 100.656 125.581619 
L 100.8234 125.977543 
L 100.9908 125.917582 
L 101.1582 126.279487 
L 101.6604 126.267215 
L 101.8278 126.57711 
L 101.9952 127.907346 
L 102.1626 130.295891 
L 102.33 130.087021 
L 102.4974 130.117698 
L 102.6648 130.374603 
L 103.167 127.367375 
L 103.3344 127.69536 
L 103.5018 128.323614 
L 103.6692 127.541375 
L 103.8366 125.998859 
L 104.004 125.985161 
L 104.1714 126.267521 
L 104.3388 126.310289 
L 104.841 129.030292 
L 105.0084 127.801821 
L 105.1758 127.86905 
L 105.3432 128.698142 
L 105.5106 131.238238 
L 105.678 128.819688 
L 105.8454 128.547168 
L 106.0128 128.900208 
L 106.1802 128.805708 
L 106.515 129.158852 
L 106.6824 130.33016 
L 107.0172 129.435243 
L 107.1846 129.287133 
L 107.352 122.941132 
L 107.5194 123.054231 
L 108.189 122.764776 
L 108.6912 123.47067 
L 108.8586 123.544617 
L 109.026 133.927882 
L 109.1934 133.603008 
L 109.3608 129.856249 
L 109.5282 129.422269 
L 109.6956 129.597683 
L 109.863 129.457892 
L 110.0304 127.737405 
L 110.5326 127.617119 
L 110.8674 126.745869 
L 111.0348 129.399019 
L 111.2022 129.933441 
L 111.537 129.441147 
L 111.7044 130.770597 
L 112.2066 129.501857 
L 112.374 129.822906 
L 112.5414 130.530767 
L 112.8762 130.037391 
L 113.0436 130.208144 
L 113.211 130.100128 
L 113.3784 129.801259 
L 113.8806 131.127438 
L 114.048 130.016758 
L 114.2154 129.950671 
L 114.5502 130.784709 
L 114.7176 129.90247 
L 114.885 130.064264 
L 115.0524 128.998131 
L 115.2198 129.129725 
L 115.5546 129.051964 
L 115.722 130.441906 
L 115.8894 130.457131 
L 116.0568 130.652414 
L 116.3916 130.664214 
L 116.559 129.987446 
L 116.7264 131.060093 
L 116.8938 130.021143 
L 117.0612 130.412311 
L 117.5634 129.228031 
L 117.8982 129.208478 
L 118.0656 129.609101 
L 118.233 129.259084 
L 118.5678 131.146423 
L 118.7352 131.056725 
L 119.2374 132.223759 
L 119.4048 131.552055 
L 119.5722 130.011765 
L 119.7396 130.694714 
L 119.907 132.09156 
L 120.0744 132.072807 
L 120.5766 131.746414 
L 120.744 131.996841 
L 120.9114 131.659758 
L 121.0788 132.590727 
L 121.2462 134.435283 
L 121.4136 130.638353 
L 121.9158 128.343908 
L 122.0832 128.373147 
L 122.2506 128.800818 
L 122.418 127.755405 
L 122.5854 127.794376 
L 122.9202 127.684105 
L 123.255 131.653479 
L 123.4224 131.916938 
L 123.5898 133.3159 
L 123.7572 133.716166 
L 123.9246 133.524175 
L 124.092 134.983983 
L 124.4268 134.48944 
L 124.5942 134.744905 
L 124.929 134.387283 
L 125.0964 134.659182 
L 125.4312 133.852142 
L 125.5986 133.979324 
L 126.2682 133.946897 
L 126.4356 134.140412 
L 126.7704 133.968456 
L 126.9378 134.4798 
L 127.1052 133.956879 
L 127.44 133.820163 
L 127.6074 134.000865 
L 127.7748 133.706341 
L 127.9422 134.02865 
L 128.1096 133.759672 
L 128.277 133.940768 
L 128.4444 133.484333 
L 128.6118 133.693338 
L 128.7792 133.281417 
L 128.9466 133.410343 
L 129.114 133.698017 
L 129.2814 133.082016 
L 129.4488 133.081972 
L 129.6162 132.732614 
L 129.951 132.751001 
L 130.1184 133.427887 
L 130.2858 132.558791 
L 130.4532 125.543814 
L 130.788 125.634981 
L 131.1228 126.693454 
L 131.2902 126.818028 
L 131.4576 127.09907 
L 131.7924 127.182475 
L 131.9598 127.674691 
L 132.1272 138.023703 
L 132.2946 138.172378 
L 132.6294 137.791427 
L 133.299 136.196853 
L 133.4664 136.016681 
L 133.8012 136.240754 
L 134.3034 136.053952 
L 134.6382 136.619477 
L 134.8056 135.756532 
L 134.973 135.767209 
L 135.1404 135.938433 
L 135.3078 135.518527 
L 135.4752 135.550078 
L 135.6426 135.708452 
L 135.81 135.702606 
L 136.1448 134.824292 
L 136.3122 134.849827 
L 136.4796 135.893388 
L 136.647 135.927629 
L 136.8144 135.496449 
L 136.9818 135.656125 
L 137.1492 134.579324 
L 137.3166 134.52945 
L 137.484 134.649509 
L 137.6514 135.502128 
L 137.8188 135.508222 
L 137.9862 135.101881 
L 138.1536 135.000605 
L 138.4884 135.46664 
L 138.6558 135.712168 
L 138.8232 137.221541 
L 139.3254 136.553866 
L 139.4928 136.821288 
L 139.6602 137.520515 
L 139.995 136.769114 
L 140.1624 136.991683 
L 140.4972 136.203631 
L 140.6646 136.233909 
L 140.9994 135.673031 
L 141.1668 135.69517 
L 141.3342 134.761062 
L 141.5016 134.897817 
L 141.669 135.412586 
L 142.0038 135.539079 
L 142.1712 135.779944 
L 142.3386 135.636467 
L 142.506 135.652157 
L 142.6734 136.158621 
L 142.8408 135.868142 
L 143.0082 136.719499 
L 143.343 136.574717 
L 143.5104 136.109874 
L 143.6778 136.120143 
L 143.8452 135.496442 
L 144.18 136.182746 
L 144.3474 136.152628 
L 145.1844 137.592094 
L 145.3518 137.575628 
L 145.5192 138.54842 
L 145.6866 138.497509 
L 145.854 138.747439 
L 146.1888 138.622778 
L 146.3562 138.709909 
L 146.5236 138.558845 
L 146.691 138.610676 
L 146.8584 138.362821 
L 147.0258 138.614848 
L 147.3606 138.480763 
L 147.528 138.585577 
L 147.6954 138.8797 
L 147.8628 138.798251 
L 148.0302 138.466512 
L 148.1976 138.530389 
L 148.365 138.070241 
L 148.6998 137.996675 
L 148.8672 137.734292 
L 149.0346 137.913808 
L 149.3694 137.840289 
L 149.7042 138.210661 
L 149.8716 138.17814 
L 150.2064 138.57002 
L 150.3738 138.682808 
L 150.5412 139.074845 
L 150.876 138.577163 
L 151.0434 138.504447 
L 151.2108 138.679275 
L 151.713 138.81107 
L 151.8804 138.570847 
L 152.0478 137.870653 
L 152.2152 137.884069 
L 152.7174 138.364273 
L 153.0522 138.598421 
L 153.5544 139.11575 
L 153.7218 139.778113 
L 153.8892 139.771612 
L 154.0566 139.892107 
L 154.224 139.786809 
L 154.5588 139.823368 
L 154.8936 139.316536 
L 155.061 139.313682 
L 155.3958 139.635174 
L 155.5632 139.216208 
L 156.0654 139.188439 
L 156.2328 139.134457 
L 156.4002 139.336419 
L 156.5676 139.19239 
L 156.735 139.26253 
L 157.0698 138.989843 
L 157.2372 139.520922 
L 157.4046 139.328789 
L 157.7394 139.577849 
L 158.0742 139.668223 
L 158.7438 140.076186 
L 158.9112 140.020246 
L 159.0786 140.220714 
L 159.246 140.166571 
L 159.4134 139.907526 
L 160.4178 140.293244 
L 160.5852 140.211514 
L 160.7526 140.284661 
L 160.92 140.108455 
L 161.0874 140.201281 
L 161.2548 140.139816 
L 161.4222 140.351216 
L 161.5896 140.2955 
L 161.757 139.831642 
L 161.9244 139.759568 
L 162.2592 139.988782 
L 162.4266 139.90746 
L 162.7614 140.293391 
L 162.9288 140.389724 
L 163.2636 140.302715 
L 163.431 140.884166 
L 163.7658 140.845979 
L 163.9332 140.867687 
L 164.268 141.001024 
L 164.4354 141.091606 
L 164.7702 141.114249 
L 165.105 141.143493 
L 165.2724 141.24146 
L 165.4398 141.198073 
L 165.6072 141.279388 
L 166.1094 141.206997 
L 166.2768 141.278142 
L 166.4442 141.198368 
L 166.779 141.352153 
L 167.2812 141.368819 
L 167.616 141.249908 
L 168.453 141.538699 
L 169.6248 141.828438 
L 170.2944 141.799286 
L 170.6292 141.97046 
L 170.964 141.934606 
L 172.8054 141.9917 
L 173.9772 142.078774 
L 174.312 142.152654 
L 174.6468 142.097962 
L 174.9816 141.879813 
L 175.6512 141.951195 
L 175.986 141.969782 
L 176.3208 142.117077 
L 176.4882 142.357984 
L 176.9904 142.433515 
L 177.4926 142.397907 
L 178.6644 142.412992 
L 179.6688 142.537963 
L 180.6732 142.630669 
L 183.3516 142.74175 
L 188.2062 142.790659 
L 191.5542 142.77853 
L 194.2326 142.803518 
L 194.2326 142.803518 
" style="fill:none;stroke:#1f77b4;stroke-linecap:square;stroke-width:1.5;"/>
   </g>
   <g id="line2d_63">
    <path clip-path="url(#pceb413b4eb)" d="M 27 41.437807 
L 28.1718 41.654526 
L 29.0088 42.034323 
L 29.8458 42.685365 
L 30.5154 43.497483 
L 31.185 44.672259 
L 31.8546 46.275756 
L 33.5286 50.804856 
L 33.8634 51.126161 
L 34.1982 51.088435 
L 34.7004 50.607892 
L 35.37 49.942646 
L 35.7048 49.842304 
L 36.0396 49.98069 
L 36.5418 50.593427 
L 37.7136 53.259375 
L 42.2334 64.533063 
L 42.4008 64.601094 
L 42.7356 65.097213 
L 42.903 64.706658 
L 43.2378 64.832423 
L 43.9074 63.956185 
L 44.0748 63.817156 
L 44.2422 63.007735 
L 44.4096 62.886332 
L 44.577 63.264604 
L 44.7444 63.288473 
L 44.9118 63.145764 
L 45.0792 61.954399 
L 45.5814 61.071997 
L 45.7488 61.048131 
L 45.9162 61.459473 
L 46.0836 61.359488 
L 46.4184 60.840516 
L 46.5858 60.693631 
L 47.088 61.900463 
L 47.4228 61.673288 
L 47.7576 61.784551 
L 47.925 62.250837 
L 48.0924 61.97777 
L 48.2598 62.174045 
L 48.4272 62.580031 
L 48.5946 62.401492 
L 48.762 62.599201 
L 49.0968 63.261848 
L 49.7664 64.393951 
L 49.9338 64.218732 
L 50.1012 64.415062 
L 50.2686 64.91996 
L 50.436 64.261178 
L 50.7708 65.063978 
L 50.9382 65.22289 
L 51.1056 63.040953 
L 51.273 62.709851 
L 51.4404 62.132073 
L 51.6078 62.497389 
L 51.7752 63.150276 
L 51.9426 63.268721 
L 52.11 63.895406 
L 52.4448 63.479586 
L 52.6122 62.677839 
L 52.947 64.399984 
L 53.1144 65.367427 
L 53.2818 64.508545 
L 53.9514 64.636558 
L 54.1188 64.987038 
L 54.4536 67.712345 
L 54.621 67.429012 
L 54.7884 67.382496 
L 54.9558 68.843996 
L 55.1232 68.921233 
L 55.2906 68.832179 
L 55.458 69.19658 
L 55.6254 69.102839 
L 56.1276 68.02237 
L 56.295 68.380063 
L 56.4624 66.350107 
L 56.6298 66.41548 
L 56.7972 65.301041 
L 56.9646 65.179125 
L 57.132 63.885154 
L 57.2994 63.573235 
L 57.6342 64.262997 
L 57.8016 63.393997 
L 57.969 63.374731 
L 58.1364 64.98456 
L 58.3038 64.76414 
L 58.4712 62.938306 
L 58.6386 63.035513 
L 58.9734 63.69681 
L 59.1408 63.749365 
L 59.3082 63.610197 
L 59.4756 64.651314 
L 59.8104 64.671797 
L 59.9778 64.887581 
L 60.1452 66.323513 
L 60.3126 65.649482 
L 60.48 66.729529 
L 60.6474 66.940479 
L 60.8148 65.951436 
L 60.9822 66.094684 
L 61.1496 65.787 
L 61.317 65.723171 
L 61.4844 65.52339 
L 61.6518 63.932874 
L 61.8192 65.398268 
L 61.9866 65.337349 
L 62.154 65.454171 
L 62.3214 64.880152 
L 62.991 65.002854 
L 63.1584 64.893086 
L 63.3258 66.732473 
L 63.4932 66.928794 
L 63.6606 67.841187 
L 63.828 67.860898 
L 63.9954 66.267391 
L 64.1628 67.112217 
L 64.3302 67.119061 
L 64.665 67.411316 
L 64.8324 67.629071 
L 64.9998 67.506278 
L 65.3346 67.832441 
L 65.502 67.870397 
L 65.6694 70.513287 
L 66.0042 70.851559 
L 66.1716 69.856034 
L 66.339 69.556462 
L 66.5064 69.931758 
L 66.8412 69.763282 
L 67.176 69.323595 
L 67.3434 69.524748 
L 67.5108 65.922463 
L 67.6782 65.919819 
L 68.013 66.551258 
L 68.1804 66.437444 
L 68.3478 66.50347 
L 68.5152 66.227875 
L 68.85 66.674103 
L 69.0174 66.492999 
L 69.1848 70.314541 
L 69.3522 69.540607 
L 69.5196 70.151807 
L 69.8544 69.745994 
L 70.0218 67.756172 
L 70.3566 67.729339 
L 70.524 67.556274 
L 70.6914 67.649738 
L 70.8588 67.583352 
L 71.0262 68.357456 
L 71.1936 68.33062 
L 71.361 66.951617 
L 71.5284 67.140533 
L 71.6958 68.94712 
L 71.8632 69.126906 
L 72.0306 68.101735 
L 72.5328 67.709035 
L 72.7002 67.611161 
L 72.8676 67.661668 
L 73.035 69.199455 
L 73.3698 68.641258 
L 73.5372 68.688752 
L 73.7046 69.728211 
L 73.872 69.352352 
L 74.0394 66.849452 
L 74.3742 67.189836 
L 74.8764 67.432569 
L 75.2112 68.108591 
L 75.3786 67.846634 
L 75.546 68.547714 
L 75.7134 71.76457 
L 76.0482 71.79949 
L 76.2156 71.760792 
L 76.383 71.875446 
L 76.7178 71.243234 
L 76.8852 71.112934 
L 77.0526 70.480718 
L 77.5548 70.3215 
L 77.7222 70.254072 
L 77.8896 69.082869 
L 78.2244 69.094813 
L 78.3918 69.292353 
L 78.5592 68.693461 
L 78.7266 69.36315 
L 79.3962 67.755604 
L 79.5636 68.773425 
L 79.8984 68.828406 
L 80.0658 68.76943 
L 80.4006 69.545105 
L 81.2376 73.272863 
L 81.405 73.692695 
L 81.7398 75.300838 
L 81.9072 75.632428 
L 82.0746 75.531875 
L 82.5768 74.772066 
L 82.7442 70.993348 
L 83.4138 69.36338 
L 83.5812 69.28874 
L 83.916 68.44773 
L 84.0834 68.388278 
L 84.2508 68.155641 
L 84.4182 70.274934 
L 84.5856 70.299742 
L 84.753 70.471171 
L 85.0878 70.423548 
L 85.4226 70.774588 
L 85.59 71.050981 
L 85.7574 69.597667 
L 85.9248 69.495896 
L 86.0922 70.128923 
L 86.2596 70.202343 
L 86.427 70.101085 
L 86.5944 70.156431 
L 86.7618 67.13924 
L 86.9292 62.001595 
L 87.264 62.212398 
L 87.5988 63.305811 
L 87.7662 63.503156 
L 87.9336 63.517698 
L 88.2684 63.92296 
L 88.4358 66.293509 
L 88.6032 74.907748 
L 88.7706 75.055534 
L 88.938 74.888401 
L 89.2728 74.085581 
L 89.775 73.336661 
L 90.1098 72.486779 
L 90.2772 72.343966 
L 90.612 71.596972 
L 91.2816 71.186824 
L 91.449 70.881078 
L 91.9512 70.920944 
L 92.1186 70.711593 
L 92.286 70.790076 
L 92.6208 70.57288 
L 92.7882 70.559412 
L 92.9556 70.663644 
L 93.2904 71.789786 
L 94.1274 73.949685 
L 94.2948 73.958166 
L 94.4622 74.39911 
L 94.797 73.207557 
L 94.9644 73.05678 
L 95.1318 72.369061 
L 95.2992 72.314965 
L 95.4666 72.108468 
L 95.634 72.336079 
L 95.8014 70.95547 
L 95.9688 71.068102 
L 96.1362 70.887641 
L 96.3036 71.789038 
L 96.471 71.757532 
L 96.6384 71.896188 
L 96.8058 71.678676 
L 96.9732 71.177026 
L 97.308 71.005372 
L 97.4754 72.375316 
L 97.6428 72.320877 
L 97.8102 70.713963 
L 97.9776 70.334857 
L 98.145 70.422258 
L 98.3124 70.224726 
L 98.982 71.680369 
L 99.1494 70.894751 
L 99.3168 71.130938 
L 99.4842 73.129732 
L 99.6516 73.712645 
L 99.819 73.889187 
L 99.9864 73.836176 
L 100.1538 73.315767 
L 100.3212 71.836452 
L 100.4886 71.562406 
L 100.656 71.57473 
L 100.8234 72.594471 
L 100.9908 72.716378 
L 101.3256 72.255379 
L 101.6604 72.509492 
L 101.8278 72.223217 
L 101.9952 73.476467 
L 102.1626 73.210677 
L 102.8322 70.817477 
L 102.9996 68.720179 
L 103.3344 67.778316 
L 103.5018 68.019202 
L 104.1714 67.124265 
L 104.3388 67.179706 
L 104.5062 67.10653 
L 104.6736 68.18818 
L 104.841 68.391941 
L 105.0084 67.887596 
L 105.1758 68.095597 
L 105.3432 68.01038 
L 105.5106 68.377877 
L 105.678 68.213527 
L 105.8454 68.265486 
L 106.1802 67.960811 
L 106.3476 68.423642 
L 106.515 68.238201 
L 106.6824 68.532498 
L 106.8498 68.077429 
L 107.0172 68.142987 
L 107.1846 67.573413 
L 107.5194 68.842355 
L 108.3564 71.4443 
L 108.8586 73.845847 
L 109.026 73.475596 
L 109.1934 72.8044 
L 109.3608 71.255036 
L 109.5282 70.872613 
L 109.863 69.725088 
L 110.1978 68.700153 
L 110.5326 67.943602 
L 110.8674 67.564835 
L 111.0348 68.097826 
L 111.2022 68.106985 
L 111.3696 68.37063 
L 111.7044 68.185633 
L 111.8718 68.375533 
L 112.0392 68.777878 
L 112.374 68.830048 
L 112.7088 69.907386 
L 112.8762 69.953541 
L 113.0436 69.723314 
L 113.211 69.790094 
L 113.3784 70.087643 
L 113.5458 69.977563 
L 113.7132 69.386911 
L 113.8806 69.405024 
L 114.048 69.615142 
L 114.5502 69.138897 
L 114.7176 69.285908 
L 114.885 68.538902 
L 115.2198 68.054051 
L 115.3872 68.099048 
L 115.8894 67.369586 
L 116.0568 66.932003 
L 116.2242 66.842701 
L 116.3916 66.253191 
L 116.8938 66.736704 
L 117.0612 67.009235 
L 117.2286 66.564131 
L 117.5634 66.94561 
L 118.0656 68.186654 
L 118.233 68.74133 
L 118.7352 68.366306 
L 118.9026 67.970612 
L 119.2374 67.876956 
L 119.4048 67.228115 
L 120.0744 66.935273 
L 120.4092 67.179223 
L 120.5766 68.007595 
L 120.9114 68.110024 
L 121.0788 68.585873 
L 121.2462 68.463302 
L 121.581 70.073863 
L 121.7484 70.246415 
L 122.2506 71.718299 
L 122.418 71.987098 
L 122.9202 73.827691 
L 123.255 72.658905 
L 123.4224 73.137035 
L 123.5898 72.692136 
L 123.7572 72.591551 
L 123.9246 72.720721 
L 124.092 72.655399 
L 124.5942 72.144359 
L 124.7616 72.196978 
L 125.2638 71.768032 
L 126.9378 69.594612 
L 127.1052 69.319173 
L 127.2726 69.34733 
L 127.7748 68.833777 
L 128.4444 68.721757 
L 128.6118 69.192579 
L 128.7792 69.2321 
L 129.114 69.042365 
L 129.2814 68.876784 
L 129.6162 68.305019 
L 129.951 67.925803 
L 130.1184 67.897366 
L 130.2858 67.119302 
L 130.788 67.982875 
L 131.625 70.062445 
L 131.7924 70.324627 
L 131.9598 71.358248 
L 132.462 70.779063 
L 132.9642 70.350144 
L 133.6338 69.544352 
L 133.9686 69.357495 
L 134.6382 68.939597 
L 134.973 68.982107 
L 135.9774 68.39411 
L 136.4796 68.224158 
L 136.9818 68.284579 
L 137.484 67.93701 
L 138.6558 67.707862 
L 138.8232 67.793585 
L 138.9906 67.552493 
L 139.4928 67.445483 
L 139.6602 67.217168 
L 139.995 67.241416 
L 140.4972 66.829441 
L 140.6646 67.05478 
L 140.832 66.912861 
L 141.5016 67.744323 
L 141.669 67.66562 
L 142.506 68.738652 
L 143.1756 68.117367 
L 143.343 68.210335 
L 143.6778 67.711923 
L 145.017 67.95015 
L 145.1844 68.259579 
L 145.5192 68.152633 
L 146.3562 67.716898 
L 146.5236 67.773176 
L 147.1932 67.499637 
L 149.3694 67.314643 
L 149.7042 67.184739 
L 151.3782 66.888029 
L 151.8804 66.696921 
L 153.0522 68.294573 
L 153.5544 68.945254 
L 154.0566 68.556396 
L 154.7262 68.136612 
L 155.3958 67.914359 
L 155.5632 67.880478 
L 155.898 67.699654 
L 156.2328 67.648852 
L 157.0698 67.335705 
L 157.4046 67.226187 
L 157.9068 67.210316 
L 158.2416 67.070246 
L 158.5764 67.023493 
L 159.4134 66.968541 
L 159.7482 66.888393 
L 161.0874 66.735497 
L 161.5896 66.705604 
L 163.431 67.64039 
L 163.7658 67.579506 
L 165.4398 67.241887 
L 167.616 67.005829 
L 168.7878 66.987082 
L 169.1226 66.908711 
L 170.127 66.79977 
L 173.3076 66.601233 
L 174.1446 66.573599 
L 175.149 66.66758 
L 176.4882 66.981473 
L 178.8318 66.859359 
L 182.3472 66.763862 
L 191.7216 66.652599 
L 194.2326 66.629704 
L 194.2326 66.629704 
" style="fill:none;stroke:#ff7f0e;stroke-linecap:square;stroke-width:1.5;"/>
   </g>
   <g id="line2d_64">
    <path clip-path="url(#pceb413b4eb)" d="M 27 43.3101 
L 194.4 43.3101 
" style="fill:none;stroke:#000000;stroke-dasharray:5.55,2.4;stroke-dashoffset:0;stroke-width:1.5;"/>
   </g>
   <g id="patch_3">
    <path d="M 27 189 
L 27 25.92 
" style="fill:none;stroke:#000000;stroke-linecap:square;stroke-linejoin:miter;stroke-width:0.8;"/>
   </g>
   <g id="patch_4">
    <path d="M 194.4 189 
L 194.4 25.92 
" style="fill:none;stroke:#000000;stroke-linecap:square;stroke-linejoin:miter;stroke-width:0.8;"/>
   </g>
   <g id="patch_5">
    <path d="M 27 189 
L 194.4 189 
" style="fill:none;stroke:#000000;stroke-linecap:square;stroke-linejoin:miter;stroke-width:0.8;"/>
   </g>
   <g id="patch_6">
    <path d="M 27 25.92 
L 194.4 25.92 
" style="fill:none;stroke:#000000;stroke-linecap:square;stroke-linejoin:miter;stroke-width:0.8;"/>
   </g>
   <g id="text_16">
    <!-- train 0.00005 -->
    <g transform="translate(126.42635 175.7225)scale(0.1 -0.1)">
     <defs>
      <path d="M 1172 4494 
L 1172 3500 
L 2356 3500 
L 2356 3053 
L 1172 3053 
L 1172 1153 
Q 1172 725 1289 603 
Q 1406 481 1766 481 
L 2356 481 
L 2356 0 
L 1766 0 
Q 1100 0 847 248 
Q 594 497 594 1153 
L 594 3053 
L 172 3053 
L 172 3500 
L 594 3500 
L 594 4494 
L 1172 4494 
z
" id="DejaVuSans-74" transform="scale(0.015625)"/>
      <path d="M 2631 2963 
Q 2534 3019 2420 3045 
Q 2306 3072 2169 3072 
Q 1681 3072 1420 2755 
Q 1159 2438 1159 1844 
L 1159 0 
L 581 0 
L 581 3500 
L 1159 3500 
L 1159 2956 
Q 1341 3275 1631 3429 
Q 1922 3584 2338 3584 
Q 2397 3584 2469 3576 
Q 2541 3569 2628 3553 
L 2631 2963 
z
" id="DejaVuSans-72" transform="scale(0.015625)"/>
      <path d="M 2194 1759 
Q 1497 1759 1228 1600 
Q 959 1441 959 1056 
Q 959 750 1161 570 
Q 1363 391 1709 391 
Q 2188 391 2477 730 
Q 2766 1069 2766 1631 
L 2766 1759 
L 2194 1759 
z
M 3341 1997 
L 3341 0 
L 2766 0 
L 2766 531 
Q 2569 213 2275 61 
Q 1981 -91 1556 -91 
Q 1019 -91 701 211 
Q 384 513 384 1019 
Q 384 1609 779 1909 
Q 1175 2209 1959 2209 
L 2766 2209 
L 2766 2266 
Q 2766 2663 2505 2880 
Q 2244 3097 1772 3097 
Q 1472 3097 1187 3025 
Q 903 2953 641 2809 
L 641 3341 
Q 956 3463 1253 3523 
Q 1550 3584 1831 3584 
Q 2591 3584 2966 3190 
Q 3341 2797 3341 1997 
z
" id="DejaVuSans-61" transform="scale(0.015625)"/>
      <path d="M 603 3500 
L 1178 3500 
L 1178 0 
L 603 0 
L 603 3500 
z
M 603 4863 
L 1178 4863 
L 1178 4134 
L 603 4134 
L 603 4863 
z
" id="DejaVuSans-69" transform="scale(0.015625)"/>
      <path d="M 3513 2113 
L 3513 0 
L 2938 0 
L 2938 2094 
Q 2938 2591 2744 2837 
Q 2550 3084 2163 3084 
Q 1697 3084 1428 2787 
Q 1159 2491 1159 1978 
L 1159 0 
L 581 0 
L 581 3500 
L 1159 3500 
L 1159 2956 
Q 1366 3272 1645 3428 
Q 1925 3584 2291 3584 
Q 2894 3584 3203 3211 
Q 3513 2838 3513 2113 
z
" id="DejaVuSans-6e" transform="scale(0.015625)"/>
      <path id="DejaVuSans-20" transform="scale(0.015625)"/>
      <path d="M 684 794 
L 1344 794 
L 1344 0 
L 684 0 
L 684 794 
z
" id="DejaVuSans-2e" transform="scale(0.015625)"/>
     </defs>
     <use xlink:href="#DejaVuSans-74"/>
     <use x="39.208984" xlink:href="#DejaVuSans-72"/>
     <use x="80.322266" xlink:href="#DejaVuSans-61"/>
     <use x="141.601562" xlink:href="#DejaVuSans-69"/>
     <use x="169.384766" xlink:href="#DejaVuSans-6e"/>
     <use x="232.763672" xlink:href="#DejaVuSans-20"/>
     <use x="264.550781" xlink:href="#DejaVuSans-30"/>
     <use x="328.173828" xlink:href="#DejaVuSans-2e"/>
     <use x="359.960938" xlink:href="#DejaVuSans-30"/>
     <use x="423.583984" xlink:href="#DejaVuSans-30"/>
     <use x="487.207031" xlink:href="#DejaVuSans-30"/>
     <use x="550.830078" xlink:href="#DejaVuSans-30"/>
     <use x="614.453125" xlink:href="#DejaVuSans-35"/>
    </g>
    <!-- test 0.03179 -->
    <g transform="translate(130.498225 186.920312)scale(0.1 -0.1)">
     <defs>
      <path d="M 3597 1894 
L 3597 1613 
L 953 1613 
Q 991 1019 1311 708 
Q 1631 397 2203 397 
Q 2534 397 2845 478 
Q 3156 559 3463 722 
L 3463 178 
Q 3153 47 2828 -22 
Q 2503 -91 2169 -91 
Q 1331 -91 842 396 
Q 353 884 353 1716 
Q 353 2575 817 3079 
Q 1281 3584 2069 3584 
Q 2775 3584 3186 3129 
Q 3597 2675 3597 1894 
z
M 3022 2063 
Q 3016 2534 2758 2815 
Q 2500 3097 2075 3097 
Q 1594 3097 1305 2825 
Q 1016 2553 972 2059 
L 3022 2063 
z
" id="DejaVuSans-65" transform="scale(0.015625)"/>
      <path d="M 525 4666 
L 3525 4666 
L 3525 4397 
L 1831 0 
L 1172 0 
L 2766 4134 
L 525 4134 
L 525 4666 
z
" id="DejaVuSans-37" transform="scale(0.015625)"/>
      <path d="M 703 97 
L 703 672 
Q 941 559 1184 500 
Q 1428 441 1663 441 
Q 2288 441 2617 861 
Q 2947 1281 2994 2138 
Q 2813 1869 2534 1725 
Q 2256 1581 1919 1581 
Q 1219 1581 811 2004 
Q 403 2428 403 3163 
Q 403 3881 828 4315 
Q 1253 4750 1959 4750 
Q 2769 4750 3195 4129 
Q 3622 3509 3622 2328 
Q 3622 1225 3098 567 
Q 2575 -91 1691 -91 
Q 1453 -91 1209 -44 
Q 966 3 703 97 
z
M 1959 2075 
Q 2384 2075 2632 2365 
Q 2881 2656 2881 3163 
Q 2881 3666 2632 3958 
Q 2384 4250 1959 4250 
Q 1534 4250 1286 3958 
Q 1038 3666 1038 3163 
Q 1038 2656 1286 2365 
Q 1534 2075 1959 2075 
z
" id="DejaVuSans-39" transform="scale(0.015625)"/>
     </defs>
     <use xlink:href="#DejaVuSans-74"/>
     <use x="39.208984" xlink:href="#DejaVuSans-65"/>
     <use x="100.732422" xlink:href="#DejaVuSans-73"/>
     <use x="152.832031" xlink:href="#DejaVuSans-74"/>
     <use x="192.041016" xlink:href="#DejaVuSans-20"/>
     <use x="223.828125" xlink:href="#DejaVuSans-30"/>
     <use x="287.451172" xlink:href="#DejaVuSans-2e"/>
     <use x="319.238281" xlink:href="#DejaVuSans-30"/>
     <use x="382.861328" xlink:href="#DejaVuSans-33"/>
     <use x="446.484375" xlink:href="#DejaVuSans-31"/>
     <use x="510.107422" xlink:href="#DejaVuSans-37"/>
     <use x="573.730469" xlink:href="#DejaVuSans-39"/>
    </g>
   </g>
   <g id="legend_1">
    <g id="line2d_65">
     <path d="M 36 145.064063 
L 56 145.064063 
" style="fill:none;stroke:#1f77b4;stroke-linecap:square;stroke-width:1.5;"/>
    </g>
    <g id="line2d_66"/>
    <g id="text_17">
     <!-- Train -->
     <g transform="translate(64 148.564063)scale(0.1 -0.1)">
      <defs>
       <path d="M -19 4666 
L 3928 4666 
L 3928 4134 
L 2272 4134 
L 2272 0 
L 1638 0 
L 1638 4134 
L -19 4134 
L -19 4666 
z
" id="DejaVuSans-54" transform="scale(0.015625)"/>
      </defs>
      <use xlink:href="#DejaVuSans-54"/>
      <use x="46.333984" xlink:href="#DejaVuSans-72"/>
      <use x="87.447266" xlink:href="#DejaVuSans-61"/>
      <use x="148.726562" xlink:href="#DejaVuSans-69"/>
      <use x="176.509766" xlink:href="#DejaVuSans-6e"/>
     </g>
    </g>
    <g id="line2d_67">
     <path d="M 36 159.742188 
L 56 159.742188 
" style="fill:none;stroke:#ff7f0e;stroke-linecap:square;stroke-width:1.5;"/>
    </g>
    <g id="line2d_68"/>
    <g id="text_18">
     <!-- Test -->
     <g transform="translate(64 163.242188)scale(0.1 -0.1)">
      <use xlink:href="#DejaVuSans-54"/>
      <use x="44.083984" xlink:href="#DejaVuSans-65"/>
      <use x="105.607422" xlink:href="#DejaVuSans-73"/>
      <use x="157.707031" xlink:href="#DejaVuSans-74"/>
     </g>
    </g>
    <g id="line2d_69">
     <path d="M 36 174.420313 
L 56 174.420313 
" style="fill:none;stroke:#000000;stroke-dasharray:5.55,2.4;stroke-dashoffset:0;stroke-width:1.5;"/>
    </g>
    <g id="line2d_70"/>
    <g id="text_19">
     <!-- Mean -->
     <g transform="translate(64 177.920313)scale(0.1 -0.1)">
      <defs>
       <path d="M 628 4666 
L 1569 4666 
L 2759 1491 
L 3956 4666 
L 4897 4666 
L 4897 0 
L 4281 0 
L 4281 4097 
L 3078 897 
L 2444 897 
L 1241 4097 
L 1241 0 
L 628 0 
L 628 4666 
z
" id="DejaVuSans-4d" transform="scale(0.015625)"/>
      </defs>
      <use xlink:href="#DejaVuSans-4d"/>
      <use x="86.279297" xlink:href="#DejaVuSans-65"/>
      <use x="147.802734" xlink:href="#DejaVuSans-61"/>
      <use x="209.082031" xlink:href="#DejaVuSans-6e"/>
     </g>
    </g>
   </g>
  </g>
 </g>
 <defs>
  <clipPath id="pceb413b4eb">
   <rect height="163.08" width="167.4" x="27" y="25.92"/>
  </clipPath>
 </defs>
</svg>
