<?xml version="1.0" encoding="utf-8" standalone="no"?>
<!DOCTYPE svg PUBLIC "-//W3C//DTD SVG 1.1//EN"
  "http://www.w3.org/Graphics/SVG/1.1/DTD/svg11.dtd">
<svg height="288pt" version="1.1" viewBox="0 0 288 288" width="288pt" xmlns="http://www.w3.org/2000/svg" xmlns:xlink="http://www.w3.org/1999/xlink">
 <metadata>
  <rdf:RDF xmlns:cc="http://creativecommons.org/ns#" xmlns:dc="http://purl.org/dc/elements/1.1/" xmlns:rdf="http://www.w3.org/1999/02/22-rdf-syntax-ns#">
   <cc:Work>
    <dc:type rdf:resource="http://purl.org/dc/dcmitype/StillImage"/>
    <dc:date>2022-03-09T10:18:26.949950</dc:date>
    <dc:format>image/svg+xml</dc:format>
    <dc:creator>
     <cc:Agent>
      <dc:title>Matplotlib v3.4.3, https://matplotlib.org/</dc:title>
     </cc:Agent>
    </dc:creator>
   </cc:Work>
  </rdf:RDF>
 </metadata>
 <defs>
  <style type="text/css">*{stroke-linecap:butt;stroke-linejoin:round;}</style>
 </defs>
 <g id="figure_1">
  <g id="patch_1">
   <path d="M 0 288 
L 288 288 
L 288 0 
L 0 0 
z
" style="fill:#ffffff;"/>
  </g>
  <g id="axes_1">
   <g id="patch_2">
    <path d="M 36 252 
L 259.2 252 
L 259.2 34.56 
L 36 34.56 
z
" style="fill:#ffffff;"/>
   </g>
   <g id="matplotlib.axis_1">
    <g id="xtick_1">
     <g id="line2d_1">
      <defs>
       <path d="M 0 0 
L 0 3.5 
" id="mf9eb956a45" style="stroke:#000000;stroke-width:0.8;"/>
      </defs>
      <g>
       <use style="stroke:#000000;stroke-width:0.8;" x="69.619826" xlink:href="#mf9eb956a45" y="252"/>
      </g>
     </g>
     <g id="text_1">
      <!-- $\mathdefault{10^{2}}$ -->
      <g transform="translate(60.819826 266.598437)scale(0.1 -0.1)">
       <defs>
        <path d="M 794 531 
L 1825 531 
L 1825 4091 
L 703 3866 
L 703 4441 
L 1819 4666 
L 2450 4666 
L 2450 531 
L 3481 531 
L 3481 0 
L 794 0 
L 794 531 
z
" id="DejaVuSans-31" transform="scale(0.015625)"/>
        <path d="M 2034 4250 
Q 1547 4250 1301 3770 
Q 1056 3291 1056 2328 
Q 1056 1369 1301 889 
Q 1547 409 2034 409 
Q 2525 409 2770 889 
Q 3016 1369 3016 2328 
Q 3016 3291 2770 3770 
Q 2525 4250 2034 4250 
z
M 2034 4750 
Q 2819 4750 3233 4129 
Q 3647 3509 3647 2328 
Q 3647 1150 3233 529 
Q 2819 -91 2034 -91 
Q 1250 -91 836 529 
Q 422 1150 422 2328 
Q 422 3509 836 4129 
Q 1250 4750 2034 4750 
z
" id="DejaVuSans-30" transform="scale(0.015625)"/>
        <path d="M 1228 531 
L 3431 531 
L 3431 0 
L 469 0 
L 469 531 
Q 828 903 1448 1529 
Q 2069 2156 2228 2338 
Q 2531 2678 2651 2914 
Q 2772 3150 2772 3378 
Q 2772 3750 2511 3984 
Q 2250 4219 1831 4219 
Q 1534 4219 1204 4116 
Q 875 4013 500 3803 
L 500 4441 
Q 881 4594 1212 4672 
Q 1544 4750 1819 4750 
Q 2544 4750 2975 4387 
Q 3406 4025 3406 3419 
Q 3406 3131 3298 2873 
Q 3191 2616 2906 2266 
Q 2828 2175 2409 1742 
Q 1991 1309 1228 531 
z
" id="DejaVuSans-32" transform="scale(0.015625)"/>
       </defs>
       <use transform="translate(0 0.765625)" xlink:href="#DejaVuSans-31"/>
       <use transform="translate(63.623047 0.765625)" xlink:href="#DejaVuSans-30"/>
       <use transform="translate(128.203125 39.046875)scale(0.7)" xlink:href="#DejaVuSans-32"/>
      </g>
     </g>
    </g>
    <g id="xtick_2">
     <g id="line2d_2">
      <g>
       <use style="stroke:#000000;stroke-width:0.8;" x="147.6" xlink:href="#mf9eb956a45" y="252"/>
      </g>
     </g>
     <g id="text_2">
      <!-- $\mathdefault{10^{3}}$ -->
      <g transform="translate(138.8 266.598437)scale(0.1 -0.1)">
       <defs>
        <path d="M 2597 2516 
Q 3050 2419 3304 2112 
Q 3559 1806 3559 1356 
Q 3559 666 3084 287 
Q 2609 -91 1734 -91 
Q 1441 -91 1130 -33 
Q 819 25 488 141 
L 488 750 
Q 750 597 1062 519 
Q 1375 441 1716 441 
Q 2309 441 2620 675 
Q 2931 909 2931 1356 
Q 2931 1769 2642 2001 
Q 2353 2234 1838 2234 
L 1294 2234 
L 1294 2753 
L 1863 2753 
Q 2328 2753 2575 2939 
Q 2822 3125 2822 3475 
Q 2822 3834 2567 4026 
Q 2313 4219 1838 4219 
Q 1578 4219 1281 4162 
Q 984 4106 628 3988 
L 628 4550 
Q 988 4650 1302 4700 
Q 1616 4750 1894 4750 
Q 2613 4750 3031 4423 
Q 3450 4097 3450 3541 
Q 3450 3153 3228 2886 
Q 3006 2619 2597 2516 
z
" id="DejaVuSans-33" transform="scale(0.015625)"/>
       </defs>
       <use transform="translate(0 0.765625)" xlink:href="#DejaVuSans-31"/>
       <use transform="translate(63.623047 0.765625)" xlink:href="#DejaVuSans-30"/>
       <use transform="translate(128.203125 39.046875)scale(0.7)" xlink:href="#DejaVuSans-33"/>
      </g>
     </g>
    </g>
    <g id="xtick_3">
     <g id="line2d_3">
      <g>
       <use style="stroke:#000000;stroke-width:0.8;" x="225.580174" xlink:href="#mf9eb956a45" y="252"/>
      </g>
     </g>
     <g id="text_3">
      <!-- $\mathdefault{10^{4}}$ -->
      <g transform="translate(216.780174 266.598437)scale(0.1 -0.1)">
       <defs>
        <path d="M 2419 4116 
L 825 1625 
L 2419 1625 
L 2419 4116 
z
M 2253 4666 
L 3047 4666 
L 3047 1625 
L 3713 1625 
L 3713 1100 
L 3047 1100 
L 3047 0 
L 2419 0 
L 2419 1100 
L 313 1100 
L 313 1709 
L 2253 4666 
z
" id="DejaVuSans-34" transform="scale(0.015625)"/>
       </defs>
       <use transform="translate(0 0.684375)" xlink:href="#DejaVuSans-31"/>
       <use transform="translate(63.623047 0.684375)" xlink:href="#DejaVuSans-30"/>
       <use transform="translate(128.203125 38.965625)scale(0.7)" xlink:href="#DejaVuSans-34"/>
      </g>
     </g>
    </g>
    <g id="xtick_4">
     <g id="line2d_4">
      <defs>
       <path d="M 0 0 
L 0 2 
" id="m004678e643" style="stroke:#000000;stroke-width:0.6;"/>
      </defs>
      <g>
       <use style="stroke:#000000;stroke-width:0.6;" x="38.588395" xlink:href="#m004678e643" y="252"/>
      </g>
     </g>
    </g>
    <g id="xtick_5">
     <g id="line2d_5">
      <g>
       <use style="stroke:#000000;stroke-width:0.6;" x="46.145455" xlink:href="#m004678e643" y="252"/>
      </g>
     </g>
    </g>
    <g id="xtick_6">
     <g id="line2d_6">
      <g>
       <use style="stroke:#000000;stroke-width:0.6;" x="52.320022" xlink:href="#m004678e643" y="252"/>
      </g>
     </g>
    </g>
    <g id="xtick_7">
     <g id="line2d_7">
      <g>
       <use style="stroke:#000000;stroke-width:0.6;" x="57.540544" xlink:href="#m004678e643" y="252"/>
      </g>
     </g>
    </g>
    <g id="xtick_8">
     <g id="line2d_8">
      <g>
       <use style="stroke:#000000;stroke-width:0.6;" x="62.062766" xlink:href="#m004678e643" y="252"/>
      </g>
     </g>
    </g>
    <g id="xtick_9">
     <g id="line2d_9">
      <g>
       <use style="stroke:#000000;stroke-width:0.6;" x="66.051649" xlink:href="#m004678e643" y="252"/>
      </g>
     </g>
    </g>
    <g id="xtick_10">
     <g id="line2d_10">
      <g>
       <use style="stroke:#000000;stroke-width:0.6;" x="93.094197" xlink:href="#m004678e643" y="252"/>
      </g>
     </g>
    </g>
    <g id="xtick_11">
     <g id="line2d_11">
      <g>
       <use style="stroke:#000000;stroke-width:0.6;" x="106.825824" xlink:href="#m004678e643" y="252"/>
      </g>
     </g>
    </g>
    <g id="xtick_12">
     <g id="line2d_12">
      <g>
       <use style="stroke:#000000;stroke-width:0.6;" x="116.568569" xlink:href="#m004678e643" y="252"/>
      </g>
     </g>
    </g>
    <g id="xtick_13">
     <g id="line2d_13">
      <g>
       <use style="stroke:#000000;stroke-width:0.6;" x="124.125629" xlink:href="#m004678e643" y="252"/>
      </g>
     </g>
    </g>
    <g id="xtick_14">
     <g id="line2d_14">
      <g>
       <use style="stroke:#000000;stroke-width:0.6;" x="130.300196" xlink:href="#m004678e643" y="252"/>
      </g>
     </g>
    </g>
    <g id="xtick_15">
     <g id="line2d_15">
      <g>
       <use style="stroke:#000000;stroke-width:0.6;" x="135.520718" xlink:href="#m004678e643" y="252"/>
      </g>
     </g>
    </g>
    <g id="xtick_16">
     <g id="line2d_16">
      <g>
       <use style="stroke:#000000;stroke-width:0.6;" x="140.04294" xlink:href="#m004678e643" y="252"/>
      </g>
     </g>
    </g>
    <g id="xtick_17">
     <g id="line2d_17">
      <g>
       <use style="stroke:#000000;stroke-width:0.6;" x="144.031823" xlink:href="#m004678e643" y="252"/>
      </g>
     </g>
    </g>
    <g id="xtick_18">
     <g id="line2d_18">
      <g>
       <use style="stroke:#000000;stroke-width:0.6;" x="171.074371" xlink:href="#m004678e643" y="252"/>
      </g>
     </g>
    </g>
    <g id="xtick_19">
     <g id="line2d_19">
      <g>
       <use style="stroke:#000000;stroke-width:0.6;" x="184.805998" xlink:href="#m004678e643" y="252"/>
      </g>
     </g>
    </g>
    <g id="xtick_20">
     <g id="line2d_20">
      <g>
       <use style="stroke:#000000;stroke-width:0.6;" x="194.548743" xlink:href="#m004678e643" y="252"/>
      </g>
     </g>
    </g>
    <g id="xtick_21">
     <g id="line2d_21">
      <g>
       <use style="stroke:#000000;stroke-width:0.6;" x="202.105803" xlink:href="#m004678e643" y="252"/>
      </g>
     </g>
    </g>
    <g id="xtick_22">
     <g id="line2d_22">
      <g>
       <use style="stroke:#000000;stroke-width:0.6;" x="208.28037" xlink:href="#m004678e643" y="252"/>
      </g>
     </g>
    </g>
    <g id="xtick_23">
     <g id="line2d_23">
      <g>
       <use style="stroke:#000000;stroke-width:0.6;" x="213.500892" xlink:href="#m004678e643" y="252"/>
      </g>
     </g>
    </g>
    <g id="xtick_24">
     <g id="line2d_24">
      <g>
       <use style="stroke:#000000;stroke-width:0.6;" x="218.023114" xlink:href="#m004678e643" y="252"/>
      </g>
     </g>
    </g>
    <g id="xtick_25">
     <g id="line2d_25">
      <g>
       <use style="stroke:#000000;stroke-width:0.6;" x="222.011997" xlink:href="#m004678e643" y="252"/>
      </g>
     </g>
    </g>
    <g id="xtick_26">
     <g id="line2d_26">
      <g>
       <use style="stroke:#000000;stroke-width:0.6;" x="249.054545" xlink:href="#m004678e643" y="252"/>
      </g>
     </g>
    </g>
    <g id="text_4">
     <!-- data size -->
     <g transform="translate(125.053906 280.276563)scale(0.1 -0.1)">
      <defs>
       <path d="M 2906 2969 
L 2906 4863 
L 3481 4863 
L 3481 0 
L 2906 0 
L 2906 525 
Q 2725 213 2448 61 
Q 2172 -91 1784 -91 
Q 1150 -91 751 415 
Q 353 922 353 1747 
Q 353 2572 751 3078 
Q 1150 3584 1784 3584 
Q 2172 3584 2448 3432 
Q 2725 3281 2906 2969 
z
M 947 1747 
Q 947 1113 1208 752 
Q 1469 391 1925 391 
Q 2381 391 2643 752 
Q 2906 1113 2906 1747 
Q 2906 2381 2643 2742 
Q 2381 3103 1925 3103 
Q 1469 3103 1208 2742 
Q 947 2381 947 1747 
z
" id="DejaVuSans-64" transform="scale(0.015625)"/>
       <path d="M 2194 1759 
Q 1497 1759 1228 1600 
Q 959 1441 959 1056 
Q 959 750 1161 570 
Q 1363 391 1709 391 
Q 2188 391 2477 730 
Q 2766 1069 2766 1631 
L 2766 1759 
L 2194 1759 
z
M 3341 1997 
L 3341 0 
L 2766 0 
L 2766 531 
Q 2569 213 2275 61 
Q 1981 -91 1556 -91 
Q 1019 -91 701 211 
Q 384 513 384 1019 
Q 384 1609 779 1909 
Q 1175 2209 1959 2209 
L 2766 2209 
L 2766 2266 
Q 2766 2663 2505 2880 
Q 2244 3097 1772 3097 
Q 1472 3097 1187 3025 
Q 903 2953 641 2809 
L 641 3341 
Q 956 3463 1253 3523 
Q 1550 3584 1831 3584 
Q 2591 3584 2966 3190 
Q 3341 2797 3341 1997 
z
" id="DejaVuSans-61" transform="scale(0.015625)"/>
       <path d="M 1172 4494 
L 1172 3500 
L 2356 3500 
L 2356 3053 
L 1172 3053 
L 1172 1153 
Q 1172 725 1289 603 
Q 1406 481 1766 481 
L 2356 481 
L 2356 0 
L 1766 0 
Q 1100 0 847 248 
Q 594 497 594 1153 
L 594 3053 
L 172 3053 
L 172 3500 
L 594 3500 
L 594 4494 
L 1172 4494 
z
" id="DejaVuSans-74" transform="scale(0.015625)"/>
       <path id="DejaVuSans-20" transform="scale(0.015625)"/>
       <path d="M 2834 3397 
L 2834 2853 
Q 2591 2978 2328 3040 
Q 2066 3103 1784 3103 
Q 1356 3103 1142 2972 
Q 928 2841 928 2578 
Q 928 2378 1081 2264 
Q 1234 2150 1697 2047 
L 1894 2003 
Q 2506 1872 2764 1633 
Q 3022 1394 3022 966 
Q 3022 478 2636 193 
Q 2250 -91 1575 -91 
Q 1294 -91 989 -36 
Q 684 19 347 128 
L 347 722 
Q 666 556 975 473 
Q 1284 391 1588 391 
Q 1994 391 2212 530 
Q 2431 669 2431 922 
Q 2431 1156 2273 1281 
Q 2116 1406 1581 1522 
L 1381 1569 
Q 847 1681 609 1914 
Q 372 2147 372 2553 
Q 372 3047 722 3315 
Q 1072 3584 1716 3584 
Q 2034 3584 2315 3537 
Q 2597 3491 2834 3397 
z
" id="DejaVuSans-73" transform="scale(0.015625)"/>
       <path d="M 603 3500 
L 1178 3500 
L 1178 0 
L 603 0 
L 603 3500 
z
M 603 4863 
L 1178 4863 
L 1178 4134 
L 603 4134 
L 603 4863 
z
" id="DejaVuSans-69" transform="scale(0.015625)"/>
       <path d="M 353 3500 
L 3084 3500 
L 3084 2975 
L 922 459 
L 3084 459 
L 3084 0 
L 275 0 
L 275 525 
L 2438 3041 
L 353 3041 
L 353 3500 
z
" id="DejaVuSans-7a" transform="scale(0.015625)"/>
       <path d="M 3597 1894 
L 3597 1613 
L 953 1613 
Q 991 1019 1311 708 
Q 1631 397 2203 397 
Q 2534 397 2845 478 
Q 3156 559 3463 722 
L 3463 178 
Q 3153 47 2828 -22 
Q 2503 -91 2169 -91 
Q 1331 -91 842 396 
Q 353 884 353 1716 
Q 353 2575 817 3079 
Q 1281 3584 2069 3584 
Q 2775 3584 3186 3129 
Q 3597 2675 3597 1894 
z
M 3022 2063 
Q 3016 2534 2758 2815 
Q 2500 3097 2075 3097 
Q 1594 3097 1305 2825 
Q 1016 2553 972 2059 
L 3022 2063 
z
" id="DejaVuSans-65" transform="scale(0.015625)"/>
      </defs>
      <use xlink:href="#DejaVuSans-64"/>
      <use x="63.476562" xlink:href="#DejaVuSans-61"/>
      <use x="124.755859" xlink:href="#DejaVuSans-74"/>
      <use x="163.964844" xlink:href="#DejaVuSans-61"/>
      <use x="225.244141" xlink:href="#DejaVuSans-20"/>
      <use x="257.03125" xlink:href="#DejaVuSans-73"/>
      <use x="309.130859" xlink:href="#DejaVuSans-69"/>
      <use x="336.914062" xlink:href="#DejaVuSans-7a"/>
      <use x="389.404297" xlink:href="#DejaVuSans-65"/>
     </g>
    </g>
   </g>
   <g id="matplotlib.axis_2">
    <g id="ytick_1">
     <g id="line2d_27">
      <defs>
       <path d="M 0 0 
L -3.5 0 
" id="m617b8f9547" style="stroke:#000000;stroke-width:0.8;"/>
      </defs>
      <g>
       <use style="stroke:#000000;stroke-width:0.8;" x="36" xlink:href="#m617b8f9547" y="252"/>
      </g>
     </g>
     <g id="text_5">
      <!-- 0 -->
      <g transform="translate(22.6375 255.799219)scale(0.1 -0.1)">
       <use xlink:href="#DejaVuSans-30"/>
      </g>
     </g>
    </g>
    <g id="ytick_2">
     <g id="line2d_28">
      <g>
       <use style="stroke:#000000;stroke-width:0.8;" x="36" xlink:href="#m617b8f9547" y="211.918894"/>
      </g>
     </g>
     <g id="text_6">
      <!-- 1000 -->
      <g transform="translate(3.55 215.718113)scale(0.1 -0.1)">
       <use xlink:href="#DejaVuSans-31"/>
       <use x="63.623047" xlink:href="#DejaVuSans-30"/>
       <use x="127.246094" xlink:href="#DejaVuSans-30"/>
       <use x="190.869141" xlink:href="#DejaVuSans-30"/>
      </g>
     </g>
    </g>
    <g id="ytick_3">
     <g id="line2d_29">
      <g>
       <use style="stroke:#000000;stroke-width:0.8;" x="36" xlink:href="#m617b8f9547" y="171.837788"/>
      </g>
     </g>
     <g id="text_7">
      <!-- 2000 -->
      <g transform="translate(3.55 175.637007)scale(0.1 -0.1)">
       <use xlink:href="#DejaVuSans-32"/>
       <use x="63.623047" xlink:href="#DejaVuSans-30"/>
       <use x="127.246094" xlink:href="#DejaVuSans-30"/>
       <use x="190.869141" xlink:href="#DejaVuSans-30"/>
      </g>
     </g>
    </g>
    <g id="ytick_4">
     <g id="line2d_30">
      <g>
       <use style="stroke:#000000;stroke-width:0.8;" x="36" xlink:href="#m617b8f9547" y="131.756682"/>
      </g>
     </g>
     <g id="text_8">
      <!-- 3000 -->
      <g transform="translate(3.55 135.555901)scale(0.1 -0.1)">
       <use xlink:href="#DejaVuSans-33"/>
       <use x="63.623047" xlink:href="#DejaVuSans-30"/>
       <use x="127.246094" xlink:href="#DejaVuSans-30"/>
       <use x="190.869141" xlink:href="#DejaVuSans-30"/>
      </g>
     </g>
    </g>
    <g id="ytick_5">
     <g id="line2d_31">
      <g>
       <use style="stroke:#000000;stroke-width:0.8;" x="36" xlink:href="#m617b8f9547" y="91.675576"/>
      </g>
     </g>
     <g id="text_9">
      <!-- 4000 -->
      <g transform="translate(3.55 95.474795)scale(0.1 -0.1)">
       <use xlink:href="#DejaVuSans-34"/>
       <use x="63.623047" xlink:href="#DejaVuSans-30"/>
       <use x="127.246094" xlink:href="#DejaVuSans-30"/>
       <use x="190.869141" xlink:href="#DejaVuSans-30"/>
      </g>
     </g>
    </g>
    <g id="ytick_6">
     <g id="line2d_32">
      <g>
       <use style="stroke:#000000;stroke-width:0.8;" x="36" xlink:href="#m617b8f9547" y="51.59447"/>
      </g>
     </g>
     <g id="text_10">
      <!-- 5000 -->
      <g transform="translate(3.55 55.393689)scale(0.1 -0.1)">
       <defs>
        <path d="M 691 4666 
L 3169 4666 
L 3169 4134 
L 1269 4134 
L 1269 2991 
Q 1406 3038 1543 3061 
Q 1681 3084 1819 3084 
Q 2600 3084 3056 2656 
Q 3513 2228 3513 1497 
Q 3513 744 3044 326 
Q 2575 -91 1722 -91 
Q 1428 -91 1123 -41 
Q 819 9 494 109 
L 494 744 
Q 775 591 1075 516 
Q 1375 441 1709 441 
Q 2250 441 2565 725 
Q 2881 1009 2881 1497 
Q 2881 1984 2565 2268 
Q 2250 2553 1709 2553 
Q 1456 2553 1204 2497 
Q 953 2441 691 2322 
L 691 4666 
z
" id="DejaVuSans-35" transform="scale(0.015625)"/>
       </defs>
       <use xlink:href="#DejaVuSans-35"/>
       <use x="63.623047" xlink:href="#DejaVuSans-30"/>
       <use x="127.246094" xlink:href="#DejaVuSans-30"/>
       <use x="190.869141" xlink:href="#DejaVuSans-30"/>
      </g>
     </g>
    </g>
    <g id="text_11">
     <!-- iterations -->
     <g transform="translate(-2.529688 167.007344)rotate(-90)scale(0.1 -0.1)">
      <defs>
       <path d="M 2631 2963 
Q 2534 3019 2420 3045 
Q 2306 3072 2169 3072 
Q 1681 3072 1420 2755 
Q 1159 2438 1159 1844 
L 1159 0 
L 581 0 
L 581 3500 
L 1159 3500 
L 1159 2956 
Q 1341 3275 1631 3429 
Q 1922 3584 2338 3584 
Q 2397 3584 2469 3576 
Q 2541 3569 2628 3553 
L 2631 2963 
z
" id="DejaVuSans-72" transform="scale(0.015625)"/>
       <path d="M 1959 3097 
Q 1497 3097 1228 2736 
Q 959 2375 959 1747 
Q 959 1119 1226 758 
Q 1494 397 1959 397 
Q 2419 397 2687 759 
Q 2956 1122 2956 1747 
Q 2956 2369 2687 2733 
Q 2419 3097 1959 3097 
z
M 1959 3584 
Q 2709 3584 3137 3096 
Q 3566 2609 3566 1747 
Q 3566 888 3137 398 
Q 2709 -91 1959 -91 
Q 1206 -91 779 398 
Q 353 888 353 1747 
Q 353 2609 779 3096 
Q 1206 3584 1959 3584 
z
" id="DejaVuSans-6f" transform="scale(0.015625)"/>
       <path d="M 3513 2113 
L 3513 0 
L 2938 0 
L 2938 2094 
Q 2938 2591 2744 2837 
Q 2550 3084 2163 3084 
Q 1697 3084 1428 2787 
Q 1159 2491 1159 1978 
L 1159 0 
L 581 0 
L 581 3500 
L 1159 3500 
L 1159 2956 
Q 1366 3272 1645 3428 
Q 1925 3584 2291 3584 
Q 2894 3584 3203 3211 
Q 3513 2838 3513 2113 
z
" id="DejaVuSans-6e" transform="scale(0.015625)"/>
      </defs>
      <use xlink:href="#DejaVuSans-69"/>
      <use x="27.783203" xlink:href="#DejaVuSans-74"/>
      <use x="66.992188" xlink:href="#DejaVuSans-65"/>
      <use x="128.515625" xlink:href="#DejaVuSans-72"/>
      <use x="169.628906" xlink:href="#DejaVuSans-61"/>
      <use x="230.908203" xlink:href="#DejaVuSans-74"/>
      <use x="270.117188" xlink:href="#DejaVuSans-69"/>
      <use x="297.900391" xlink:href="#DejaVuSans-6f"/>
      <use x="359.082031" xlink:href="#DejaVuSans-6e"/>
      <use x="422.460938" xlink:href="#DejaVuSans-73"/>
     </g>
    </g>
   </g>
   <g id="line2d_33">
    <path clip-path="url(#p45f0eaa120)" d="M 46.145455 223.943226 
L 69.619826 221.939171 
L 93.094197 219.935115 
L 124.125629 217.93106 
L 147.6 217.93106 
L 171.074371 215.927005 
L 202.105803 217.93106 
L 225.580174 217.93106 
L 249.054545 217.93106 
" style="fill:none;stroke:#1f77b4;stroke-linecap:square;stroke-width:1.5;"/>
    <defs>
     <path d="M 0 2 
C 0.530406 2 1.03916 1.789267 1.414214 1.414214 
C 1.789267 1.03916 2 0.530406 2 0 
C 2 -0.530406 1.789267 -1.03916 1.414214 -1.414214 
C 1.03916 -1.789267 0.530406 -2 0 -2 
C -0.530406 -2 -1.03916 -1.789267 -1.414214 -1.414214 
C -1.789267 -1.03916 -2 -0.530406 -2 0 
C -2 0.530406 -1.789267 1.03916 -1.414214 1.414214 
C -1.03916 1.789267 -0.530406 2 0 2 
z
" id="me4133a92c0" style="stroke:#1f77b4;"/>
    </defs>
    <g clip-path="url(#p45f0eaa120)">
     <use style="fill:#1f77b4;stroke:#1f77b4;" x="46.145455" xlink:href="#me4133a92c0" y="223.943226"/>
     <use style="fill:#1f77b4;stroke:#1f77b4;" x="69.619826" xlink:href="#me4133a92c0" y="221.939171"/>
     <use style="fill:#1f77b4;stroke:#1f77b4;" x="93.094197" xlink:href="#me4133a92c0" y="219.935115"/>
     <use style="fill:#1f77b4;stroke:#1f77b4;" x="124.125629" xlink:href="#me4133a92c0" y="217.93106"/>
     <use style="fill:#1f77b4;stroke:#1f77b4;" x="147.6" xlink:href="#me4133a92c0" y="217.93106"/>
     <use style="fill:#1f77b4;stroke:#1f77b4;" x="171.074371" xlink:href="#me4133a92c0" y="215.927005"/>
     <use style="fill:#1f77b4;stroke:#1f77b4;" x="202.105803" xlink:href="#me4133a92c0" y="217.93106"/>
     <use style="fill:#1f77b4;stroke:#1f77b4;" x="225.580174" xlink:href="#me4133a92c0" y="217.93106"/>
     <use style="fill:#1f77b4;stroke:#1f77b4;" x="249.054545" xlink:href="#me4133a92c0" y="217.93106"/>
    </g>
   </g>
   <g id="line2d_34">
    <path clip-path="url(#p45f0eaa120)" d="M 46.145455 215.927005 
L 69.619826 201.898618 
L 93.094197 195.886452 
L 124.125629 191.878341 
L 147.6 185.866175 
L 171.074371 185.866175 
L 202.105803 185.866175 
L 225.580174 191.878341 
L 249.054545 187.87023 
" style="fill:none;stroke:#ff7f0e;stroke-linecap:square;stroke-width:1.5;"/>
    <defs>
     <path d="M 0 2 
C 0.530406 2 1.03916 1.789267 1.414214 1.414214 
C 1.789267 1.03916 2 0.530406 2 0 
C 2 -0.530406 1.789267 -1.03916 1.414214 -1.414214 
C 1.03916 -1.789267 0.530406 -2 0 -2 
C -0.530406 -2 -1.03916 -1.789267 -1.414214 -1.414214 
C -1.789267 -1.03916 -2 -0.530406 -2 0 
C -2 0.530406 -1.789267 1.03916 -1.414214 1.414214 
C -1.03916 1.789267 -0.530406 2 0 2 
z
" id="m775447e0db" style="stroke:#ff7f0e;"/>
    </defs>
    <g clip-path="url(#p45f0eaa120)">
     <use style="fill:#ff7f0e;stroke:#ff7f0e;" x="46.145455" xlink:href="#m775447e0db" y="215.927005"/>
     <use style="fill:#ff7f0e;stroke:#ff7f0e;" x="69.619826" xlink:href="#m775447e0db" y="201.898618"/>
     <use style="fill:#ff7f0e;stroke:#ff7f0e;" x="93.094197" xlink:href="#m775447e0db" y="195.886452"/>
     <use style="fill:#ff7f0e;stroke:#ff7f0e;" x="124.125629" xlink:href="#m775447e0db" y="191.878341"/>
     <use style="fill:#ff7f0e;stroke:#ff7f0e;" x="147.6" xlink:href="#m775447e0db" y="185.866175"/>
     <use style="fill:#ff7f0e;stroke:#ff7f0e;" x="171.074371" xlink:href="#m775447e0db" y="185.866175"/>
     <use style="fill:#ff7f0e;stroke:#ff7f0e;" x="202.105803" xlink:href="#m775447e0db" y="185.866175"/>
     <use style="fill:#ff7f0e;stroke:#ff7f0e;" x="225.580174" xlink:href="#m775447e0db" y="191.878341"/>
     <use style="fill:#ff7f0e;stroke:#ff7f0e;" x="249.054545" xlink:href="#m775447e0db" y="187.87023"/>
    </g>
   </g>
   <g id="line2d_35">
    <path clip-path="url(#p45f0eaa120)" d="M 46.145455 213.922949 
L 69.619826 199.894562 
L 93.094197 187.87023 
L 124.125629 179.854009 
L 147.6 181.858065 
L 171.074371 171.837788 
L 202.105803 177.849954 
L 225.580174 183.86212 
L 249.054545 181.858065 
" style="fill:none;stroke:#2ca02c;stroke-linecap:square;stroke-width:1.5;"/>
    <defs>
     <path d="M 0 2 
C 0.530406 2 1.03916 1.789267 1.414214 1.414214 
C 1.789267 1.03916 2 0.530406 2 0 
C 2 -0.530406 1.789267 -1.03916 1.414214 -1.414214 
C 1.03916 -1.789267 0.530406 -2 0 -2 
C -0.530406 -2 -1.03916 -1.789267 -1.414214 -1.414214 
C -1.789267 -1.03916 -2 -0.530406 -2 0 
C -2 0.530406 -1.789267 1.03916 -1.414214 1.414214 
C -1.03916 1.789267 -0.530406 2 0 2 
z
" id="md15c4f62d3" style="stroke:#2ca02c;"/>
    </defs>
    <g clip-path="url(#p45f0eaa120)">
     <use style="fill:#2ca02c;stroke:#2ca02c;" x="46.145455" xlink:href="#md15c4f62d3" y="213.922949"/>
     <use style="fill:#2ca02c;stroke:#2ca02c;" x="69.619826" xlink:href="#md15c4f62d3" y="199.894562"/>
     <use style="fill:#2ca02c;stroke:#2ca02c;" x="93.094197" xlink:href="#md15c4f62d3" y="187.87023"/>
     <use style="fill:#2ca02c;stroke:#2ca02c;" x="124.125629" xlink:href="#md15c4f62d3" y="179.854009"/>
     <use style="fill:#2ca02c;stroke:#2ca02c;" x="147.6" xlink:href="#md15c4f62d3" y="181.858065"/>
     <use style="fill:#2ca02c;stroke:#2ca02c;" x="171.074371" xlink:href="#md15c4f62d3" y="171.837788"/>
     <use style="fill:#2ca02c;stroke:#2ca02c;" x="202.105803" xlink:href="#md15c4f62d3" y="177.849954"/>
     <use style="fill:#2ca02c;stroke:#2ca02c;" x="225.580174" xlink:href="#md15c4f62d3" y="183.86212"/>
     <use style="fill:#2ca02c;stroke:#2ca02c;" x="249.054545" xlink:href="#md15c4f62d3" y="181.858065"/>
    </g>
   </g>
   <g id="line2d_36">
    <path clip-path="url(#p45f0eaa120)" d="M 46.145455 211.918894 
L 69.619826 191.878341 
L 93.094197 183.86212 
L 124.125629 175.845899 
L 147.6 175.845899 
L 171.074371 161.817512 
L 202.105803 169.833733 
L 225.580174 175.845899 
L 249.054545 177.849954 
" style="fill:none;stroke:#d62728;stroke-linecap:square;stroke-width:1.5;"/>
    <defs>
     <path d="M 0 2 
C 0.530406 2 1.03916 1.789267 1.414214 1.414214 
C 1.789267 1.03916 2 0.530406 2 0 
C 2 -0.530406 1.789267 -1.03916 1.414214 -1.414214 
C 1.03916 -1.789267 0.530406 -2 0 -2 
C -0.530406 -2 -1.03916 -1.789267 -1.414214 -1.414214 
C -1.789267 -1.03916 -2 -0.530406 -2 0 
C -2 0.530406 -1.789267 1.03916 -1.414214 1.414214 
C -1.03916 1.789267 -0.530406 2 0 2 
z
" id="ma81b708f9e" style="stroke:#d62728;"/>
    </defs>
    <g clip-path="url(#p45f0eaa120)">
     <use style="fill:#d62728;stroke:#d62728;" x="46.145455" xlink:href="#ma81b708f9e" y="211.918894"/>
     <use style="fill:#d62728;stroke:#d62728;" x="69.619826" xlink:href="#ma81b708f9e" y="191.878341"/>
     <use style="fill:#d62728;stroke:#d62728;" x="93.094197" xlink:href="#ma81b708f9e" y="183.86212"/>
     <use style="fill:#d62728;stroke:#d62728;" x="124.125629" xlink:href="#ma81b708f9e" y="175.845899"/>
     <use style="fill:#d62728;stroke:#d62728;" x="147.6" xlink:href="#ma81b708f9e" y="175.845899"/>
     <use style="fill:#d62728;stroke:#d62728;" x="171.074371" xlink:href="#ma81b708f9e" y="161.817512"/>
     <use style="fill:#d62728;stroke:#d62728;" x="202.105803" xlink:href="#ma81b708f9e" y="169.833733"/>
     <use style="fill:#d62728;stroke:#d62728;" x="225.580174" xlink:href="#ma81b708f9e" y="175.845899"/>
     <use style="fill:#d62728;stroke:#d62728;" x="249.054545" xlink:href="#ma81b708f9e" y="177.849954"/>
    </g>
   </g>
   <g id="line2d_37">
    <path clip-path="url(#p45f0eaa120)" d="M 46.145455 209.914839 
L 69.619826 185.866175 
L 93.094197 179.854009 
L 124.125629 149.79318 
L 147.6 167.829677 
L 171.074371 107.708018 
L 202.105803 161.817512 
L 225.580174 165.825622 
L 249.054545 167.829677 
" style="fill:none;stroke:#9467bd;stroke-linecap:square;stroke-width:1.5;"/>
    <defs>
     <path d="M 0 2 
C 0.530406 2 1.03916 1.789267 1.414214 1.414214 
C 1.789267 1.03916 2 0.530406 2 0 
C 2 -0.530406 1.789267 -1.03916 1.414214 -1.414214 
C 1.03916 -1.789267 0.530406 -2 0 -2 
C -0.530406 -2 -1.03916 -1.789267 -1.414214 -1.414214 
C -1.789267 -1.03916 -2 -0.530406 -2 0 
C -2 0.530406 -1.789267 1.03916 -1.414214 1.414214 
C -1.03916 1.789267 -0.530406 2 0 2 
z
" id="m59486657bf" style="stroke:#9467bd;"/>
    </defs>
    <g clip-path="url(#p45f0eaa120)">
     <use style="fill:#9467bd;stroke:#9467bd;" x="46.145455" xlink:href="#m59486657bf" y="209.914839"/>
     <use style="fill:#9467bd;stroke:#9467bd;" x="69.619826" xlink:href="#m59486657bf" y="185.866175"/>
     <use style="fill:#9467bd;stroke:#9467bd;" x="93.094197" xlink:href="#m59486657bf" y="179.854009"/>
     <use style="fill:#9467bd;stroke:#9467bd;" x="124.125629" xlink:href="#m59486657bf" y="149.79318"/>
     <use style="fill:#9467bd;stroke:#9467bd;" x="147.6" xlink:href="#m59486657bf" y="167.829677"/>
     <use style="fill:#9467bd;stroke:#9467bd;" x="171.074371" xlink:href="#m59486657bf" y="107.708018"/>
     <use style="fill:#9467bd;stroke:#9467bd;" x="202.105803" xlink:href="#m59486657bf" y="161.817512"/>
     <use style="fill:#9467bd;stroke:#9467bd;" x="225.580174" xlink:href="#m59486657bf" y="165.825622"/>
     <use style="fill:#9467bd;stroke:#9467bd;" x="249.054545" xlink:href="#m59486657bf" y="167.829677"/>
    </g>
   </g>
   <g id="line2d_38">
    <path clip-path="url(#p45f0eaa120)" d="M 46.145455 205.906728 
L 69.619826 177.849954 
L 93.094197 169.833733 
L 124.125629 129.752627 
L 147.6 153.80129 
L 171.074371 79.651244 
L 202.105803 137.768848 
L 225.580174 147.789124 
L 249.054545 139.772903 
" style="fill:none;stroke:#8c564b;stroke-linecap:square;stroke-width:1.5;"/>
    <defs>
     <path d="M 0 2 
C 0.530406 2 1.03916 1.789267 1.414214 1.414214 
C 1.789267 1.03916 2 0.530406 2 0 
C 2 -0.530406 1.789267 -1.03916 1.414214 -1.414214 
C 1.03916 -1.789267 0.530406 -2 0 -2 
C -0.530406 -2 -1.03916 -1.789267 -1.414214 -1.414214 
C -1.789267 -1.03916 -2 -0.530406 -2 0 
C -2 0.530406 -1.789267 1.03916 -1.414214 1.414214 
C -1.03916 1.789267 -0.530406 2 0 2 
z
" id="m8a17d76282" style="stroke:#8c564b;"/>
    </defs>
    <g clip-path="url(#p45f0eaa120)">
     <use style="fill:#8c564b;stroke:#8c564b;" x="46.145455" xlink:href="#m8a17d76282" y="205.906728"/>
     <use style="fill:#8c564b;stroke:#8c564b;" x="69.619826" xlink:href="#m8a17d76282" y="177.849954"/>
     <use style="fill:#8c564b;stroke:#8c564b;" x="93.094197" xlink:href="#m8a17d76282" y="169.833733"/>
     <use style="fill:#8c564b;stroke:#8c564b;" x="124.125629" xlink:href="#m8a17d76282" y="129.752627"/>
     <use style="fill:#8c564b;stroke:#8c564b;" x="147.6" xlink:href="#m8a17d76282" y="153.80129"/>
     <use style="fill:#8c564b;stroke:#8c564b;" x="171.074371" xlink:href="#m8a17d76282" y="79.651244"/>
     <use style="fill:#8c564b;stroke:#8c564b;" x="202.105803" xlink:href="#m8a17d76282" y="137.768848"/>
     <use style="fill:#8c564b;stroke:#8c564b;" x="225.580174" xlink:href="#m8a17d76282" y="147.789124"/>
     <use style="fill:#8c564b;stroke:#8c564b;" x="249.054545" xlink:href="#m8a17d76282" y="139.772903"/>
    </g>
   </g>
   <g id="line2d_39">
    <path clip-path="url(#p45f0eaa120)" d="M 46.145455 199.894562 
L 69.619826 165.825622 
L 93.094197 143.781014 
L 124.125629 93.679631 
L 147.6 125.744516 
L 171.074371 43.578249 
L 202.105803 83.659355 
L 225.580174 101.695853 
L 249.054545 77.647189 
" style="fill:none;stroke:#e377c2;stroke-linecap:square;stroke-width:1.5;"/>
    <defs>
     <path d="M 0 2 
C 0.530406 2 1.03916 1.789267 1.414214 1.414214 
C 1.789267 1.03916 2 0.530406 2 0 
C 2 -0.530406 1.789267 -1.03916 1.414214 -1.414214 
C 1.03916 -1.789267 0.530406 -2 0 -2 
C -0.530406 -2 -1.03916 -1.789267 -1.414214 -1.414214 
C -1.789267 -1.03916 -2 -0.530406 -2 0 
C -2 0.530406 -1.789267 1.03916 -1.414214 1.414214 
C -1.03916 1.789267 -0.530406 2 0 2 
z
" id="mf60c26d117" style="stroke:#e377c2;"/>
    </defs>
    <g clip-path="url(#p45f0eaa120)">
     <use style="fill:#e377c2;stroke:#e377c2;" x="46.145455" xlink:href="#mf60c26d117" y="199.894562"/>
     <use style="fill:#e377c2;stroke:#e377c2;" x="69.619826" xlink:href="#mf60c26d117" y="165.825622"/>
     <use style="fill:#e377c2;stroke:#e377c2;" x="93.094197" xlink:href="#mf60c26d117" y="143.781014"/>
     <use style="fill:#e377c2;stroke:#e377c2;" x="124.125629" xlink:href="#mf60c26d117" y="93.679631"/>
     <use style="fill:#e377c2;stroke:#e377c2;" x="147.6" xlink:href="#mf60c26d117" y="125.744516"/>
     <use style="fill:#e377c2;stroke:#e377c2;" x="171.074371" xlink:href="#mf60c26d117" y="43.578249"/>
     <use style="fill:#e377c2;stroke:#e377c2;" x="202.105803" xlink:href="#mf60c26d117" y="83.659355"/>
     <use style="fill:#e377c2;stroke:#e377c2;" x="225.580174" xlink:href="#mf60c26d117" y="101.695853"/>
     <use style="fill:#e377c2;stroke:#e377c2;" x="249.054545" xlink:href="#mf60c26d117" y="77.647189"/>
    </g>
   </g>
   <g id="patch_3">
    <path d="M 36 252 
L 36 34.56 
" style="fill:none;stroke:#000000;stroke-linecap:square;stroke-linejoin:miter;stroke-width:0.8;"/>
   </g>
   <g id="patch_4">
    <path d="M 259.2 252 
L 259.2 34.56 
" style="fill:none;stroke:#000000;stroke-linecap:square;stroke-linejoin:miter;stroke-width:0.8;"/>
   </g>
   <g id="patch_5">
    <path d="M 36 252 
L 259.2 252 
" style="fill:none;stroke:#000000;stroke-linecap:square;stroke-linejoin:miter;stroke-width:0.8;"/>
   </g>
   <g id="patch_6">
    <path d="M 36 34.56 
L 259.2 34.56 
" style="fill:none;stroke:#000000;stroke-linecap:square;stroke-linejoin:miter;stroke-width:0.8;"/>
   </g>
   <g id="legend_1">
    <g id="line2d_40">
     <path d="M 45 47.658437 
L 65 47.658437 
" style="fill:none;stroke:#1f77b4;stroke-linecap:square;stroke-width:1.5;"/>
    </g>
    <g id="line2d_41">
     <g>
      <use style="fill:#1f77b4;stroke:#1f77b4;" x="55" xlink:href="#me4133a92c0" y="47.658437"/>
     </g>
    </g>
    <g id="text_12">
     <!-- 0.75 -->
     <g transform="translate(73 51.158437)scale(0.1 -0.1)">
      <defs>
       <path d="M 684 794 
L 1344 794 
L 1344 0 
L 684 0 
L 684 794 
z
" id="DejaVuSans-2e" transform="scale(0.015625)"/>
       <path d="M 525 4666 
L 3525 4666 
L 3525 4397 
L 1831 0 
L 1172 0 
L 2766 4134 
L 525 4134 
L 525 4666 
z
" id="DejaVuSans-37" transform="scale(0.015625)"/>
      </defs>
      <use xlink:href="#DejaVuSans-30"/>
      <use x="63.623047" xlink:href="#DejaVuSans-2e"/>
      <use x="95.410156" xlink:href="#DejaVuSans-37"/>
      <use x="159.033203" xlink:href="#DejaVuSans-35"/>
     </g>
    </g>
    <g id="line2d_42">
     <path d="M 45 62.336563 
L 65 62.336563 
" style="fill:none;stroke:#ff7f0e;stroke-linecap:square;stroke-width:1.5;"/>
    </g>
    <g id="line2d_43">
     <g>
      <use style="fill:#ff7f0e;stroke:#ff7f0e;" x="55" xlink:href="#m775447e0db" y="62.336563"/>
     </g>
    </g>
    <g id="text_13">
     <!-- 0.9 -->
     <g transform="translate(73 65.836563)scale(0.1 -0.1)">
      <defs>
       <path d="M 703 97 
L 703 672 
Q 941 559 1184 500 
Q 1428 441 1663 441 
Q 2288 441 2617 861 
Q 2947 1281 2994 2138 
Q 2813 1869 2534 1725 
Q 2256 1581 1919 1581 
Q 1219 1581 811 2004 
Q 403 2428 403 3163 
Q 403 3881 828 4315 
Q 1253 4750 1959 4750 
Q 2769 4750 3195 4129 
Q 3622 3509 3622 2328 
Q 3622 1225 3098 567 
Q 2575 -91 1691 -91 
Q 1453 -91 1209 -44 
Q 966 3 703 97 
z
M 1959 2075 
Q 2384 2075 2632 2365 
Q 2881 2656 2881 3163 
Q 2881 3666 2632 3958 
Q 2384 4250 1959 4250 
Q 1534 4250 1286 3958 
Q 1038 3666 1038 3163 
Q 1038 2656 1286 2365 
Q 1534 2075 1959 2075 
z
" id="DejaVuSans-39" transform="scale(0.015625)"/>
      </defs>
      <use xlink:href="#DejaVuSans-30"/>
      <use x="63.623047" xlink:href="#DejaVuSans-2e"/>
      <use x="95.410156" xlink:href="#DejaVuSans-39"/>
     </g>
    </g>
    <g id="line2d_44">
     <path d="M 45 77.014687 
L 65 77.014687 
" style="fill:none;stroke:#2ca02c;stroke-linecap:square;stroke-width:1.5;"/>
    </g>
    <g id="line2d_45">
     <g>
      <use style="fill:#2ca02c;stroke:#2ca02c;" x="55" xlink:href="#md15c4f62d3" y="77.014687"/>
     </g>
    </g>
    <g id="text_14">
     <!-- 0.91 -->
     <g transform="translate(73 80.514687)scale(0.1 -0.1)">
      <use xlink:href="#DejaVuSans-30"/>
      <use x="63.623047" xlink:href="#DejaVuSans-2e"/>
      <use x="95.410156" xlink:href="#DejaVuSans-39"/>
      <use x="159.033203" xlink:href="#DejaVuSans-31"/>
     </g>
    </g>
    <g id="line2d_46">
     <path d="M 45 91.692813 
L 65 91.692813 
" style="fill:none;stroke:#d62728;stroke-linecap:square;stroke-width:1.5;"/>
    </g>
    <g id="line2d_47">
     <g>
      <use style="fill:#d62728;stroke:#d62728;" x="55" xlink:href="#ma81b708f9e" y="91.692813"/>
     </g>
    </g>
    <g id="text_15">
     <!-- 0.92 -->
     <g transform="translate(73 95.192813)scale(0.1 -0.1)">
      <use xlink:href="#DejaVuSans-30"/>
      <use x="63.623047" xlink:href="#DejaVuSans-2e"/>
      <use x="95.410156" xlink:href="#DejaVuSans-39"/>
      <use x="159.033203" xlink:href="#DejaVuSans-32"/>
     </g>
    </g>
    <g id="line2d_48">
     <path d="M 45 106.370937 
L 65 106.370937 
" style="fill:none;stroke:#9467bd;stroke-linecap:square;stroke-width:1.5;"/>
    </g>
    <g id="line2d_49">
     <g>
      <use style="fill:#9467bd;stroke:#9467bd;" x="55" xlink:href="#m59486657bf" y="106.370937"/>
     </g>
    </g>
    <g id="text_16">
     <!-- 0.93 -->
     <g transform="translate(73 109.870937)scale(0.1 -0.1)">
      <use xlink:href="#DejaVuSans-30"/>
      <use x="63.623047" xlink:href="#DejaVuSans-2e"/>
      <use x="95.410156" xlink:href="#DejaVuSans-39"/>
      <use x="159.033203" xlink:href="#DejaVuSans-33"/>
     </g>
    </g>
    <g id="line2d_50">
     <path d="M 45 121.049062 
L 65 121.049062 
" style="fill:none;stroke:#8c564b;stroke-linecap:square;stroke-width:1.5;"/>
    </g>
    <g id="line2d_51">
     <g>
      <use style="fill:#8c564b;stroke:#8c564b;" x="55" xlink:href="#m8a17d76282" y="121.049062"/>
     </g>
    </g>
    <g id="text_17">
     <!-- 0.94 -->
     <g transform="translate(73 124.549062)scale(0.1 -0.1)">
      <use xlink:href="#DejaVuSans-30"/>
      <use x="63.623047" xlink:href="#DejaVuSans-2e"/>
      <use x="95.410156" xlink:href="#DejaVuSans-39"/>
      <use x="159.033203" xlink:href="#DejaVuSans-34"/>
     </g>
    </g>
    <g id="line2d_52">
     <path d="M 45 135.727187 
L 65 135.727187 
" style="fill:none;stroke:#e377c2;stroke-linecap:square;stroke-width:1.5;"/>
    </g>
    <g id="line2d_53">
     <g>
      <use style="fill:#e377c2;stroke:#e377c2;" x="55" xlink:href="#mf60c26d117" y="135.727187"/>
     </g>
    </g>
    <g id="text_18">
     <!-- 0.95 -->
     <g transform="translate(73 139.227187)scale(0.1 -0.1)">
      <use xlink:href="#DejaVuSans-30"/>
      <use x="63.623047" xlink:href="#DejaVuSans-2e"/>
      <use x="95.410156" xlink:href="#DejaVuSans-39"/>
      <use x="159.033203" xlink:href="#DejaVuSans-35"/>
     </g>
    </g>
   </g>
  </g>
 </g>
 <defs>
  <clipPath id="p45f0eaa120">
   <rect height="217.44" width="223.2" x="36" y="34.56"/>
  </clipPath>
 </defs>
</svg>
