<?xml version="1.0" encoding="utf-8" standalone="no"?>
<!DOCTYPE svg PUBLIC "-//W3C//DTD SVG 1.1//EN"
  "http://www.w3.org/Graphics/SVG/1.1/DTD/svg11.dtd">
<svg height="216pt" version="1.1" viewBox="0 0 216 216" width="216pt" xmlns="http://www.w3.org/2000/svg" xmlns:xlink="http://www.w3.org/1999/xlink">
 <metadata>
  <rdf:RDF xmlns:cc="http://creativecommons.org/ns#" xmlns:dc="http://purl.org/dc/elements/1.1/" xmlns:rdf="http://www.w3.org/1999/02/22-rdf-syntax-ns#">
   <cc:Work>
    <dc:type rdf:resource="http://purl.org/dc/dcmitype/StillImage"/>
    <dc:date>2022-03-09T11:15:35.862466</dc:date>
    <dc:format>image/svg+xml</dc:format>
    <dc:creator>
     <cc:Agent>
      <dc:title>Matplotlib v3.4.3, https://matplotlib.org/</dc:title>
     </cc:Agent>
    </dc:creator>
   </cc:Work>
  </rdf:RDF>
 </metadata>
 <defs>
  <style type="text/css">*{stroke-linecap:butt;stroke-linejoin:round;}</style>
 </defs>
 <g id="figure_1">
  <g id="patch_1">
   <path d="M 0 216 
L 216 216 
L 216 0 
L 0 0 
z
" style="fill:#ffffff;"/>
  </g>
  <g id="axes_1">
   <g id="patch_2">
    <path d="M 27 189 
L 194.4 189 
L 194.4 25.92 
L 27 25.92 
z
" style="fill:#ffffff;"/>
   </g>
   <g id="matplotlib.axis_1">
    <g id="xtick_1">
     <g id="line2d_1">
      <defs>
       <path d="M 0 0 
L 0 3.5 
" id="mb37c469c33" style="stroke:#000000;stroke-width:0.8;"/>
      </defs>
      <g>
       <use style="stroke:#000000;stroke-width:0.8;" x="27" xlink:href="#mb37c469c33" y="189"/>
      </g>
     </g>
     <g id="text_1">
      <!-- 0 -->
      <g transform="translate(23.81875 203.598437)scale(0.1 -0.1)">
       <defs>
        <path d="M 2034 4250 
Q 1547 4250 1301 3770 
Q 1056 3291 1056 2328 
Q 1056 1369 1301 889 
Q 1547 409 2034 409 
Q 2525 409 2770 889 
Q 3016 1369 3016 2328 
Q 3016 3291 2770 3770 
Q 2525 4250 2034 4250 
z
M 2034 4750 
Q 2819 4750 3233 4129 
Q 3647 3509 3647 2328 
Q 3647 1150 3233 529 
Q 2819 -91 2034 -91 
Q 1250 -91 836 529 
Q 422 1150 422 2328 
Q 422 3509 836 4129 
Q 1250 4750 2034 4750 
z
" id="DejaVuSans-30" transform="scale(0.015625)"/>
       </defs>
       <use xlink:href="#DejaVuSans-30"/>
      </g>
     </g>
    </g>
    <g id="xtick_2">
     <g id="line2d_2">
      <g>
       <use style="stroke:#000000;stroke-width:0.8;" x="60.48" xlink:href="#mb37c469c33" y="189"/>
      </g>
     </g>
     <g id="text_2">
      <!-- 200 -->
      <g transform="translate(50.93625 203.598437)scale(0.1 -0.1)">
       <defs>
        <path d="M 1228 531 
L 3431 531 
L 3431 0 
L 469 0 
L 469 531 
Q 828 903 1448 1529 
Q 2069 2156 2228 2338 
Q 2531 2678 2651 2914 
Q 2772 3150 2772 3378 
Q 2772 3750 2511 3984 
Q 2250 4219 1831 4219 
Q 1534 4219 1204 4116 
Q 875 4013 500 3803 
L 500 4441 
Q 881 4594 1212 4672 
Q 1544 4750 1819 4750 
Q 2544 4750 2975 4387 
Q 3406 4025 3406 3419 
Q 3406 3131 3298 2873 
Q 3191 2616 2906 2266 
Q 2828 2175 2409 1742 
Q 1991 1309 1228 531 
z
" id="DejaVuSans-32" transform="scale(0.015625)"/>
       </defs>
       <use xlink:href="#DejaVuSans-32"/>
       <use x="63.623047" xlink:href="#DejaVuSans-30"/>
       <use x="127.246094" xlink:href="#DejaVuSans-30"/>
      </g>
     </g>
    </g>
    <g id="xtick_3">
     <g id="line2d_3">
      <g>
       <use style="stroke:#000000;stroke-width:0.8;" x="93.96" xlink:href="#mb37c469c33" y="189"/>
      </g>
     </g>
     <g id="text_3">
      <!-- 400 -->
      <g transform="translate(84.41625 203.598437)scale(0.1 -0.1)">
       <defs>
        <path d="M 2419 4116 
L 825 1625 
L 2419 1625 
L 2419 4116 
z
M 2253 4666 
L 3047 4666 
L 3047 1625 
L 3713 1625 
L 3713 1100 
L 3047 1100 
L 3047 0 
L 2419 0 
L 2419 1100 
L 313 1100 
L 313 1709 
L 2253 4666 
z
" id="DejaVuSans-34" transform="scale(0.015625)"/>
       </defs>
       <use xlink:href="#DejaVuSans-34"/>
       <use x="63.623047" xlink:href="#DejaVuSans-30"/>
       <use x="127.246094" xlink:href="#DejaVuSans-30"/>
      </g>
     </g>
    </g>
    <g id="xtick_4">
     <g id="line2d_4">
      <g>
       <use style="stroke:#000000;stroke-width:0.8;" x="127.44" xlink:href="#mb37c469c33" y="189"/>
      </g>
     </g>
     <g id="text_4">
      <!-- 600 -->
      <g transform="translate(117.89625 203.598437)scale(0.1 -0.1)">
       <defs>
        <path d="M 2113 2584 
Q 1688 2584 1439 2293 
Q 1191 2003 1191 1497 
Q 1191 994 1439 701 
Q 1688 409 2113 409 
Q 2538 409 2786 701 
Q 3034 994 3034 1497 
Q 3034 2003 2786 2293 
Q 2538 2584 2113 2584 
z
M 3366 4563 
L 3366 3988 
Q 3128 4100 2886 4159 
Q 2644 4219 2406 4219 
Q 1781 4219 1451 3797 
Q 1122 3375 1075 2522 
Q 1259 2794 1537 2939 
Q 1816 3084 2150 3084 
Q 2853 3084 3261 2657 
Q 3669 2231 3669 1497 
Q 3669 778 3244 343 
Q 2819 -91 2113 -91 
Q 1303 -91 875 529 
Q 447 1150 447 2328 
Q 447 3434 972 4092 
Q 1497 4750 2381 4750 
Q 2619 4750 2861 4703 
Q 3103 4656 3366 4563 
z
" id="DejaVuSans-36" transform="scale(0.015625)"/>
       </defs>
       <use xlink:href="#DejaVuSans-36"/>
       <use x="63.623047" xlink:href="#DejaVuSans-30"/>
       <use x="127.246094" xlink:href="#DejaVuSans-30"/>
      </g>
     </g>
    </g>
    <g id="xtick_5">
     <g id="line2d_5">
      <g>
       <use style="stroke:#000000;stroke-width:0.8;" x="160.92" xlink:href="#mb37c469c33" y="189"/>
      </g>
     </g>
     <g id="text_5">
      <!-- 800 -->
      <g transform="translate(151.37625 203.598437)scale(0.1 -0.1)">
       <defs>
        <path d="M 2034 2216 
Q 1584 2216 1326 1975 
Q 1069 1734 1069 1313 
Q 1069 891 1326 650 
Q 1584 409 2034 409 
Q 2484 409 2743 651 
Q 3003 894 3003 1313 
Q 3003 1734 2745 1975 
Q 2488 2216 2034 2216 
z
M 1403 2484 
Q 997 2584 770 2862 
Q 544 3141 544 3541 
Q 544 4100 942 4425 
Q 1341 4750 2034 4750 
Q 2731 4750 3128 4425 
Q 3525 4100 3525 3541 
Q 3525 3141 3298 2862 
Q 3072 2584 2669 2484 
Q 3125 2378 3379 2068 
Q 3634 1759 3634 1313 
Q 3634 634 3220 271 
Q 2806 -91 2034 -91 
Q 1263 -91 848 271 
Q 434 634 434 1313 
Q 434 1759 690 2068 
Q 947 2378 1403 2484 
z
M 1172 3481 
Q 1172 3119 1398 2916 
Q 1625 2713 2034 2713 
Q 2441 2713 2670 2916 
Q 2900 3119 2900 3481 
Q 2900 3844 2670 4047 
Q 2441 4250 2034 4250 
Q 1625 4250 1398 4047 
Q 1172 3844 1172 3481 
z
" id="DejaVuSans-38" transform="scale(0.015625)"/>
       </defs>
       <use xlink:href="#DejaVuSans-38"/>
       <use x="63.623047" xlink:href="#DejaVuSans-30"/>
       <use x="127.246094" xlink:href="#DejaVuSans-30"/>
      </g>
     </g>
    </g>
    <g id="xtick_6">
     <g id="line2d_6">
      <g>
       <use style="stroke:#000000;stroke-width:0.8;" x="194.4" xlink:href="#mb37c469c33" y="189"/>
      </g>
     </g>
     <g id="text_6">
      <!-- 1000 -->
      <g transform="translate(181.675 203.598437)scale(0.1 -0.1)">
       <defs>
        <path d="M 794 531 
L 1825 531 
L 1825 4091 
L 703 3866 
L 703 4441 
L 1819 4666 
L 2450 4666 
L 2450 531 
L 3481 531 
L 3481 0 
L 794 0 
L 794 531 
z
" id="DejaVuSans-31" transform="scale(0.015625)"/>
       </defs>
       <use xlink:href="#DejaVuSans-31"/>
       <use x="63.623047" xlink:href="#DejaVuSans-30"/>
       <use x="127.246094" xlink:href="#DejaVuSans-30"/>
       <use x="190.869141" xlink:href="#DejaVuSans-30"/>
      </g>
     </g>
    </g>
    <g id="text_7">
     <!-- Epoch -->
     <g transform="translate(95.389062 217.276563)scale(0.1 -0.1)">
      <defs>
       <path d="M 628 4666 
L 3578 4666 
L 3578 4134 
L 1259 4134 
L 1259 2753 
L 3481 2753 
L 3481 2222 
L 1259 2222 
L 1259 531 
L 3634 531 
L 3634 0 
L 628 0 
L 628 4666 
z
" id="DejaVuSans-45" transform="scale(0.015625)"/>
       <path d="M 1159 525 
L 1159 -1331 
L 581 -1331 
L 581 3500 
L 1159 3500 
L 1159 2969 
Q 1341 3281 1617 3432 
Q 1894 3584 2278 3584 
Q 2916 3584 3314 3078 
Q 3713 2572 3713 1747 
Q 3713 922 3314 415 
Q 2916 -91 2278 -91 
Q 1894 -91 1617 61 
Q 1341 213 1159 525 
z
M 3116 1747 
Q 3116 2381 2855 2742 
Q 2594 3103 2138 3103 
Q 1681 3103 1420 2742 
Q 1159 2381 1159 1747 
Q 1159 1113 1420 752 
Q 1681 391 2138 391 
Q 2594 391 2855 752 
Q 3116 1113 3116 1747 
z
" id="DejaVuSans-70" transform="scale(0.015625)"/>
       <path d="M 1959 3097 
Q 1497 3097 1228 2736 
Q 959 2375 959 1747 
Q 959 1119 1226 758 
Q 1494 397 1959 397 
Q 2419 397 2687 759 
Q 2956 1122 2956 1747 
Q 2956 2369 2687 2733 
Q 2419 3097 1959 3097 
z
M 1959 3584 
Q 2709 3584 3137 3096 
Q 3566 2609 3566 1747 
Q 3566 888 3137 398 
Q 2709 -91 1959 -91 
Q 1206 -91 779 398 
Q 353 888 353 1747 
Q 353 2609 779 3096 
Q 1206 3584 1959 3584 
z
" id="DejaVuSans-6f" transform="scale(0.015625)"/>
       <path d="M 3122 3366 
L 3122 2828 
Q 2878 2963 2633 3030 
Q 2388 3097 2138 3097 
Q 1578 3097 1268 2742 
Q 959 2388 959 1747 
Q 959 1106 1268 751 
Q 1578 397 2138 397 
Q 2388 397 2633 464 
Q 2878 531 3122 666 
L 3122 134 
Q 2881 22 2623 -34 
Q 2366 -91 2075 -91 
Q 1284 -91 818 406 
Q 353 903 353 1747 
Q 353 2603 823 3093 
Q 1294 3584 2113 3584 
Q 2378 3584 2631 3529 
Q 2884 3475 3122 3366 
z
" id="DejaVuSans-63" transform="scale(0.015625)"/>
       <path d="M 3513 2113 
L 3513 0 
L 2938 0 
L 2938 2094 
Q 2938 2591 2744 2837 
Q 2550 3084 2163 3084 
Q 1697 3084 1428 2787 
Q 1159 2491 1159 1978 
L 1159 0 
L 581 0 
L 581 4863 
L 1159 4863 
L 1159 2956 
Q 1366 3272 1645 3428 
Q 1925 3584 2291 3584 
Q 2894 3584 3203 3211 
Q 3513 2838 3513 2113 
z
" id="DejaVuSans-68" transform="scale(0.015625)"/>
      </defs>
      <use xlink:href="#DejaVuSans-45"/>
      <use x="63.183594" xlink:href="#DejaVuSans-70"/>
      <use x="126.660156" xlink:href="#DejaVuSans-6f"/>
      <use x="187.841797" xlink:href="#DejaVuSans-63"/>
      <use x="242.822266" xlink:href="#DejaVuSans-68"/>
     </g>
    </g>
   </g>
   <g id="matplotlib.axis_2">
    <g id="ytick_1">
     <g id="line2d_7">
      <defs>
       <path d="M 0 0 
L -3.5 0 
" id="m07ebee7ae1" style="stroke:#000000;stroke-width:0.8;"/>
      </defs>
      <g>
       <use style="stroke:#000000;stroke-width:0.8;" x="27" xlink:href="#m07ebee7ae1" y="189"/>
      </g>
     </g>
     <g id="text_8">
      <!-- $\mathdefault{10^{-6}}$ -->
      <g transform="translate(-3.5 192.799219)scale(0.1 -0.1)">
       <defs>
        <path d="M 678 2272 
L 4684 2272 
L 4684 1741 
L 678 1741 
L 678 2272 
z
" id="DejaVuSans-2212" transform="scale(0.015625)"/>
       </defs>
       <use transform="translate(0 0.765625)" xlink:href="#DejaVuSans-31"/>
       <use transform="translate(63.623047 0.765625)" xlink:href="#DejaVuSans-30"/>
       <use transform="translate(128.203125 39.046875)scale(0.7)" xlink:href="#DejaVuSans-2212"/>
       <use transform="translate(186.855469 39.046875)scale(0.7)" xlink:href="#DejaVuSans-36"/>
      </g>
     </g>
    </g>
    <g id="ytick_2">
     <g id="line2d_8">
      <g>
       <use style="stroke:#000000;stroke-width:0.8;" x="27" xlink:href="#m07ebee7ae1" y="161.82"/>
      </g>
     </g>
     <g id="text_9">
      <!-- $\mathdefault{10^{-5}}$ -->
      <g transform="translate(-3.5 165.619219)scale(0.1 -0.1)">
       <defs>
        <path d="M 691 4666 
L 3169 4666 
L 3169 4134 
L 1269 4134 
L 1269 2991 
Q 1406 3038 1543 3061 
Q 1681 3084 1819 3084 
Q 2600 3084 3056 2656 
Q 3513 2228 3513 1497 
Q 3513 744 3044 326 
Q 2575 -91 1722 -91 
Q 1428 -91 1123 -41 
Q 819 9 494 109 
L 494 744 
Q 775 591 1075 516 
Q 1375 441 1709 441 
Q 2250 441 2565 725 
Q 2881 1009 2881 1497 
Q 2881 1984 2565 2268 
Q 2250 2553 1709 2553 
Q 1456 2553 1204 2497 
Q 953 2441 691 2322 
L 691 4666 
z
" id="DejaVuSans-35" transform="scale(0.015625)"/>
       </defs>
       <use transform="translate(0 0.684375)" xlink:href="#DejaVuSans-31"/>
       <use transform="translate(63.623047 0.684375)" xlink:href="#DejaVuSans-30"/>
       <use transform="translate(128.203125 38.965625)scale(0.7)" xlink:href="#DejaVuSans-2212"/>
       <use transform="translate(186.855469 38.965625)scale(0.7)" xlink:href="#DejaVuSans-35"/>
      </g>
     </g>
    </g>
    <g id="ytick_3">
     <g id="line2d_9">
      <g>
       <use style="stroke:#000000;stroke-width:0.8;" x="27" xlink:href="#m07ebee7ae1" y="134.64"/>
      </g>
     </g>
     <g id="text_10">
      <!-- $\mathdefault{10^{-4}}$ -->
      <g transform="translate(-3.5 138.439219)scale(0.1 -0.1)">
       <use transform="translate(0 0.684375)" xlink:href="#DejaVuSans-31"/>
       <use transform="translate(63.623047 0.684375)" xlink:href="#DejaVuSans-30"/>
       <use transform="translate(128.203125 38.965625)scale(0.7)" xlink:href="#DejaVuSans-2212"/>
       <use transform="translate(186.855469 38.965625)scale(0.7)" xlink:href="#DejaVuSans-34"/>
      </g>
     </g>
    </g>
    <g id="ytick_4">
     <g id="line2d_10">
      <g>
       <use style="stroke:#000000;stroke-width:0.8;" x="27" xlink:href="#m07ebee7ae1" y="107.46"/>
      </g>
     </g>
     <g id="text_11">
      <!-- $\mathdefault{10^{-3}}$ -->
      <g transform="translate(-3.5 111.259219)scale(0.1 -0.1)">
       <defs>
        <path d="M 2597 2516 
Q 3050 2419 3304 2112 
Q 3559 1806 3559 1356 
Q 3559 666 3084 287 
Q 2609 -91 1734 -91 
Q 1441 -91 1130 -33 
Q 819 25 488 141 
L 488 750 
Q 750 597 1062 519 
Q 1375 441 1716 441 
Q 2309 441 2620 675 
Q 2931 909 2931 1356 
Q 2931 1769 2642 2001 
Q 2353 2234 1838 2234 
L 1294 2234 
L 1294 2753 
L 1863 2753 
Q 2328 2753 2575 2939 
Q 2822 3125 2822 3475 
Q 2822 3834 2567 4026 
Q 2313 4219 1838 4219 
Q 1578 4219 1281 4162 
Q 984 4106 628 3988 
L 628 4550 
Q 988 4650 1302 4700 
Q 1616 4750 1894 4750 
Q 2613 4750 3031 4423 
Q 3450 4097 3450 3541 
Q 3450 3153 3228 2886 
Q 3006 2619 2597 2516 
z
" id="DejaVuSans-33" transform="scale(0.015625)"/>
       </defs>
       <use transform="translate(0 0.765625)" xlink:href="#DejaVuSans-31"/>
       <use transform="translate(63.623047 0.765625)" xlink:href="#DejaVuSans-30"/>
       <use transform="translate(128.203125 39.046875)scale(0.7)" xlink:href="#DejaVuSans-2212"/>
       <use transform="translate(186.855469 39.046875)scale(0.7)" xlink:href="#DejaVuSans-33"/>
      </g>
     </g>
    </g>
    <g id="ytick_5">
     <g id="line2d_11">
      <g>
       <use style="stroke:#000000;stroke-width:0.8;" x="27" xlink:href="#m07ebee7ae1" y="80.28"/>
      </g>
     </g>
     <g id="text_12">
      <!-- $\mathdefault{10^{-2}}$ -->
      <g transform="translate(-3.5 84.079219)scale(0.1 -0.1)">
       <use transform="translate(0 0.765625)" xlink:href="#DejaVuSans-31"/>
       <use transform="translate(63.623047 0.765625)" xlink:href="#DejaVuSans-30"/>
       <use transform="translate(128.203125 39.046875)scale(0.7)" xlink:href="#DejaVuSans-2212"/>
       <use transform="translate(186.855469 39.046875)scale(0.7)" xlink:href="#DejaVuSans-32"/>
      </g>
     </g>
    </g>
    <g id="ytick_6">
     <g id="line2d_12">
      <g>
       <use style="stroke:#000000;stroke-width:0.8;" x="27" xlink:href="#m07ebee7ae1" y="53.1"/>
      </g>
     </g>
     <g id="text_13">
      <!-- $\mathdefault{10^{-1}}$ -->
      <g transform="translate(-3.5 56.899219)scale(0.1 -0.1)">
       <use transform="translate(0 0.684375)" xlink:href="#DejaVuSans-31"/>
       <use transform="translate(63.623047 0.684375)" xlink:href="#DejaVuSans-30"/>
       <use transform="translate(128.203125 38.965625)scale(0.7)" xlink:href="#DejaVuSans-2212"/>
       <use transform="translate(186.855469 38.965625)scale(0.7)" xlink:href="#DejaVuSans-31"/>
      </g>
     </g>
    </g>
    <g id="ytick_7">
     <g id="line2d_13">
      <g>
       <use style="stroke:#000000;stroke-width:0.8;" x="27" xlink:href="#m07ebee7ae1" y="25.92"/>
      </g>
     </g>
     <g id="text_14">
      <!-- $\mathdefault{10^{0}}$ -->
      <g transform="translate(2.4 29.719219)scale(0.1 -0.1)">
       <use transform="translate(0 0.765625)" xlink:href="#DejaVuSans-31"/>
       <use transform="translate(63.623047 0.765625)" xlink:href="#DejaVuSans-30"/>
       <use transform="translate(128.203125 39.046875)scale(0.7)" xlink:href="#DejaVuSans-30"/>
      </g>
     </g>
    </g>
    <g id="ytick_8">
     <g id="line2d_14">
      <defs>
       <path d="M 0 0 
L -2 0 
" id="mde33fd2888" style="stroke:#000000;stroke-width:0.6;"/>
      </defs>
      <g>
       <use style="stroke:#000000;stroke-width:0.6;" x="27" xlink:href="#mde33fd2888" y="180.818005"/>
      </g>
     </g>
    </g>
    <g id="ytick_9">
     <g id="line2d_15">
      <g>
       <use style="stroke:#000000;stroke-width:0.6;" x="27" xlink:href="#mde33fd2888" y="176.031844"/>
      </g>
     </g>
    </g>
    <g id="ytick_10">
     <g id="line2d_16">
      <g>
       <use style="stroke:#000000;stroke-width:0.6;" x="27" xlink:href="#mde33fd2888" y="172.636009"/>
      </g>
     </g>
    </g>
    <g id="ytick_11">
     <g id="line2d_17">
      <g>
       <use style="stroke:#000000;stroke-width:0.6;" x="27" xlink:href="#mde33fd2888" y="170.001995"/>
      </g>
     </g>
    </g>
    <g id="ytick_12">
     <g id="line2d_18">
      <g>
       <use style="stroke:#000000;stroke-width:0.6;" x="27" xlink:href="#mde33fd2888" y="167.849849"/>
      </g>
     </g>
    </g>
    <g id="ytick_13">
     <g id="line2d_19">
      <g>
       <use style="stroke:#000000;stroke-width:0.6;" x="27" xlink:href="#mde33fd2888" y="166.030235"/>
      </g>
     </g>
    </g>
    <g id="ytick_14">
     <g id="line2d_20">
      <g>
       <use style="stroke:#000000;stroke-width:0.6;" x="27" xlink:href="#mde33fd2888" y="164.454014"/>
      </g>
     </g>
    </g>
    <g id="ytick_15">
     <g id="line2d_21">
      <g>
       <use style="stroke:#000000;stroke-width:0.6;" x="27" xlink:href="#mde33fd2888" y="163.063689"/>
      </g>
     </g>
    </g>
    <g id="ytick_16">
     <g id="line2d_22">
      <g>
       <use style="stroke:#000000;stroke-width:0.6;" x="27" xlink:href="#mde33fd2888" y="153.638005"/>
      </g>
     </g>
    </g>
    <g id="ytick_17">
     <g id="line2d_23">
      <g>
       <use style="stroke:#000000;stroke-width:0.6;" x="27" xlink:href="#mde33fd2888" y="148.851844"/>
      </g>
     </g>
    </g>
    <g id="ytick_18">
     <g id="line2d_24">
      <g>
       <use style="stroke:#000000;stroke-width:0.6;" x="27" xlink:href="#mde33fd2888" y="145.456009"/>
      </g>
     </g>
    </g>
    <g id="ytick_19">
     <g id="line2d_25">
      <g>
       <use style="stroke:#000000;stroke-width:0.6;" x="27" xlink:href="#mde33fd2888" y="142.821995"/>
      </g>
     </g>
    </g>
    <g id="ytick_20">
     <g id="line2d_26">
      <g>
       <use style="stroke:#000000;stroke-width:0.6;" x="27" xlink:href="#mde33fd2888" y="140.669849"/>
      </g>
     </g>
    </g>
    <g id="ytick_21">
     <g id="line2d_27">
      <g>
       <use style="stroke:#000000;stroke-width:0.6;" x="27" xlink:href="#mde33fd2888" y="138.850235"/>
      </g>
     </g>
    </g>
    <g id="ytick_22">
     <g id="line2d_28">
      <g>
       <use style="stroke:#000000;stroke-width:0.6;" x="27" xlink:href="#mde33fd2888" y="137.274014"/>
      </g>
     </g>
    </g>
    <g id="ytick_23">
     <g id="line2d_29">
      <g>
       <use style="stroke:#000000;stroke-width:0.6;" x="27" xlink:href="#mde33fd2888" y="135.883689"/>
      </g>
     </g>
    </g>
    <g id="ytick_24">
     <g id="line2d_30">
      <g>
       <use style="stroke:#000000;stroke-width:0.6;" x="27" xlink:href="#mde33fd2888" y="126.458005"/>
      </g>
     </g>
    </g>
    <g id="ytick_25">
     <g id="line2d_31">
      <g>
       <use style="stroke:#000000;stroke-width:0.6;" x="27" xlink:href="#mde33fd2888" y="121.671844"/>
      </g>
     </g>
    </g>
    <g id="ytick_26">
     <g id="line2d_32">
      <g>
       <use style="stroke:#000000;stroke-width:0.6;" x="27" xlink:href="#mde33fd2888" y="118.276009"/>
      </g>
     </g>
    </g>
    <g id="ytick_27">
     <g id="line2d_33">
      <g>
       <use style="stroke:#000000;stroke-width:0.6;" x="27" xlink:href="#mde33fd2888" y="115.641995"/>
      </g>
     </g>
    </g>
    <g id="ytick_28">
     <g id="line2d_34">
      <g>
       <use style="stroke:#000000;stroke-width:0.6;" x="27" xlink:href="#mde33fd2888" y="113.489849"/>
      </g>
     </g>
    </g>
    <g id="ytick_29">
     <g id="line2d_35">
      <g>
       <use style="stroke:#000000;stroke-width:0.6;" x="27" xlink:href="#mde33fd2888" y="111.670235"/>
      </g>
     </g>
    </g>
    <g id="ytick_30">
     <g id="line2d_36">
      <g>
       <use style="stroke:#000000;stroke-width:0.6;" x="27" xlink:href="#mde33fd2888" y="110.094014"/>
      </g>
     </g>
    </g>
    <g id="ytick_31">
     <g id="line2d_37">
      <g>
       <use style="stroke:#000000;stroke-width:0.6;" x="27" xlink:href="#mde33fd2888" y="108.703689"/>
      </g>
     </g>
    </g>
    <g id="ytick_32">
     <g id="line2d_38">
      <g>
       <use style="stroke:#000000;stroke-width:0.6;" x="27" xlink:href="#mde33fd2888" y="99.278005"/>
      </g>
     </g>
    </g>
    <g id="ytick_33">
     <g id="line2d_39">
      <g>
       <use style="stroke:#000000;stroke-width:0.6;" x="27" xlink:href="#mde33fd2888" y="94.491844"/>
      </g>
     </g>
    </g>
    <g id="ytick_34">
     <g id="line2d_40">
      <g>
       <use style="stroke:#000000;stroke-width:0.6;" x="27" xlink:href="#mde33fd2888" y="91.096009"/>
      </g>
     </g>
    </g>
    <g id="ytick_35">
     <g id="line2d_41">
      <g>
       <use style="stroke:#000000;stroke-width:0.6;" x="27" xlink:href="#mde33fd2888" y="88.461995"/>
      </g>
     </g>
    </g>
    <g id="ytick_36">
     <g id="line2d_42">
      <g>
       <use style="stroke:#000000;stroke-width:0.6;" x="27" xlink:href="#mde33fd2888" y="86.309849"/>
      </g>
     </g>
    </g>
    <g id="ytick_37">
     <g id="line2d_43">
      <g>
       <use style="stroke:#000000;stroke-width:0.6;" x="27" xlink:href="#mde33fd2888" y="84.490235"/>
      </g>
     </g>
    </g>
    <g id="ytick_38">
     <g id="line2d_44">
      <g>
       <use style="stroke:#000000;stroke-width:0.6;" x="27" xlink:href="#mde33fd2888" y="82.914014"/>
      </g>
     </g>
    </g>
    <g id="ytick_39">
     <g id="line2d_45">
      <g>
       <use style="stroke:#000000;stroke-width:0.6;" x="27" xlink:href="#mde33fd2888" y="81.523689"/>
      </g>
     </g>
    </g>
    <g id="ytick_40">
     <g id="line2d_46">
      <g>
       <use style="stroke:#000000;stroke-width:0.6;" x="27" xlink:href="#mde33fd2888" y="72.098005"/>
      </g>
     </g>
    </g>
    <g id="ytick_41">
     <g id="line2d_47">
      <g>
       <use style="stroke:#000000;stroke-width:0.6;" x="27" xlink:href="#mde33fd2888" y="67.311844"/>
      </g>
     </g>
    </g>
    <g id="ytick_42">
     <g id="line2d_48">
      <g>
       <use style="stroke:#000000;stroke-width:0.6;" x="27" xlink:href="#mde33fd2888" y="63.916009"/>
      </g>
     </g>
    </g>
    <g id="ytick_43">
     <g id="line2d_49">
      <g>
       <use style="stroke:#000000;stroke-width:0.6;" x="27" xlink:href="#mde33fd2888" y="61.281995"/>
      </g>
     </g>
    </g>
    <g id="ytick_44">
     <g id="line2d_50">
      <g>
       <use style="stroke:#000000;stroke-width:0.6;" x="27" xlink:href="#mde33fd2888" y="59.129849"/>
      </g>
     </g>
    </g>
    <g id="ytick_45">
     <g id="line2d_51">
      <g>
       <use style="stroke:#000000;stroke-width:0.6;" x="27" xlink:href="#mde33fd2888" y="57.310235"/>
      </g>
     </g>
    </g>
    <g id="ytick_46">
     <g id="line2d_52">
      <g>
       <use style="stroke:#000000;stroke-width:0.6;" x="27" xlink:href="#mde33fd2888" y="55.734014"/>
      </g>
     </g>
    </g>
    <g id="ytick_47">
     <g id="line2d_53">
      <g>
       <use style="stroke:#000000;stroke-width:0.6;" x="27" xlink:href="#mde33fd2888" y="54.343689"/>
      </g>
     </g>
    </g>
    <g id="ytick_48">
     <g id="line2d_54">
      <g>
       <use style="stroke:#000000;stroke-width:0.6;" x="27" xlink:href="#mde33fd2888" y="44.918005"/>
      </g>
     </g>
    </g>
    <g id="ytick_49">
     <g id="line2d_55">
      <g>
       <use style="stroke:#000000;stroke-width:0.6;" x="27" xlink:href="#mde33fd2888" y="40.131844"/>
      </g>
     </g>
    </g>
    <g id="ytick_50">
     <g id="line2d_56">
      <g>
       <use style="stroke:#000000;stroke-width:0.6;" x="27" xlink:href="#mde33fd2888" y="36.736009"/>
      </g>
     </g>
    </g>
    <g id="ytick_51">
     <g id="line2d_57">
      <g>
       <use style="stroke:#000000;stroke-width:0.6;" x="27" xlink:href="#mde33fd2888" y="34.101995"/>
      </g>
     </g>
    </g>
    <g id="ytick_52">
     <g id="line2d_58">
      <g>
       <use style="stroke:#000000;stroke-width:0.6;" x="27" xlink:href="#mde33fd2888" y="31.949849"/>
      </g>
     </g>
    </g>
    <g id="ytick_53">
     <g id="line2d_59">
      <g>
       <use style="stroke:#000000;stroke-width:0.6;" x="27" xlink:href="#mde33fd2888" y="30.130235"/>
      </g>
     </g>
    </g>
    <g id="ytick_54">
     <g id="line2d_60">
      <g>
       <use style="stroke:#000000;stroke-width:0.6;" x="27" xlink:href="#mde33fd2888" y="28.554014"/>
      </g>
     </g>
    </g>
    <g id="ytick_55">
     <g id="line2d_61">
      <g>
       <use style="stroke:#000000;stroke-width:0.6;" x="27" xlink:href="#mde33fd2888" y="27.163689"/>
      </g>
     </g>
    </g>
    <g id="text_15">
     <!-- Loss -->
     <g transform="translate(-9.579688 118.427188)rotate(-90)scale(0.1 -0.1)">
      <defs>
       <path d="M 628 4666 
L 1259 4666 
L 1259 531 
L 3531 531 
L 3531 0 
L 628 0 
L 628 4666 
z
" id="DejaVuSans-4c" transform="scale(0.015625)"/>
       <path d="M 2834 3397 
L 2834 2853 
Q 2591 2978 2328 3040 
Q 2066 3103 1784 3103 
Q 1356 3103 1142 2972 
Q 928 2841 928 2578 
Q 928 2378 1081 2264 
Q 1234 2150 1697 2047 
L 1894 2003 
Q 2506 1872 2764 1633 
Q 3022 1394 3022 966 
Q 3022 478 2636 193 
Q 2250 -91 1575 -91 
Q 1294 -91 989 -36 
Q 684 19 347 128 
L 347 722 
Q 666 556 975 473 
Q 1284 391 1588 391 
Q 1994 391 2212 530 
Q 2431 669 2431 922 
Q 2431 1156 2273 1281 
Q 2116 1406 1581 1522 
L 1381 1569 
Q 847 1681 609 1914 
Q 372 2147 372 2553 
Q 372 3047 722 3315 
Q 1072 3584 1716 3584 
Q 2034 3584 2315 3537 
Q 2597 3491 2834 3397 
z
" id="DejaVuSans-73" transform="scale(0.015625)"/>
      </defs>
      <use xlink:href="#DejaVuSans-4c"/>
      <use x="53.962891" xlink:href="#DejaVuSans-6f"/>
      <use x="115.144531" xlink:href="#DejaVuSans-73"/>
      <use x="167.244141" xlink:href="#DejaVuSans-73"/>
     </g>
    </g>
   </g>
   <g id="line2d_62">
    <path clip-path="url(#p001b47b5ba)" d="M 27 41.792047 
L 27.3348 38.974372 
L 27.5022 39.492115 
L 27.6696 38.730978 
L 27.837 39.29216 
L 28.0044 38.155728 
L 28.1718 39.160158 
L 28.5066 39.029483 
L 28.674 39.160592 
L 29.0088 41.793969 
L 29.1762 41.794392 
L 29.3436 43.370319 
L 29.511 43.370869 
L 29.6784 45.190209 
L 30.1806 40.859305 
L 30.348 40.709671 
L 30.5154 39.438448 
L 30.6828 39.439534 
L 31.0176 39.577662 
L 31.185 39.579149 
L 31.3524 39.446331 
L 31.6872 41.986561 
L 31.8546 43.590669 
L 32.022 42.164196 
L 32.1894 43.794036 
L 32.6916 43.805398 
L 32.859 43.619918 
L 33.0264 43.626883 
L 33.1938 43.823514 
L 33.3612 43.828456 
L 33.5286 43.645153 
L 33.8634 43.664598 
L 34.3656 43.1403 
L 34.533 41.777934 
L 34.7004 41.789331 
L 34.8678 40.42612 
L 35.0352 40.295894 
L 35.37 40.329295 
L 35.7048 38.150143 
L 36.0396 38.402644 
L 36.207 39.56013 
L 36.3744 39.702083 
L 36.5418 41.000179 
L 36.8766 41.183017 
L 37.5462 45.928468 
L 37.7136 45.755975 
L 38.2158 45.834879 
L 38.3832 45.675237 
L 38.718 45.959854 
L 38.8854 45.809149 
L 39.0528 46.045175 
L 39.3876 46.141613 
L 39.555 44.342619 
L 39.8898 44.414235 
L 40.0572 43.014268 
L 40.2246 42.924884 
L 40.392 42.984851 
L 40.7268 40.531686 
L 41.0616 40.533819 
L 41.229 41.879454 
L 41.5638 41.973012 
L 41.7312 43.49207 
L 42.2334 44.018123 
L 42.4008 45.814623 
L 42.5682 44.3659 
L 42.903 44.617408 
L 43.2378 41.965651 
L 43.5726 42.065871 
L 43.74 40.939231 
L 43.9074 42.225671 
L 44.0748 41.091329 
L 44.2422 42.376035 
L 44.4096 41.234231 
L 44.577 41.222931 
L 44.9118 43.841895 
L 45.0792 42.57336 
L 45.5814 42.699144 
L 45.7488 44.105381 
L 45.9162 44.148717 
L 46.0836 45.737515 
L 46.251 44.372338 
L 46.5858 44.521477 
L 46.7532 46.090091 
L 46.9206 46.140259 
L 47.088 47.988478 
L 47.2554 48.070798 
L 47.4228 46.403697 
L 47.7576 46.47042 
L 47.925 48.326949 
L 48.2598 48.44445 
L 48.4272 46.822805 
L 48.9294 47.016396 
L 49.2642 47.189698 
L 49.7664 47.350351 
L 49.9338 45.896462 
L 50.2686 46.076653 
L 50.436 44.791964 
L 50.6034 44.837402 
L 50.7708 46.302691 
L 50.9382 45.038514 
L 51.1056 45.101109 
L 51.273 43.967687 
L 51.6078 44.136717 
L 51.7752 45.463854 
L 52.2774 45.709682 
L 52.4448 44.568816 
L 52.6122 45.900047 
L 53.1144 46.15616 
L 53.2818 47.645427 
L 53.4492 46.369282 
L 53.6166 46.418841 
L 53.784 47.90382 
L 54.4536 48.234956 
L 54.621 49.912185 
L 54.7884 48.45638 
L 54.9558 48.508443 
L 55.1232 50.188211 
L 55.2906 48.732288 
L 55.458 48.782327 
L 55.6254 47.498163 
L 55.7928 48.983724 
L 56.295 49.133389 
L 56.4624 50.802699 
L 56.6298 50.862791 
L 56.7972 49.416814 
L 56.9646 51.087876 
L 57.132 49.640907 
L 57.2994 51.321139 
L 57.4668 49.866131 
L 57.6342 49.918474 
L 57.8016 48.643579 
L 58.3038 48.79769 
L 58.4712 50.259512 
L 58.6386 50.301058 
L 58.806 51.968154 
L 58.9734 52.030483 
L 59.1408 53.948547 
L 59.3082 54.024527 
L 59.4756 56.246079 
L 59.8104 52.618793 
L 60.48 52.866533 
L 60.6474 51.443449 
L 61.1496 51.600945 
L 61.317 51.783651 
L 61.4844 53.419943 
L 61.6518 53.446503 
L 61.8192 52.065539 
L 61.9866 52.123264 
L 62.154 50.87625 
L 62.3214 52.344604 
L 62.8236 52.548971 
L 62.991 54.145863 
L 63.3258 54.305399 
L 63.4932 56.188305 
L 63.6606 56.259389 
L 63.828 58.391411 
L 64.1628 58.471563 
L 64.4976 54.947591 
L 64.9998 55.228294 
L 65.3346 55.27949 
L 65.502 53.946056 
L 65.8368 53.983805 
L 66.1716 57.472773 
L 66.6738 57.432263 
L 67.3434 57.986237 
L 67.5108 56.472175 
L 68.1804 56.690254 
L 68.6826 53.067737 
L 68.85 54.368584 
L 69.0174 54.423813 
L 69.1848 55.871459 
L 69.3522 55.84643 
L 69.5196 54.661078 
L 69.8544 54.917159 
L 70.3566 59.607646 
L 70.524 58.077045 
L 70.6914 58.143119 
L 70.8588 56.79918 
L 71.0262 56.952215 
L 71.1936 58.433276 
L 71.5284 58.443735 
L 71.8632 56.028303 
L 72.0306 56.076951 
L 72.198 57.3719 
L 72.3654 57.429789 
L 72.5328 58.985801 
L 72.7002 57.669202 
L 73.2024 58.061407 
L 73.5372 61.14688 
L 73.872 61.441534 
L 74.0394 59.913552 
L 75.0438 60.373642 
L 75.2112 59.160937 
L 75.546 59.268573 
L 75.7134 60.834457 
L 75.8808 59.495556 
L 76.0482 61.069335 
L 76.2156 60.997086 
L 76.383 61.194695 
L 76.5504 61.121292 
L 76.7178 61.181134 
L 77.22 61.656347 
L 77.3874 61.727168 
L 77.5548 63.525644 
L 77.7222 63.437845 
L 78.057 63.599962 
L 78.3918 63.936239 
L 78.5592 66.006544 
L 78.894 66.185938 
L 79.0614 66.060903 
L 79.2288 66.142641 
L 79.5636 66.747121 
L 79.731 66.611294 
L 79.8984 66.692113 
L 80.0658 66.560121 
L 80.568 66.795457 
L 80.7354 67.098686 
L 81.0702 63.844508 
L 81.2376 63.739938 
L 81.7398 64.285226 
L 81.9072 62.991534 
L 82.242 63.126618 
L 82.4094 61.99719 
L 82.9116 62.662085 
L 83.079 62.555916 
L 83.2464 61.563283 
L 83.4138 61.627966 
L 83.5812 62.910143 
L 83.916 61.040032 
L 84.0834 61.250251 
L 84.4182 63.707173 
L 84.5856 63.566818 
L 84.753 62.793246 
L 85.0878 63.069926 
L 85.2552 62.928843 
L 85.4226 63.126475 
L 85.7574 65.683683 
L 85.9248 64.625642 
L 86.0922 64.688878 
L 86.2596 64.98856 
L 86.427 66.320523 
L 86.5944 66.513545 
L 86.7618 66.316576 
L 86.9292 66.654081 
L 87.0966 68.121669 
L 87.264 66.897686 
L 87.5988 67.118768 
L 87.7662 66.916667 
L 87.9336 66.973952 
L 88.101 66.78061 
L 88.2684 68.162957 
L 88.6032 68.327468 
L 88.7706 67.135535 
L 88.938 68.518791 
L 89.1054 67.320058 
L 89.2728 68.703399 
L 89.4402 68.818551 
L 89.6076 67.61125 
L 89.775 67.935992 
L 90.1098 68.087972 
L 90.2772 66.973623 
L 90.4446 68.264443 
L 90.612 67.147557 
L 90.7794 68.443944 
L 90.9468 67.327 
L 91.1142 67.599829 
L 91.2816 68.702014 
L 91.6164 68.810468 
L 91.7838 67.90982 
L 91.9512 69.019942 
L 92.1186 68.864621 
L 92.286 68.995404 
L 92.4534 68.849142 
L 92.6208 70.036385 
L 92.9556 70.197029 
L 93.123 70.061571 
L 93.2904 70.115509 
L 93.4578 71.630662 
L 93.6252 71.968917 
L 93.7926 70.872049 
L 93.96 72.256596 
L 94.2948 72.720638 
L 94.4622 72.584212 
L 94.6296 71.440361 
L 94.797 71.540325 
L 95.1318 71.332326 
L 95.4666 71.522227 
L 95.634 71.790747 
L 95.8014 71.847708 
L 95.9688 70.778599 
L 96.1362 71.013744 
L 96.3036 72.485576 
L 96.471 71.372647 
L 96.6384 71.453185 
L 96.9732 69.368158 
L 97.1406 70.478379 
L 97.308 70.528956 
L 97.4754 70.444875 
L 97.6428 71.796374 
L 97.8102 70.648962 
L 97.9776 70.569347 
L 98.145 71.902488 
L 98.3124 72.114717 
L 98.4798 73.46295 
L 98.8146 73.8599 
L 98.982 72.551 
L 99.1494 72.765073 
L 99.3168 71.5832 
L 99.6516 71.770754 
L 99.9864 69.74565 
L 100.4886 70.073968 
L 100.656 71.218712 
L 100.8234 71.140078 
L 101.6604 76.873009 
L 102.33 77.049619 
L 102.4974 75.746938 
L 102.8322 75.889434 
L 102.9996 75.803109 
L 103.167 74.630568 
L 103.5018 74.493781 
L 103.6692 75.8495 
L 104.1714 76.098378 
L 104.5062 76.345039 
L 104.6736 75.127767 
L 104.841 76.537332 
L 105.5106 76.848412 
L 105.678 75.580708 
L 105.8454 75.679555 
L 106.0128 74.445218 
L 106.1802 74.4185 
L 106.3476 75.712829 
L 107.0172 76.24711 
L 107.1846 76.222958 
L 107.5194 79.590467 
L 108.189 80.104742 
L 108.3564 78.455865 
L 108.5238 78.498043 
L 108.6912 77.062514 
L 109.026 77.212997 
L 109.1934 75.944425 
L 109.3608 77.36857 
L 109.6956 77.373529 
L 109.863 76.120029 
L 110.0304 77.458876 
L 110.1978 77.500648 
L 110.3652 79.091304 
L 110.5326 79.149896 
L 110.7 77.789199 
L 110.8674 79.397615 
L 111.3696 79.702561 
L 111.537 81.579018 
L 111.7044 81.782341 
L 111.8718 80.21372 
L 112.2066 80.366393 
L 112.374 80.576399 
L 112.5414 79.190912 
L 112.8762 79.239362 
L 113.0436 78.026158 
L 113.211 78.014664 
L 113.3784 76.932836 
L 113.5458 77.084817 
L 113.8806 77.07335 
L 114.3828 77.491929 
L 114.5502 76.508915 
L 114.885 76.752179 
L 115.2198 79.157926 
L 115.5546 79.354825 
L 115.8894 82.395533 
L 116.0568 81.003452 
L 116.2242 81.148873 
L 116.3916 82.763776 
L 116.7264 80.167276 
L 117.0612 80.218311 
L 117.2286 79.099302 
L 117.5634 79.139353 
L 117.7308 80.418043 
L 118.0656 80.595774 
L 118.4004 83.627729 
L 118.5678 83.753643 
L 118.7352 82.39301 
L 118.9026 83.959265 
L 119.07 82.584757 
L 119.4048 82.671477 
L 119.5722 84.288158 
L 119.7396 82.844165 
L 119.907 82.886865 
L 120.2418 80.4663 
L 120.4092 81.753661 
L 120.5766 80.653706 
L 120.744 81.950031 
L 121.2462 82.027119 
L 121.4136 83.457777 
L 121.581 83.502104 
L 121.7484 85.114903 
L 122.0832 85.30356 
L 122.2506 87.158607 
L 122.5854 87.258882 
L 122.7528 85.645581 
L 123.255 85.771445 
L 123.4224 84.308003 
L 123.5898 85.919078 
L 124.2594 85.980726 
L 124.4268 87.761469 
L 124.929 87.894803 
L 125.0964 90.0331 
L 125.2638 88.050109 
L 125.5986 88.120157 
L 125.766 86.427064 
L 126.4356 86.660548 
L 126.7704 83.874655 
L 126.9378 83.940396 
L 127.2726 81.742031 
L 127.44 82.905976 
L 128.1096 83.038604 
L 128.6118 87.377497 
L 128.9466 91.482025 
L 129.114 89.485738 
L 130.2858 89.852201 
L 130.6206 89.966269 
L 130.788 92.185385 
L 131.2902 92.352794 
L 131.4576 90.319371 
L 131.625 90.363368 
L 131.7924 88.641388 
L 131.9598 88.675316 
L 132.462 84.706505 
L 132.7968 84.783482 
L 132.9642 83.745697 
L 133.1316 84.925503 
L 133.299 83.888337 
L 133.4664 85.070568 
L 133.8012 85.238457 
L 133.9686 86.556242 
L 134.3034 86.732948 
L 134.4708 86.774193 
L 134.6382 88.220178 
L 134.8056 88.274572 
L 134.973 89.904397 
L 135.1404 89.96705 
L 135.3078 88.494341 
L 135.6426 88.634599 
L 135.81 90.259299 
L 136.4796 90.427637 
L 136.8144 87.639638 
L 137.1492 90.70494 
L 137.9862 90.908566 
L 138.1536 89.416589 
L 138.4884 92.901189 
L 138.6558 92.944503 
L 138.8232 91.213271 
L 139.995 91.508861 
L 140.3298 88.678695 
L 140.4972 90.116071 
L 140.6646 88.787893 
L 140.832 88.813069 
L 141.3342 85.589471 
L 141.5016 86.657118 
L 141.669 85.691464 
L 141.8364 86.76137 
L 142.506 86.982576 
L 142.6734 88.15426 
L 142.8408 88.243469 
L 143.0082 89.538699 
L 143.6778 89.749319 
L 143.8452 88.56255 
L 144.0126 89.841924 
L 144.3474 89.881314 
L 144.5148 91.300185 
L 145.1844 91.434481 
L 145.3518 91.514592 
L 145.5192 93.129098 
L 145.6866 93.159706 
L 145.854 91.653644 
L 146.1888 91.71859 
L 146.3562 90.400807 
L 146.5236 90.425691 
L 146.691 91.846558 
L 147.0258 91.958375 
L 147.1932 90.624366 
L 147.8628 90.756357 
L 148.0302 92.179028 
L 148.5324 92.252947 
L 148.8672 95.702501 
L 149.0346 95.728464 
L 149.202 97.910254 
L 149.3694 95.841624 
L 150.039 95.9685 
L 150.2064 94.208734 
L 150.876 94.293568 
L 151.0434 96.136089 
L 151.713 96.215399 
L 151.8804 98.383547 
L 152.55 98.47339 
L 152.8848 94.631136 
L 154.224 94.788963 
L 154.5588 98.804824 
L 154.8936 98.860002 
L 155.061 96.770278 
L 155.5632 96.82596 
L 155.7306 95.056263 
L 156.4002 95.107923 
L 156.5676 93.574033 
L 156.735 95.1659 
L 156.9024 95.178004 
L 157.0698 93.647589 
L 157.2372 93.667238 
L 157.4046 95.259222 
L 157.7394 95.295913 
L 157.9068 93.765653 
L 158.0742 93.784563 
L 158.2416 95.377008 
L 158.5764 95.415186 
L 158.7438 97.25555 
L 159.4134 97.323197 
L 159.5808 99.492603 
L 160.083 99.539306 
L 160.2504 97.430655 
L 160.92 97.493361 
L 161.0874 95.714154 
L 161.4222 95.741787 
L 161.5896 94.204497 
L 161.757 94.220753 
L 161.9244 95.814493 
L 162.4266 95.85404 
L 162.594 94.31611 
L 163.431 94.421939 
L 163.7658 91.845894 
L 164.7702 91.934218 
L 164.9376 93.186752 
L 165.105 93.193383 
L 165.4398 96.182727 
L 165.7746 96.204752 
L 166.1094 100.182693 
L 166.2768 100.202106 
L 166.4442 98.095516 
L 166.779 98.11621 
L 166.9464 96.324199 
L 167.1138 96.327494 
L 167.2812 94.778351 
L 167.9508 94.803106 
L 168.1182 96.383988 
L 168.2856 96.392162 
L 168.453 94.84386 
L 168.6204 96.425533 
L 168.7878 96.433091 
L 168.9552 98.251662 
L 169.1226 98.265195 
L 169.29 96.470765 
L 169.9596 96.50116 
L 170.127 98.323143 
L 170.7966 98.351385 
L 170.964 100.49717 
L 171.1314 98.371964 
L 172.3032 98.407733 
L 172.4706 96.607788 
L 172.638 96.61126 
L 172.8054 98.423865 
L 172.9728 98.423525 
L 173.1402 96.628069 
L 173.9772 96.653577 
L 174.1446 98.467081 
L 174.6468 98.48377 
L 174.8142 100.625687 
L 175.3164 100.637503 
L 175.4838 98.507177 
L 175.8186 98.512247 
L 175.986 96.713594 
L 176.823 96.725876 
L 176.9904 95.16507 
L 177.1578 96.735966 
L 177.8274 96.754539 
L 177.9948 95.190289 
L 178.497 95.199104 
L 178.6644 96.76983 
L 179.334 96.785647 
L 179.5014 95.220176 
L 179.6688 96.79038 
L 179.8362 95.224941 
L 180.3384 95.228216 
L 180.5058 93.849079 
L 180.8406 93.851012 
L 181.1754 96.800725 
L 181.3428 96.802348 
L 181.5102 98.61367 
L 181.6776 96.813281 
L 181.845 96.819318 
L 182.0124 95.257116 
L 182.682 95.264887 
L 183.0168 92.64963 
L 183.1842 92.647261 
L 183.3516 93.885157 
L 183.519 93.882548 
L 183.8538 96.836848 
L 184.0212 96.83341 
L 184.1886 95.272013 
L 184.356 95.274495 
L 184.6908 98.651007 
L 184.8582 98.654228 
L 185.0256 96.85212 
L 185.5278 96.853808 
L 185.6952 95.291082 
L 185.8626 96.857231 
L 186.03 95.292905 
L 186.5322 95.295401 
L 186.6996 96.865949 
L 187.3692 96.868027 
L 187.5366 95.305286 
L 187.704 96.871469 
L 187.8714 95.307129 
L 188.7084 95.313785 
L 188.8758 93.934364 
L 189.2106 96.888145 
L 189.378 96.890907 
L 189.5454 98.703469 
L 189.8802 95.327302 
L 190.3824 95.330306 
L 190.5498 96.898575 
L 190.7172 95.331327 
L 191.889 95.343311 
L 192.0564 93.962176 
L 192.2238 93.961579 
L 192.3912 95.344273 
L 192.8934 95.342897 
L 193.2282 98.717661 
L 193.563 98.719914 
L 193.7304 100.853192 
L 194.2326 100.86018 
L 194.2326 100.86018 
" style="fill:none;stroke:#1f77b4;stroke-linecap:square;stroke-width:1.5;"/>
   </g>
   <g id="line2d_63">
    <path clip-path="url(#p001b47b5ba)" d="M 27 47.132766 
L 194.4 47.132766 
" style="fill:none;stroke:#000000;stroke-dasharray:5.55,2.4;stroke-dashoffset:0;stroke-width:1.5;"/>
   </g>
   <g id="patch_3">
    <path d="M 27 189 
L 27 25.92 
" style="fill:none;stroke:#000000;stroke-linecap:square;stroke-linejoin:miter;stroke-width:0.8;"/>
   </g>
   <g id="patch_4">
    <path d="M 194.4 189 
L 194.4 25.92 
" style="fill:none;stroke:#000000;stroke-linecap:square;stroke-linejoin:miter;stroke-width:0.8;"/>
   </g>
   <g id="patch_5">
    <path d="M 27 189 
L 194.4 189 
" style="fill:none;stroke:#000000;stroke-linecap:square;stroke-linejoin:miter;stroke-width:0.8;"/>
   </g>
   <g id="patch_6">
    <path d="M 27 25.92 
L 194.4 25.92 
" style="fill:none;stroke:#000000;stroke-linecap:square;stroke-linejoin:miter;stroke-width:0.8;"/>
   </g>
  </g>
 </g>
 <defs>
  <clipPath id="p001b47b5ba">
   <rect height="163.08" width="167.4" x="27" y="25.92"/>
  </clipPath>
 </defs>
</svg>
